/* XPM */
static char *e3cdff21e6c34dd4963a62d5e082fec1FdRTKufetg9Kw9YM[] = {
/* columns rows colors chars-per-pixel */
"32 32 5 1 ",
"  c #A8D8A0",
". c #C0A868",
"X c #D0C080",
"o c #E0D8A0",
"O c #A89048",
/* pixels */
"    .XXXXXXXXXXXXXXXXXooXXX.    ",
"    .XXXXXXXXXXXXoX.XXXXXXX.    ",
"  ..XXXXXXXXXoXXoXXX.XXXXXXX..  ",
"  .XXXXXoXXXXXXXX.X.XXXXXXXXX.  ",
"..XXXXXXXX.XXXXXXXXX.XXoXXXXXX..",
"XXXXXXXX.OXXXXXXXXX.XXXXXXXXXXXX",
"XXXXXXXXXXXXXXXXXXXXXXXXXXXXXXXX",
"XXXXXXXXXXXXXXXXXXXXXXXXXXXXXXXX",
"XXXXXXXXXXXXXXooXXXXXXXXXXXXXXoo",
"XXXXXXXXXoX.XXXXXXXXXXXXXoX.XXXX",
"XXXXXoXXoXXX.XXXXXXXXoXXoXXX.XXX",
"oXXXXXXXX.X.XXXXoXXXXXXXX.X.XXXX",
"XX.XXXXXXXXX.XXoXX.XXXXXXXXX.XXo",
".OXXXXXXXXX.XXXX.OXXXXXXXXX.XXXX",
"XXXXXXXXXXXXXXXXXXXXXXXXXXXXXXXX",
"XXXXXXXXXXXXXXXXXXXXXXXXXXXXXXXX",
"XXXXXXooXXXXXXXXXXXXXXooXXXXXXXX",
"XoX.XXXXXXXXXXXXXoX.XXXXXXXXXXXX",
"oXXX.XXXXXXXXoXXoXXX.XXXXXXXXoXX",
"X.X.XXXXoXXXXXXXX.X.XXXXoXXXXXXX",
"XXXX.XXoXX.XXXXXXXXX.XXoXX.XXXXX",
"XXX.XXXX.OXXXXXXXXX.XXXX.OXXXXXX",
"XXXXXXXXXXXXXXXXXXXXXXXXXXXXXXXX",
"XXXXXXXXXXXXXXXXXXXXXXXXXXXXXXXX",
"XXXXXXXXXXXXXXooXXXXXXXXXXXXXXXX",
"XXXXXXXXXoX.XXXXXXXXXXXXXXXXXXXX",
"XXXXXXXXoXXX.XXXXXXXXoXXXXXXXXXX",
"..XXXXXXX.X.XXXXoXXXXXXXXXXXXX..",
"  .XXXXXXXXX.XXoXX.XXXXXXXXXX.  ",
"  ..XXXXXXX.XXXX.OXXXXXXXXXX..  ",
"    .XXXXXXXXXXXXXXXXXXXXXX.    ",
"    .XXXXXXXXXXXXXXXXXXXXXX.    "
};
