/* XPM */
static char *_891247585b54096e7584842ceba1d20vzlMh0gGoOVFvsu8[] = {
/* columns rows colors chars-per-pixel */
"32 32 6 1 ",
"  c #A8D8A0",
". c #70C8A0",
"X c #C0A868",
"o c #D0C080",
"O c #E0D8A0",
"+ c #A89048",
/* pixels */
"  ....    ....    ....    ....  ",
"                                ",
"                                ",
"                                ",
" X    X  X    X  X    X  X    X ",
"XoX  XoXXoX  XoXXoX  XoXXoX  XoX",
"oooXXooooooXXooooooXXooooooXXooo",
"oooOoooooooooOoooooOoooooooooOoo",
"oooooOooooXoOooooooooOooooXoOooo",
"ooooXoOooo+oooooooooXoOooo+ooooo",
"oooooooooooXoooooooooooooooXoooo",
"ooXoXoXoooooooooooXoXoXooooooooo",
"oooXoXoooooooooooooXoXoooooooooo",
"oooooooooooooOoooooooooooooooOoo",
"oooooooOoooooooooooooooOoooooooo",
"oooOoooOoooooooooooOoooOoooooooo",
"ooXoOooooooooOooooXoOooooooooOoo",
"oo+oooooooooXoOooo+oooooooooXoOo",
"oooXoooooooooooooooXoooooooooooo",
"ooooooooooXoXoXoooooooooooXoXoXo",
"oooooooooooXoXoooooooooooooXoXoo",
"oooooOoooooooooooooooOoooooooooo",
"oooooooooooooooOoooooooooooooooO",
"oooooooooooOoooOoooooooooooOoooO",
"ooOoooooooooOoooooOoooooooooOooo",
"oooXXooooooXXooooooXXooooooXXooo",
"XoX  XoXXoX  XoXXoX  XoXXoX  XoX",
" X    X  X    X  X    X  X    X ",
"                                ",
"                                ",
"                                ",
"  ....    ....    ....    ....  "
};
