/* XPM */
static char *_b210c5310284da8d29538c33cfa7aecvLDUlW5SbrbY4OgR[] = {
/* columns rows colors chars-per-pixel */
"32 32 6 1 ",
"  c #A8D8A0",
". c #C0A868",
"X c #D0C080",
"o c #E0D8A0",
"O c #70C8A0",
"+ c #A89048",
/* pixels */
"     .XXXXXXXXXXXXXXXXooXX.     ",
"    .XXXXXXXXXXXXoX.XXXXXXX.    ",
"O    .XoXXXXXoXXoXXX.XXXXX.    O",
"O     .XoXXXXXXXX.X.XXXXo.     O",
"O     .XXX.XXXXXXXXX.XXoX.     O",
"O    .XX.+XXXXXXXXX.XXXXXX.    O",
"    .XXXXXXXXXXXXXXXXXXXXXX.    ",
"     .XXXXXXXXXXXXXXXXXXXX.     ",
"     .XXXXXXXXooXXXXXXXXXX.     ",
"    .XXXXoX.XXXXXXXXXXXXXXX.    ",
"O    .XXoXXX.XXXXXXXXoXXXX.    O",
"O     .XX.X.XXXXoXXXXXXXX.     O",
"O     .oXXXX.XXoXX.XXXXXX.     O",
"O    .XXXXX.XXXX.+XXXXXXoX.    O",
"    .XXXXXXXXXXXXXXXXXXXXXX.    ",
"     .XXXXXXXXXXXXXXXXXXXX.     ",
"     .XXXXXXXXXXXXXXXXooXX.     ",
"    .XXXXXXXXXXXXoX.XXXXXXX.    ",
"O    .XoXXXXXoXXoXXX.XXXXX.    O",
"O     .XoXXXXXXXX.X.XXXXo.     O",
"O     .XXX.XXXXXXXXX.XXoX.     O",
"O    .XX.+XXXXXXXXX.XXXXXX.    O",
"    .XXXXXXXXXXXXXXXXXXXXXX.    ",
"     .XXXXXXXXXXXXXXXXXXXX.     ",
"     .XXXXXXXXooXXXXXXXXXX.     ",
"    .XXXXoX.XXXXXXXXXXXXXXX.    ",
"O    .XXoXXX.XXXXXXXXoXXXX.    O",
"O     .XX.X.XXXXoXXXXXXXX.     O",
"O     .oXXXX.XXoXX.XXXXXX.     O",
"O    .XXXXX.XXXX.+XXXXXXoX.    O",
"    .XXXXXXXXXXXXXXXXXXXXXX.    ",
"     .XXXXXXXXXXXXXXXXXXXX.     "
};
