/* XPM */
static char *result[] = {
/* columns rows colors chars-per-pixel */
"64 64 177 2 ",
"   c #000000",
".  c #080803",
"X  c #18110D",
"o  c #16161C",
"O  c #1B1B1C",
"+  c #171617",
"@  c #2F160D",
"#  c #241313",
"$  c #251A16",
"%  c #3B1D15",
"&  c #391E1E",
"*  c #30150D",
"=  c #282515",
"-  c #393919",
";  c #39231F",
":  c #1B1B21",
">  c #232323",
",  c #26262E",
"<  c #2B2C2C",
"1  c #342525",
"2  c #3B3B22",
"3  c #3D3D2A",
"4  c #303025",
"5  c #282831",
"6  c #383834",
"7  c #501000",
"8  c #401D12",
"9  c #432118",
"0  c #49241A",
"q  c #6A2F1E",
"w  c #6A301E",
"e  c #412C22",
"r  c #552E2E",
"t  c #523A2B",
"y  c #583E2E",
"u  c #55352C",
"i  c #693324",
"p  c #763521",
"a  c #7B3722",
"s  c #623535",
"d  c #773F3F",
"f  c #424327",
"g  c #50523A",
"h  c #56493A",
"j  c #654637",
"k  c #724933",
"l  c #75523D",
"z  c #78543E",
"x  c #3C3C49",
"c  c #4B3840",
"v  c #454545",
"b  c #484247",
"n  c #5C444B",
"m  c #5A584F",
"M  c #474756",
"N  c #484858",
"B  c #4F4A54",
"V  c #505050",
"C  c #5E545C",
"Z  c #5F5F5F",
"A  c #514B55",
"S  c #6A4745",
"D  c #784040",
"F  c #724D4B",
"G  c #7F5146",
"H  c #62565C",
"J  c #6E5751",
"K  c #5E6150",
"L  c #696B5A",
"P  c #5C5D6A",
"I  c #535562",
"U  c #5C6162",
"Y  c #60606E",
"T  c #656968",
"R  c #766260",
"E  c #7F6861",
"W  c #787667",
"Q  c #656772",
"!  c #686875",
"~  c #666972",
"^  c #6D7279",
"/  c #737575",
"(  c #74777E",
")  c #87351F",
"_  c #8B3721",
"`  c #823E2A",
"'  c #904028",
"]  c #9B442C",
"[  c #9B4D33",
"{  c #984A34",
"}  c #835131",
"|  c #8C442F",
" . c #A54D34",
".. c #A5543C",
"X. c #B2553A",
"o. c #BE5C3F",
"O. c #864E4A",
"+. c #805A43",
"@. c #8B5A57",
"#. c #BD5D41",
"$. c #B45B41",
"%. c #A15F44",
"&. c #8C644D",
"*. c #976B4F",
"=. c #92664C",
"-. c #8A6857",
";. c #B26A4A",
":. c #A36755",
">. c #A76C59",
",. c #B17D5C",
"<. c #A57052",
"1. c #8B6D63",
"2. c #947265",
"3. c #947C75",
"4. c #A97968",
"5. c #B27C63",
"6. c #C05D40",
"7. c #CC6345",
"8. c #D76B4B",
"9. c #DD6E4F",
"0. c #DB6F50",
"q. c #C17B59",
"w. c #DF7050",
"e. c #E07050",
"r. c #7D847F",
"t. c #B7815F",
"y. c #AD8069",
"u. c #BA8361",
"i. c #B6886E",
"p. c #BB8771",
"a. c #BF8C74",
"s. c #C78966",
"d. c #D6966F",
"f. c #CC9775",
"g. c #D89971",
"h. c #DFA47C",
"j. c #E1A77F",
"k. c #7A7D85",
"l. c #7D8386",
"z. c #878E8E",
"x. c #808486",
"c. c #929281",
"v. c #868A99",
"b. c #889090",
"n. c #999999",
"m. c #959899",
"M. c #B49B94",
"N. c #9EA4B1",
"B. c #A9A9AC",
"V. c #A9A9B0",
"C. c #B4B4BA",
"Z. c #BDBDBD",
"A. c #B4B4B4",
"S. c #B9AAAA",
"D. c #E5AE86",
"F. c #E9B48C",
"G. c #ECB991",
"H. c #C5B2AD",
"J. c #CBBAB6",
"K. c #C7B1B1",
"L. c #F0C098",
"P. c #D0C1BD",
"I. c #C5C5BE",
"U. c #BDBEC3",
"Y. c #C4C4C5",
"T. c #C7C7CB",
"R. c #D3C5C1",
"E. c #C0C8D8",
"W. c #D0D0D0",
"Q. c #DFDFDB",
"!. c #DADAD5",
"~. c #E7E1DF",
"^. c #E2E2E2",
"/. c #ECEDED",
"(. c #FEFEFF",
"). c #F1F2F2",
"_. c None",
/* pixels */
"_._._._._._._._._._._._._._._._._._._._._._._._._._._._._._._._._._._._._._._._._._._._._._._._._._._._._._._._._._._._._._._._.",
"_._._._._._._._._._._._._._._._._._._._._._._._._._._._._._._._._._._._._._._._._._._._._._._._._._._._._._._._._._._._._._._._.",
"_._._._._._._._._._._._._._._._._._._._._._._._._._._._._._._._._._._._._._._._._._._._._._._._._._._._._._._._._._._._._._._._.",
"_._._._._._._._._._._._._._._._._._._._._._._._._._.! ~ ! Q ! Q Q Q ! Q Q U._._._._._._._._._._._._._._._._._._._._._._._._._._.",
"_._._._._._._._._._._._._._._._._._._._._._._._._._.I M M M N N N N N M M V._._._._._._._._._._._._._._._._._._._._._._._._._._.",
"_._._._._._._._._._._._._._._._._._._._._._._._._._.V M N N M M M N N M M V._._._._._._._._._._._._._._._._._._._._._._._._._._.",
"_._._._._._._._._._._._._._._._._._._._.W f - - - e b.b.b.b.b.z.b.b.b.b.b.K 2 - - f - !._._._._._._._._._._._._._._._._._._._._.",
"_._._._._._._._._._._._._._._._._._._._.W - - - - - b.b.b.b.b.b.b.b.b.b.b.K - - - - - !._._._._._._._._._._._._._._._._._._._._.",
"_._._._._._._._._._._._._._._._._._.Q.Q.L 2 2 f f f z.b.b.b.b.b.b.b.b.b.b.L f f 2 2 2 I.Q.Q._._._._._._._._._._._._._._._._._._.",
"_._._._._._._._._._._._._._._._._.c.- - v N N l.b.b.b.b.b.b.b.b.b.b.b.b.b.b.z.z.P N N 2 - - _._._._._._._._._._._._._._._._._._.",
"_._._._._._._._._._._._._._._._._.c.- - v N N l.b.b.b.b.b.b.b.b.b.b.b.b.b.b.b.b.U N N 2 - - _._._._._._._._._._._._._._._._._._.",
"_._._._._._._._._._._._._._.Q.A.A.W 3 3 v N N l.b.b.b.b.b.b.b.b.b.b.b.b.b.b.b.b.U N N 6 3 3 A.C.Z._._._._._._._._._._._._._._._.",
"_._._._._._._._._._._._._._.n.    , N N N N N l.b.b.b.b.b.b.b.b.b.b.b.b.b.b.b.b.Y N N N N N     > _._._._._._._._._._._._._._._.",
"_._._._._._._._._._._._._._.n.    , N N N N N l.b.b.b.b.b.b.b.b.b.b.b.b.b.b.b.b.P N N N N N     > _._._._._._._._._._._._._._._.",
"_._._._._._._._._._._._._._.n.    , N N N N N ~ ^ ^ b.b.b.b.b.b.b.b.b.b.b.k.^ ^ I N N N N N     > _._._._._._._._._._._._._._._.",
"_._._._._._._._._._._._._._.n.    , N N N N N N M M z.b.b.b.b.b.b.b.b.b.b.~ M M N N N N N N     > _._._._._._._._._._._._._._._.",
"_._._._._._._._._._._._._._.n.    , N N N N N N N N z.z.b.b.b.b.b.b.b.b.z.Q N N N N N N N N     > _._._._._._._._._._._._._._._.",
"_._._._._._._._._._._._._._.n.    , N N N N N N N N Y Q Q Q Q Q Q Y Q Q Q I N N N N N N N N     > _._._._._._._._._._._._._._._.",
"_._._._._._._._._._._._._._.n.    , N N N N N N N N N N M N N N N N N N N N N N N N N N N N     > _._._._._._._._._._._._._._._.",
"_._._._._._._._._._._._._._.n.    , N N N N N N N N N N N M N N N N N N N N N N M N N N N N     > _._._._._._._._._._._._._._._.",
"_._._._._._._._._._._._._._.S.r r 1 o + 4 2 3 3 2 3 3 3 3 3 3 3 3 3 3 3 2 3 3 3 3 3 3 : o + r r S _._._._._._._._._._._._._._._.",
"_._._._._._._._._._._._._._.K.D d &     = - - - - - - - - - - - - - - - - - - - - - - .     D D @._._._._._._._._._._._._._._._.",
"_._._._._._._._._._._._._._.J.D d &     = - - - - - - - - - - - - - - - - - - - - - - .     k D @._._._._._._._._._._._._._._._.",
"_._._._._._._._._._._.T.> > j s.s.%.a a @ . . T r.r.r.r.r.r.r.l.r.r.r.r.r.r.r.r.< . . w a ` s.s.5.> > U _._._._._._._._._._._._.",
"_._._._._._._._._._._.Z.    t g.g.;.' ' *     / b.b.b.b.b.b.b.b.b.b.b.b.b.b.b.b.<     a ' ' g.g.u.    v _._._._._._._._._._._._.",
"_._._._._._._._._._._.Z.    t g.g.;.' ' *     / b.b.b.b.b.b.b.b.b.b.b.b.b.b.b.b.<     a ' _ g.g.u.    v _._._._._._._._._._._._.",
"_._._._._._._._._._._.Z.    t g.g.;.' ' q.g.g.H N N N N N N M M M N N N N N M N y.g.g.[ ' ' g.g.u.    v _._._._._._._._._._._._.",
"_._._._._._._._._._._.Z.    t g.g.;.' ' q.g.d.H N N N N N N M M M M N N N N N N y.g.g.[ ' ' g.g.u.    v _._._._._._._._._._._._.",
"_._._._._._._._._._._.T.> > h t.t.%.[ [ s.g.h.R C C x x c P C C C C V x x B C C i.g.h.%.[ [ t.t.<.< > T _._._._._._._._._._._._.",
"_._._._._._._._._._._._._._.n.    l g.g.F.G.G.h.g.g..   X d.g.g.g.g.+.    z g.g.F.L.L.g.g.g.    > _._._._._._._._._._._._._._._.",
"_._._._._._._._._._._._._._.n.    l g.g.F.L.L.g.g.g..   X g.g.g.g.g.G     z g.g.F.L.G.h.g.g.    > _._._._._._._._._._._._._._._.",
"_._._._._._._._._._._._.H.H.3.0 9 k *.*.f.G.F.D.h.h.$ # 1 h.h.h.h.h.*.# # &.h.h.F.F.F.<.*.*.9 9 u H.H.R._._._._._._._._._._._._.",
"_._._._._._._._._._._.P.7 7 ) e.e.i     =.g.g.G.L.G.D D O.L.L.L.L.L.a.D D p.L.L.h.g.g.X     9.e.7.7 7 G _._._._._._._._._._._._.",
"_._._._._._._._._._._.P.7 7 ) e.e.i     =.g.g.G.L.G.O.k O.L.L.G.L.L.s.d D p.L.L.h.g.g.$     w.e.7.7 7 G _._._._._._._._._._._._.",
"_._._._._._._._._._._.R.7 7 ) 0.e.| 8 8 j z G 4.f.4.:.:.>.F.D.D.F.D.f.:.:.4.p.p.&.z G 0 9 8 9.e.7.7 7 G _._._._._._._._._._._._.",
"_._._._._._._._._._._.J.7 7 _ e.0.o.' ' *     s D D d.g.g.g.g.g.d.g.d.d.g.:.D D #     a ' ' w.e.7.7 7 G _._._._._._._._._._._._.",
"_._._._._._._._._._._.P.7 7 _ 0.e.X.' ' *     s D D d.g.g.g.g.g.g.d.g.g.g.:.d d #     a ' ' e.e.7.7 7 G _._._._._._._._._._._._.",
"_._._._._._._._._._._._.M.M.4._ _  .6.6.8     c n C u s y y y y y y y y y n n n #      .6.#._ _ | M.M.H._._._._._._._._._._._._.",
"_._._._._._._._._._._._._._.M.7 7 ] e.e.8 .   x N N                       5 N N o     ;.e.e.7 7 i _._._._._._._._._._._._._._._.",
"_._._._._._._._._._._._._._.M.7 7 ] e.e.e     x N N                       5 N N O     #.e.e.7 7 q _._._._._._._._._._._._._._._.",
"_._._._._._._._._._._._._._.^.J.J.1.% % V T T A N N .... .i w w q q ` ....F B N U T T e & % J.J.R._._._._._._._._._._._._._._._.",
"_._._._._._._._._._._._._._._._._./     U b.b.I N N 0.0.9._ ' ' ' ' X.e.e.@.N N k.z.z.+     _._._._._._._._._._._._._._._._._._.",
"_._._._._._._._._._._._._._._._._./     U b.b.I N N 0.e.8.' ' ' ' _ X.0.e.@.N N ( b.b.o     _._._._._._._._._._._._._._._._._._.",
"_._._._._._._._._._._._._._.U.P P B.^.^./.).).! N N 0.e.0.8.8.8.9.8.o.] ] S N N U.).).^.^.^.U P ^ _._._._._._._._._._._._._._._.",
"_._._._._._._._._._._._._._.C.N M V.(.(.(.(.(.! N N 9.e.e.e.e.e.e.e.6._ ' S M N T.(.(.(.(.(.N N Y _._._._._._._._._._._._._._._.",
"_._._._._._._._._._._._._._.C.N N V.(.(.(.(.(.! N N 8.0.e.0.0.0.0.0.6.' ' S M M T.(.(.(.(.(.N N Y _._._._._._._._._._._._._._._.",
"_._._._._._._._._._._._._._.C.N N v.E.E.E.E.E.g - - 0.e.8._ ' ' ' ' X.e.e.} - - n.E.E.E.E.E.N N Q _._._._._._._._._._._._._._._.",
"_._._._._._._._._._._._._._.C.N N v.E.E.E.E.E.g - - 9.e.9.' ' ' ' ' X.e.e.} - - n.E.E.E.E.E.N N P _._._._._._._._._._._._._._._.",
"_._._._._._._._._._._._._._.Y.! ! v.V.N.N.N.N.g 2 2 $.$.X.p p p p p | #.#.k 2 2 x.N.N.N.N.V.! ! k._._._._._._._._._._._._._._._.",
"_._._._._._._._._._._._._._._._._./           x N N                       5 N N +           _._._._._._._._._._._._._._._._._._.",
"_._._._._._._._._._._._._._._._._./           x N N                       5 N N o           _._._._._._._._._._._._._._._._._._.",
"_._._._._._._._._._._._._._._._._.n.V V o     J R R : : : o o : o o O o o b R R $     v V V _._._._._._._._._._._._._._._._._._.",
"_._._._._._._._._._._._._._._._._._._._.V     ,.d.g.A N N N N N N N N N N 2.g.g.e     W._._._._._._._._._._._._._._._._._._._._.",
"_._._._._._._._._._._._._._._._._._._._.V     ,.g.g.N N N N N N N N N N N 2.g.g.e .   W._._._._._._._._._._._._._._._._._._._._.",
"_._._._._._._._._._._._._._._._._._._._.V     R 2.2.1.1.1., , , 5 5 b 1.1.1.2.2.1     W._._._._._._._._._._._._._._._._._._._._.",
"_._._._._._._._._._._._._._._._._._._._.V     x M M d.g.u.          y g.d.1.N N o     W._._._._._._._._._._._._._._._._._._._._.",
"_._._._._._._._._._._._._._._._._._._._.V     x N N d.g.s.          y g.g.1.N N O     W._._._._._._._._._._._._._._._._._._._._.",
"_._._._._._._._._._._._._._._._._._._._.C.n.n.6 : : t t h n.n.n.n.n.W t u 1 : : / n.n._._._._._._._._._._._._._._._._._._._._._.",
"_._._._._._._._._._._._._._._._._._._._._._._.<         o _._._._._.m.          B._._._._._._._._._._._._._._._._._._._._._._._.",
"_._._._._._._._._._._._._._._._._._._._._._._.<         O _._._._._.m.          V._._._._._._._._._._._._._._._._._._._._._._._.",
"_._._._._._._._._._._._._._._._._._._._._._._.T.Z.Z.Z.Z.T._._._._._._.Z.Z.Z.Z.Z._._._._._._._._._._._._._._._._._._._._._._._._.",
"_._._._._._._._._._._._._._._._._._._._._._._._._._._._._._._._._._._._._._._._._._._._._._._._._._._._._._._._._._._._._._._._.",
"_._._._._._._._._._._._._._._._._._._._._._._._._._._._._._._._._._._._._._._._._._._._._._._._._._._._._._._._._._._._._._._._.",
"_._._._._._._._._._._._._._._._._._._._._._._._._._._._._._._._._._._._._._._._._._._._._._._._._._._._._._._._._._._._._._._._."
};
