/* XPM */
static char *result[] = {
/* columns rows colors chars-per-pixel */
"64 64 160 2 ",
"   c #000000",
".  c #0C0B0C",
"X  c #070708",
"o  c #100909",
"O  c #130805",
"+  c #1C140F",
"@  c #1A1A0B",
"#  c #0D0D10",
"$  c #1A1A1C",
"%  c #171814",
"&  c #210700",
"*  c #200802",
"=  c #360B00",
"-  c #3F0D00",
";  c #221A15",
":  c #3C1A11",
">  c #3B1F1E",
",  c #24240F",
"<  c #242414",
"1  c #2B2B12",
"2  c #2F2F1E",
"3  c #34221B",
"4  c #373718",
"5  c #383818",
"6  c #262626",
"7  c #22222A",
"8  c #27292C",
"9  c #2F2F2F",
"0  c #322820",
"q  c #3C2120",
"w  c #3B3B24",
"e  c #323220",
"r  c #2B2C34",
"t  c #2E2E39",
"y  c #2F3135",
"u  c #323435",
"i  c #34343F",
"p  c #3A3A3C",
"a  c #4D0F00",
"s  c #501000",
"d  c #5C1907",
"f  c #431D12",
"g  c #4B2115",
"h  c #622A1B",
"j  c #682E1D",
"k  c #7C321D",
"l  c #772F1B",
"z  c #552D2D",
"x  c #473225",
"c  c #493034",
"v  c #583A31",
"b  c #662E20",
"n  c #7A3D2B",
"m  c #683838",
"M  c #643636",
"N  c #733A38",
"B  c #69382B",
"V  c #42423F",
"C  c #494A31",
"Z  c #7B4B3E",
"A  c #3D3D42",
"S  c #4A3C46",
"D  c #3E4242",
"F  c #454544",
"G  c #44444A",
"H  c #5A484B",
"J  c #585B48",
"K  c #53544F",
"L  c #474755",
"P  c #484858",
"I  c #555555",
"U  c #52565D",
"Y  c #5C535B",
"T  c #674647",
"R  c #784040",
"E  c #7D4B43",
"W  c #7F5145",
"Q  c #7C584B",
"!  c #725356",
"~  c #6D5C57",
"^  c #5E6251",
"/  c #606454",
"(  c #5C5F67",
")  c #525261",
"_  c #5D606B",
"`  c #636662",
"'  c #6D7268",
"]  c #7A7A65",
"[  c #696D75",
"{  c #656972",
"}  c #6E7279",
"|  c #7C7C7C",
" . c gray44",
".. c #843B25",
"X. c #8B3B24",
"o. c #914128",
"O. c #9D482F",
"+. c #A04930",
"@. c #AF533A",
"#. c #B45338",
"$. c #C25C3F",
"%. c #8C544C",
"&. c #875A49",
"*. c #B75B41",
"=. c #95694D",
"-. c #97654D",
";. c #8B6157",
":. c #8B6258",
">. c #9B6D50",
",. c #9C6752",
"<. c #956C52",
"1. c #B37151",
"2. c #B6795F",
"3. c #B4775E",
"4. c #977269",
"5. c #A17D7B",
"6. c #B47C62",
"7. c #D06647",
"8. c #E07050",
"9. c #7A807B",
"0. c #80827D",
"q. c #A68569",
"w. c #BC866A",
"e. c #B88267",
"r. c #A18078",
"t. c #C7845F",
"y. c #C38566",
"u. c #C28B65",
"i. c #C58E6D",
"p. c #CB8F69",
"a. c #D4956E",
"s. c #D89870",
"d. c #7C8285",
"f. c #868686",
"g. c #828A8A",
"h. c #949483",
"j. c #989888",
"k. c #889090",
"l. c #9C9C9C",
"z. c #A58080",
"x. c #B89B99",
"c. c #A3A3A3",
"v. c #A5A5AA",
"b. c #B8B8AE",
"n. c #B7B7BC",
"m. c #B7B4B4",
"M. c #E3AB83",
"N. c #CAB7B7",
"B. c #F0C098",
"V. c #BBBBC0",
"C. c gray77",
"Z. c #C9C9C9",
"A. c #D8CCC9",
"S. c #D3D3CD",
"D. c #C0C8D8",
"F. c #D7D7D9",
"G. c #E4DBDB",
"H. c #E4E8EE",
"J. c white",
"K. c None",
/* pixels */
"K.K.K.K.K.K.K.K.K.K.K.K.K.K.K.K.K.K.K.K.K.K.K.K.K.K.K.K.K.K.K.K.K.K.K.K.K.K.K.K.K.K.K.K.K.K.K.K.K.K.K.K.K.K.K.K.K.K.K.K.K.K.K.K.",
"K.K.K.K.K.K.K.K.K.K.K.K.K.K.K.K.K.K.K.K.K.K.K.K.K.K.K.K.K.K.K.K.K.K.K.K.K.K.K.K.K.K.K.K.K.K.K.K.K.K.K.K.K.K.K.K.K.K.K.K.K.K.K.K.",
"K.K.K.K.K.K.K.K.K.K.K.K.K.K.K.K.K.K.K.K.K.K.K.K.K.K.K.K.K.K.K.K.K.K.K.K.K.K.K.K.K.K.K.K.K.K.K.K.K.K.K.K.K.K.K.K.K.K.K.K.K.K.K.K.",
"K.K.K.K.K.K.K.K.K.K.K.K.K.K.K.K.K.K.K.K.K.K.K.K.K.K.K.K.K.K.K.K.K.K.K.K.K.K.K.K.K.K.K.K.K.K.K.K.K.K.K.K.K.K.K.K.K.K.K.K.K.K.K.K.",
"K.K.K.K.K.K.K.K.K.K.K.K.K.K.K.K.K.K.K.K.K.K.K.K.K.F.n.n.n.n.n.n.n.n.n.n.V.K.K.K.K.K.K.K.K.K.K.K.K.K.K.K.K.K.K.K.K.K.K.K.K.K.K.K.",
"K.K.K.K.K.K.K.K.K.K.K.K.K.K.K.K.K.K.K.K.K.K.K.K.K.v.P P P P P P P P P P ) K.K.K.K.K.K.K.K.K.K.K.K.K.K.K.K.K.K.K.K.K.K.K.K.K.K.K.",
"K.K.K.K.K.K.K.K.K.K.K.K.K.K.K.K.K.K.K.K.K.K.K.K.K.v.L P P P P P P P P P ) K.K.K.K.K.K.K.K.K.K.K.K.K.K.K.K.K.K.K.K.K.K.K.K.K.K.K.",
"K.K.K.K.K.K.K.K.K.K.K.K.K.K.K.K.K.K.K.K.h.h.h.h.h.f.{ [ [ [ [ [ [ [ [ [ } h.h.h.h.h.b.K.K.K.K.K.K.K.K.K.K.K.K.K.K.K.K.K.K.K.K.K.",
"K.K.K.K.K.K.K.K.K.K.K.K.K.K.K.K.K.K.K.S.5 5 4 5 5 ^ k.k.k.k.k.k.k.k.k.k.g.5 5 5 5 5 ] K.K.K.K.K.K.K.K.K.K.K.K.K.K.K.K.K.K.K.K.K.",
"K.K.K.K.K.K.K.K.K.K.K.K.K.K.K.K.K.K.K.S.5 5 4 4 5 ^ k.k.k.k.k.k.k.k.k.k.g.5 5 5 5 5 ] K.K.K.K.K.K.K.K.K.K.K.K.K.K.K.K.K.K.K.K.K.",
"K.K.K.K.K.K.K.K.K.K.K.K.K.K.K.K.K.I I K F F K ' ' 9.k.k.k.k.k.k.k.k.k.k.g.' ' ` V F K ] ] b.K.K.K.K.K.K.K.K.K.K.K.K.K.K.K.K.K.K.",
"K.K.K.K.K.K.K.K.K.K.K.K.K.K.K.K.K.    # L P ( k.k.k.k.k.k.k.k.k.k.k.k.k.k.k.k.d.P P F 5 5 j.K.K.K.K.K.K.K.K.K.K.K.K.K.K.K.K.K.K.",
"K.K.K.K.K.K.K.K.K.K.K.K.K.K.K.K.K.    # P P _ k.k.k.k.k.k.k.k.k.k.k.k.k.k.k.k.d.P P F 4 5 j.K.K.K.K.K.K.K.K.K.K.K.K.K.K.K.K.K.K.",
"K.K.K.K.K.K.K.K.K.K.K.K.K.K.K.K.K.1 1 w P P _ k.k.k.k.k.k.k.k.k.k.k.k.k.k.k.k.d.P P L G G p 9 u m.K.K.K.K.K.K.K.K.K.K.K.K.K.K.K.",
"K.K.K.K.K.K.K.K.K.K.K.K.K.K.K.K.K.5 5 w P P _ k.k.k.k.k.k.k.k.k.k.k.k.k.k.k.k.d.P P P P L 7     c.K.K.K.K.K.K.K.K.K.K.K.K.K.K.K.",
"K.K.K.K.K.K.K.K.K.K.K.K.K.K.K.K.K.5 5 w P P _ k.k.k.k.k.k.k.k.k.k.k.k.k.k.k.k.d.P P P P P 7     l.K.K.K.K.K.K.K.K.K.K.K.K.K.K.K.",
"K.K.K.K.K.K.K.K.K.K.K.K.K.K.6 . o P L L P P P P P [ k.k.k.k.k.k.k.k.k.k.g.) P P P P P P P 7     c.K.K.K.K.K.K.K.K.K.K.K.K.K.K.K.",
"K.K.K.K.K.K.K.K.K.K.K.K.K.K.$   X P P P P P P P P [ k.k.k.k.k.k.k.k.k.g.g.P P P P P P P P 7     c.K.K.K.K.K.K.K.K.K.K.K.K.K.K.K.",
"K.K.K.K.K.K.K.K.K.K.K.K.K.K.$     L P P P P P P P { d.g.g.g.g.d.g.g.g.g.g.P P P P P P P P 7     c.K.K.K.K.K.K.K.K.K.K.K.K.K.K.K.",
"K.K.K.K.K.K.K.K.K.K.K.K.K.K.$   X L P L P P P P P P P P P P P P P P P P P P P P P P P P P 7     l.K.K.K.K.K.K.K.K.K.K.K.K.K.K.K.",
"K.K.K.K.K.K.K.K.K.K.K.K.K.K.$   X P P P P P P P P P P P P P P P P P P P P P P P P P P P P 8     c.K.K.K.K.K.K.K.K.K.K.K.K.K.K.K.",
"K.K.K.K.K.K.K.K.K.K.K.K.K.K.$     P P P P P P P P P P P P P P P P P P P P P P P G G G G D p 7 6 f.n.n.K.K.K.K.K.K.K.K.K.K.K.K.K.",
"K.K.K.K.K.K.K.K.K.K.K.K.K.K.$     P P P P P P P P P P P P P P P P P P P P P P G 5 5 5 5 5 ^ k.k.u     C.K.K.K.K.K.K.K.K.K.K.K.K.",
"K.K.K.K.K.K.K.K.K.K.K.K.K.K.$   X P P P P P P P P P P P P P P L P P P P P P P G 5 5 5 5 5 ^ k.k.9     C.K.K.K.K.K.K.K.K.K.K.K.K.",
"K.K.K.K.K.K.K.K.K.K.K.K.K.K.3 & O r r i P P P P P P P P P P P F V V V V V V V F J J J J J ` } } 8     C.K.K.K.K.K.K.K.K.K.K.K.K.",
"K.K.K.K.K.K.K.K.K.K.K.K.K.K.h s s     o P P P P L P P P P P P w 5 5 5 5 5 5 5 C k.k.k.k.k.[ P P $     C.K.K.K.K.K.K.K.K.K.K.K.K.",
"K.K.K.K.K.K.K.K.K.K.K.K.K.K.h s a     # L L P P L L P P P P P w 5 5 5 5 5 5 5 C k.k.k.k.k.[ P L $     C.K.K.K.K.K.K.K.K.K.K.K.K.",
"K.K.K.K.K.K.K.K.K.K.K.K.K.K.h a s n n B 7 7 7 7 7 7 7 7 7 7 7 % @ @ @ @ @ @ @ < D D D D D u 7 7 ` f.f.K.K.K.K.K.K.K.K.K.K.K.K.K.",
"K.K.K.K.K.K.K.K.K.K.K.K.K.K.h s d 8.8.*.                                                        c.K.K.K.K.K.K.K.K.K.K.K.K.K.K.K.",
"K.K.K.K.K.K.K.K.K.K.K.K.K.K.h s s 8.8.*.                                          X             c.K.K.K.K.K.K.K.K.K.K.K.K.K.K.K.",
"K.K.K.K.K.K.K.K.K.K.K.r.&.&.@.@.#.8.8.*.    3 =.=.>.q.q.Z j j &.=.=.=.=.&.    ; q.q.w.r.q.Q z z m.K.K.K.K.K.K.K.K.K.K.K.K.K.K.K.",
"K.K.K.K.K.K.K.K.K.K.K.Z a s 7.8.8.8.8.*.    x s.s.M.B.B.1.o.o.t.s.s.s.s.p.    0 B.B.B.B.M.e.R N N.K.K.K.K.K.K.K.K.K.K.K.K.K.K.K.",
"K.K.K.K.K.K.K.K.K.K.K.Z s s 7.8.8.8.8.*.    x s.s.M.B.B.1.o.o.t.s.s.s.s.p.    2 B.B.B.B.B.w.R R N.K.K.K.K.K.K.K.K.K.K.K.K.K.K.K.",
"K.K.K.K.K.K.K.K.K.K.K.E a s o.O.+.8.8.*.    x s.s.M.B.B.1.o.o.t.s.s.s.s.a.M M E s.s.i.%.%.x.G.G.K.K.K.K.K.K.K.K.K.K.K.K.K.K.K.K.",
"K.K.K.K.K.K.K.K.K.K.K.Z s s X.o.o.8.8.*.    x s.s.M.B.B.1.X.o.t.s.s.s.s.a.R R %.s.s.2.R R x.K.K.K.K.K.K.K.K.K.K.K.K.K.K.K.K.K.K.",
"K.K.K.K.K.K.K.K.K.K.K.Z s s X.o.o.8.8.*.    x s.s.M.B.B.1.o.X.t.s.s.s.s.a.R N %.s.s.2.R R x.K.K.K.K.K.K.K.K.K.K.K.K.K.K.K.K.K.K.",
"K.K.K.K.K.K.K.K.K.K.K.Z s s s s d o.o.o.o.X.j     g R R 3.s.s.s.s.s.s.s.s.a.a.y.R R z.K.K.K.K.K.K.K.K.K.K.K.K.K.K.K.K.K.K.K.K.K.",
"K.K.K.K.K.K.K.K.K.K.K.Z a s s s a o.o.o.o.o.h     3 R R 3.s.s.s.s.s.s.s.s.s.s.y.R R z.K.K.K.K.K.K.K.K.K.K.K.K.K.K.K.K.K.K.K.K.K.",
"K.K.K.K.K.K.K.K.K.K.K.;.b b s s s ....X.o.o.j o O q m m ,.e.e.u.y.u.i.i.i.i.i.6.N N 5.K.K.K.K.K.K.K.K.K.K.K.K.K.K.K.K.K.K.K.K.K.",
"K.K.K.K.K.K.K.K.K.K.K.K.K.K.j s s s s d o.X.o.o.X.g   X       1 5 5 L P P P P S s s ;.K.K.K.K.K.K.K.K.K.K.K.K.K.K.K.K.K.K.K.K.K.",
"K.K.K.K.K.K.K.K.K.K.K.K.K.K.h a s s a d X.X.X.X.X.g           1 5 4 L L P P P S s s ;.K.K.K.K.K.K.K.K.K.K.K.K.K.K.K.K.K.K.K.K.K.",
"K.K.K.K.K.K.K.K.K.K.K.K.K.K.:.&.E &.&.Z k ..n j j v G F G F G 4 1 1 H H T ! ! T s s ;.K.K.K.K.K.K.K.K.K.K.K.K.K.K.K.K.K.K.K.K.K.",
"K.K.K.K.K.K.K.K.K.K.K.K.K.K.K.K.K.K.K.A.s s =     | J.J.J.J.J.p     ..X.o.8.8.$.s s ;.K.K.K.K.K.K.K.K.K.K.K.K.K.K.K.K.K.K.K.K.K.",
"K.K.K.K.K.K.K.K.K.K.K.K.K.K.K.K.K.K.K.A.s s -     | J.J.J.J.J.p     X.X.o.8.8.$.s s ;.K.K.K.K.K.K.K.K.K.K.K.K.K.K.K.K.K.K.K.K.K.",
"K.K.K.K.K.K.K.K.K.K.K.K.K.K.K.K.K.K.K.G.4.4.T      .H.H.H.H.H.u     ..o.O.7.8.$.s s ;.K.K.K.K.K.K.K.K.K.K.K.K.K.K.K.K.K.K.K.K.K.",
"K.K.K.K.K.K.K.K.K.K.K.K.K.K.K.K.K.K.K.K.K.K.v.    _ D.D.D.D.D.9     ..X.O.8.8.$.s s ;.K.K.K.K.K.K.K.K.K.K.K.K.K.K.K.K.K.K.K.K.K.",
"K.K.K.K.K.K.K.K.K.K.K.K.K.K.K.K.K.K.K.K.K.K.c.    _ D.D.D.D.D.r     ..o.O.8.8.$.s s ;.K.K.K.K.K.K.K.K.K.K.K.K.K.K.K.K.K.K.K.K.K.",
"K.K.K.K.K.K.K.K.K.K.K.K.K.K.K.K.K.K.K.K.K.K.v.    8 U U U ) ) %     : : f X.X.l & & ~ K.K.K.K.K.K.K.K.K.K.K.K.K.K.K.K.K.K.K.K.K.",
"K.K.K.K.K.K.K.K.K.K.K.K.K.K.K.K.K.K.K.K.K.K.v.                            s a -     I K.K.K.K.K.K.K.K.K.K.K.K.K.K.K.K.K.K.K.K.K.",
"K.K.K.K.K.K.K.K.K.K.K.K.K.K.K.K.K.K.K.K.K.K.c.                            s a -     Y K.K.K.K.K.K.K.K.K.K.K.K.K.K.K.K.K.K.K.K.K.",
"K.K.K.K.K.K.K.K.K.K.K.K.K.K.K.K.K.K.K.F.F F F A i i i i c z z &.>.>.>.>.>.1.1.-.i i A F F c.K.K.K.K.K.K.K.K.K.K.K.K.K.K.K.K.K.K.",
"K.K.K.K.K.K.K.K.K.K.K.K.K.K.K.K.K.K.K.Z.    $ P P P P P T R R y.s.s.s.s.s.s.s.w.P P t     | K.K.K.K.K.K.K.K.K.K.K.K.K.K.K.K.K.K.",
"K.K.K.K.K.K.K.K.K.K.K.K.K.K.K.K.K.K.K.Z.    $ P P P P P T R N y.s.s.s.s.s.s.s.w.P P t     | K.K.K.K.K.K.K.K.K.K.K.K.K.K.K.K.K.K.",
"K.K.K.K.K.K.K.K.K.K.K.K.K.K.K.K.K.K.K.Z.    $ P P r . . . . o + + + + + ; Y Y K w 5 <     | K.K.K.K.K.K.K.K.K.K.K.K.K.K.K.K.K.K.",
"K.K.K.K.K.K.K.K.K.K.K.K.K.K.K.K.K.K.K.Z.    $ P P 8                       P P G 5 5 <     | K.K.K.K.K.K.K.K.K.K.K.K.K.K.K.K.K.K.",
"K.K.K.K.K.K.K.K.K.K.K.K.K.K.K.K.K.K.K.Z.X   $ P P 7       X   X X     X X P L G 5 5 , X X 9.K.K.K.K.K.K.K.K.K.K.K.K.K.K.K.K.K.K.",
"K.K.K.K.K.K.K.K.K.K.K.K.K.K.K.K.K.K.K.K.K.K.v.          l.K.K.K.K.K.K.K.K.          I K.K.K.K.K.K.K.K.K.K.K.K.K.K.K.K.K.K.K.K.K.",
"K.K.K.K.K.K.K.K.K.K.K.K.K.K.K.K.K.K.K.K.K.K.v.          l.K.K.K.K.K.K.K.K.          Y K.K.K.K.K.K.K.K.K.K.K.K.K.K.K.K.K.K.K.K.K.",
"K.K.K.K.K.K.K.K.K.K.K.K.K.K.K.K.K.K.K.K.K.K.m.6 6 6 6 6 v.K.K.K.K.K.K.K.K.6 6 6 6 6 } K.K.K.K.K.K.K.K.K.K.K.K.K.K.K.K.K.K.K.K.K.",
"K.K.K.K.K.K.K.K.K.K.K.K.K.K.K.K.K.K.K.K.K.K.K.K.K.K.K.K.K.K.K.K.K.K.K.K.K.K.K.K.K.K.K.K.K.K.K.K.K.K.K.K.K.K.K.K.K.K.K.K.K.K.K.K.",
"K.K.K.K.K.K.K.K.K.K.K.K.K.K.K.K.K.K.K.K.K.K.K.K.K.K.K.K.K.K.K.K.K.K.K.K.K.K.K.K.K.K.K.K.K.K.K.K.K.K.K.K.K.K.K.K.K.K.K.K.K.K.K.K.",
"K.K.K.K.K.K.K.K.K.K.K.K.K.K.K.K.K.K.K.K.K.K.K.K.K.K.K.K.K.K.K.K.K.K.K.K.K.K.K.K.K.K.K.K.K.K.K.K.K.K.K.K.K.K.K.K.K.K.K.K.K.K.K.K.",
"K.K.K.K.K.K.K.K.K.K.K.K.K.K.K.K.K.K.K.K.K.K.K.K.K.K.K.K.K.K.K.K.K.K.K.K.K.K.K.K.K.K.K.K.K.K.K.K.K.K.K.K.K.K.K.K.K.K.K.K.K.K.K.K.",
"K.K.K.K.K.K.K.K.K.K.K.K.K.K.K.K.K.K.K.K.K.K.K.K.K.K.K.K.K.K.K.K.K.K.K.K.K.K.K.K.K.K.K.K.K.K.K.K.K.K.K.K.K.K.K.K.K.K.K.K.K.K.K.K."
};
