/* XPM */
static char *result[] = {
/* columns rows colors chars-per-pixel */
"64 64 244 2 ",
"   c black",
".  c #020000",
"X  c gray1",
"o  c #070100",
"O  c #040405",
"+  c #0B0B0D",
"@  c gray6",
"#  c #1C0600",
"$  c #120D0F",
"%  c #131308",
"&  c #18120F",
"*  c #0D0D10",
"=  c #101014",
"-  c #1A1A12",
";  c #15151A",
":  c #17181A",
">  c #1B1B1B",
",  c #18181D",
"<  c #220F0A",
"1  c #331006",
"2  c #201610",
"3  c #2C2C13",
"4  c #32231A",
"5  c #383818",
"6  c #3D3D1F",
"7  c #1F1F23",
"8  c #202027",
"9  c #22222A",
"0  c #242628",
"q  c #24242C",
"w  c #282A2D",
"e  c #352120",
"r  c #3B2021",
"t  c #3C2020",
"y  c #362E2D",
"u  c #382E2C",
"i  c #3B3B24",
"p  c #3D3F2C",
"a  c #3E3E2F",
"s  c #2D2B34",
"d  c #2F2E37",
"f  c #2E2E39",
"g  c #2D3030",
"h  c gray20",
"j  c #353535",
"k  c #30303B",
"l  c #31313B",
"z  c #36363C",
"x  c #3F3F3F",
"c  c #410D00",
"v  c #481002",
"b  c #4D1503",
"n  c #4E1607",
"m  c #4F170A",
"M  c #4F170B",
"N  c #501000",
"B  c #511100",
"V  c #521101",
"C  c #521201",
"Z  c #521202",
"A  c #571504",
"S  c #5A1806",
"D  c #5B1807",
"F  c #5C1907",
"G  c #4A1E12",
"H  c #4E1C12",
"J  c #501C13",
"K  c #651F0D",
"L  c #65200D",
"P  c #69230F",
"I  c #6D2512",
"U  c #62291B",
"Y  c #702814",
"T  c #762B17",
"R  c #792F1A",
"E  c #442522",
"W  c #4C3628",
"Q  c #443135",
"!  c #4B353A",
"~  c #4B353B",
"^  c #4E3B3F",
"/  c #6D3A3A",
"(  c #713D3D",
")  c #733E3E",
"_  c #404037",
"`  c #454636",
"'  c #404038",
"]  c #42423E",
"[  c #4D4F38",
"{  c #494A3F",
"}  c #50523F",
"|  c #674835",
" . c #393946",
".. c #3F3F4D",
"X. c #4A3D46",
"o. c #493E49",
"O. c #424241",
"+. c gray26",
"@. c #444446",
"#. c #444447",
"$. c #45454D",
"%. c #44474D",
"&. c #59464D",
"*. c #555843",
"=. c #595C4A",
"-. c #5A5E4C",
";. c #414150",
":. c #444453",
">. c #474754",
",. c #474756",
"<. c #484655",
"1. c #484656",
"2. c #484858",
"3. c #4C4D5D",
"4. c #4D4D5D",
"5. c #4E4F5D",
"6. c #4F505E",
"7. c #5C525C",
"8. c #5D5D59",
"9. c #5F5F5F",
"0. c #784040",
"q. c #7C4542",
"w. c #675750",
"e. c #725F5F",
"r. c #5E6251",
"t. c #626657",
"y. c #676759",
"u. c #786156",
"i. c #525261",
"p. c #545663",
"a. c #555663",
"s. c #565764",
"d. c #575A60",
"f. c #5A5C67",
"g. c #5B5B69",
"h. c #5D5D6B",
"j. c #5D5F6A",
"k. c #5F5F6E",
"l. c #5D606B",
"z. c #5E616B",
"x. c gray40",
"c. c #646862",
"v. c #60636C",
"b. c #60646C",
"n. c #686869",
"m. c #7E6661",
"M. c #6D7268",
"N. c #7B7B67",
"B. c #646871",
"V. c #676A73",
"C. c #6B6E72",
"Z. c #6D6D7A",
"A. c #6C7272",
"S. c #6E7279",
"D. c #737374",
"F. c #787877",
"G. c #72777D",
"H. c #71757F",
"J. c #777879",
"K. c gray48",
"L. c #7C7C7C",
"P. c #7D7C7C",
"I. c #81341E",
"U. c #833620",
"Y. c #853821",
"T. c #86432A",
"R. c #904028",
"E. c #964229",
"W. c #97442B",
"Q. c #98452C",
"!. c #9F492F",
"~. c #945438",
"^. c #A44C32",
"/. c #A84E34",
"(. c #AA4F35",
"). c #AA5035",
"_. c #AF5337",
"`. c #B5563B",
"'. c #814844",
"]. c #805151",
"[. c #865454",
"{. c #8B5855",
"}. c #9C6448",
"|. c #A16143",
" X c #A46445",
".X c #956F66",
"XX c #977465",
"oX c #837976",
"OX c #A27A67",
"+X c #C35F42",
"@X c #C45F42",
"#X c #CF6648",
"$X c #D76B4C",
"%X c #E07050",
"&X c #AE8169",
"*X c #A4847C",
"=X c #B5947E",
"-X c #C18864",
";X c #D3936C",
":X c #D89870",
">X c #7B8184",
",X c #818181",
"<X c #868686",
"1X c #838B89",
"2X c #858D8B",
"3X c #848C8D",
"4X c #858D8E",
"5X c #888888",
"6X c #8B8B8B",
"7X c #989888",
"8X c #889090",
"9X c #9D9D91",
"0X c #959699",
"qX c #969BA9",
"wX c #A0A0A0",
"eX c gray65",
"rX c #A9A7A6",
"tX c #A3A3AB",
"yX c #AEAEAE",
"uX c #BCA6A0",
"iX c #BEABA9",
"pX c #B3B3A8",
"aX c #A7ACBB",
"sX c #A9B0BE",
"dX c gray",
"fX c #C8B6B6",
"gX c #CAB7B7",
"hX c #AAB0C0",
"jX c #BDC3D2",
"kX c #C1C1C1",
"lX c gray77",
"zX c gray79",
"xX c #CACACA",
"cX c #CFCFC8",
"vX c #DACFCC",
"bX c #D3D3CD",
"nX c #D4D4CE",
"mX c #C0C8D8",
"MX c LightGray",
"NX c #D5D5D5",
"BX c #D8D8D8",
"VX c #DADADA",
"CX c #DDDDD8",
"ZX c None",
/* pixels */
"ZXZXZXZXZXZXZXZXZXZXZXZXZXZXZXZXZXZXZXZXZXZXZXZXZXZXZXZXZXZXZXZXZXZXZXZXZXZXZXZXZXZXZXZXZXZXZXZXZXZXZXZXZXZXZXZXZXZXZXZXZXZXZXZX",
"ZXZXZXZXZXZXZXZXZXZXZXZXZXZXZXZXZXZXZXZXZXZXZXZXZXZXZXZXZXZXZXZXZXZXZXZXZXZXZXZXZXZXZXZXZXZXZXZXZXZXZXZXZXZXZXZXZXZXZXZXZXZXZXZX",
"ZXZXZXZXZXZXZXZXZXZXZXZXZXZXZXZXZXZXZXZXZXZXZXZXZXZXZXZXZXZXZXZXZXZXZXZXZXZXZXZXZXZXZXZXZXZXZXZXZXZXZXZXZXZXZXZXZXZXZXZXZXZXZXZX",
"ZXZXZXZXZXZXZXZXZXZXZXZXZXZXZXZXZXZXZXZXZXZXZXZXZXtX2.2.2.2.2.2.2.2.2.2.i.ZXZXZXZXZXZXZXZXZXZXZXZXZXZXZXZXZXZXZXZXZXZXZXZXZXZXZX",
"ZXZXZXZXZXZXZXZXZXZXZXZXZXZXZXZXZXZXZXZXZXZXZXZXZXtX2.2.2.2.2.2.2.2.2.2.i.ZXZXZXZXZXZXZXZXZXZXZXZXZXZXZXZXZXZXZXZXZXZXZXZXZXZXZX",
"ZXZXZXZXZXZXZXZXZXZXZXZXZXZXZXZXZXZXZXZXcXcXcXcXcX0Xs.s.s.s.s.s.s.s.s.s.j.cXcXcXcXcXCXZXZXZXZXZXZXZXZXZXZXZXZXZXZXZXZXZXZXZXZXZX",
"ZXZXZXZXZXZXZXZXZXZXZXZXZXZXZXZXZXZXZXbX5 5 5 5 5 r.8X8X8X8X8X8X8X8X8X8X1X5 5 5 5 5 N.ZXZXZXZXZXZXZXZXZXZXZXZXZXZXZXZXZXZXZXZXZX",
"ZXZXZXZXZXZXZXZXZXZXZXZXZXZXZXZXZXZXZXbX5 5 5 5 5 r.8X8X8X8X8X8X8X8X8X8X1X5 5 5 5 5 N.ZXZXZXZXZXZXZXZXZXZXZXZXZXZXZXZXZXZXZXZXZX",
"ZXZXZXZXZXZXZXZXZXZXZXZXZXZXZXZXZXpXpX9Xa a ` *.*.M.8X8X8X8X8X8X8X8X8X8X2X*.*.} a a y.pXpXnXZXZXZXZXZXZXZXZXZXZXZXZXZXZXZXZXZXZX",
"ZXZXZXZXZXZXZXZXZXZXZXZXZXZXZXZXZX5 5 i 2.2.l.8X8X8X8X8X8X8X8X8X8X8X8X8X8X8X8X>X2.2.O.5 5 7XZXZXZXZXZXZXZXZXZXZXZXZXZXZXZXZXZXZX",
"ZXZXZXZXZXZXZXZXZXZXZXZXZXZXZXZXZX5 5 i 2.2.l.8X8X8X8X8X8X8X8X8X8X8X8X8X8X8X8X>X2.2.O.5 5 7XZXZXZXZXZXZXZXZXZXZXZXZXZXZXZXZXZXZX",
"ZXZXZXZXZXZXZXZXZXZXZXZXZXZX5XK.F.' ' ] 2.2.l.8X8X8X8X8X8X8X8X8X8X8X8X8X8X8X8X>X2.2.$.' ' 8.K.K.xXZXZXZXZXZXZXZXZXZXZXZXZXZXZXZX",
"ZXZXZXZXZXZXZXZXZXZXZXZXZXZX>   X 2.2.2.2.2.l.8X8X8X8X8X8X8X8X8X8X8X8X8X8X8X8X>X2.2.2.2.2.q     wXZXZXZXZXZXZXZXZXZXZXZXZXZXZXZX",
"ZXZXZXZXZXZXZXZXZXZXZXZXZXZX>   X 2.2.2.2.2.l.8X8X8X8X8X8X8X8X8X8X8X8X8X8X8X8X>X2.2.2.2.2.q     wXZXZXZXZXZXZXZXZXZXZXZXZXZXZXZX",
"ZXZXZXZXZXZXZXZXZXZXZXZXZXZX>   X 2.2.2.2.2.6.z.z.G.8X8X8X8X8X8X8X8X8X8X4Xz.z.f.2.2.2.2.2.q     wXZXZXZXZXZXZXZXZXZXZXZXZXZXZXZX",
"ZXZXZXZXZXZXZXZXZXZXZXZXZXZX>   X 2.2.2.2.2.2.2.2.V.8X8X8X8X8X8X8X8X8X8X3X2.2.2.2.2.2.2.2.q     wXZXZXZXZXZXZXZXZXZXZXZXZXZXZXZX",
"ZXZXZXZXZXZXZXZXZXZXZXZXZXZX>   X 2.2.2.2.2.2.2.2.V.8X8X8X8X8X8X8X8X8X8X3X2.2.2.2.2.2.2.2.q     wXZXZXZXZXZXZXZXZXZXZXZXZXZXZXZX",
"ZXZXZXZXZXZXZXZXZXZXZXZXZXZX>   X 2.2.2.2.2.2.2.2.5.a.a.a.a.a.a.a.a.a.a.p.2.2.2.2.2.2.2.2.q     wXZXZXZXZXZXZXZXZXZXZXZXZXZXZXZX",
"ZXZXZXZXZXZXZXZXZXZXZXZXZXZX>   X 2.2.2.2.2.2.2.2.2.2.2.2.2.2.2.2.2.2.2.2.2.2.2.2.2.2.2.2.q     wXZXZXZXZXZXZXZXZXZXZXZXZXZXZXZX",
"ZXZXZXZXZXZXZXZXZXZXZXZXZXZX>   X 2.2.2.2.2.2.2.2.2.2.2.2.2.2.2.2.2.2.2.2.2.2.2.2.2.2.2.2.q     wXZXZXZXZXZXZXZXZXZXZXZXZXZXZXZX",
"ZXZXZXZXZXZXZXZXZXZXZXZXZXZX].( / O O = 2.2.2.2.2.2.2.2.2.2.2.2.2.2.2.2.2.2.2.2.2.2.k O O r ( ( fXZXZXZXZXZXZXZXZXZXZXZXZXZXZXZX",
"ZXZXZXZXZXZXZXZXZXZXZXZXZXZX[.0.)     * 2.2.2.2.2.2.2.2.2.2.2.2.2.2.2.2.2.2.2.2.2.2.f     t 0.0.gXZXZXZXZXZXZXZXZXZXZXZXZXZXZXZX",
"ZXZXZXZXZXZXZXZXZXZXZXZXZXZX{.'.q.o o $ ;.;.:.2.2.2.2.2.2.2.2.2.2.2.2.2.2.2.2.,.;.;.s o o E '.'.iXZXZXZXZXZXZXZXZXZXZXZXZXZXZXZX",
"ZXZXZXZXZXZXZXZXZXZXZXx     -X:X;XN N c     , 2.2.2.2.2.2.2.2.2.2.2.2.2.2.2.2. .    # N N ~.:X:XW     lXZXZXZXZXZXZXZXZXZXZXZXZX",
"ZXZXZXZXZXZXZXZXZXZXZXx     -X:X;XN N c     , 2.2.2.2.2.2.2.2.2.2.2.2.2.2.2.2. .    # N N ~.:X:XW     lXZXZXZXZXZXZXZXZXZXZXZXZX",
"ZXZXZXZXZXZXZXZXZXZXZXx     -X:X;XN N v < < e &.&.&.&.&.&.&.&.&.&.&.&.&.&.&.&.^ < < 1 N N ~.:X:XW     lXZXZXZXZXZXZXZXZXZXZXZXZX",
"ZXZXZXZXZXZXZXZXZXZXZXx     -X:X;XN N F R.R.R.R.R.R.R.R.R.R.R.R.R.R.R.R.R.R.R.R.R.R.R N N ~.:X:XW     lXZXZXZXZXZXZXZXZXZXZXZXZX",
"ZXZXZXZXZXZXZXZXZXZXZXx     -X:X;XN N F R.R.R.R.R.R.R.R.R.R.R.R.R.R.R.R.R.R.R.R.R.R.R N N ~.:X:XW     lXZXZXZXZXZXZXZXZXZXZXZXZX",
"ZXZXZXZXZXZXZXZXZXZXZX<X9.9.}. X|.P P T _._._._._._._._._._._._._._._._._._._._._._.E.P P T. X Xu.9.9.BXZXZXZXZXZXZXZXZXZXZXZXZX",
"ZXZXZXZXZXZXZXZXZXZXZXZXZXZXU N Z R.R.!.%X%X%X%X%X%X%X%X%X%X%X%X%X%X%X%X%X%X%X%X%X%X@XR.R.Y N N uXZXZXZXZXZXZXZXZXZXZXZXZXZXZXZX",
"ZXZXZXZXZXZXZXZXZXZXZXZXZXZXU N Z R.R.!.%X%X%X%X%X%X%X%X%X%X%X%X%X%X%X%X%X%X%X%X%X%X@XR.R.Y N N uXZXZXZXZXZXZXZXZXZXZXZXZXZXZXZX",
"ZXZXZXZXZXZXZXZXZXZXZXZXZXZXU N Z R.R.W.`.`.+X%X%X%X%X%X%X%X%X%X%X%X%X%X%X%X%X$X`.`./.R.R.Y N N uXZXZXZXZXZXZXZXZXZXZXZXZXZXZXZX",
"ZXZXZXZXZXZXZXZXZXZXZXZXZXZXU N Z R.R.R.R.R.).%X%X%X%X%X%X%X%X%X%X%X%X%X%X%X%X#XR.R.R.R.R.Y N N uXZXZXZXZXZXZXZXZXZXZXZXZXZXZXZX",
"ZXZXZXZXZXZXZXZXZXZXZXZXZXZXU N Z R.R.R.R.R.).%X%X%X%X%X%X%X%X%X%X%X%X%X%X%X%X#XR.R.R.R.R.Y N N uXZXZXZXZXZXZXZXZXZXZXZXZXZXZXZX",
"ZXZXZXZXZXZXZXZXZXZXZXZXZXZXU N B K K I R.R.Q.(.(.(.(.(.(.(.(.(.(.(.(.(.(.(.(.^.R.R.I.K K S N N uXZXZXZXZXZXZXZXZXZXZXZXZXZXZXZX",
"ZXZXZXZXZXZXZXZXZXZXZXZXZXZXU N N N N F R.R.R.R.R.R.R.R.R.R.R.R.R.R.R.R.R.R.R.R.R.R.R N N N N N uXZXZXZXZXZXZXZXZXZXZXZXZXZXZXZX",
"ZXZXZXZXZXZXZXZXZXZXZXZXZXZXU N N N N F R.R.R.R.R.R.R.R.R.R.R.R.R.R.R.R.R.R.R.R.R.R.R N N N N N uXZXZXZXZXZXZXZXZXZXZXZXZXZXZXZX",
"ZXZXZXZXZXZXZXZXZXZXZXZXZXZX7.o.X.N N C D D I R.R.R.R.R.R.R.R.R.R.R.R.R.R.R.R.Y.D D A N N .XvXvXZXZXZXZXZXZXZXZXZXZXZXZXZXZXZXZX",
"ZXZXZXZXZXZXZXZXZXZXZXZXZXZXg.2.<.N N N N N L R.R.R.R.R.R.R.R.R.R.R.R.R.R.R.R.U.N N N N N *XZXZXZXZXZXZXZXZXZXZXZXZXZXZXZXZXZXZX",
"ZXZXZXZXZXZXZXZXZXZXZXZXZXZXg.2.<.N N N N N L R.R.R.R.R.R.R.R.R.R.R.R.R.R.R.R.U.N N N N N *XZXZXZXZXZXZXZXZXZXZXZXZXZXZXZXZXZXZX",
"ZXZXZXZXZXZXZXZXZXZXZXZXZXZXg.2.3.jXjXaX1.1.! V V V V V V V V V V V V V V V V J 1.1.d . . P.ZXZXZXZXZXZXZXZXZXZXZXZXZXZXZXZXZXZX",
"ZXZXZXZXZXZXZXZXZXZXZXZXZXZXg.2.4.mXmXhX2.2.~ N N N N N N N N N N N N N N N N H 2.2.f     L.ZXZXZXZXZXZXZXZXZXZXZXZXZXZXZXZXZXZX",
"ZXZXZXZXZXZXZXZXZXZXZXZXZXZXZ.h.k.sXsXqX....Q b b n M M M M M M M M M M m b b G ....l : : J.VXVXZXZXZXZXZXZXZXZXZXZXZXZXZXZXZXZX",
"ZXZXZXZXZXZXZXZXZXZXZXZXZXZXZXZXZX          % 5 5 _ 2.2.2.2.2.2.2.2.2.2.>.5 5 3     %.mXmXb.    wXZXZXZXZXZXZXZXZXZXZXZXZXZXZXZX",
"ZXZXZXZXZXZXZXZXZXZXZXZXZXZXZXZXZX          % 5 5 _ 2.2.2.2.2.2.2.2.2.2.>.5 5 3     %.mXmXb.    wXZXZXZXZXZXZXZXZXZXZXZXZXZXZXZX",
"ZXZXZXZXZXZXZXZXZXZXZXZXZXZXZXZXZX+.+.j     - [ [ { #.#.#.#.#.#.#.#.#.#.@.[ [ p     %.mXmXb.    wXZXZXZXZXZXZXZXZXZXZXZXZXZXZXZX",
"ZXZXZXZXZXZXZXZXZXZXZXZXZXZXZXZXZXZXZXzX    g 8X8Xt.5 5 5 5 5 5 5 5 5 5 6 8X8XA.    %.mXmXb.    wXZXZXZXZXZXZXZXZXZXZXZXZXZXZXZX",
"ZXZXZXZXZXZXZXZXZXZXZXZXZXZXZXZXZXZXZXzX    g 8X8Xt.5 5 5 5 5 5 5 5 5 5 6 8X8XA.    %.mXmXb.    wXZXZXZXZXZXZXZXZXZXZXZXZXZXZXZX",
"ZXZXZXZXZXZXZXZXZXZXZXZXZXZXZXZXZXZXZXzX    0 S.S.c.=.=.=.=.=.=.=.=.=.=.-.S.S.d.    w H.H.C.x.x.lXZXZXZXZXZXZXZXZXZXZXZXZXZXZXZX",
"ZXZXZXZXZXZXZXZXZXZXZXZXZXZXZXZXZXZXZXzX    , 2.2.V.8X8X8X8X8X8X8X8X8X8X3X2.2. .          L.ZXZXZXZXZXZXZXZXZXZXZXZXZXZXZXZXZXZX",
"ZXZXZXZXZXZXZXZXZXZXZXZXZXZXZXZXZXZXZXzX    , 2.2.V.8X8X8X8X8X8X8X8X8X8X3X2.2. .          L.ZXZXZXZXZXZXZXZXZXZXZXZXZXZXZXZXZXZX",
"ZXZXZXZXZXZXZXZXZXZXZXZXZXZXZXZXZXZXZXZX6X6Xn.8 8 w.=X=XoXB.B.B.B.B.B.B.v.8 8 z 6X6X6X6X6XkXZXZXZXZXZXZXZXZXZXZXZXZXZXZXZXZXZXZX",
"ZXZXZXZXZXZXZXZXZXZXZXZXZXZXZXZXZXZXZXZXZXZXeX    | :X:Xm.2.2.2.2.2.2.2.:.    h ZXZXZXZXZXZXZXZXZXZXZXZXZXZXZXZXZXZXZXZXZXZXZXZX",
"ZXZXZXZXZXZXZXZXZXZXZXZXZXZXZXZXZXZXZXZXZXZXeX    | :X:Xm.2.2.2.2.2.2.2.:.    h ZXZXZXZXZXZXZXZXZXZXZXZXZXZXZXZXZXZXZXZXZXZXZXZX",
"ZXZXZXZXZXZXZXZXZXZXZXZXZXZXZXZXZXZXZXZXZXZXeX    y e.e.XX&X&Xu ; ; ; ; 7 yXyXdXZXZXZXZXZXZXZXZXZXZXZXZXZXZXZXZXZXZXZXZXZXZXZXZX",
"ZXZXZXZXZXZXZXZXZXZXZXZXZXZXZXZXZXZXZXZXZXZXeX    9 2.2.OX:X:X4         @ ZXZXZXZXZXZXZXZXZXZXZXZXZXZXZXZXZXZXZXZXZXZXZXZXZXZXZX",
"ZXZXZXZXZXZXZXZXZXZXZXZXZXZXZXZXZXZXZXZXZXZXeX    9 2.2.OX:X:X4         @ ZXZXZXZXZXZXZXZXZXZXZXZXZXZXZXZXZXZXZXZXZXZXZXZXZXZXZX",
"ZXZXZXZXZXZXZXZXZXZXZXZXZXZXZXZXZXZXZXZXZXZXZXMXMXD.+ + & 2 2 rXMXMXMXMXNXZXZXZXZXZXZXZXZXZXZXZXZXZXZXZXZXZXZXZXZXZXZXZXZXZXZXZX",
"ZXZXZXZXZXZXZXZXZXZXZXZXZXZXZXZXZXZXZXZXZXZXZXZXZX,X          dXZXZXZXZXZXZXZXZXZXZXZXZXZXZXZXZXZXZXZXZXZXZXZXZXZXZXZXZXZXZXZXZX",
"ZXZXZXZXZXZXZXZXZXZXZXZXZXZXZXZXZXZXZXZXZXZXZXZXZX,X          dXZXZXZXZXZXZXZXZXZXZXZXZXZXZXZXZXZXZXZXZXZXZXZXZXZXZXZXZXZXZXZXZX",
"ZXZXZXZXZXZXZXZXZXZXZXZXZXZXZXZXZXZXZXZXZXZXZXZXZXZXZXZXZXZXZXZXZXZXZXZXZXZXZXZXZXZXZXZXZXZXZXZXZXZXZXZXZXZXZXZXZXZXZXZXZXZXZXZX",
"ZXZXZXZXZXZXZXZXZXZXZXZXZXZXZXZXZXZXZXZXZXZXZXZXZXZXZXZXZXZXZXZXZXZXZXZXZXZXZXZXZXZXZXZXZXZXZXZXZXZXZXZXZXZXZXZXZXZXZXZXZXZXZXZX",
"ZXZXZXZXZXZXZXZXZXZXZXZXZXZXZXZXZXZXZXZXZXZXZXZXZXZXZXZXZXZXZXZXZXZXZXZXZXZXZXZXZXZXZXZXZXZXZXZXZXZXZXZXZXZXZXZXZXZXZXZXZXZXZXZX",
"ZXZXZXZXZXZXZXZXZXZXZXZXZXZXZXZXZXZXZXZXZXZXZXZXZXZXZXZXZXZXZXZXZXZXZXZXZXZXZXZXZXZXZXZXZXZXZXZXZXZXZXZXZXZXZXZXZXZXZXZXZXZXZXZX"
};
