/* XPM */
static char *_56a381610894105ee4b7018bb77c2e5IuA0XLVKwk9EHGhI[] = {
/* columns rows colors chars-per-pixel */
"64 64 165 2 ",
"   c None",
".  c #000000",
"X  c #0A0904",
"o  c #070708",
"O  c #0A0A0B",
"+  c #140E0A",
"@  c #121314",
"#  c #17171C",
"$  c #1D1D1D",
"%  c #211711",
"&  c #261B14",
"*  c #281F18",
"=  c #2A2716",
"-  c #38281D",
";  c #383818",
":  c #1C1D21",
">  c #242425",
",  c #25252D",
"<  c #2B2E2E",
"1  c #28232A",
"2  c #2D302F",
"3  c #3A3A21",
"4  c #3C3C29",
"5  c #2C2D35",
"6  c #2E3034",
"7  c #323233",
"8  c #3F3E34",
"9  c #31313B",
"0  c #3C3C3C",
"q  c #3D3333",
"w  c #3A2920",
"e  c #4E3729",
"r  c #473A3A",
"t  c #613D39",
"y  c #42432E",
"u  c #464738",
"i  c #574537",
"p  c #594539",
"a  c #4E5039",
"s  c #52543F",
"d  c #674937",
"f  c #794338",
"g  c #64503F",
"h  c #73513C",
"j  c #3B3B48",
"k  c gray26",
"l  c #42434D",
"z  c #4A4A4A",
"x  c #464655",
"c  c #484858",
"v  c #564651",
"b  c #4F505E",
"n  c #525454",
"m  c #50515F",
"M  c #5C5C5C",
"N  c #5B515B",
"B  c #6E4245",
"V  c #784040",
"C  c #6B5644",
"Z  c #615347",
"A  c #765E4A",
"S  c #715A47",
"D  c #655659",
"F  c #5D6150",
"G  c #73605F",
"H  c #6B6B5B",
"J  c #545562",
"K  c #595B67",
"L  c #5B5E69",
"P  c #5E616B",
"I  c #686964",
"U  c #7A7A65",
"Y  c #636571",
"T  c #696E74",
"R  c #6C6C79",
"E  c #666A72",
"W  c #6D7376",
"Q  c #747575",
"!  c #747A7B",
"~  c gray48",
"^  c #72777E",
"/  c #803923",
"(  c #914028",
")  c #9E492F",
"_  c #954B36",
"`  c #9B4931",
"'  c #844637",
"]  c #AF5237",
"[  c #AF5338",
"{  c #BE5C3F",
"}  c #855D45",
"|  c #8F5B54",
" . c #8D6349",
".. c #8C6A5E",
"X. c #926B51",
"o. c #967258",
"O. c #A56956",
"+. c #B47F5E",
"@. c #A87759",
"#. c #836962",
"$. c #8C6D64",
"%. c #9D7E63",
"&. c #A97464",
"*. c #AA7E68",
"=. c #A17567",
"-. c #C15E42",
";. c #C66347",
":. c #C06248",
">. c #D26749",
",. c #DB6D4D",
"<. c #D86E50",
"1. c #E07050",
"2. c #BB8461",
"3. c #B5896A",
"4. c #B18172",
"5. c #BC8E73",
"6. c #B28B6E",
"7. c #D3936D",
"8. c #C48D71",
"9. c #C59E7D",
"0. c #D89870",
"q. c #DEA37B",
"w. c #E0A57D",
"e. c #767682",
"r. c #777C82",
"t. c #7D8386",
"y. c #81828C",
"u. c #848B8B",
"i. c #8E8E8E",
"p. c #969686",
"a. c #818792",
"s. c #858999",
"d. c #889090",
"f. c #8F9798",
"g. c #909199",
"h. c #9C9C9D",
"j. c #929294",
"k. c #8F94A3",
"l. c #9D9EA5",
"z. c #9FA0A9",
"x. c #A5A5AD",
"c. c #A9A9A9",
"v. c #ABABA1",
"b. c #A0A6B6",
"n. c #A9A9B0",
"m. c #BABABE",
"M. c gray71",
"N. c #CBA381",
"B. c #D4AA86",
"V. c #E3AA82",
"C. c #E8B38B",
"Z. c #EAB992",
"A. c #F0C098",
"S. c #C3C3BA",
"D. c #BCBCC2",
"F. c gray76",
"G. c #CACACB",
"H. c #D5D5CF",
"J. c #C0C8D8",
"K. c #CDCDD0",
"L. c #DFDFDB",
"P. c gray82",
"I. c #D8DDE7",
"U. c #F4F5F8",
"Y. c white",
/* pixels */
"                                                                                                                                ",
"                                                                                                                                ",
"                                                                                                                                ",
"                                                  K c c c m c c m c m c n.                                                      ",
"                                                  J c c c c c c c c c c n.                                                      ",
"                                        L.L.L.L.L.K m m m m m m m m m m l.L.L.L.L.L.                                            ",
"                                      U ; ; ; ; ; u.d.d.d.d.d.d.d.d.d.d.F ; ; ; ; ; H.                                          ",
"                                      U ; ; ; ; ; u.d.d.d.d.d.d.d.i.d.d.F ; ; ; ; ; H.                                          ",
"                                L.m.S.H 4 4 u a a u.d.d.d.d.d.d.d.d.d.d.I a a y 4 4 v.S.S.                                      ",
"                                p.; ; u c c t.d.d.d.d.d.d.d.d.d.d.d.d.d.d.d.d.P c c 3 ; ;                                       ",
"                                p.; ; u c c r.d.d.d.d.d.d.d.d.d.d.d.d.d.d.d.d.L c c 3 ; ;                                       ",
"                          P.i.i.I 8 8 l c c t.d.d.d.d.d.d.d.d.d.d.d.d.d.d.d.d.L c c 0 y 8 i.i.h.                                ",
"                          x.. . , c c c c c t.d.d.d.d.d.d.d.d.d.d.d.d.d.d.d.d.P c c c c c . . $                                 ",
"                          h.. . , c c c c c t.d.d.d.d.d.d.d.d.d.d.d.d.d.d.d.d.L c c c c x o . $                                 ",
"                          h.. . , c c c c c P Y E u.d.d.d.d.d.d.d.d.u.d.r.E Y J c c c c c o . $                                 ",
"                          h.. . , c c c c c c c c u.d.d.d.d.d.d.d.d.d.d.E x x c c c c c c . . $                                 ",
"                          h.. . , c c c c c c c c u.d.d.d.d.u.d.d.d.d.d.E c c c c c c c c o . $                                 ",
"                          h.. . , c c c c c c c c K L L L L L K L K L K m c c c c c c c c . . $                                 ",
"                          h.. . , c c c c c c c c c c c c c c c x c c c c c c c c c c c c . . $                                 ",
"                          x.. . , c c c c c c c c c c c c c c c c c c c c c c c c c c c c . . $                                 ",
"                    G.> > i 2.2.p O O = ; 3 3 3 3 3 3 3 3 3 3 3 3 3 3 3 3 3 3 3 3 3 @ O O 2.2.@.> > M                           ",
"                    F.. . e 0.0.d . . & ; ; ; ; ; ; ; ; ; ; ; ; ; ; ; ; ; ; ; ; ; ; X . . 7.7.2.. . k                           ",
"                    F.. . e 0.0.d X . = ; ; ; ; ; ; ; ; ; ; ; ; ; ; ; ; ; ; ; ; ; ; X . . 7.0.2.. . k                           ",
"                    F.. . i A.A.A . . . . . W d.d.d.d.d.d.d.d.d.d.d.d.d.d.d.d.< . . . . o Z.A.B.. . k                           ",
"                    F.. . i A.A.A . . . . . W d.d.d.d.d.d.d.d.u.d.d.d.d.d.d.d.2 . . . . . Z.A.B.. . k                           ",
"                    G.> 1 Z N.N.g . . + % $ T t.u.Q ! ! t.t.u.t.t.t.! ! r.t.t.8 % % o . . 9.N.5.> > M                           ",
"                          h.. . . . .  .0.0.D c c . . o c c c c c 5 . . , c c *.0.0.& . . . . $                                 ",
"                          h.. . . . .  .0.0.D x c o . o c c c c c 5 . . , c c *.0.0.& . . . . $                                 ",
"                          m.z z > . . X.q.q.$.G G o . O G G G G G r . . q G G 5.V.w.& . . z z L                                 ",
"                                ~ . . %.A.A.q.0.0.X . + 0.0.0.0.0.} . . h 0.0.C.A.A.* . .                                       ",
"                                ~ . . 4.A.A.q.0.0.X . + 0.0.0.0.0.} . . h 0.0.C.Z.A.= . .                                       ",
"                                ~ . . o.V.C.V.w.V.S C A V.V.V.V.V.3.C g 4.V.V.C.C.V.* . . x.n.n.n.n.F.                          ",
"                                ~ . .  .0.0.Z.A.A.A.A.A.A.A.A.A.A.A.A.A.A.A.A.w.0.0.& . . c c c c c e.                          ",
"                                ~ . . } 0.0.Z.Z.A.A.A.Z.A.A.A.A.A.A.A.A.A.A.A.w.0.0.& . . x c c c c e.                          ",
"                                j.5 5 D $.#.=.&.&.V.V.V.V.w.V.w.V.w.V.V.8.&.&.$.#.#.M n n W W e.k.k.k.f.g.D.                    ",
"                                l.c c c c c B V t 0.0.0.0.0.0.0.0.0.0.0.O.V f v c x t.d.d.d.d.f.J.J.b.c c g.                    ",
"                                z.c c c c c B V } 7.0.0.0.0.0.0.0.0.0.0.O.V V v c c t.d.d.d.d.f.J.J.b.c c g.                    ",
"                          G.e.e.e.r.~ r.r.r.N v v w - - - - - - - - - w r v v 1 @ # ! d.d.d.d.f.J.J.b.c x g.                    ",
"                          m.c c T d.d.d.d.d.J c x X . . . . . . . . . . , c c # . . Q d.d.d.d.f.J.J.b.c c g.                    ",
"                          m.c c T d.d.d.d.d.J c x X . . . . . . . . . . , c c # . . W d.d.d.d.f.J.J.b.c c g.                    ",
"                          m.c c T d.d.d.d.d.J c c :.;.-./ / / / / ` ;.;.=.u.t.< . . l b b @ O @ # # z                           ",
"                          m.c c T d.d.u.d.d.J c c <.1.,.( / ( ( ( ] 1.1.4.d.d.2 . . j c c . . . . . k                           ",
"                          D.c c R f.d.f.d.f.K x c <.1.,.) ( ( ( ( [ ,.<.4.d.d.< . . j c c O o O o X z                           ",
"                          m.c c x.Y.Y.Y.Y.Y.R c c <.1.1.1.1.1.1.1.-.( ( ..d.d.s ; ; X . .                                       ",
"                          M.c c x.Y.Y.Y.Y.Y.R c c <.1.1.1.1.1.1.1.-./ ) ..i.i.s ; ; X . .                                       ",
"                          D.c c l.U.U.U.U.U.R c c <.1.,.>.>.>.>.>.-.) ) ..t.y.u ; = X . .                                       ",
"                          D.c c s.J.J.J.J.J.Y c c <.1.,.( ( ( ( / ] 1.1.| c c # . . . . .                                       ",
"                          D.c c s.J.J.J.J.J.Y c c ,.1.,.( ( ( / ) ] 1.1.| c c # . . . . .                                       ",
"                          K.y.y.y.a.a.a.a.a.l 9 9 _ _ _ f f f f f ' _ _ t 9 9 : # : o . .                                       ",
"                                ~ . . . . . . . . . . o c c c c c 9 . . . . . 9 c c O . .                                       ",
"                                ~ . . . . . . . . . . o c c c c c 5 . . . . . 9 c c O . .                                       ",
"                                M.Q Q Q Q Q # . . . . o 5 , , , , , : > , , , , , , I Q Q                                       ",
"                                            7 . . . . . . . . . . : c c c c c # . . G.                                          ",
"                                            7 . . . . . . . . . . : c c c c c # . . G.                                          ",
"                                            c.h.h.h.f.i.. . : r.e.g.D.D.m.m.m.j . . G.                                          ",
"                                                        . . 6 J.J.I.Y.Y.Y.Y.Y.n . . G.                                          ",
"                                                        . . 6 J.J.I.Y.Y.Y.Y.Y.n X . G.                                          ",
"                                                        m.m.h.7 6 9 0 0 0 0 0 i.m.m.                                            ",
"                                                            m.. . . . . . . . c.                                                ",
"                                                            m.. . . . . . . . c.                                                ",
"                                                                                                                                ",
"                                                                                                                                ",
"                                                                                                                                ",
"                                                                                                                                "
};
