/* XPM */
static char *d55f369170814777fa0f572556fc4667bSJ5TuTWSsgWYqLn[] = {
/* columns rows colors chars-per-pixel */
"64 64 250 2 ",
"   c None",
".  c black",
"X  c #020202",
"o  c #020203",
"O  c #060603",
"+  c #040405",
"@  c #0C0604",
"#  c #090904",
"$  c gray3",
"%  c #090909",
"&  c #0B0B0D",
"*  c gray5",
"=  c #0D0D0F",
"-  c #0E0E11",
";  c #0E0E12",
":  c #111212",
">  c gray7",
",  c #111115",
"<  c #141417",
"1  c #171716",
"2  c #16161A",
"3  c #17171C",
"4  c #181919",
"5  c #1D1D1D",
"6  c #221B15",
"7  c #2B1E16",
"8  c #381E1E",
"9  c #383818",
"0  c #3A3A1F",
"q  c #3E3E1F",
"w  c #1A1A20",
"e  c #1C1C22",
"r  c #1D1D23",
"t  c #1E1E25",
"y  c #1F1F26",
"u  c #232323",
"i  c #202224",
"p  c #212226",
"a  c #222326",
"s  c #252227",
"d  c #232329",
"f  c #25252D",
"g  c #26262F",
"h  c #2A2A2A",
"j  c #3B3B23",
"k  c #3C3C27",
"l  c #3C3C29",
"z  c #3D3D2B",
"x  c #2F3038",
"c  c #313131",
"v  c #313434",
"b  c #3F3037",
"n  c #3E3E31",
"m  c #3F3F35",
"M  c #3F3F36",
"N  c #38383F",
"B  c #501000",
"V  c #453124",
"C  c #463124",
"Z  c #473529",
"A  c #672B24",
"S  c #484A30",
"D  c #474838",
"F  c #665431",
"G  c #7A563F",
"H  c #343440",
"J  c #373743",
"K  c #3C3F42",
"L  c #3C3D47",
"P  c #3C3C49",
"I  c #3F3D48",
"U  c #3F3F4D",
"Y  c #4A3D46",
"T  c gray26",
"R  c #444443",
"E  c #454742",
"W  c #434344",
"Q  c gray28",
"!  c #42424A",
"~  c #45454B",
"^  c #46464E",
"/  c gray30",
"(  c #5B5B41",
")  c #414150",
"_  c #464651",
"`  c #444453",
"'  c #464656",
"]  c #474756",
"[  c #4A4D53",
"{  c #484957",
"}  c #484858",
"|  c #4C4D5B",
" . c #4C4C5C",
".. c #4D4D5D",
"X. c #4E4F5D",
"o. c #4E4F5F",
"O. c #4F4F5F",
"+. c #4B5050",
"@. c #4F5454",
"#. c #505151",
"$. c #555555",
"%. c #545959",
"&. c #63434A",
"*. c #774040",
"=. c #784040",
"-. c #714F44",
";. c #62534A",
":. c #5D6150",
">. c #5F6353",
",. c #7E6C49",
"<. c #7F6C49",
"1. c #525261",
"2. c #525361",
"3. c #575965",
"4. c #5D5D63",
"5. c #5B5E67",
"6. c #5A5C68",
"7. c #5B5E69",
"8. c #5D5F6A",
"9. c #5C5E6E",
"0. c #5D6363",
"q. c #626464",
"w. c #696D60",
"e. c #626468",
"r. c #666A6A",
"t. c #666C6C",
"y. c #676E6E",
"u. c #686868",
"i. c gray43",
"p. c #6F6F6F",
"a. c #7A7A65",
"s. c #70766C",
"d. c #666A72",
"f. c #696F72",
"g. c #686D74",
"h. c #6C7272",
"j. c #6C7077",
"k. c #6E7379",
"l. c gray44",
"z. c #727272",
"x. c #904F43",
"c. c #895F55",
"v. c #8A5A5A",
"b. c #A05F53",
"n. c #8E6F4F",
"m. c #8F6659",
"M. c #9A6C50",
"N. c #A86C58",
"B. c #A96D58",
"V. c #B3765E",
"C. c #967262",
"Z. c #997566",
"A. c #98716D",
"S. c #9D7575",
"D. c #AA7361",
"F. c #A47F7F",
"G. c #C35D40",
"H. c #E07050",
"J. c #B1815B",
"K. c #B2815B",
"L. c #89897C",
"P. c #90907F",
"I. c #B28266",
"U. c #BD8861",
"Y. c #BC8D7B",
"T. c #C58666",
"R. c #CA8C69",
"E. c #CC8F6A",
"W. c #CC906A",
"Q. c #D7976F",
"!. c #C6947A",
"~. c #CD9B7F",
"^. c #D19771",
"/. c #D69771",
"(. c #D79870",
"). c #D89870",
"_. c #DB9D75",
"`. c #DB9E76",
"'. c #777D81",
"]. c #787883",
"[. c #797F81",
"{. c #7A8182",
"}. c #7B8285",
"|. c #7D8386",
" X c #7F8688",
".X c #81818B",
"XX c #848B8A",
"oX c #858D8C",
"OX c #858C8D",
"+X c #858D8D",
"@X c #878E8E",
"#X c #878F8F",
"$X c #8A8A8B",
"%X c #969686",
"&X c #99998A",
"*X c #878791",
"=X c #838994",
"-X c #889090",
";X c #989898",
":X c gray62",
">X c #B79A9A",
",X c #9E9EA7",
"<X c #959AAA",
"1X c #969CAC",
"2X c #999FAD",
"3X c #999FAF",
"4X c #9AA2A7",
"5X c #9CA0AF",
"6X c #A0A0A8",
"7X c #A6A6AD",
"8X c gray66",
"9X c #A9A9A9",
"0X c gray68",
"qX c #B1A5A7",
"wX c #B3B3B2",
"eX c #B2B2B4",
"rX c #B6B6B6",
"tX c #B7B7BC",
"yX c gray",
"uX c #E2AA82",
"iX c #E3AB83",
"pX c #E4AF8A",
"aX c #E8B28A",
"sX c #E9B48C",
"dX c #EEBC94",
"fX c #EFBF97",
"gX c #C9B5B5",
"hX c #CFBEBA",
"jX c #CFBEBE",
"kX c #F0C098",
"lX c #BFBFC4",
"zX c #B7BFCC",
"xX c #BCC4D3",
"cX c gray76",
"vX c #C0C0C5",
"bX c gray77",
"nX c gray79",
"mX c #CBCBCB",
"MX c #D5D5CF",
"NX c #C0C8D8",
"BX c #C8CFDD",
"VX c gray82",
"CX c #DBDBD6",
"ZX c #D8D8D8",
"AX c #DADADA",
"SX c gray86",
"DX c #DDDDDD",
"FX c #EFD3CB",
"GX c #F7D8CF",
"HX c white",
/* pixels */
"                                                                                                                                ",
"                                                                                                                                ",
"                                                                                                                                ",
"                                                                                                                                ",
"                                                        *X.X.X.X.X.X.X.X.X.X.XvX                                                ",
"                                                        2.} } } } } } } } } } 7X                                                ",
"                                                        2.} } } } } } } } } } 7X                                                ",
"                                            %X( ( ( ( ( {.|.|.|.|.|.|.|.|.|.|.w.( ( ( ( ( CX                                    ",
"                                            a.9 9 9 9 9 oX-X-X-X-X-X-X-X-X-X-X:.9 9 9 9 9 MX                                    ",
"                                            a.9 9 9 9 9 XX-X-X-X-X-X-X-X-X-X-X>.9 9 9 9 9 VX                                    ",
"                                      &Xq q E ' { [.oXoX-X-X-X-X-X-X-X-X-X-X-X@X@XOX5.' ] 1 $ $                                 ",
"                                      %X9 9 T } { {.-X-X-X-X-X-X-X-X-X-X-X-X-X-X*X-X0.' ' ; . .                                 ",
"                                  AXDXL.0 j W } { }.-X-X-X-X-X-X-X-X-X-X-X-X-X-X-X-X9.{ } : O O                                 ",
"                                :X. . f } } } } { }.-X-X-X-X-X-X-X-X-X-X-X-X-X-X-X-X9.} } j 9 9                                 ",
"                                :X. . f } } } } { }.-X-X-X-X-X-X-X-X-X-X-X-X-X-X-X-X0.} } j 9 9                                 ",
"                                :X. . f } } } } { k.'.'.*X-X-X-X-X-X-X-X-X-X-X X{.'.3.} } n l l wXrXyX                          ",
"                                :X. . f } } } } } } } } OX-X-X-X-X-X-X-X-X-X#Xd.} } } } } } } } . . 5                           ",
"                                :X. . f } } } } } } } } OX-X-X-X-X-X-X-X-X-X-Xd.} } } } } } } } O . 5                           ",
"                                :X. . f } } } } } } } } j.k.k.k.k.k.k.k.k.k.k.7.} } } } } } } } o . 5                           ",
"                                :X. . f } } } } } } } } } } } } } } } } } } } } } } } } } } } } o . 5                           ",
"                                :X. . f } } } } ' ' ' } } } } } } } } } } } } } } } } } } } } } o . 5                           ",
"                          AXi.i.q.+.+.E m m m m D ` } } } } } } } } } } } } } } } } } } } } } } o . 5                           ",
"                          cX. . v -X-X>.9 9 9 9 9 ~ } } } } } } } } } } } } } } } } } } } } } } o . 5                           ",
"                          cX. . v -X-X>.9 9 9 9 9 ~ } } } } } } } } } } } } } } } } } } } } } } o . 5                           ",
"                          cX. . p 7.7.r.s.s.s.s.s.D z z z z z z z Z { { { } } } } } } } } t 2 2 9X0XrX                          ",
"                          cX. . w } } g.-X-X-X-X-XS 9 9 9 9 9 9 0 z { { { { } } } } } } } = . .                                 ",
"                          cX. . w } } g.-X-X-X-X-XS 9 9 9 9 9 9 9 k { { } } } } } } } } } ; . .                                 ",
"                            VXVX$X& & x 2.2.2.2.2.1 # # ! ^ ^ ^ ^ J & & & & & & & & & & & . . .                                 ",
"                                :X. . f } } } } } ; . . ` } } } } J . . o . . . . . . . . . . .                                 ",
"                                :X. . f } } } } } ; . . ` } } } } J . . . . . . . . . . . . . .                                 ",
"                                gX*.*.B.(.(.(.(.(.7 . . E.(.(.(.).J.9 9 ,.fXfXiX)./.V . . . . .                                 ",
"                                gX=.=.B.).).).).).7 . . W.).).).).J.9 9 ,.kXfXiX).).V . . . . .                                 ",
"                                jXv.v.D.R.R./._.`.Z 6 6 ^._._.).).J.9 9 n.fXfXuX).).V . . 5 u u                                 ",
"                                      >X=.=.!.fXkXkXkXkXkXkXdX).).J.9 9 ,.fXkXuX).).V . . mX                                    ",
"                                      >X=.=.!.fXkXkXkXkXkXkXdX).).K.9 9 ,.kXkXiX).).V . . mX                                    ",
"                                      gXS.S.!.~.~.pXsXsXsXsXaX).).U.F F n.Y.uXI.M.M.;.Q Q AX                                    ",
"                                            F.=.G R._./.).).).).).).).).D.=.=.8 . . 9X                                          ",
"                                            F.=.A R././.).).).).).).).).V.=.=.8 . . 8X                                          ",
"                                            A.A A m.A.Z.Z.Z.Z.-.G G G G -.&.&.b t d eX                                          ",
"                                            v.B B Y } } { { ^ . . . . . r } } } } } lX                                          ",
"                                            c.B B Y } } } } ) . . . . . e { { { } } lX                                          ",
"                                            c.B B x.b.b.s t d #.@.@.@.@.K y t H } } 4.u.u.DX                                    ",
"                                            c.B B G.H.H.@ . = #X-X-X-X-X%.. . g } } 3 . . mX                                    ",
"                                            c.B B G.H.H.@ . = #X-X-X-X-X%.. . g } } 3 . . mX                                    ",
"                                      tX].].qXjXhXFXGXGXP H L -X-X-X-X-X%.. . g } } 3 . . mX                                    ",
"                                      ,X} } vXHXHXHXHXHX2.{ X.-X-X-X-X-X%.. . g } } 3 . . mX                                    ",
"                                      ,X} } vXHXHXHXHXHX2.] X.-X-X-X-X-X%.. . g } } 3 . . mX                                    ",
"                                      ,X} } 5XBXBXBXBXBXO.} X.-X-Xh.: : d U U ` } } 3 . . mX                                    ",
"                                      ,X} } 1XNXNXNXNXNXO.} X.-X-Xd.. o t } } } } { 3 . . mX                                    ",
"                                      6X . .<XxXxXxXxXxX .'  .@X@Xt.o o t } } } } { w O O mX                                    ",
"                                            $.. . . . . . . . . . , } } } } } } } } 1XNXxXd . .                                 ",
"                                            $.. . . . . . . . . . , } } } } } } } } 5XNXNXd . .                                 ",
"                                            z.h h $ . . . . . . . ; P P { 0.9.9.9.9.5XxXzXp . .                                 ",
"                                                  c . . . . . . . . . . | NXxXBXxXNX4X*X-X4 . .                                 ",
"                                                  c . . . . . . . . . . [ xXNXNXNXxX4X-X-X4 . .                                 ",
"                                                  z./ / / / / / / / / / r.=X=X=X=X=Xf.0.0.#./ /                                 ",
"                                                                        ;X. . . . . . . . mX                                    ",
"                                                                        ;X. . . . . . . . mX                                    ",
"                                                                        bXz.z.z.z.z.z.z.z.                                      ",
"                                                                                                                                ",
"                                                                                                                                ",
"                                                                                                                                ",
"                                                                                                                                ",
"                                                                                                                                "
};
