/* XPM */
static char *_dcb6e7b235b4eafd39acaa68a55eb2diahWg9A1c6W6ZOLK[] = {
/* columns rows colors chars-per-pixel */
"64 64 255 2 ",
"   c None",
".  c black",
"X  c #020202",
"o  c gray1",
"O  c #040404",
"+  c #050506",
"@  c gray4",
"#  c #0B0B0B",
"$  c #0A0A0C",
"%  c gray6",
"&  c #111107",
"*  c #0E0E11",
"=  c #0F1011",
"-  c #111111",
";  c #101013",
":  c #121315",
">  c #121414",
",  c #141418",
"<  c #16161B",
"1  c #181818",
"2  c #1A1B1D",
"3  c #1A1A1F",
"4  c #2F2F14",
"5  c #363617",
"6  c #383818",
"7  c #3A3A1F",
"8  c #1A1A20",
"9  c #1E2020",
"0  c #202020",
"q  c #222222",
"w  c #202024",
"e  c #272727",
"r  c #2A2A25",
"t  c #212128",
"y  c #23232B",
"u  c #252528",
"i  c #262929",
"p  c #2F2F2F",
"a  c #3B3B25",
"s  c #3D3D2E",
"d  c #292932",
"f  c #292933",
"g  c #2B2B33",
"h  c #2C2C35",
"j  c #2E2E38",
"k  c #2F2F3A",
"l  c gray21",
"z  c #3F3F35",
"x  c #343639",
"c  c #33333E",
"v  c #34343F",
"b  c #363939",
"n  c #373A39",
"m  c #3A3D3D",
"M  c #3C3C3C",
"N  c #3C3F3F",
"B  c #501000",
"V  c #4D231E",
"C  c #63291D",
"Z  c #6D332E",
"A  c #733929",
"S  c #643636",
"D  c #693A38",
"F  c #6F3B3B",
"G  c #4D4523",
"H  c #4F4327",
"J  c #5B4D2B",
"K  c #42423F",
"L  c #5E4435",
"P  c #6A4A37",
"I  c #6B5734",
"U  c #353540",
"Y  c #353541",
"T  c #3D3D41",
"R  c #383844",
"E  c #383845",
"W  c #3A3A46",
"Q  c #3E3E4C",
"!  c #643F43",
"~  c #414140",
"^  c #424241",
"/  c #404343",
"(  c #434343",
")  c #434344",
"_  c #444447",
"`  c #424448",
"'  c #464649",
"]  c #44444A",
"[  c #45454C",
"{  c #4C4C4C",
"}  c #5A4244",
"|  c #5C5C42",
" . c #585844",
".. c #575A4D",
"X. c #414150",
"o. c #434352",
"O. c #464650",
"+. c #474755",
"@. c #474756",
"#. c #474757",
"$. c #484858",
"%. c #494959",
"&. c #4B4C5B",
"*. c gray34",
"=. c #555558",
"-. c #57595B",
";. c #565B5B",
":. c #575C5C",
">. c gray35",
",. c #5A5A5A",
"<. c #6B4247",
"1. c #6E4547",
"2. c #784040",
"3. c #7A4141",
"4. c #7D4442",
"5. c #7F4643",
"6. c #724949",
"7. c #7F5B47",
"8. c #5F6353",
"9. c #636859",
"0. c #555563",
"q. c #575764",
"w. c #5B5F67",
"e. c #5C5E69",
"r. c #5D5E6E",
"t. c #5E616B",
"y. c #5F626D",
"u. c #656A6E",
"i. c gray43",
"p. c #6D7267",
"a. c #6D726F",
"s. c #787863",
"d. c #7E7E69",
"f. c #606171",
"g. c #636473",
"h. c #626474",
"j. c #636575",
"k. c #656970",
"l. c #656972",
"z. c #676B73",
"x. c #6C6C79",
"c. c #6E6E7B",
"v. c #767971",
"b. c #71767C",
"n. c #737979",
"m. c #73787B",
"M. c #72787D",
"N. c #747A7F",
"B. c #757A7F",
"V. c #797F79",
"C. c gray50",
"Z. c #81311B",
"A. c #844E42",
"S. c #845252",
"D. c #885955",
"F. c #885858",
"G. c #905951",
"H. c #915A52",
"J. c #995E50",
"K. c #8D6349",
"L. c #8E644A",
"P. c #9A6E53",
"I. c #9C6E51",
"U. c #A87757",
"Y. c #A3755A",
"T. c #B57F5E",
"R. c #9A6962",
"E. c #907775",
"W. c #E07050",
"Q. c #BC8461",
"!. c #B08269",
"~. c #BE9877",
"^. c #C18B6C",
"/. c #C79E7D",
"(. c #D89870",
"). c #C9A17F",
"_. c #E0A57D",
"`. c #E1A67E",
"'. c #E1A77F",
"]. c #767A83",
"[. c #787E82",
"{. c #797E88",
"}. c #7A7F89",
"|. c #7B8282",
" X c #7A8084",
".X c #808784",
"XX c gray53",
"oX c #828A87",
"OX c #8D8D80",
"+X c #81898A",
"@X c #848C8A",
"#X c #838B8C",
"$X c #858C8D",
"%X c #878F8E",
"&X c #8B8B8B",
"*X c #8E8E8E",
"=X c gray56",
"-X c #99998A",
";X c #9A9A8B",
":X c #888F90",
">X c #858999",
",X c #889090",
"<X c #8E919F",
"1X c gray57",
"2X c #959595",
"3X c #93939C",
"4X c #99949A",
"5X c #B49892",
"6X c #A6A699",
"7X c #9C9CA5",
"8X c #979EA9",
"9X c #999FAC",
"0X c gray64",
"qX c #A1A1A9",
"wX c #A3A3AB",
"eX c #A6A6AD",
"rX c #AAAAAA",
"tX c #ACACAC",
"yX c #AFAFAF",
"uX c #A2A8B6",
"iX c #A6ADBB",
"pX c #B4B4B4",
"aX c #B8B8BA",
"sX c gray74",
"dX c #D6A885",
"fX c #DEAC89",
"gX c #C9A79D",
"hX c #E0AF8D",
"jX c #E5B38F",
"kX c #E3B68F",
"lX c #EDBB93",
"zX c #EEBD95",
"xX c #ECBD96",
"cX c #EEBE96",
"vX c #EEBE97",
"bX c #F0BF97",
"nX c #F0C098",
"mX c #F2C2B4",
"MX c #B2B9C8",
"NX c #B4BCC8",
"BX c #BFC7D7",
"VX c gray78",
"CX c #C8C8C8",
"ZX c #CBCBCF",
"AX c #D7CAC7",
"SX c #D2D2CC",
"DX c #C0C8D8",
"FX c #D0D0D0",
"GX c #DCD1D0",
"HX c #DFD4D4",
"JX c #DEDEDA",
"KX c #DDDDDD",
"LX c #D2D8E3",
"PX c #DFDFE1",
"IX c white",
/* pixels */
"                                                                                                                                ",
"                                                                                                                                ",
"                                                                                                                                ",
"                                                                                                                                ",
"                                                  wX7X7X7X7X7X7X7X7X7X7XZX                                                      ",
"                                                  0.$.$.$.$.$.$.$.$.$.$.wX                                                      ",
"                                                  0.$.$.$.$.$.$.$.$.$.$.wX                                                      ",
"                                      6Xs.s.s.s.s.m.M.M.M.M.M.M.M.M.M.b.v.s.s.s.s.s.JX                                          ",
"                                      d.6 6 6 6 6 oX,X,X,X,X,X,X%X,X,X,X8.6 6 6 6 6 SX                                          ",
"                                      d.6 6 6 6 6 oX,X,X,X,X,X,X,X,X,X,X8.5 6 6 6 6 SX                                          ",
"                                2Xp l T [ [ a.V.V.%X,X,X,X,X,X,X,X,X,X,XoXV.V.-.[ [  .| |                                       ",
"                                C.. . j $.$. X,X,X,X,X,X,X,X,X,X,X,X,X,X,X,X%Xt.$.$.a 6 6                                       ",
"                                C.. . h $.$. X,X,X,X,X,X,X,X,X,X,X,X,X,X,X,X,Xy.$.$.a 6 6                                       ",
"                                ;X5 5 ^ $.$. X,X,X,X,X,X,X,X,X,X,X,X,X,X,X,X%Xt.$.$.+.+.+.% # q                                 ",
"                                ;X6 6 ^ $.$. X,X,X,X,X,X,X,X,X,X,X,X,X,X,X,X,Xy.$.$.$.$.$.O . 1                                 ",
"                            KXKXOX7 7 ( $.$.N.+X+X,X,X,X,X,X,X,X,X,X,X,X$X+X+Xe.$.$.$.$.$.O . 1                                 ",
"                          0X. . y $.$.$.$.$.$.$.$.#X,X,X,X,X,X,X,X,X,X,Xz.$.$.$.$.$.$.$.$.O . 1                                 ",
"                          0X. . y $.$.$.$.$.$.$.$.#X,X,X,X,X,X,X,X,X,X,Xz.$.$.$.$.$.$.$.$.O . 1                                 ",
"                          0X. . y $.$.$.$.$.$.$.$.N.[.[.[.[.[.[.[.[.|.[.f.@.$.$.$.$.$.$.$.O . 1                                 ",
"                          0X. . y $.$.$.$.$.$.$.$.$.$.$.$.$.$.$.$.$.$.$.$.@.$.$.$.$.$.$.$.O . 1                                 ",
"                          0X. . y $.$.$.$.$.$.$.$.$.$.$.$.$.$.$.$.$.$.$.$.$.$.$.$.$.$.$.$.O . <                                 ",
"                          0X. . y $.$.$.$.$.$.$.$.$.$.$.$.$.$.$.$.$.$.$.$.$.$._ K K K K ^ n n / 2X2XtX                          ",
"                          0X. . y $.$.$.$.$.$.$.$.$.$.$.$.$.$.$.$.$.$.$.$.$.$.s 6 6 6 6 6 @X,X|.. . M                           ",
"                          0X. . y $.$.$.$.$.$.$.$.$.$.$.$.$.$.$.$.$.$.$.$.$.$.s 6 6 6 6 6 @X,X|.. . M                           ",
"                          FXXXXX=.y w W $.$.$.$.$.$.$.$.$.$.O.z z z z z z z z ..9.9.9.9.9.k.k.w.. . M                           ",
"                                C.. . j $.$.$.$.$.$.$.$.$.$.] 6 6 6 6 6 6 6 6 p.,X,X,X,X,X&.$.X.. . M                           ",
"                                [.. . j $.$.$.$.$.$.$.$.$.$.] 6 6 6 6 6 6 6 6 p.,X,X,X,X,X&.$.X.. . M                           ",
"                                !.. . * < < < < < < < < < < w ) ) ) ) ) r & & ` e.e.e.e.e.3 < u rXrXsX                          ",
"                                ].o . . . . . . . . . . . . ; $.$.$.$.$.y . . j $.$.$.$.$.O . 1                                 ",
"                                [.X . . . . . . . . . . . . ; $.$.$.$.$.y . . k $.$.$.$.$.O . 1                                 ",
"                                [.. . . . . L.T.T./.dX~.4 4 H ^.^.^.^.^.L . . 7.^.^.^.^.^.D S 6.                                ",
"                                C.. . . . . U.(.(.vXxXhX6 6 J (.(.(.(.(.P . . L.(.(.(.(.(.4.2.S.                                ",
"                                E.. . . . . U.(.(.lXnXkX6 6 J (.(.(.(.(.P . . L.(.(.(.(.(.4.2.S.                                ",
"                                      >.. . U.(.(.vXnXkX6 6 J (.(.'.bXbXvXvXvXvXbXbXG.2.3.                                      ",
"                                      ,.. . U.(.(.vXnXkX6 6 J (.(.'.bXbXnXnXvXnXnXnXG.2.2.                                      ",
"                                      i.0 q I.Q.Q.fXjXdXG H I (.(.'.lXlXlXlXlXjXhXhXR.F.F.                                      ",
"                                            l o . F P A.(.(.(.(.(.(.(.(.(.(.(.J.2.2.HX                                          ",
"                                            l o . F ! 4.(.(.(.(.(.(.(.(.(.(.(.J.2.2.HX                                          ",
"                                            [ , , ! ! 5.I.I.I.I.I.Y.!.!.!.!.!.A.Z Z GX                                          ",
"                                            c.%.%.%.%.#.. . . . . 8 $.$.$.$.$.V B B AX                                          ",
"                                            c.$.$.$.$.X.. . . . . 8 $.$.$.$.$.V B B AX                                          ",
"                                      pX1X=Xq.$.$.h f h m m m m m x f f } D.D.C B B AX                                          ",
"                                      :.. . W %.$.O . # ,X,X,X,X,X;.. . A W.W.Z.B B AX                                          ",
"                                      :.. . R #.$.O . # ,X,X,X,X,X-.. . A W.W.Z.B B AX                                          ",
"                                      ,.. . W #.$.+ . # ,X,X,X,X,Xu.f f E.mXmXgX5X5X4X3X3X                                      ",
"                                      ,.. . W #.$.+ . $ ,X,X,X,X,Xb.$.$.eXIXIXIXIXIXx.$.$.                                      ",
"                                      ,.. . E #.$.O . # ,X,X,X,X,Xb.$.$.eXIXIXIXIXIXx.$.$.                                      ",
"                                      ,.. . W #.$.U v U i i M ,X,Xb.$.$.<XLXLXLXLXLXg.$.$.                                      ",
"                                      ,.. . R %.%.$.$.o.. . 9 ,X,Xb.$.$.>XDXDXDXDXDXf.$.$.                                      ",
"                                      ,.. . R $.$.$.$.o.. . 9 ,X,Xb.$.$.>XDXDXDXDXDXf.$.$.                                      ",
"                                1Xq w ].iXiXr.$.$.$.$.$.Q Q U > > ; $ $ , 2 2 2 2 2 aXPXPX                                      ",
"                                [.. X  XDXDXj.$.$.$.$.$.%.+.W . . . . . . . . . . . CX                                          ",
"                                C.. .  XDXDXj.$.%.%.%.%.+.+.W . . . . . . . . . O o CX                                          ",
"                                C.. . ;.,X,XNXDXDXDXDXMX. . . . . . . . . . . 0X                                                ",
"                                C.. . :.,X,XNXDXDXDXDXMX. . . . . . . . . . . 0X                                                ",
"                                1Xe e ,.n.n.8XuXuXuXuX9Xu e e e e e e e e e e yX                                                ",
"                                      ,.. . . . . . . ;                                                                         ",
"                                      ,.. . . . . . . ;                                                                         ",
"                                      &X{ { { { { { { *.                                                                        ",
"                                                                                                                                ",
"                                                                                                                                ",
"                                                                                                                                ",
"                                                                                                                                ",
"                                                                                                                                "
};
