/* XPM */
static char *fba7e31285ca43aabde6b3bc61d7ab224TkLz5yHiR92fZR9[] = {
/* columns rows colors chars-per-pixel */
"64 64 142 2 ",
"   c None",
".  c #000000",
"X  c #0B0B04",
"o  c #070708",
"O  c #070808",
"+  c #0D0D0E",
"@  c #0F100A",
"#  c #111107",
"$  c #131309",
"%  c #1B1A0D",
"&  c #0E0E12",
"*  c #131314",
"=  c #181812",
"-  c #17171C",
";  c #171819",
":  c #1D1D1D",
">  c #24240F",
",  c #252510",
"<  c #2D2D13",
"1  c #353517",
"2  c #383818",
"3  c #1D1D21",
"4  c #212126",
"5  c #24242B",
"6  c #26282A",
"7  c #2C2D2D",
"8  c #3B3B23",
"9  c #3E3E2F",
"0  c #2A2A33",
"q  c #2F2F3A",
"w  c #2E3131",
"e  c #323334",
"r  c #31313C",
"t  c #37383B",
"y  c gray23",
"u  c #4E3728",
"i  c #4F382A",
"p  c #523D30",
"a  c #464421",
"s  c #4D4A25",
"d  c #514E27",
"f  c #514E28",
"g  c #56522B",
"h  c #59552D",
"j  c #454635",
"k  c #404039",
"l  c #574537",
"z  c #5A4839",
"x  c #5F5A31",
"c  c #50523F",
"v  c #674937",
"b  c #6A4B37",
"n  c #6B4D39",
"m  c #6B6538",
"M  c #756D3E",
"N  c #343440",
"B  c #3B3B45",
"V  c #3E3E4B",
"C  c #3E4046",
"Z  c #414242",
"A  c #44444A",
"S  c #454949",
"D  c #494C4C",
"F  c #555843",
"G  c #424251",
"H  c #484858",
"J  c #4E5252",
"K  c #4F505E",
"L  c #525555",
"P  c #535758",
"I  c #55595B",
"U  c #5E5E5D",
"Y  c #765F4B",
"T  c #685B50",
"R  c #5D6150",
"E  c #787040",
"W  c #666658",
"Q  c #555663",
"!  c #565863",
"~  c #5D5F6A",
"^  c #5D6364",
"/  c #5E616B",
"(  c #646666",
")  c #62676B",
"_  c #6C6C6C",
"`  c #6D7267",
"'  c #7A7A65",
"]  c #636770",
"[  c #666A72",
"{  c #686E71",
"}  c #6D7373",
"|  c #6E7279",
" . c #707777",
".. c #72777D",
"X. c #7A7A7A",
"o. c #B7815F",
"O. c #A8886D",
"+. c #BF8663",
"@. c #B18E70",
"#. c #B79274",
"$. c #C48B67",
"%. c #CC906A",
"&. c #D2936D",
"*. c #D49770",
"=. c #D99A72",
"-. c #757684",
";. c #777D81",
":. c #7C8285",
">. c #7F848B",
",. c #8C8C82",
"<. c #858C8C",
"1. c #8A8A8A",
"2. c #969686",
"3. c #889090",
"4. c #8E949D",
"5. c #9E9E93",
"6. c #979799",
"7. c gray62",
"8. c #A4A496",
"9. c #9999A2",
"0. c #9EA6AC",
"q. c #9DA2B2",
"w. c gray65",
"e. c #A6A6AD",
"r. c #ACACAC",
"t. c #B3B3A8",
"y. c #A3ABB2",
"u. c #A7AFB8",
"i. c gray69",
"p. c #B2B2B9",
"a. c #BCBCBC",
"s. c #D4AA86",
"d. c #E9BA93",
"f. c #F0C098",
"g. c #B2B9C9",
"h. c #BCC4D3",
"j. c #C2C2C2",
"k. c #CDCDC9",
"l. c #D5D5CF",
"z. c #C0C8D8",
"x. c #D3D3D4",
"c. c #DADADB",
/* pixels */
"                                                                                                                                ",
"                                                                                                                                ",
"                                                                                                                                ",
"                                                    Q H H H H H H H H H H e.                                                    ",
"                                                    P H H H H H H H H H H e.                                                    ",
"                                        c.k.l.k.k.k.~ ! Q Q Q Q ! ! ! Q Q 6.l.k.k.k.l.                                          ",
"                                        ' 2 2 2 2 2 <.3.3.3.3.3.3.3.3.3.3.R 2 1 2 2 2 l.                                        ",
"                                        ' 2 1 1 2 2 <.3.3.3.3.3.3.3.3.3.3.R 2 2 2 2 2 x.                                        ",
"                                  l.t.t.W 9 9 F F F <.3.3.3.3.3.3.3.3.3.3._ F F j 9 9 5.t.t.                                    ",
"                                  2.2 2 Z H H :.3.3.3.3.3.3.3.3.3.3.3.3.3.3.3.3.~ H H 8 2 2                                     ",
"                                  2.2 2 Z H H :.3.3.3.3.3.3.3.3.3.3.3.3.3.3.3.3.~ H H 8 2 2                                     ",
"                            k.X.X.U k k A H H :.3.3.3.3.3.3.3.3.3.3.3.3.3.3.3.3./ H H k k k X.X.1.                              ",
"                            7.. . 5 H H H H H :.3.3.3.3.3.3.3.3.3.3.3.3.3.3.3.3.~ H H H H H . . :                               ",
"                            7.. . 5 H H H H H ;.3.3.3.3.3.3.3.3.3.3.3.3.3.3.3.3.~ H H H H H . . :                               ",
"                            7.. . 5 H H H H H ~ / ~ <.3.3.3.3.3.3.3.3.3.3...) ~ Q H H H H H . . :                               ",
"                            7.. . 0 H H H H H H H H <.3.3.3.3.3.3.3.3.3.3.[ H H H H H H H H . . :                               ",
"                            7.. . 5 H H H H H H H H <.3.3.3.3.3.3.3.3.3.3.[ H H H H H H H H o . :                               ",
"                            7.. . 5 H H H H H H H H Q Q Q Q Q Q Q Q Q Q ! H H H H H H H H H . . :                               ",
"                            7.. . 0 H H H H H H H H H H H H H H H H H H H H H H H H H H H H . . :                               ",
"                            7.. . 5 H H H H H H H H H H H H H H H H H H H H H H H H H H H H . . :                               ",
"                      j.+ + p %.%.v o o q H H H H H H H H H H H H H H H H H H H H H H & o . $.%.o.+ + D                         ",
"                      j.. . u =.=.v . . q H H H H H H H H H H H H H H H H H H H H H H & . . &.=.+.. . Z                         ",
"                      j.. . i =.=.n . . 0 G A V G A H H H H H H H H H H H G A G G G A & . . *.=.$.. . Z                         ",
"                      j.. . l f.d.Y . . . . . . . . G H H H H H H H H H H 5 . . . . . . . . d.f.s.. . Z                         ",
"                      j.. . l f.f.Y . . . . . . . . G H H H H H H H H H H 5 . . . . . . . . d.f.s.. . Z                         ",
"                      k.y y T #.#.z . . X X X % = > A A A A A A A A A A A 7 = % $ X X . . . #.#.O.y y _                         ",
"                            7.. . . . . > 2 2 m E E 2 2 2 2 2 2 2 2 2 2 2 h M E s 2 2 X . . . . :                               ",
"                            7.. . . . . > 2 2 m E E 2 2 2 2 2 2 2 2 2 2 2 x E E s 2 2 X . . . . :                               ",
"                            j.~ ( 7 . . , 2 2 g x x g d d d d d d d d d d h x x a 2 2 X . . . . :                               ",
"                                  X.. . , 2 2 2 2 2 M E M M E E E E E E M h 2 2 2 2 2 X . . . . :                               ",
"                                  X.. . , 2 2 1 2 2 M M E E E E E E M E M g 2 2 2 2 2 X . . . . :                               ",
"                                  X.. . # % % 1 2 2 g h h g g g g h g g h a 2 2 > % % . . . ] [ | 9.9.p.                        ",
"                                  X.. . . . . < 2 2 2 2 2 2 2 2 2 2 2 2 2 2 2 2 $ . . . . . h.z.g.H H -.                        ",
"                                  X.. . . . . < 2 2 2 2 2 2 2 2 2 2 2 2 2 2 2 2 $ . . . . . h.z.g.H H -.                        ",
"                                  X.. . 4 r r = $ $ 1 2 2 2 2 2 2 2 2 2 2 > $ # 5 r r I ^ ^ h.z.g.H H -.                        ",
"                                  X.. . q H H & . . 1 2 2 2 2 2 2 2 2 2 2 % . . r H H :.<.3.h.z.g.H H ..                        ",
"                                  X.. . q H H & . . 1 2 2 2 2 1 2 2 2 2 2 % . . r H H :.3.3.h.h.g.H H -.                        ",
"                            i.7 7 J  . .! H H {  . .@ X X X X X X X X X X k  . .! H H :.3.3.6 5 t c.c.                          ",
"                            9.. . S 3.3./ H H :.3.3.O . . . . . . . . . . D 3.3./ H H :.3.3.. . :                               ",
"                            9.o . S 3.3./ H H :.3.3.O . . . . . . . . . . D 3.3./ H H >.3.3.o . :                               ",
"                      x.K K -.h.h.y.3.3.e . .  .3.3.<.<.<.<.<.<.<.<.<.<.<.<.3.3.w . . C H H o . :                               ",
"                      x.H H -.z.h.y.3.3.e . . } 3.3.3.3.3.<.3.3.3.3.3.<.3.3.3.3.7 . . V H H . . :                               ",
"                      x.H H -.z.z.u.4.4.e . . } 3.3.3.3.3.3.3.3.3.3.3.3.3.3.3.3.0 . . N A V 3 : t                               ",
"                      x.H H -.z.z.z.z.z.S . . } 3.3.3.3.3.3.3.3.3.3.3.3.3.3.3.3.7 . . . . .                                     ",
"                      x.H H -.h.z.h.z.z.A . . } 3.3.3.3.3.3.3.3.3.3.3.3.3.3.3.3.7 . . . . .                                     ",
"                      c.-.-.>.4.4.4.4.4.r . . ^ ;.;.3.3.3.3.3.3.3.3.3.3.3.>.;.;.6 . . . . .                                     ",
"                            w.. . . . . . . . B H H <.3.3.3.3.3.3.3.3.3.3.[ H H - . . . . .                                     ",
"                            9.. . . . . . . . B H H <.3.3.3.3.3.3.3.3.3.3.{ H H - . . . . .                                     ",
"                            j.( ( ( ( ( 6 . . 5 0 0 L L P | | | | | ) J L B 0 0 5 3 3 % $ %                                     ",
"                                        L . . . . . . . o H H H H H q . . . . . r H H 8 2 2                                     ",
"                                        L . . . . . . . o H H H H H 0 . . . . . r H H 8 2 2                                     ",
"                                        t.1.1.3 . . . . . 5 4 4 4 4 5 0 0 0 0 0 5 3 4 ,.8.8.                                    ",
"                                              e . . . . . . . . . . 3 H H H H H 3 . . k.                                        ",
"                                              e . . . . . . . . . . 3 H H H H H - . . k.                                        ",
"                                              a.r.r.i.r.7.. . ; ^ ( ;.q.q.q.q.q.r . . k.                                        ",
"                                                          . . 4 3.3.q.h.z.z.z.z.C . . k.                                        ",
"                                                          . . 4 3.3.0.h.z.z.z.z.A . . k.                                        ",
"                                                          x.x.w.* ; ; 3 3 3 3 3 6.x.x.                                          ",
"                                                              a.. . . . . . . . w.                                              ",
"                                                              a.. . . . . . . . w.                                              ",
"                                                                                                                                ",
"                                                                                                                                ",
"                                                                                                                                ",
"                                                                                                                                "
};
