/* XPM */
static char *result[] = {
/* columns rows colors chars-per-pixel */
"32 32 13 1 ",
"  c black",
". c #980000",
"X c #A05818",
"o c #F85008",
"O c #408068",
"+ c #D0A000",
"@ c #F8F000",
"# c #88A8B0",
"$ c #88A8B8",
"% c #F8E098",
"& c #D0E0D8",
"* c #F8F8F8",
"= c None",
/* pixels */
"================================",
"================================",
"================================",
"=====    =====    ==============",
"====  &&#  == + %+  ============",
"=== O&O  #O  % %+ %+    ========",
"=== O   &&#O %#%#%+XX &#  ======",
"==== # &# OO X%#%XX# &O### =====",
"=====     O  &%+X##&# O#&## ====",
"==========  O +X&*###  &O&## ===",
"========= O +%O%  %#OO#  &OO ===",
"========= #O +%%%%%+ #&#O  O ===",
"======== O&O X..o%+ O#&&# O ====",
"======== &&OO +%%+ ##O#&&  =====",
"======== #& #O    &&&#O##O =====",
"======= O## O#&#&&&&&# #&# =====",
"======= #&#O O#OOO###O #&&O ====",
"======= #   $  #O#&&#  O&&# ====",
"======== O&# $  OOO  +  #&# ====",
"======= O&&&O  +@+ O# $ O#O ====",
"======= #&&O##  + O&&#  &&O ====",
"======= O&# O&O   #&&# & &# ====",
"=====  OOOO  OO   &&&O #&&# ====",
"==== &O&&O ==     &&#O  ## =====",
"===== OOOO ===== O&#O ==  ======",
"======     ====  OOO ===========",
"============== &O&&O ===========",
"=============== OOOO ===========",
"================     ===========",
"================================",
"================================",
"================================"
};
