/* XPM */
static char *result[] = {
/* columns rows colors chars-per-pixel */
"32 32 12 1 ",
"  c black",
". c #980000",
"X c #A05818",
"o c #F85008",
"O c #408068",
"+ c #D0A000",
"@ c #F8F000",
"# c #88A8B0",
"$ c #F8E098",
"% c #D0E0D8",
"& c #F8F8F8",
"* c None",
/* pixels */
"****** *************************",
"***   % ************************",
"** #%O%  ***********************",
"** %#O #% **********************",
"** ##  % *****     *************",
"***  ##  ***   + #  ***** ******",
"** ##OO #   $ O$O $  *** %   ***",
"** O%%%O%%# +$#$#$+ # *  %O%# **",
"*** ##%#%%# X$#$#$X #% %# O#% **",
"****  #%#% O&X+$+X&O %% %  ## **",
"****** O## O& X+X &O %## ##   **",
"*****  OO# +Xo&O&oX+ #%% O#OO **",
"***  #%%#OO +$$$$$+ OOOOOOO  ***",
"** #%%##%#O X.   .+ O###   *****",
"** %%#%%%O#% $ooo$ ##%%## ******",
"* #%#O##  %%% $$$ #%O%##%% *****",
"* %%#   * #%%%   #%%O#%%#%% ****",
"* %#O *** #%%%#%%%%#O #%O#%# ***",
"* #%% *** O##OOO####O   #%%% ***",
"* O% % *** O#%O#%%#O ** O%%# ***",
"** %%# **** +OOOOO  ** O#%# ****",
"** O#O ****   +@@   ** %%#O ****",
"***   **** #O  @+ O#  % %O *****",
"********** #%     %## #%% ******",
"********* #%%O   O##O O#O ******",
"********* #%#O ** OOO    *******",
"********* #%O *** #OOO *********",
"********* O#O *** #%O% *********",
"******** OOOO ****    **********",
"******* %O%%# ******************",
"*******  OOOO ******************",
"*********    *******************"
};
