/* XPM */
static char *result[] = {
/* columns rows colors chars-per-pixel */
"32 32 12 1 ",
"  c black",
". c #980000",
"X c #A05818",
"o c #F85008",
"O c #408068",
"+ c #D0A000",
"@ c #88A8B0",
"# c #F8E098",
"$ c #A8C0C8",
"% c #D0E0D8",
"& c #F8F8F8",
"* c None",
/* pixels */
"********************************",
"********   ********   **********",
"******* %@O  ***** %%O *********",
"******** O@@O     %O %@ ********",
"******* O@O@ ##XXX  %O%@ *******",
"*******   @ #+X+++X% %@O *******",
"******** O #+##+XX+ %@ @@ ******",
"*********  #XXXX@@X+  O%%@ *****",
"********** X &@%@@@X $ @%@ *****",
"********* #Xo&#+@@@O  O@@@ *****",
"********* +&#.#@@@O OO@@OO *****",
"********** .  #+@O@@@OOOO ******",
"********** o.+X O@%%%@ O *******",
"********** #+X OOO@%%@O ********",
"**********   O@O  O@@%@@ *******",
"******    O @@%%@@O@%@%%O ******",
"***** @ %@@ @@@%@@ O@O@%@ ******",
"***** O%  OO OOOOOO  @@@@ ******",
"****** @O     @O@@O @%%@O ******",
"*******  *****      %%@O *******",
"**************  + %@%@@ ********",
"************** @ % @@  O *******",
"************* @% @%%O OOO ******",
"************* %@@ @@  OOO ******",
"************* %@O    OOO *******",
"***********  O@O ** @O  ********",
"*********  O@%@ ****  **********",
"******** %@%@@@ ****************",
"*********  O@@O ****************",
"***********    *****************",
"********************************",
"********************************"
};
