/* XPM */
static char *result[] = {
/* columns rows colors chars-per-pixel */
"32 32 11 1 ",
"  c black",
". c #980000",
"X c #A05818",
"o c #F85008",
"O c #408068",
"+ c #D0A000",
"@ c #88A8B0",
"# c #F8E098",
"$ c #D0E0D8",
"% c #F8F8F8",
"& c None",
/* pixels */
"&&&&&&&&&&&&&&&&&&&&&&&&&&&&&&&&",
"&&&&&&&&&&&&&&&&   &&&&&&&&&&&&&",
"&&&&&&&&&&&&&&  O@$ &&&&&&&&&&&&",
"&&&&&&&&&&&&  O@@O &&&&&&&&&&&&&",
"&&&&&&&&&&& O@@   O &&&&&&&&&&&&",
"&&&&&&&&&& OO  O$$   &&&&&&&&&&&",
"&&&&&&&&&&   O@$ O$# &&&&&&&&&&&",
"&&&&&&&&& O@@@$O$  +# &&&&&&&&&&",
"&&&&&&&& @@@$@@$ $XX# &&&&&&&&&&",
"&&&&&&&& @$$$$ @$ % X &&&&&&&&&&",
"&&&&&&&& O@@O    #%oX# &&&&&&&&&",
"&&&&&&& OOO  O@@@#.#%+ &&&&&&&&&",
"&&&&&&&  @  O@O@+#  . &&&&&&&&&&",
"&&&&&&& OOO @$$O X+.o &&&&&&&&&&",
"&&&&&&& OO O@$$OO X+# &&&&&&&&&&",
"&&&&&&&& O @$$@$ @O  &&&&&&&&&&&",
"&&&&&&&&&  O@O$$O@$$ &&&&&&&&&&&",
"&&&&&&&&&&& O@@@ @$@  &&&&&&&&&&",
"&&&&&&&&&&&  @$O@ O @$ &&&&&&&&&",
"&&&&&&&&&&&  O@$$@ @@ $ &&&&&&&&",
"&&&&&&&&&&&   O@$$$@$$@ &&&&&&&&",
"&&&&&&&&&&   +  O@O@@@ &&&&&&&&&",
"&&&&&&&&&& @           &&&&&&&&&",
"&&&&&&&&& O$@@   & OO@ &&&&&&&&&",
"&&&&&&&& @$@@O &&&& O@@   &&&&&&",
"&&&&&&& O@@O  &&&&&& O@@@$ &&&&&",
"&&&&&& @@O  &&&&&&&& OOO  &&&&&&",
"&&&&&& O$@ &&&&&&&&&&   &&&&&&&&",
"&&&&&&& @@O &&&&&&&&&&&&&&&&&&&&",
"&&&&&&&& $@$ &&&&&&&&&&&&&&&&&&&",
"&&&&&&&&&   &&&&&&&&&&&&&&&&&&&&",
"&&&&&&&&&&&&&&&&&&&&&&&&&&&&&&&&"
};
