/* XPM */
static char *result[] = {
/* columns rows colors chars-per-pixel */
"32 32 8 1 ",
"  c black",
". c #A05818",
"X c #408068",
"o c #D0A000",
"O c #88A8B0",
"+ c #F8E098",
"@ c #D0E0D8",
"# c None",
/* pixels */
"#######################  #######",
"###################### OX  #####",
"###################### X@@O ####",
"#####  ############## O@@@O ####",
"###  XO ######## #####  XOOX ###",
"## O@@X ####  # + #  ### @@O ###",
"## O@@@O ### + O+O + #   O@@X ##",
"## XOO  ####  +O+O+O  O@OXO@O ##",
"## O@@ ###  OO @+@@ OO@O@@@OO ##",
"## O@@O   XO@@@OOOO@@@O@@OOX ###",
"## O@OXO@@O@@@@@@@@@@@OOOX  ####",
"## XO@@@OO@O@@@@@O@@@@O@  ######",
"###  XO@@@@O@@@@O@O@@O@XO ######",
"#####     X@O@@O@@@OO@O@@O #####",
"####### O@@@@OO@OOO@@@O@@@O ####",
"###### O@@OO@@@@@O@@@OXO@@X ####",
"###### @@OXXO@@@@X@@@X XOX@O ###",
"##### O@OO  XXO@@X@OX #  OOO ###",
"##### O@OX # OXXXOXX ### XX ####",
"#### X@OO ##  OOXXO  ####  #####",
"#### OOO  ## .    o  ###########",
"##### O O #    o o   ###########",
"##### XO   @        O ##########",
"######    @@@     XO@O #########",
"######## OXXOX ### OO@ #########",
"######### @OX #### XOO #########",
"######### O@O #### XOX #########",
"##########   #### XO@ ##########",
"################# X@O ##########",
"################# O@@O #########",
"################# XXX  #########",
"##################   ###########"
};
