/* XPM */
static char *result[] = {
/* columns rows colors chars-per-pixel */
"64 64 21 1 ",
"  c black",
". c #373737",
"X c #503018",
"o c #403040",
"O c #384040",
"+ c #784040",
"@ c #70514E",
"# c #C03838",
"$ c #885028",
"% c #B05048",
"& c #E87060",
"* c #C89800",
"= c #D89870",
"- c #D8A078",
"; c #406888",
": c #F8D0B8",
"> c #A8A0C8",
", c #B8B0D0",
"< c #B8B8D8",
"1 c #E8E8F8",
"2 c None",
/* pixels */
"2222222222222222222222222222222222222222222222222222222222222222",
"2222222222222222222222222222222222222222222222222222222222222222",
"2222222222222222222222222222222222222222222222222222222222222222",
"2222222222222222222222222222222222222222222222222222222222222222",
"2222222222222222222222222222222222222222222222222222222222222222",
"2222222222222222222222222222222222222222222222222222222222222222",
"2222222222222222222222222222222222222222222222222222222222222222",
"2222222222222222222222222222222222222222222222222222222222222222",
"2222222222222222222222222oooooooooooooo2222222222222222222222222",
"2222222222222222222222222oooooooooooooo2222222222222222222222222",
"222222222222222222222oooo&&&&&&&&&&&&&&oooo222222222222222222222",
"222222222222222222222oooo&&&&&&&&&&&&&&oooo222222222222222222222",
"2222222222222222222oo%%&&&&&&&&&&&&&&&&&&%%oo2222222222222222222",
"2222222222222222222oo%%&&&&&&&&&&&&&&&&&&%%oo2222222222222222222",
"2222222222222222222oo%%&&&&&&&&&&&&&&&&&&%%oo2222222222222222222",
"2222222222222222222oo&&&&&&&&&&&&&&&&&&&&&&oo2222222222222222222",
"2222222222222222222oo&&&&&&&&&&&&&&&&&&&&&&oo2222222222222222222",
"2222222222222222222oo&&&&&&&&&&&&&&&&&&&&&&oo2222222222222222222",
"22222222222222222oooo&&&&&&&&&&&&&&&&&&&&&&oooo22222222222222222",
"22222222222222222oo%%%%&&&&&&111111&&&&&&%%%%oo22222222222222222",
"22222222222222222oo%%%%&&&&&&111111&&&&&&%%%%oo22222222222222222",
"22222222222222222  %%%%%%%%<<11%%11<<%%%%%%%%  22222222222222222",
"22222222222222222  %%%%%%%%<<11%%11<<%%%%%%%%  22222222222222222",
"22222222222222222  %%%%%%%%<<%%%%%%<<%%%%%%%%  22222222222222222",
"22222222222222222  %%%%%%%%<<%%%%%%<<%%%%%%%%  22222222222222222",
"22222222222222222  oo%%<<<<<<<<<<<<<<<<<<%%oo  22222222222222222",
"222222222222222XX  oo%%<<<<<<<<<<<<<<<<<<%%oo  XX222222222222222",
"222222222222222XX  oo%%<<<<<<<<<<<<<<<<<<%%oo  XX222222222222222",
"222222222222222  ==@@oooo<<1111111111<<oooo@@==  222222222222222",
"222222222222222  ==@@oooo<<1111111111<<oooo@@==  222222222222222",
"222222222222222  ==..@@@@@@@@oooooo@@@@@@@@..==  222222222222222",
"222222222222222  ==..@@@@@@@@oooooo@@@@@@@@..==  222222222222222",
"22222222222222222  ..--@@--..------..>>@@--..  22222222222222222",
"22222222222222222  ..--@@--..------..>>@@--..  22222222222222222",
"2222222222222222222  ----11  ::::::  11----  2222222222222222222",
"2222222222222222222  ----11  ::::::  11----  2222222222222222222",
"222222222222222222222  --::::::::::::::--  222222222222222222222",
"222222222222222222222  --::::::::::::::--  222222222222222222222",
"222222222222222222222  @@--::::--::::--@@  222222222222222222222",
"222222222222222222222  @@--::::--::::--@@  222222222222222222222",
"2222222222222222222  OO**@@..------..@@**OO  2222222222222222222",
"2222222222222222222  OO**@@..------..@@**OO  2222222222222222222",
"22222222222222222++OOOO**##,,......,,##**OOOO++22222222222222222",
"22222222222222222++OOOO**##,,......,,##**OOOO++22222222222222222",
"222222222222222++::--OO$$####,,OO,,####$$OO--::++222222222222222",
"222222222222222++::--OO$$####,,OO,,####$$OO--::++222222222222222",
"222222222222222++::::    ++##,,OO,,##++    ::::++222222222222222",
"222222222222222++::::    ++##,,OO,,##++    ::::++222222222222222",
"22222222222222222++++  ;;              ;;  ++++22222222222222222",
"22222222222222222++++  ;;              ;;  ++++22222222222222222",
"222222222222222222222  OOOO;;;;OO;;;;OOOO  222222222222222222222",
"222222222222222222222  OOOO;;;;OO;;;;OOOO  222222222222222222222",
"222222222222222222222  ####          ####  222222222222222222222",
"222222222222222222222  ####          ####  222222222222222222222",
"22222222222222222222222    2222222222    22222222222222222222222",
"22222222222222222222222    2222222222    22222222222222222222222",
"2222222222222222222222222222222222222222222222222222222222222222",
"2222222222222222222222222222222222222222222222222222222222222222",
"2222222222222222222222222222222222222222222222222222222222222222",
"2222222222222222222222222222222222222222222222222222222222222222",
"2222222222222222222222222222222222222222222222222222222222222222",
"2222222222222222222222222222222222222222222222222222222222222222",
"2222222222222222222222222222222222222222222222222222222222222222",
"2222222222222222222222222222222222222222222222222222222222222222"
};
