/* XPM */
static char *result[] = {
/* columns rows colors chars-per-pixel */
"64 64 22 1 ",
"  c black",
". c #373737",
"X c #503018",
"o c #403040",
"O c #384040",
"+ c #784040",
"@ c #70514E",
"# c #C03838",
"$ c #885028",
"% c #B05048",
"& c #E87060",
"* c #C89800",
"= c #D89870",
"- c #D8A078",
"; c #406888",
": c #F8D0B8",
"> c #A8A0C8",
", c #B8B0D0",
"< c #B8B8D8",
"1 c #E8E8F8",
"2 c white",
"3 c None",
/* pixels */
"3333333333333333333333333333333333333333333333333333333333333333",
"3333333333333333333333333333333333333333333333333333333333333333",
"3333333333333333333333333333333333333333333333333333333333333333",
"3333333333333333333333333333333333333333333333333333333333333333",
"3333333333333333333333333333333333333333333333333333333333333333",
"3333333333333333333333333333333333333333333333333333333333333333",
"3333333333333333333333333oooooooooooooo3333333333333333333333333",
"3333333333333333333333333oooooooooooooo3333333333333333333333333",
"333333333333333333333oooo&&&&&&&&&&&&&&oooo333333333333333333333",
"333333333333333333333oooo&&&&&&&&&&&&&&oooo333333333333333333333",
"3333333333333333333oo%%&&&&&&&&&&&&&&&&&&%%oo3333333333333333333",
"3333333333333333333oo%%&&&&&&&&&&&&&&&&&&%%oo3333333333333333333",
"3333333333333333333oo%%&&&&&&&&&&&&&&&&&&%%oo3333333333333333333",
"3333333333333333333oo&&&&&&&&&&&&&&&&&&&&&&oo3333333333333333333",
"3333333333333333333oo&&&&&&&&&&&&&&&&&&&&&&oo3333333333333333333",
"3333333333333333333oo&&&&&&&&&&&&&&&&&&&&&&oo3333333333333333333",
"33333333333333333  oo&&&&&&&&&&&&&&&&&&&&&&oo  33333333333333333",
"33333333333333333oo%%%%&&&&&&111111&&&&&&%%%%oo33333333333333333",
"33333333333333333oo%%%%&&&&&&111111&&&&&&%%%%oo33333333333333333",
"33333333333333333  %%%%%%%%<<11%%11<<%%%%%%%%  33333333333333333",
"33333333333333333  %%%%%%%%<<11%%11<<%%%%%%%%  33333333333333333",
"33333333333333333  %%%%%%%%<<%%%%%%<<%%%%%%%%  33333333333333333",
"33333333333333333  %%%%%%%%<<%%%%%%<<%%%%%%%%  33333333333333333",
"33333333333333333  oo%%<<<<<<<<<<<<<<<<<<%%oo  33333333333333333",
"333333333333333XX  oo%%<<<<<<<<<<<<<<<<<<%%oo  XX333333333333333",
"333333333333333XX  oo%%<<<<<<<<<<<<<<<<<<%%oo  XX333333333333333",
"333333333333333  ==@@oooo<<1111111111<<oooo@@==  333333333333333",
"333333333333333  ==@@oooo<<1111111111<<oooo@@==  333333333333333",
"333333333333333  ==..@@@@@@@@oooooo@@@@@@@@..==  333333333333333",
"333333333333333  ==..@@@@@@@@oooooo@@@@@@@@..==  333333333333333",
"33333333333333333  ..--@@--..------..>>@@--..  33333333333333333",
"33333333333333333  ..--@@--..------..>>@@--..  33333333333333333",
"3333333333333333333  ----11  ::::::  11----  3333333333333333333",
"3333333333333333333  ----11  ::::::  11----  3333333333333333333",
"333333333333333333333  --::::::::::::::--  333333333333333333333",
"333333333333333333333  --::::::::::::::--  333333333333333333333",
"333333333333333333333  @@--::::--::::--@@    3333333333333333333",
"333333333333333333333  @@--::::--::::--@@    3333333333333333333",
"333333333333333333333  **@@..------..@@**OOOO++33333333333333333",
"333333333333333333333  **@@..------..@@**OOOO++33333333333333333",
"3333333333333333333OOOOOO**,,......,,##**OOOO--++333333333333333",
"3333333333333333333OOOOOO**,,......,,##**OOOO--++333333333333333",
"3333333333333333333++--OO$$##,,OO,,####    ----++333333333333333",
"3333333333333333333++--OO$$##,,OO,,####    ----++333333333333333",
"33333333333333333++::::  ++##,,OO,,##++  22++++33333333333333333",
"33333333333333333++::::  ++##,,OO,,##++  22++++33333333333333333",
"33333333333333333++::::  OO            OO  333333333333333333333",
"33333333333333333++::::  OO            OO  333333333333333333333",
"3333333333333333333++++33  OOOOOO;;;;;;;;  333333333333333333333",
"3333333333333333333++++33  OOOOOO;;;;;;;;  333333333333333333333",
"333333333333333333333333333        ;;;;OO  333333333333333333333",
"333333333333333333333333333        ;;;;OO  333333333333333333333",
"333333333333333333333333333333333OOOOOO  33333333333333333333333",
"333333333333333333333333333333333OOOOOO  33333333333333333333333",
"333333333333333333333333333333333  ####  33333333333333333333333",
"333333333333333333333333333333333  ####  33333333333333333333333",
"33333333333333333333333333333333333    3333333333333333333333333",
"33333333333333333333333333333333333    3333333333333333333333333",
"3333333333333333333333333333333333333333333333333333333333333333",
"3333333333333333333333333333333333333333333333333333333333333333",
"3333333333333333333333333333333333333333333333333333333333333333",
"3333333333333333333333333333333333333333333333333333333333333333",
"3333333333333333333333333333333333333333333333333333333333333333",
"3333333333333333333333333333333333333333333333333333333333333333"
};
