/* XPM */
static char *result[] = {
/* columns rows colors chars-per-pixel */
"64 64 18 1 ",
"  c black",
". c #503018",
"X c #403040",
"o c #384040",
"O c #784040",
"+ c #C03838",
"@ c #885028",
"# c #882840",
"$ c #B05048",
"% c #E87060",
"& c #C89800",
"* c #D8A078",
"= c #406888",
"- c #9890B0",
"; c #F8D0B8",
": c #B8B0D0",
"> c #E8E8F8",
", c None",
/* pixels */
",,,,,,,,,,,,,,,,,,,,,,,,,,,,,,,,,,,,,,,,,,,,,,,,,,,,,,,,,,,,,,,,",
",,,,,,,,,,,,,,,,,,,,,,,,,,,,,,,,,,,,,,,,,,,,,,,,,,,,,,,,,,,,,,,,",
",,,,,,,,,,,,,,,,,,,,,,,,,,,,,,,,,,,,,,,,,,,,,,,,,,,,,,,,,,,,,,,,",
",,,,,,,,,,,,,,,,,,,,,,,,,,,,,,,,,,,,,,,,,,,,,,,,,,,,,,,,,,,,,,,,",
",,,,,,,,,,,,,,,,,,,,,,,,,,,,,,,,,,,,,,,,,,,,,,,,,,,,,,,,,,,,,,,,",
",,,,,,,,,,,,,,,,,,,,,,,,,,,,,,,,,,,,,,,,,,,,,,,,,,,,,,,,,,,,,,,,",
",,,,,,,,,,,,,,,,,,,,,,,,,,,,,,,,,,,,,,,,,,,,,,,,,,,,,,,,,,,,,,,,",
",,,,,,,,,,,,,,,,,,,,,,,,,,,,,,,,,,,,,,,,,,,,,,,,,,,,,,,,,,,,,,,,",
",,,,,,,,,,,,,,,,,,,,,,,,,,XXXXXXXXXXXXXX,,,,,,,,,,,,,,,,,,,,,,,,",
",,,,,,,,,,,,,,,,,,,,,,,,,,XXXXXXXXXXXXXX,,,,,,,,,,,,,,,,,,,,,,,,",
",,,,,,,,,,,,,,,,,,,,,,,,XX$$%%%%%%%%%%%%XXXX,,,,,,,,,,,,,,,,,,,,",
",,,,,,,,,,,,,,,,,,,,,,,,XX$$%%%%%%%%%%%%XXXX,,,,,,,,,,,,,,,,,,,,",
",,,,,,,,,,,,,,,,,,,,,,XX$$%%%%%%%%%%%%%%%%$$XX,,,,,,,,,,,,,,,,,,",
",,,,,,,,,,,,,,,,,,,,,,XX$$%%%%%%%%%%%%%%%%$$XX,,,,,,,,,,,,,,,,,,",
",,,,,,,,,,,,,,,,,,,,,,XX%%%%%%%%%%%%%%%%%%%%XX,,,,,,,,,,,,,,,,,,",
",,,,,,,,,,,,,,,,,,,,,,XX%%%%%%%%%%%%%%%%%%%%XX,,,,,,,,,,,,,,,,,,",
",,,,,,,,,,,,,,,,,,,,XX::%%%%%%%%%%%%%%%%%%%%$$XX,,,,,,,,,,,,,,,,",
",,,,,,,,,,,,,,,,,,,,XX::%%%%%%%%%%%%%%%%%%%%$$XX,,,,,,,,,,,,,,,,",
",,,,,,,,,,,,,,,,,,XX==$$>>%%%%%%%%%%%%%%%%%%$$XX,,,,,,,,,,,,,,,,",
",,,,,,,,,,,,,,,,,,XX==$$>>%%%%%%%%%%%%%%%%%%$$XX,,,,,,,,,,,,,,,,",
",,,,,,,,,,,,,,,,XX>>>>$$>>$$%%%%%%%%%%%%%%$$$$XX,,,,,,,,,,,,,,,,",
",,,,,,,,,,,,,,,,XX>>>>$$>>$$%%%%%%%%%%%%%%$$$$XX,,,,,,,,,,,,,,,,",
",,,,,,,,,,,,,,,,XX>>>>::$$$$$$$$$$$$$$$$$$$$$$XX,,,,,,,,,,,,,,,,",
",,,,,,,,,,,,,,,,XX>>>>::$$$$$$$$$$$$$$$$$$$$$$XX,,,,,,,,,,,,,,,,",
",,,,,,,,,,,,,,,,XX::>>##$$$$$$$$$$$$$$$$$$$$$$XX,,,,,,,,,,,,,,,,",
",,,,,,,,,,,,,,,,XX::>>##$$$$$$$$$$$$$$$$$$$$$$XX,,,,,,,,,,,,,,,,",
",,,,,,,,,,,,,,,,,,XX::::##$$$$$$$$$$$$$$$$$$XX..,,,,,,,,,,,,,,,,",
",,,,,,,,,,,,,,,,,,XX::::##$$$$$$$$$$$$$$$$$$XX..,,,,,,,,,,,,,,,,",
",,,,,,,,,,,,,,,,,,,,XXXXooXXXXXXXXXXXXXXXXXX@@..,,,,,,,,,,,,,,,,",
",,,,,,,,,,,,,,,,,,,,XXXXooXXXXXXXXXXXXXXXXXX@@..,,,,,,,,,,,,,,,,",
",,,,,,,,,,,,,,,,,,,,OOOO  --OO..@@..@@@@@@@@..,,,,,,,,,,,,,,,,,,",
",,,,,,,,,,,,,,,,,,,,OOOO  --OO..@@..@@@@@@@@..,,,,,,,,,,,,,,,,,,",
",,,,,,,,,,,,,,,,,,,,OO**  >>**..****..@@@@..  ,,,,,,,,,,,,,,,,,,",
",,,,,,,,,,,,,,,,,,,,OO**  >>**..****..@@@@..  ,,,,,,,,,,,,,,,,,,",
",,,,,,,,,,,,,,,,,,,,**;;;;;;;;******..@@@@..,,,,,,,,,,,,,,,,,,,,",
",,,,,,,,,,,,,,,,,,,,**;;;;;;;;******..@@@@..,,,,,,,,,,,,,,,,,,,,",
",,,,,,,,,,,,,,,,,,,,,,OO;;;;******..@@    ,,,,,,,,,,,,,,,,,,,,,,",
",,,,,,,,,,,,,,,,,,,,,,OO;;;;******..@@    ,,,,,,,,,,,,,,,,,,,,,,",
",,,,,,,,,,,,,,,,,,,,,,,,OOOOOO**......&&..,,,,,,,,,,,,,,,,,,,,,,",
",,,,,,,,,,,,,,,,,,,,,,,,OOOOOO**......&&..,,,,,,,,,,,,,,,,,,,,,,",
",,,,,,,,,,,,,,,,,,,,,,,,,,OO::::&&@@&&&&&&..,,,,,,,,,,,,,,,,,,,,",
",,,,,,,,,,,,,,,,,,,,,,,,,,OO::::&&@@&&&&&&..,,,,,,,,,,,,,,,,,,,,",
",,,,,,,,,,,,,,,,,,,,,,,,oo++  oooo  &&&&@@  ,,,,,,,,,,,,,,,,,,,,",
",,,,,,,,,,,,,,,,,,,,,,,,oo++  oooo  &&&&@@  ,,,,,,,,,,,,,,,,,,,,",
",,,,,,,,,,,,,,,,,,,,,,,,oo  oooooo  @@@@&&  ,,,,,,,,,,,,,,,,,,,,",
",,,,,,,,,,,,,,,,,,,,,,,,oo  oooooo  @@@@&&  ,,,,,,,,,,,,,,,,,,,,",
",,,,,,,,,,,,,,,,,,,,,,oo  ;;;;oo      &&@@  ,,,,,,,,,,,,,,,,,,,,",
",,,,,,,,,,,,,,,,,,,,,,oo  ;;;;oo      &&@@  ,,,,,,,,,,,,,,,,,,,,",
",,,,,,,,,,,,,,,,,,,,  ##  ;;**  ====oo    ##,,,,,,,,,,,,,,,,,,,,",
",,,,,,,,,,,,,,,,,,,,  ##  ;;**  ====oo    ##,,,,,,,,,,,,,,,,,,,,",
",,,,,,,,,,,,,,,,,,,,  ####          ==oo##++  ,,,,,,,,,,,,,,,,,,",
",,,,,,,,,,,,,,,,,,,,  ####          ==oo##++  ,,,,,,,,,,,,,,,,,,",
",,,,,,,,,,,,,,,,,,,,,,    ,,,,,,,,,,  ++++++  ,,,,,,,,,,,,,,,,,,",
",,,,,,,,,,,,,,,,,,,,,,    ,,,,,,,,,,  ++++++  ,,,,,,,,,,,,,,,,,,",
",,,,,,,,,,,,,,,,,,,,,,,,,,,,,,,,,,,,,,      ,,,,,,,,,,,,,,,,,,,,",
",,,,,,,,,,,,,,,,,,,,,,,,,,,,,,,,,,,,,,      ,,,,,,,,,,,,,,,,,,,,",
",,,,,,,,,,,,,,,,,,,,,,,,,,,,,,,,,,,,,,,,,,,,,,,,,,,,,,,,,,,,,,,,",
",,,,,,,,,,,,,,,,,,,,,,,,,,,,,,,,,,,,,,,,,,,,,,,,,,,,,,,,,,,,,,,,",
",,,,,,,,,,,,,,,,,,,,,,,,,,,,,,,,,,,,,,,,,,,,,,,,,,,,,,,,,,,,,,,,",
",,,,,,,,,,,,,,,,,,,,,,,,,,,,,,,,,,,,,,,,,,,,,,,,,,,,,,,,,,,,,,,,",
",,,,,,,,,,,,,,,,,,,,,,,,,,,,,,,,,,,,,,,,,,,,,,,,,,,,,,,,,,,,,,,,",
",,,,,,,,,,,,,,,,,,,,,,,,,,,,,,,,,,,,,,,,,,,,,,,,,,,,,,,,,,,,,,,,",
",,,,,,,,,,,,,,,,,,,,,,,,,,,,,,,,,,,,,,,,,,,,,,,,,,,,,,,,,,,,,,,,",
",,,,,,,,,,,,,,,,,,,,,,,,,,,,,,,,,,,,,,,,,,,,,,,,,,,,,,,,,,,,,,,,"
};
