/* XPM */
static char *result[] = {
/* columns rows colors chars-per-pixel */
"64 64 15 1 ",
"  c black",
". c #503018",
"X c #403040",
"o c #384040",
"O c #784040",
"+ c #C03838",
"@ c #885028",
"# c #882840",
"$ c #B05048",
"% c #E87060",
"& c #C89800",
"* c #D8A078",
"= c #406888",
"- c #F8D0B8",
"; c None",
/* pixels */
";;;;;;;;;;;;;;;;;;;;;;;;;;;;;;;;;;;;;;;;;;;;;;;;;;;;;;;;;;;;;;;;",
";;;;;;;;;;;;;;;;;;;;;;;;;;;;;;;;;;;;;;;;;;;;;;;;;;;;;;;;;;;;;;;;",
";;;;;;;;;;;;;;;;;;;;;;;;;;;;;;;;;;;;;;;;;;;;;;;;;;;;;;;;;;;;;;;;",
";;;;;;;;;;;;;;;;;;;;;;;;;;;;;;;;;;;;;;;;;;;;;;;;;;;;;;;;;;;;;;;;",
";;;;;;;;;;;;;;;;;;;;;;;;;;;;;;;;;;;;;;;;;;;;;;;;;;;;;;;;;;;;;;;;",
";;;;;;;;;;;;;;;;;;;;;;;;;;;;;;;;;;;;;;;;;;;;;;;;;;;;;;;;;;;;;;;;",
";;;;;;;;;;;;;;;;;;;;;;;;;;;;;;;;;;;;;;;;;;;;;;;;;;;;;;;;;;;;;;;;",
";;;;;;;;;;;;;;;;;;;;;;;;;XXXXXXXXXXXXXX;;;;;;;;;;;;;;;;;;;;;;;;;",
";;;;;;;;;;;;;;;;;;;;;;;;;XXXXXXXXXXXXXX;;;;;;;;;;;;;;;;;;;;;;;;;",
";;;;;;;;;;;;;;;;;;;;;XXXX%%%%%%%%%%%%%%XXXX;;;;;;;;;;;;;;;;;;;;;",
";;;;;;;;;;;;;;;;;;;;;XXXX%%%%%%%%%%%%%%XXXX;;;;;;;;;;;;;;;;;;;;;",
";;;;;;;;;;;;;;;;;;;XX$$%%%%%%%%%%%%%%%%%%$$XX;;;;;;;;;;;;;;;;;;;",
";;;;;;;;;;;;;;;;;;;XX$$%%%%%%%%%%%%%%%%%%$$XX;;;;;;;;;;;;;;;;;;;",
";;;;;;;;;;;;;;;;;;;XX%%%%%%%%%%%%%%%%%%%%%%XX;;;;;;;;;;;;;;;;;;;",
";;;;;;;;;;;;;;;;;;;XX%%%%%%%%%%%%%%%%%%%%%%XX;;;;;;;;;;;;;;;;;;;",
";;;;;;;;;;;;;;;;;XX$$%%%%%%%%%%%%%%%%%%%%%%$$XX;;;;;;;;;;;;;;;;;",
";;;;;;;;;;;;;;;;;XX$$%%%%%%%%%%%%%%%%%%%%%%$$XX;;;;;;;;;;;;;;;;;",
";;;;;;;;;;;;;;;;;XX$$%%%%%%%%%%%%%%%%%%%%%%$$XX;;;;;;;;;;;;;;;;;",
";;;;;;;;;;;;;;;;;XX$$%%%%%%%%%%%%%%%%%%%%%%$$XX;;;;;;;;;;;;;;;;;",
";;;;;;;;;;;;;;;;;XX$$$$%%%%%%%%%%%%%%%%%%$$$$XX;;;;;;;;;;;;;;;;;",
";;;;;;;;;;;;;;;;;XX$$$$%%%%%%%%%%%%%%%%%%$$$$XX;;;;;;;;;;;;;;;;;",
";;;;;;;;;;;;;;;;;XX$$$$$$$$%%%%%%%%%%$$$$$$$$XX;;;;;;;;;;;;;;;;;",
";;;;;;;;;;;;;;;;;XX$$$$$$$$%%%%%%%%%%$$$$$$$$XX;;;;;;;;;;;;;;;;;",
";;;;;;;;;;;;;;;..XXXX$$$$$$$$oooooo$$$$$$$$XXXX..;;;;;;;;;;;;;;;",
";;;;;;;;;;;;;;;..XXXX$$$$$$$$oooooo$$$$$$$$XXXX..;;;;;;;;;;;;;;;",
";;;;;;;;;;;;;;;  **XX$$$$$$oooooooooo$$$$$$XX**  ;;;;;;;;;;;;;;;",
";;;;;;;;;;;;;;;  **XX$$$$$$oooooooooo$$$$$$XX**  ;;;;;;;;;;;;;;;",
";;;;;;;;;;;;;;;  **..XXXX$$$$$$$$$$$$$$XXXX..**  ;;;;;;;;;;;;;;;",
";;;;;;;;;;;;;;;  **..XXXX$$$$$$$$$$$$$$XXXX..**  ;;;;;;;;;;;;;;;",
";;;;;;;;;;;;;;;;;  ..@@..XXXXXXXXXXXXXX..@@..  ;;;;;;;;;;;;;;;;;",
";;;;;;;;;;;;;;;;;  ..@@..XXXXXXXXXXXXXX..@@..  ;;;;;;;;;;;;;;;;;",
";;;;;;;;;;;;;;;;;;;  ..@@@@@@@@@@@@@@@@@@..  ;;;;;;;;;;;;;;;;;;;",
";;;;;;;;;;;;;;;;;;;  ..@@@@@@@@@@@@@@@@@@..  ;;;;;;;;;;;;;;;;;;;",
";;;;;;;;;;;;;;;;;;;;;  ..@@@@@@@@@@@@@@..  ;;;;;;;;;;;;;;;;;;;;;",
";;;;;;;;;;;;;;;;;;;;;  ..@@@@@@@@@@@@@@..  ;;;;;;;;;;;;;;;;;;;;;",
";;;;;;;;;;;;;;;;;;;;;;;    ..@@@@@@..    ooooOO;;;;;;;;;;;;;;;;;",
";;;;;;;;;;;;;;;;;;;;;;;    ..@@@@@@..    ooooOO;;;;;;;;;;;;;;;;;",
";;;;;;;;;;;;;;;;;;;;;  oo&&..........&&oooooo**OO;;;;;;;;;;;;;;;",
";;;;;;;;;;;;;;;;;;;;;  oo&&..........&&oooooo**OO;;;;;;;;;;;;;;;",
";;;;;;;;;;;;;;;;;;;oooooooo&&  &&&&&&..##oo****OO;;;;;;;;;;;;;;;",
";;;;;;;;;;;;;;;;;;;oooooooo&&  &&&&&&..##oo****OO;;;;;;;;;;;;;;;",
";;;;;;;;;;;;;;;;;;;  **oo##  &&&&&&&&&&++    OO;;;;;;;;;;;;;;;;;",
";;;;;;;;;;;;;;;;;;;  **oo##  &&&&&&&&&&++    OO;;;;;;;;;;;;;;;;;",
";;;;;;;;;;;;;;;;;OO----  ++..@@&&&&&&@@##  ;;;;;;;;;;;;;;;;;;;;;",
";;;;;;;;;;;;;;;;;OO----  ++..@@&&&&&&@@##  ;;;;;;;;;;;;;;;;;;;;;",
";;;;;;;;;;;;;;;;;OO----  ##..&&@@@@@@&&oooo;;;;;;;;;;;;;;;;;;;;;",
";;;;;;;;;;;;;;;;;OO----  ##..&&@@@@@@&&oooo;;;;;;;;;;;;;;;;;;;;;",
";;;;;;;;;;;;;;;;;;;OOOO  ==oo  &&&&&&  ==  ;;;;;;;;;;;;;;;;;;;;;",
";;;;;;;;;;;;;;;;;;;OOOO  ==oo  &&&&&&  ==  ;;;;;;;;;;;;;;;;;;;;;",
";;;;;;;;;;;;;;;;;;;;;;;;;    oooooooo==oo  ;;;;;;;;;;;;;;;;;;;;;",
";;;;;;;;;;;;;;;;;;;;;;;;;    oooooooo==oo  ;;;;;;;;;;;;;;;;;;;;;",
";;;;;;;;;;;;;;;;;;;;;;;;;;;;;;;;;  ====  ;;;;;;;;;;;;;;;;;;;;;;;",
";;;;;;;;;;;;;;;;;;;;;;;;;;;;;;;;;  ====  ;;;;;;;;;;;;;;;;;;;;;;;",
";;;;;;;;;;;;;;;;;;;;;;;;;;;;;;;;;  ++++  ;;;;;;;;;;;;;;;;;;;;;;;",
";;;;;;;;;;;;;;;;;;;;;;;;;;;;;;;;;  ++++  ;;;;;;;;;;;;;;;;;;;;;;;",
";;;;;;;;;;;;;;;;;;;;;;;;;;;;;;;;;;;    ;;;;;;;;;;;;;;;;;;;;;;;;;",
";;;;;;;;;;;;;;;;;;;;;;;;;;;;;;;;;;;    ;;;;;;;;;;;;;;;;;;;;;;;;;",
";;;;;;;;;;;;;;;;;;;;;;;;;;;;;;;;;;;;;;;;;;;;;;;;;;;;;;;;;;;;;;;;",
";;;;;;;;;;;;;;;;;;;;;;;;;;;;;;;;;;;;;;;;;;;;;;;;;;;;;;;;;;;;;;;;",
";;;;;;;;;;;;;;;;;;;;;;;;;;;;;;;;;;;;;;;;;;;;;;;;;;;;;;;;;;;;;;;;",
";;;;;;;;;;;;;;;;;;;;;;;;;;;;;;;;;;;;;;;;;;;;;;;;;;;;;;;;;;;;;;;;",
";;;;;;;;;;;;;;;;;;;;;;;;;;;;;;;;;;;;;;;;;;;;;;;;;;;;;;;;;;;;;;;;",
";;;;;;;;;;;;;;;;;;;;;;;;;;;;;;;;;;;;;;;;;;;;;;;;;;;;;;;;;;;;;;;;",
";;;;;;;;;;;;;;;;;;;;;;;;;;;;;;;;;;;;;;;;;;;;;;;;;;;;;;;;;;;;;;;;"
};
