/* XPM */
static char *_3b73a41831c40ceeb8c300d77440157R5HAcVbVyM5tE5w0[] = {
/* columns rows colors chars-per-pixel */
"64 64 4 1 ",
"  c #784848",
". c #907068",
"X c #B89088",
"o c #C8B098",
/* pixels */
"        ............                        ............        ",
"        ............                        ............        ",
"        ............                        ............        ",
"        ............                        ............        ",
"........            ........XXXXXXXX........            ........",
"........            ........XXXXXXXX........            ........",
"........            ........XXXXXXXX........            ........",
"........            ........XXXXXXXX........            ........",
"....ooooXXXXXXXXooooooooXXXXXXXXXXXXXXXXooooXXXXooooXXXXoooo....",
"....ooooXXXXXXXXooooooooXXXXXXXXXXXXXXXXooooXXXXooooXXXXoooo....",
"....ooooXXXXXXXXooooooooXXXXXXXXXXXXXXXXooooXXXXooooXXXXoooo....",
"....ooooXXXXXXXXooooooooXXXXXXXXXXXXXXXXooooXXXXooooXXXXoooo....",
"ooooooooooooooooooooooooooooooooooooXXXXXXXXooooXXXXooooXXXXXXXX",
"ooooooooooooooooooooooooooooooooooooXXXXXXXXooooXXXXooooXXXXXXXX",
"ooooooooooooooooooooooooooooooooooooXXXXXXXXooooXXXXooooXXXXXXXX",
"ooooooooooooooooooooooooooooooooooooXXXXXXXXooooXXXXooooXXXXXXXX",
"ooooooooooooooooooooooooooooooooooooooooooooooooXXXXXXXXXXXXoooo",
"ooooooooooooooooooooooooooooooooooooooooooooooooXXXXXXXXXXXXoooo",
"ooooooooooooooooooooooooooooooooooooooooooooooooXXXXXXXXXXXXoooo",
"ooooooooooooooooooooooooooooooooooooooooooooooooXXXXXXXXXXXXoooo",
"oooooooooooooooooooooooooooooooooooooooooooooooooooooooooooooooo",
"oooooooooooooooooooooooooooooooooooooooooooooooooooooooooooooooo",
"oooooooooooooooooooooooooooooooooooooooooooooooooooooooooooooooo",
"oooooooooooooooooooooooooooooooooooooooooooooooooooooooooooooooo",
"oooooooooooooooooooooooooooooooooooooooooooooooooooooooooooooooo",
"oooooooooooooooooooooooooooooooooooooooooooooooooooooooooooooooo",
"oooooooooooooooooooooooooooooooooooooooooooooooooooooooooooooooo",
"oooooooooooooooooooooooooooooooooooooooooooooooooooooooooooooooo",
"oooooooooooooooooooooooooooooooooooooooooooooooooooooooooooooooo",
"oooooooooooooooooooooooooooooooooooooooooooooooooooooooooooooooo",
"oooooooooooooooooooooooooooooooooooooooooooooooooooooooooooooooo",
"oooooooooooooooooooooooooooooooooooooooooooooooooooooooooooooooo",
"ooooooooXXXXooooXXXXooooXXXXooooXXXXXXXXoooooooooooooooooooooooo",
"ooooooooXXXXooooXXXXooooXXXXooooXXXXXXXXoooooooooooooooooooooooo",
"ooooooooXXXXooooXXXXooooXXXXooooXXXXXXXXoooooooooooooooooooooooo",
"ooooooooXXXXooooXXXXooooXXXXooooXXXXXXXXoooooooooooooooooooooooo",
"XXXXXXXXXXXXXXXXooooXXXXXXXXXXXXXXXXXXXXXXXXooooXXXXooooXXXXoooo",
"XXXXXXXXXXXXXXXXooooXXXXXXXXXXXXXXXXXXXXXXXXooooXXXXooooXXXXoooo",
"XXXXXXXXXXXXXXXXooooXXXXXXXXXXXXXXXXXXXXXXXXooooXXXXooooXXXXoooo",
"XXXXXXXXXXXXXXXXooooXXXXXXXXXXXXXXXXXXXXXXXXooooXXXXooooXXXXoooo",
"ooooooooXXXXXXXXooooooooooooooooooooXXXXXXXXXXXXooooXXXXooooXXXX",
"ooooooooXXXXXXXXooooooooooooooooooooXXXXXXXXXXXXooooXXXXooooXXXX",
"ooooooooXXXXXXXXooooooooooooooooooooXXXXXXXXXXXXooooXXXXooooXXXX",
"ooooooooXXXXXXXXooooooooooooooooooooXXXXXXXXXXXXooooXXXXooooXXXX",
"ooooooooooooooooooooooooooooooooooooXXXXXXXXooooXXXXooooXXXXXXXX",
"ooooooooooooooooooooooooooooooooooooXXXXXXXXooooXXXXooooXXXXXXXX",
"ooooooooooooooooooooooooooooooooooooXXXXXXXXooooXXXXooooXXXXXXXX",
"ooooooooooooooooooooooooooooooooooooXXXXXXXXooooXXXXooooXXXXXXXX",
"ooooooooooooooooooooooooooooooooooooooooooooooooXXXXXXXXXXXXoooo",
"ooooooooooooooooooooooooooooooooooooooooooooooooXXXXXXXXXXXXoooo",
"ooooooooooooooooooooooooooooooooooooooooooooooooXXXXXXXXXXXXoooo",
"ooooooooooooooooooooooooooooooooooooooooooooooooXXXXXXXXXXXXoooo",
"oooooooooooooooooooooooooooooooooooooooooooooooooooooooooooooooo",
"oooooooooooooooooooooooooooooooooooooooooooooooooooooooooooooooo",
"oooooooooooooooooooooooooooooooooooooooooooooooooooooooooooooooo",
"oooooooooooooooooooooooooooooooooooooooooooooooooooooooooooooooo",
"oooooooooooooooooooooooooooooooooooooooooooooooooooooooooooooooo",
"oooooooooooooooooooooooooooooooooooooooooooooooooooooooooooooooo",
"oooooooooooooooooooooooooooooooooooooooooooooooooooooooooooooooo",
"oooooooooooooooooooooooooooooooooooooooooooooooooooooooooooooooo",
"oooooooooooooooooooooooooooooooooooooooooooooooooooooooooooooooo",
"oooooooooooooooooooooooooooooooooooooooooooooooooooooooooooooooo",
"oooooooooooooooooooooooooooooooooooooooooooooooooooooooooooooooo",
"oooooooooooooooooooooooooooooooooooooooooooooooooooooooooooooooo"
};
