/* XPM */
static char *_f93fb97cd584025df92375966a9034fbhVRuQwgsMwSm38J[] = {
/* columns rows colors chars-per-pixel */
"64 64 3 1 ",
"  c #C8B098",
". c #D8C0B8",
"X c #B89088",
/* pixels */
"                                                                ",
"                                                                ",
"                                                                ",
"                                                                ",
"                                                                ",
"                                                                ",
"                                                                ",
"                                                                ",
"                                                                ",
"                                                                ",
"                                                                ",
"                                                                ",
"                                                                ",
"                                                                ",
"                                                                ",
"                                                                ",
"                    ............................                ",
"                    ............................                ",
"                    ............................                ",
"                    ............................                ",
"                ........................................        ",
"                ........................................        ",
"                ........................................        ",
"                ........................................        ",
"        XXXX    ........................................    XXXX",
"        XXXX    ........................................    XXXX",
"        XXXX    ........................................    XXXX",
"        XXXX    ........................................    XXXX",
"    XXXX    ........................................    XXXX    ",
"    XXXX    ........................................    XXXX    ",
"    XXXX    ........................................    XXXX    ",
"    XXXX    ........................................    XXXX    ",
"        XXXX    ............................        XXXX    XXXX",
"        XXXX    ............................        XXXX    XXXX",
"        XXXX    ............................        XXXX    XXXX",
"        XXXX    ............................        XXXX    XXXX",
"XXXXXXXXXXXXXXXX........................        XXXXXXXXXXXX    ",
"XXXXXXXXXXXXXXXX........................        XXXXXXXXXXXX    ",
"XXXXXXXXXXXXXXXX........................        XXXXXXXXXXXX    ",
"XXXXXXXXXXXXXXXX........................        XXXXXXXXXXXX    ",
"        XXXX    XXXX                        XXXXXXXXXXXX    XXXX",
"        XXXX    XXXX                        XXXXXXXXXXXX    XXXX",
"        XXXX    XXXX                        XXXXXXXXXXXX    XXXX",
"        XXXX    XXXX                        XXXXXXXXXXXX    XXXX",
"            XXXXXXXXXXXXXXXXXXXXXXXXXXXXXXXXXXXXXXXX    XXXXXXXX",
"            XXXXXXXXXXXXXXXXXXXXXXXXXXXXXXXXXXXXXXXX    XXXXXXXX",
"            XXXXXXXXXXXXXXXXXXXXXXXXXXXXXXXXXXXXXXXX    XXXXXXXX",
"            XXXXXXXXXXXXXXXXXXXXXXXXXXXXXXXXXXXXXXXX    XXXXXXXX",
"                    XXXXXXXXXXXXXXXXXXXXXXXX                    ",
"                    XXXXXXXXXXXXXXXXXXXXXXXX                    ",
"                    XXXXXXXXXXXXXXXXXXXXXXXX                    ",
"                    XXXXXXXXXXXXXXXXXXXXXXXX                    ",
"                                                                ",
"                                                                ",
"                                                                ",
"                                                                ",
"                                                                ",
"                                                                ",
"                                                                ",
"                                                                ",
"                                                                ",
"                                                                ",
"                                                                ",
"                                                                "
};
