/* XPM */
static char *e5b6325f2ce24d88d9f9b4196a6243f8DlSq2z3zXR80Zge5[] = {
/* columns rows colors chars-per-pixel */
"32 32 8 1 ",
"  c #70C8A0",
". c #C03040",
"X c #E88068",
"o c #F8C070",
"O c #40B088",
"+ c #385810",
"@ c #18A068",
"# c #A0E0C0",
/* pixels */
"                                ",
"                                ",
"          ....                  ",
"          ....                  ",
"    ......XXXX..                ",
"    ......XXXX..                ",
"  ..XXXX..XXXX..                ",
"  ..XXXX..XXXX..                ",
"  ..XXoooo......OO              ",
"  ..XXoooo......OO              ",
"......ooooXX......  ....        ",
"......ooooXX......  ....        ",
"..XXXX..XXXX..XXXX..XXXX..      ",
"..XXXX..XXXX..XXXX..XXXX..      ",
"..XXXX..XX....XXXXooooXXXX..    ",
"..XXXX..XX....XXXXooooXXXX..    ",
"  ....++..........oooo......    ",
"  ....++..........oooo......    ",
"    ++++++++..XXXXXX..XXXX..    ",
"    ++++++++..XXXXXX..XXXX..    ",
"  ++  @@@@++@@..XXXX..XXXX..##  ",
"  ++  @@@@++@@..XXXX..XXXX..##  ",
"  ++@@  @@++++++....++....@@@@  ",
"  ++@@  @@++++++....++....@@@@  ",
"    ++++++++  @@@@++++++++++@@@@",
"    ++++++++  @@@@++++++++++@@@@",
"    @@@@++  @@  @@++@@@@@@  ++@@",
"    @@@@++  @@  @@++@@@@@@  ++@@",
"        ++@@  @@++@@++@@  @@++  ",
"        ++@@  @@++@@++@@  @@++  ",
"          ++++++@@@@@@++++++    ",
"          ++++++@@@@@@++++++    "
};
