/* XPM */
static char *ef1e51b1bf17412f827263afc2f22a03F3E4Bv6TmWhKRZAU[] = {
/* columns rows colors chars-per-pixel */
"32 32 3 1 ",
"  c #70C8A0",
". c #40B088",
"X c #88D8B8",
/* pixels */
"                                ",
"                                ",
"      ..                        ",
"      ..                        ",
"..    ..    ..                  ",
"..    ..    ..                  ",
"  ..      ..                    ",
"  ..      ..                    ",
"                                ",
"                                ",
"                        XX      ",
"                        XX      ",
"                  XX    XX    XX",
"                  XX    XX    XX",
"                    XX      XX  ",
"                    XX      XX  ",
"                                ",
"                                ",
"                                ",
"                                ",
"                                ",
"                                ",
"                                ",
"                                ",
"                                ",
"                                ",
"                        ..      ",
"                        ..      ",
"                  ..    ..    ..",
"                  ..    ..    ..",
"                    ..      ..  ",
"                    ..      ..  "
};
