/* XPM */
static char *_28d844a89434949947a7084a0ffcf13E1jM6QWIrj6dvkPw[] = {
/* columns rows colors chars-per-pixel */
"32 32 197 2 ",
"   c None",
".  c #1F631F",
"X  c #1C681E",
"o  c #236316",
"O  c #23641B",
"+  c #28671C",
"@  c #23681E",
"#  c #2A681C",
"$  c #1F5E31",
"%  c #245D2A",
"&  c #1D6425",
"*  c #1C6A23",
"=  c #1D6B2E",
"-  c #1E642A",
";  c #1E6C33",
":  c #1E6434",
">  c #226624",
",  c #226A23",
"<  c #2F6E23",
"1  c #206728",
"2  c #246B2F",
"3  c #2C6D2C",
"4  c #2B7024",
"5  c #2B732C",
"6  c #337426",
"7  c #32752C",
"8  c #33782E",
"9  c #397B2C",
"0  c #276630",
"q  c #246C33",
"w  c #2C6B30",
"e  c #286D3D",
"r  c #286736",
"t  c #316F36",
"y  c #2B7434",
"u  c #2C7830",
"i  c #26733B",
"p  c #2C7A3D",
"a  c #337B34",
"s  c #3A7C35",
"d  c #36753A",
"f  c #38723F",
"g  c #307E3F",
"h  c #317332",
"j  c #2D7941",
"k  c #327B42",
"l  c #3C7C41",
"z  c #337C4A",
"x  c #457B49",
"c  c #4C7E59",
"v  c #3F8136",
"b  c #33813C",
"n  c #3E833C",
"m  c #3D883E",
"M  c #44873D",
"N  c #4A8A3D",
"B  c #428639",
"V  c #2F8145",
"C  c #3B8542",
"Z  c #3C8944",
"A  c #368249",
"S  c #38854E",
"D  c #37884D",
"F  c #3C8D4B",
"G  c #38904F",
"H  c #3D8655",
"J  c #348D54",
"K  c #3C8E53",
"L  c #3B875A",
"P  c #348C59",
"I  c #389056",
"U  c #37925F",
"Y  c #3A925D",
"T  c #3D985B",
"R  c #3F8560",
"E  c #3B8F65",
"W  c #3B9463",
"Q  c #3E9861",
"!  c #3E976B",
"~  c #3C986A",
"^  c #369263",
"/  c #438A44",
"(  c #4C8E44",
")  c #40844C",
"_  c #478C49",
"`  c #4A8D49",
"'  c #4E9447",
"]  c #4B944B",
"[  c #45934C",
"{  c #57974C",
"}  c #539A4E",
"|  c #438E53",
" . c #488D50",
".. c #468E5A",
"X. c #508F58",
"o. c #449255",
"O. c #499351",
"+. c #439659",
"@. c #429858",
"#. c #4D9959",
"$. c #4B9759",
"%. c #539C54",
"&. c #5D9F57",
"*. c #549C59",
"=. c #559654",
"-. c #5FA055",
";. c #53A35F",
":. c #5BA55C",
">. c #5AA85C",
",. c #418C65",
"<. c #429C63",
"1. c #4C9B62",
"2. c #42956A",
"3. c #4E9B6F",
"4. c #509362",
"5. c #539D63",
"6. c #5F9E68",
"7. c #509B6B",
"8. c #4B9F73",
"9. c #609966",
"0. c #629E73",
"q. c #4EA262",
"w. c #4BA56E",
"e. c #4EA86C",
"r. c #54A462",
"t. c #5AA263",
"y. c #5BAA63",
"u. c #56A56A",
"i. c #59A56B",
"p. c #54A96C",
"a. c #5CA96C",
"s. c #4AA573",
"d. c #54AD74",
"f. c #5AA47D",
"g. c #52A87B",
"h. c #5DAE7B",
"j. c #5FB376",
"k. c #59B47D",
"l. c #5DB97F",
"z. c #63AC6E",
"x. c #65A076",
"c. c #67AC70",
"v. c #6DA573",
"b. c #64B374",
"n. c #63B67B",
"m. c #6CB67D",
"M. c #69B97A",
"N. c #75B47D",
"B. c #5EB084",
"V. c #5EB985",
"C. c #61B780",
"Z. c #64BB86",
"A. c #6BBB82",
"S. c #63B88C",
"D. c #71B683",
"F. c #75BD82",
"G. c #77BE89",
"H. c #79BD82",
"J. c #6DC283",
"K. c #64C18B",
"L. c #6AC28F",
"P. c #73C484",
"I. c #7AC186",
"U. c #73C58C",
"Y. c #79C28D",
"T. c #72C98E",
"R. c #6DC594",
"E. c #6FC996",
"W. c #6FCB9A",
"Q. c #74CC95",
"!. c #79CC95",
"~. c #73C599",
"^. c #74CC9C",
"/. c #7CCD98",
"(. c #72D19B",
"). c #79D19C",
"_. c #7FCDA2",
"`. c #7BD3A1",
"'. c #7EDAA6",
"]. c #85CB97",
"[. c #88D197",
"{. c #84DAA5",
"}. c #88DDA7",
"|. c #80D7A9",
" X c #84DFAA",
".X c #8CDDAC",
"XX c #94DBA3",
"oX c #8AE2AE",
"OX c #97E0A7",
"+X c #98E0A5",
"@X c #93E6AF",
"#X c #9CE4AB",
"$X c #8DE5B2",
"%X c #8FE8B8",
"&X c #91E9B7",
"*X c #92E8B3",
"=X c #90E9B8",
/* pixels */
"                                                                ",
"                                                                ",
"                                                                ",
"                                c c                             ",
"                                x.0.                            ",
"                            L 7.].Y...                          ",
"            P P P P         A.L..XY...      ; z z :             ",
"          E E W Y W Y       $X*X@XU.+.S   q i H S e e           ",
"        ,.B.~.~.R.E.V.Y P W ).@X{.A.K j q i.F.Y.G.D.4.$         ",
"        ,.S.'.$X%X=X^.s.W Y L.}./.h.S j j A.XX#XXX].6.$         ",
"          8.g.`.%X$XoX[.k.I C.!.Y.p.i A 5.m.[.XXH.S k           ",
"            ! S.(.'.oXoXA.w.d.n.A.1.; S a.m.F.G.c.q             ",
"              ! s.L.Q.Q.T.J.q.@.u.+.; A a.a.i.$.|               ",
"          E ^ ^ ~ s.d.e.J.J.q.G +.K p | i.o.S p y 1 %           ",
"        2.2.2.~ ~ ^ I J e.J.q.G F F F +.5.j = = 0 = 0 r         ",
"    R f.~.~.^.W.L.V.s.J T q.y.>.b b #.F g F o.5.t.6.9.9.x % %   ",
"    ,.f._..X%X$X'.(.l.T G F y.y.5 u ] Z y o.c.M.H.H.N.v.x % %   ",
"        3.R.%X'.(.E.J.e.@.F [ / 4 * 4 C #.r.a.z.z.c.X.f         ",
"        L h.R.L.K.K.l.d.q.[ C 7 @ @ 4 Z *.*.*.O.O. .l %         ",
"          ^ W s.d.d.d.p.i.t.s O o 4 v M / / C 2 1 > -           ",
"            P Q ~ <.T D A C 3 O o # 6 7 7 t 5 > & &             ",
"              I I I V = & . O o o o o o O O > > >               ",
"            I p.b.b.r.o.a & 6 7 # o o < s M ` ` n >             ",
"          +.#.M.U.P.b.y./ , s n < # o 6 N { -.&.` h w           ",
"        H i.A.P.P.b.:.[ / s n B v 6 o 9 N N ( ( { =.s %         ",
"        H 1.u.u.;.O.Z a Z ] ] ' ' B 6 6 9 9 9 a s _ d -         ",
"          ; = = * * * X m >.>.:.>.} M 6 o o O @ > > > %         ",
"                        a Z %.:.-./ 8 4                         ",
"                          , ` *./ a @                           ",
"                            d f y w                             ",
"                            % % % %                             ",
"                            % % % %                             "
};
