/* XPM */
static char *_f9c1a78aea94b2edac0de03e4610b4686fUQxLXXvtUAzQZ[] = {
/* columns rows colors chars-per-pixel */
"64 64 164 2 ",
"   c None",
".  c #000000",
"X  c #090904",
"o  c #0B0B0C",
"O  c #1B130E",
"+  c #0D0D10",
"@  c #1F1610",
"#  c #16161B",
"$  c #1D1D1E",
"%  c #161614",
"&  c #221B15",
"*  c #201711",
"=  c #262611",
"-  c #343416",
";  c #393919",
":  c #1C1C23",
">  c #252525",
",  c #26262E",
"<  c #272A2A",
"1  c #2C2D2D",
"2  c #2A2C27",
"3  c #3A3A21",
"4  c #3D3D2A",
"5  c #303025",
"6  c #272730",
"7  c #2A2A33",
"8  c #343136",
"9  c #32323C",
"0  c #3E3E30",
"q  c #352F34",
"w  c #6A2F1E",
"e  c #493A2E",
"r  c #583E2E",
"t  c #553C2C",
"y  c #523D32",
"u  c #424327",
"i  c #5E4B3C",
"p  c #5B4737",
"a  c #4E513B",
"s  c #4B4D39",
"d  c #634634",
"f  c #7A563F",
"g  c #353541",
"h  c #3D3D4A",
"j  c #513E47",
"k  c #3D4042",
"l  c #454545",
"z  c #4A4B4B",
"x  c #474648",
"c  c #5C454E",
"v  c #5A4240",
"b  c #5B5D4D",
"n  c #494C52",
"m  c #484858",
"M  c #564651",
"N  c #5E545C",
"B  c #545458",
"V  c #704144",
"C  c #784040",
"Z  c #724945",
"A  c #6E5846",
"S  c #6B5747",
"D  c #7E5941",
"F  c #60555C",
"G  c #5D604E",
"H  c #5F6252",
"J  c #666857",
"K  c #776C5C",
"L  c #5A5D67",
"P  c #5B5D69",
"I  c #545562",
"U  c #5D6166",
"Y  c #646464",
"T  c #6B6D6B",
"R  c #63666A",
"E  c #736160",
"W  c #757565",
"Q  c #656771",
"!  c #6B6D75",
"~  c #676B74",
"^  c #6D7279",
"/  c #727272",
"(  c #727979",
")  c #77797B",
"_  c #833E2A",
"`  c #904028",
"'  c #9A462E",
"]  c #834131",
"[  c #9C4D38",
"{  c #A14A30",
"}  c #A6533C",
"|  c #B15439",
" . c #8A5955",
".. c #B85C42",
"X. c #B35A41",
"o. c #8E674F",
"O. c #94684D",
"+. c #9A6C50",
"@. c #976C51",
"#. c #9D755A",
"$. c #A26655",
"%. c #A0775B",
"&. c #987465",
"*. c #8B6B63",
"=. c #A17B65",
"-. c #D76B4B",
";. c #DD6E4F",
":. c #DD6F50",
">. c #DE7151",
",. c #E07050",
"<. c #7D847F",
"1. c #B8815F",
"2. c #8F8F7E",
"3. c #86867A",
"4. c #AE8169",
"5. c #A58468",
"6. c #B6876F",
"7. c #AE8274",
"8. c #BB8771",
"9. c #D6966F",
"0. c #CB9C7C",
"q. c #D89971",
"w. c #DFA47C",
"e. c #E1A77F",
"r. c #777D81",
"t. c #7B7D86",
"y. c #7B7E8C",
"u. c #777A8A",
"i. c #7C8386",
"p. c #7F8688",
"a. c #878E8F",
"s. c #8B8B8B",
"d. c #818595",
"f. c #848994",
"g. c #889090",
"h. c #8F9099",
"j. c #959595",
"k. c #90909A",
"l. c #999999",
"z. c #9C9CA5",
"x. c #A5A6A8",
"c. c #A9ABB3",
"v. c #ABB2BE",
"b. c #B4B4B4",
"n. c #BCBCBC",
"m. c #B7B7BD",
"M. c #CCA381",
"N. c #E5AE86",
"B. c #E9B48C",
"V. c #EEBC94",
"C. c #F0C098",
"Z. c #B2B9C9",
"A. c #AEB5C5",
"S. c #BAC1D1",
"D. c #C6C6C3",
"F. c #CCCCCC",
"G. c #C7C7CA",
"H. c #CDCDD1",
"J. c #C1C9D8",
"K. c LightGray",
"L. c #DFDFDC",
"P. c #DCDCD7",
"I. c #E4E4E6",
"U. c white",
/* pixels */
"                                                                                                                                ",
"                                                                                                                                ",
"                                                                                                                                ",
"                                                  m.Q ~ Q Q Q Q Q ~ Q ~ !                                                       ",
"                                                  c.m m m m m m m m m m m                                                       ",
"                                                  c.m m m m m m m m m n m                                                       ",
"                                      P.; 3 ; u 3 G g.g.a.a.g.a.a.a.a.a.a.3 e 3 3 ; W                                           ",
"                                      P.; ; ; ; ; S g.g.g.g.g.g.g.g.a.a.a.; ; ; ; ; K                                           ",
"                                  L.L.D.; 3 3 u u H g.g.g.g.g.g.g.g.g.g.a.u u u ; 3 K L.L.                                      ",
"                                  ; ; 3 m m P g.g.g.g.g.g.g.g.g.g.g.g.g.g.g.g.p.m m k ; ; 2.                                    ",
"                                  ; ; 3 m m P g.g.g.g.g.g.g.g.g.g.g.g.g.g.g.g.i.m m l ; ; 2.                                    ",
"                            n.b.b.4 4 0 m m P g.g.g.g.g.g.g.g.g.g.g.g.g.g.g.g.p.m m k 4 4 W b.b.L.                              ",
"                            > . . m m m m m L g.g.g.g.g.g.g.g.g.g.g.g.g.g.g.g.i.m m m m m 6 . . l.                              ",
"                            > . . m m m m m L g.g.g.g.g.g.g.g.g.g.g.g.g.g.g.g.i.m m m m m 6 . . l.                              ",
"                            > . . m m m m m I ^ ^ i.g.g.g.g.g.g.g.g.g.g.a.^ ^ ~ m m m m m 6 . . l.                              ",
"                            > . . m m m m m m m m Q g.g.g.g.g.g.g.g.g.g.a.m m m m m m m m 6 . . l.                              ",
"                            > . . m m m m m m m m R g.g.g.g.g.g.g.g.g.g.a.m m m m m m m m 6 . . j.                              ",
"                            > . . m m m m m m m m I Q Q Q R Q Q Q Q R Q R m m m m m m m m 6 . . j.                              ",
"                            > . . m m m m m m m m m m m m m m m m m m m m m m m m m m m m 6 . . l.                              ",
"                            > . . m m m m m m m m m m m m m m m m m m m m m m m m m m m m 6 . . j.                              ",
"                      ) x x o.+.+.# # # 4 4 4 4 4 4 4 4 4 4 4 4 4 4 4 4 4 4 4 4 4 4 5 # # y +.+.S x l F.                        ",
"                      z . . 1.q.q.. . X - ; ; ; ; ; ; ; ; ; ; ; ; ; ; ; ; ; ; ; - ; = . . d 9.q.t . . n.                        ",
"                      z . . 1.q.q.. . X ; - ; ; ; ; ; ; - ; ; ; ; ; - ; ; ; ; ; - - = . . d q.q.t . . n.                        ",
"                      z . . 0.V.V.. . . X X 2 <.<.<.<.<.<.<.<.<.<.<.<.i.<.<.<.T X X X . . A V.V.i . . n.                        ",
"                      z . . M.C.V.. . . . . 2 g.g.g.g.g.g.g.g.g.g.g.g.g.g.g.g.( . . . . . A C.C.i . . n.                        ",
"                      z . . M.C.C.. . . . . 2 g.g.g.g.g.a.g.g.g.g.g.a.a.g.g.a.( . . . . . A V.C.i . . n.                        ",
"                            > . . . . * q.9.4.m m 7 . . 7 m m m m m X . . m m N q.q.O.. . . . . j.                              ",
"                            > . . . . @ q.q.4.m m 7 . . 7 m m m m m o . . m m N q.q.O.. . . . . j.                              ",
"                            l > > . . * q.e.6.F N q . . 8 F F N F F o . X N N E q.w.O.. . + 2 > x.                              ",
"                                  . . & C.V.B.9.9.f . . D q.q.9.9.q.O . . q.q.q.C.C.5.. . /                                     ",
"                                  . . & C.C.B.9.q.D . . D 9.q.9.q.q.O . . 9.q.w.C.C.5.. . /                                     ",
"                                  . . & B.B.B.e.w.#.e e %.w.e.w.e.e.p e e w.w.N.B.B.=.. . /                                     ",
"                                  . . @ 9.9.N.C.C.C.C.C.C.C.C.C.V.V.C.C.C.C.C.V.q.q.O.. . /                                     ",
"                                  . . * q.9.e.V.C.C.C.C.C.C.C.V.C.C.C.V.C.C.V.V.q.q.O.. . /                                     ",
"                            l.s.s.k 9 z &.&.=.8.8.0.N.N.N.N.N.N.N.N.N.N.N.8.8.6.&.&.K k h Y s.s.F.                              ",
"                            > . . g.a.s.m m M C C $.q.q.q.q.q.q.q.q.q.q.9.C C V m m P g.g.z . . j.                              ",
"                            > . . g.g.s.m m M C C $.q.q.q.q.9.q.q.q.q.q.9.C C V m m U g.g.n . . j.                              ",
"                      j.Y R 9 7 7 g.g.) : : 7 c c p r r r r r r r r r r r c c j : : k g.g.U 7 7 n Y Y K.                        ",
"                      z . . h m m g.g.( . . # m m 7 . . . . . . . . . . . m m h . . 2 g.g.^ m m : . . n.                        ",
"                      x . . h m m g.g.( . . # m m 7 . . . . . . . . . . . m m h . . 1 g.g.^ m m : . . n.                        ",
"                      ^ g g m.H.K.P P m . . > r.t.*.} } ] w w w w w [ } } i.( U . . : P L k.H.H.^ g g G.                        ",
"                      t.m m I.U.U.m m h . . < g.g.7.,.,.| ` ` ` ` ` -.,.>.g.g.( . . # m m z.U.U.k.m m H.                        ",
"                      t.m m I.U.U.m m h . . < g.g.7.,.,.| ` ` ` ` _ -.,.>.g.g.( . . # m m z.U.U.k.m m F.                        ",
"                      t.m m Z.H.J.Z.Z.c.- - s g.g.7.,.,.;.-.-.-.;.-.{ ' ' g.g.) - - b Z.Z.J.J.J.y.m m H.                        ",
"                      t.m m A.J.J.S.J.v.; ; a g.g.7.,.,.,.,.,.,.,.,.' ` ` s.g.<.; ; J S.J.J.J.S.u.m m H.                        ",
"                      d.m m A.S.S.S.S.c.- - a g.s.7.,.,.,.:.:.,.;.;.' ' ` s.a.( - - H S.S.S.S.S.u.B m H.                        ",
"                            > . X . . . . . # m m  .,.,.| _ ` ` _ ` -.,.,.m m h . . . . . . . . l.                              ",
"                            > . . . . . . . # m M  .,.,.| _ _ ` _ ' -.,.;.n m j . . . . . . . . j.                              ",
"                            z 1 7 X X X + + : h h Z ....[ _ ] ] ] _ X...X.h h g + o o X X # 1 1 x.                              ",
"                                  ; ; 3 m m 9 . . . . . 7 m m m m m o . . . . + m n l ; ; 2.                                    ",
"                                  ; ; 3 m m 9 . . . . . 7 m m m m m o . . . . + m m l ; ; 2.                                    ",
"                                  = = = 9 9 7 $ # $ # # , 9 9 9 9 9 : # # : : : 9 9 1 = = 3.                                    ",
"                                  . . . . . # m m m m m : . . . . . h m m m m h . . . . . /                                     ",
"                                  X . . . . # m m m m m : . . . . . x m m m m h . . . . . /                                     ",
"                                  . . + L U ~ d.d.P , , B / / ) / / 9 6 7 p.d.p.U P k . . /                                     ",
"                                  . . : J.S.J.J.J.^ . . j.          : . o J.S.J.S.J.f.. . /                                     ",
"                                  X . $ J.J.S.J.J.^ . . j.          > . . J.J.J.J.J.g.. . /                                     ",
"                                  l.l.g.n n n n n ! l.l.F.          x.l.l.n n n n n R l.l.D.                                    ",
"                                      K.. . . . . T                       . . . . . M                                           ",
"                                      K.. . . . . T                       . . . . . z                                           ",
"                                        n.n.n.n.n.P.                      n.n.n.Z.n.K.                                          ",
"                                                                                                                                ",
"                                                                                                                                ",
"                                                                                                                                "
};
