/* XPM */
static char *result[] = {
/* columns rows colors chars-per-pixel */
"32 32 9 1 ",
"  c black",
". c #703800",
"X c #A86018",
"o c #D8A860",
"O c #485890",
"+ c #6080A8",
"@ c #B0B8C0",
"# c #F8F8F8",
"$ c None",
/* pixels */
"$$$$$$$$$$$$$$$$$$$$$$$$$$$$$$$$",
"$$$$$$$$$$$$$$$$$$$$$$$$$$$$$$$$",
"$$$$$$$$$$$$$$$$$$$$$$$$$$$$$$$$",
"$$$$$$$$$$$$$$$$$$$$$$$$$$$$$$$$",
"$$$$$$$$$$$$$$$$$$$$$$$$$$$$$$$$",
"$$$$$$$$$$$$$$$$$$$$$$$$$$$$$$$$",
"$$$$$$$$$$$$$      $$$$$$$$$$$$$",
"$$$$$$$$$$$  ......  $$$$$$$$$$$",
"$$$$$$$$$   .XX.....   $$$$$$$$$",
"$$$$$$$  .. .XXXXXX. ..  $$$$$$$",
"$$$$$$ + .. ..XXXX.. .. + $$$$$$",
"$$$$$ @ .  . ...... .  . @ $$$$$",
"$$$$$ @  ....      ....  @ $$$$$",
"$$$$ @  .XX.. .... .XX..  @ $$$$",
"$$$$ # .XX.. .XXX.. .XX.. # $$$$",
"$$$$ # .X... XXX... .XX.. # $$$$",
"$$$$ +  ... ..    .. .X.  + $$$$",
"$$$$ +#@ ..   ####   .. @#+ $$$$",
"$$$$ @###   ########   ###@ $$$$",
"$$$$ + @## #@      @# ##@ + $$$$",
"$$$$$   @#@@        @@#@   $$$$$",
"$$$$$$   #@          @@   $$$$$$",
"$$$$$$$  + X        X +  $$$$$$$",
"$$$$$$$$  O oX    Xo O  $$$$$$$$",
"$$$$$$$$$    oooooo    $$$$$$$$$",
"$$$$$$$$$$$$$      $$$$$$$$$$$$$",
"$$$$$$$$$$$$$$$$$$$$$$$$$$$$$$$$",
"$$$$$$$$$$$$$$$$$$$$$$$$$$$$$$$$",
"$$$$$$$$$$$$$$$$$$$$$$$$$$$$$$$$",
"$$$$$$$$$$$$$$$$$$$$$$$$$$$$$$$$",
"$$$$$$$$$$$$$$$$$$$$$$$$$$$$$$$$",
"$$$$$$$$$$$$$$$$$$$$$$$$$$$$$$$$"
};
