/* XPM */
static char *result[] = {
/* columns rows colors chars-per-pixel */
"32 32 11 1 ",
"  c black",
". c #703800",
"X c #A86018",
"o c #D8A860",
"O c #303888",
"+ c #485890",
"@ c #6080A8",
"# c #F8E098",
"$ c #B0B8C0",
"% c #F8F8F8",
"& c None",
/* pixels */
"&&&&&&&&&&&&&&&&&&&&&&&&&&&&&&&&",
"&&&&&&&&&&&&&&&&&&&&&&&&&&&&&&&&",
"&&&&&&&&&&&&&&&&&&&&&&&&&&&&&&&&",
"&&&&&&&&&&&&      &&&&&&&&&&&&&&",
"&&&&&&&&&&& .XXX..  &   & &&&&&&",
"&&&&&&&&&& .X..       X. % &&&&&",
"&&&&& &   ...  OO++++O  % % &&&&",
"&&&& % XX.   +++++++O   $%$ &&&&",
"&&& % % . ++++@@++++ O  $$$ &&&&",
"&&& $%$    O+@@+++++OO  @$@ &&&&",
"&&& $$$ $ + @+++++++OO @ $+ &&&&",
"&&& @$@ % O+O++++O+OO% $ @  &&&&",
"&&& +$ %% +O%O@++OO .% $$ . &&&&",
"&&&  @ %$ ++%. @@OOOOO %%$  &&&&",
"&&& . %$$$ ++++OO++OOO    $ &&&&",
"&&&& $%%%%$ @+++++O+O  ++O  &&&&",
"&&&& $%   $  @++++OOO  OOO+ &&&&",
"&&&& % $@@ +X  O@OOO $  +@OO &&&",
"&&&& $ +++ Xooo     X  #O+++ &&&",
"&&&&& +$@@@ XXooooXXoOO @O+ &&&&",
"&&&&&& @@@+# oXXXXoooO #++ &&&&&",
"&&&&&&  @+$ oo####ooXOO   &&&&&&",
"&&&&& +O +@# Xoo#oXX OOO &&&&&&&",
"&&&&& ++O    oXXXXo ++OO &&&&&&&",
"&&&&& O+@+OO       +O##O# &&&&&&",
"&&&&&& OOOO &&&&&&&      &&&&&&&",
"&&&&&& #O+OO &&&&&&&&&&&&&&&&&&&",
"&&&&&&   ## &&&&&&&&&&&&&&&&&&&&",
"&&&&&&&&&  &&&&&&&&&&&&&&&&&&&&&",
"&&&&&&&&&&&&&&&&&&&&&&&&&&&&&&&&",
"&&&&&&&&&&&&&&&&&&&&&&&&&&&&&&&&",
"&&&&&&&&&&&&&&&&&&&&&&&&&&&&&&&&"
};
