/* XPM */
static char *result[] = {
/* columns rows colors chars-per-pixel */
"32 32 11 1 ",
"  c black",
". c #703800",
"X c #A86018",
"o c #D8A860",
"O c #303888",
"+ c #485890",
"@ c #6080A8",
"# c #F8E098",
"$ c #B0B8C0",
"% c #F8F8F8",
"& c None",
/* pixels */
"&&&&&&&&&&&&&&&&&&&&&&&&&&&&&&&&",
"&&&&&&&&&&&&&&&&&&&&&&&&&&&&&&&&",
"&&&&&&&&&&&&&& &&&&&&&&&&&&&&&&&",
"&&&&&&&&&&&&& % &&&&&&&&&&&&&&&&",
"&&&&&&&&&&&& % % &&&&&&&&&&&&&&&",
"&&&&&&&&&&&& @$$@ &&&&&&&&&&&&&&",
"&&&&&&&&&&  & @    &&&&&&&&&&&&&",
"&&&&&&&&  ++ &  X.. &&&&&&&&&&&&",
"&&&&&&& @@+OO       &&&&&&&&&&&&",
"&&&&&  @++++OO $ XX.  &&&&&&&&&&",
"&&&& O+++++++O % XXX.  &&&&&&&&&",
"&&& O+O+++++  O % XX. . &&&&&&&&",
"&& @++OOOOO ++  % XX. X. &&&&&&&",
"&& +O++O.%%OO+ %$ .X. X. &&&&&&&",
"&& O++++OOOOO  % % . X .. &&&&&&",
"&&& O++OOOOOO % % %  XX . &&&&&&",
"&&& oOOOoXOO %$ $%$O XX   &&&&&&",
"&&&& oooXXX %$@ @$$@ X.   &&&&&&",
"&&&&&   XX X %$@ @$@ .. . &&&&&&",
"&&&&&&&      O %$ @  .. .$ &&&&&",
"&&&&&&&&   O@+@ %$  ..   @   &&&",
"&&&&&&& #@@O$@O %$ .. . @  + &&&",
"&&&&&&&& $$O$@O %$   X. @ + &&&&",
"&&&&&&& #@O@@+O%$ ..X. $ O &&&&&",
"&&&&&&&&   O+O      . $   &&&&&&",
"&&&&&&&&&      +@++O $ &&&&&&&&&",
"&&&&&&&&&&&&&& O+++O# &&&&&&&&&&",
"&&&&&&&&&&&&& ##++O  &&&&&&&&&&&",
"&&&&&&&&&&&&&&     &&&&&&&&&&&&&",
"&&&&&&&&&&&&&&&&&&&&&&&&&&&&&&&&",
"&&&&&&&&&&&&&&&&&&&&&&&&&&&&&&&&",
"&&&&&&&&&&&&&&&&&&&&&&&&&&&&&&&&"
};
