/* XPM */
static char *result[] = {
/* columns rows colors chars-per-pixel */
"32 32 11 1 ",
"  c black",
". c #703800",
"X c #A86018",
"o c #D8A860",
"O c #303888",
"+ c #485890",
"@ c #6080A8",
"# c #F8E098",
"$ c #B0B8C0",
"% c #F8F8F8",
"& c None",
/* pixels */
"&&&&&&&&&&&&&&&&&&&&&&&&&&&&&&&&",
"&&&&&&&&&&&&&&&&&&&&&&&&&&&&&&&&",
"&&&&&&&&&&&&&&&&& &&&&&&&&&&&&&&",
"&&&&&&&&&&&&&&&& % &&&&&&&&&&&&&",
"&&&&&&&&&&&&&&& % % &&&&&&&&&&&&",
"&&&&&&&&&&&&&& @$$@ &&&&&&&&&&&&",
"&&&&&&&&&&&&&    @ &  &&&&&&&&&&",
"&&&&&&&&&&&& ..X  & ++  &&&&&&&&",
"&&&&&&&&&&&&       OO+@@ &&&&&&&",
"&&&&&&&&&&  .XX $ OO++++@  &&&&&",
"&&&&&&&&&  .XXX % O+++++++O &&&&",
"&&&&&&&& . .XX % O  +++++O+O &&&",
"&&&&&&& .X .XX %  ++ OOOOO++@ &&",
"&&&&&&& .X .X. $% +OO%%.O++O+ &&",
"&&&&&& .. X . % %  OOOOO++++O &&",
"&&&&&& . XX  % % % OOOOOO++O &&&",
"&&&&&&   XX O$%$ $% OOXoOOOo &&&",
"&&&&&&   .X @$$@ @$% XXXooo &&&&",
"&&&&&& . .. @$@ @$% X XX   &&&&&",
"&&&&& $. ..  @ $% O      &&&&&&&",
"&&&   @   ..  $% @+@O   &&&&&&&&",
"&&& +  @ . .. $% O@$O@@# &&&&&&&",
"&&&& + @ .X   $% O@$O$$ &&&&&&&&",
"&&&&& O $ .X.. $%O+@@O@# &&&&&&&",
"&&&&&&   $ .      O+O   &&&&&&&&",
"&&&&&&&&& $ O++@+      &&&&&&&&&",
"&&&&&&&&&& #O+++O &&&&&&&&&&&&&&",
"&&&&&&&&&&&  O++## &&&&&&&&&&&&&",
"&&&&&&&&&&&&&     &&&&&&&&&&&&&&",
"&&&&&&&&&&&&&&&&&&&&&&&&&&&&&&&&",
"&&&&&&&&&&&&&&&&&&&&&&&&&&&&&&&&",
"&&&&&&&&&&&&&&&&&&&&&&&&&&&&&&&&"
};
