/* XPM */
static char *result[] = {
/* columns rows colors chars-per-pixel */
"32 32 11 1 ",
"  c black",
". c #703800",
"X c #A86018",
"o c #D8A860",
"O c #303888",
"+ c #485890",
"@ c #6080A8",
"# c #F8E098",
"$ c #B0B8C0",
"% c #F8F8F8",
"& c None",
/* pixels */
"&&&&&&&&&&&&&&&&&&&&&&&&&&&&&&&&",
"&&&&&&&&&&&&&&&&&&&&&&&&&&&&&&&&",
"&&&&&&&&&&&&&     &&&&&&&&&&&&&&",
"&&&&&&&&&&&  OOOOO   &&&&&&&&&&&",
"&&&&&&&&&& OOO  OO@@O &&& &&&&&&",
"&&&&&&&&& OO+++@++OO &&& % &&&&&",
"&&&&&&&&& @@O++++++OO & % % &&&&",
"&&&&& &&&  O        O   $$$ &&&&",
"&&&& % &&   $%%%%$$@  X @$@ &&&&",
"&&& % %   @@         XXX @$ &&&&",
"&&& $%$ .X   ..XXXX. .XXX @ &&&&",
"&&& @$@ XXX. .XXXXXX .XX.. &&&&&",
"&&&& @ .XXXX. .XXXX. ..... &&&&&",
"&&&&   XXXXXX .X... ..... &&&&&&",
"&&&& ..X...XX. .     ... &&&&&&&",
"&&&&& ......... XXX..     &&&&&&",
"&&&&&   ...... .XXXX.. .. &&&&&&",
"&&&&& +       .XXXXX.. X. &&&&&&",
"&&&&& @ .XX.. .XX..... X  &&&&&&",
"&&&&& @ .XXX. ....... ..  &&&&&&",
"&&&&& $ .XXXX. ..     . @ &&&&&&",
"&&&&&& $ .XX..   ....  @ &&&&&&&",
"&&&&&& $ .... .XXX...  $ &&&&&&&",
"&&&&&&& $ .. .XX.    $$ &&&&&&&&",
"&&&&&&&  %   ..  %%%$  &&&&&&&&&",
"&&&&&& +O %$   $%     &&&&&&&&&&",
"&&&&&& OOO  %%$  O@+ &&&&&&&&&&&",
"&&&&&&& OOo#   & OO+O &&&&&&&&&&",
"&&&&&&&&     &&&&  O+ &&&&&&&&&&",
"&&&&&&&&&&&&&&&&&&&   &&&&&&&&&&",
"&&&&&&&&&&&&&&&&&&&&&&&&&&&&&&&&",
"&&&&&&&&&&&&&&&&&&&&&&&&&&&&&&&&"
};
