/* XPM */
static char *result[] = {
/* columns rows colors chars-per-pixel */
"64 64 179 2 ",
"   c #000000",
".  c #0C0A06",
"X  c #0A0A0A",
"o  c #080604",
"O  c #160D09",
"+  c #121213",
"@  c #161619",
"#  c #1A1B1C",
"$  c #1C171B",
"%  c #33170E",
"&  c #211711",
"*  c #281915",
"=  c #351D1D",
"-  c #24240F",
";  c #2B2918",
":  c #38281D",
">  c #32241A",
",  c #383818",
"<  c #1B1B21",
"1  c #24242C",
"2  c #2E2E2F",
"3  c #3B2021",
"4  c #3D2D23",
"5  c #3A3A21",
"6  c #3C3C2A",
"7  c #303024",
"8  c #2D2D37",
"9  c #2D3030",
"0  c #323333",
"q  c #3F3F33",
"w  c #34343E",
"e  c #3D3D3D",
"r  c #511000",
"t  c #401D12",
"y  c #482216",
"u  c #552719",
"i  c #67210E",
"p  c #612A1B",
"a  c #782A16",
"s  c #422724",
"d  c #4C3628",
"f  c #593D2D",
"g  c #473536",
"h  c #5C3733",
"j  c #673628",
"k  c #753522",
"l  c #7D3825",
"z  c #663737",
"x  c #743E3E",
"c  c #454638",
"v  c #4E5039",
"b  c #4C4535",
"n  c #664835",
"m  c #694A37",
"M  c #7B4B3F",
"N  c #78543E",
"B  c #71503B",
"V  c #393946",
"C  c #373641",
"Z  c #4B4B4C",
"A  c #444448",
"S  c #544948",
"D  c #484858",
"F  c #444453",
"G  c #564B55",
"H  c #4F505E",
"J  c #555656",
"K  c #50515F",
"L  c #5A5D5D",
"P  c #784040",
"I  c #7C4947",
"U  c #735040",
"Y  c #69575A",
"T  c #64554A",
"R  c #5E6251",
"E  c #73605F",
"W  c #6C6C5D",
"Q  c #535462",
"!  c #5A5D68",
"~  c #5A5B67",
"^  c #5D606B",
"/  c #5D6363",
"(  c #686B68",
")  c #7B7B67",
"_  c #646770",
"`  c #676B73",
"'  c #6C7272",
"]  c #757575",
"[  c #73797C",
"{  c #7E7676",
"}  c #7F6661",
"|  c #803923",
" . c #8C402B",
".. c #914028",
"X. c #9E492F",
"o. c #954B35",
"O. c #9A4931",
"+. c #9D5035",
"@. c #AE5237",
"#. c #A65A3E",
"$. c #A65139",
"%. c #AA4F35",
"&. c #824B47",
"*. c #875F46",
"=. c #855452",
"-. c #925D56",
";. c #B75B41",
":. c #8B6349",
">. c #976B4F",
",. c #97664B",
"<. c #946856",
"1. c #86675E",
"2. c #B36B4C",
"3. c #BF6248",
"4. c #A66A57",
"5. c #A6775A",
"6. c #B1745C",
"7. c #BB7959",
"8. c #896C64",
"9. c #847B7B",
"0. c #AA7463",
"q. c #A87E68",
"w. c #C56246",
"e. c #CB6346",
"r. c #D06647",
"t. c #D26749",
"y. c #D66C4D",
"u. c #DB6D4E",
"i. c #D76E50",
"p. c #E07050",
"a. c #B7856C",
"s. c #BE8E6D",
"d. c #BB8D72",
"f. c #C18864",
"g. c #CB8D68",
"h. c #D4946D",
"j. c #C79276",
"k. c #D89870",
"l. c #DEA37B",
"z. c #E0A57D",
"x. c #727585",
"c. c #777D82",
"v. c #7D8486",
"b. c #848C8B",
"n. c #8F8F8F",
"m. c #989888",
"M. c #818792",
"N. c #889090",
"B. c #99999A",
"V. c #AD9089",
"C. c #AC9190",
"Z. c #AAAA9F",
"A. c #9B9BA0",
"S. c #A1A1A1",
"D. c #A5A5AC",
"F. c #A4ACB4",
"G. c gray74",
"H. c #CF9E97",
"J. c #E3AB83",
"K. c #E8B38B",
"L. c #EBB890",
"P. c #C9B7B6",
"I. c #C0AAA5",
"U. c #F0BBAC",
"Y. c #EAB6A8",
"T. c #F0C098",
"R. c #C3C3BA",
"E. c gray77",
"W. c gray79",
"Q. c #D5CAC8",
"!. c #D3D3CD",
"~. c #C0C8D8",
"^. c #D3D3D5",
"/. c #DEDEDB",
"(. c #DCD4D2",
"). c #E5DEDC",
"_. c #F4F5F8",
"`. c white",
"'. c None",
/* pixels */
"'.'.'.'.'.'.'.'.'.'.'.'.'.'.'.'.'.'.'.'.'.'.'.'.'.'.'.'.'.'.'.'.'.'.'.'.'.'.'.'.'.'.'.'.'.'.'.'.'.'.'.'.'.'.'.'.'.'.'.'.'.'.'.'.",
"'.'.'.'.'.'.'.'.'.'.'.'.'.'.'.'.'.'.'.'.'.'.'.'.'.'.'.'.'.'.'.'.'.'.'.'.'.'.'.'.'.'.'.'.'.'.'.'.'.'.'.'.'.'.'.'.'.'.'.'.'.'.'.'.",
"'.'.'.'.'.'.'.'.'.'.'.'.'.'.'.'.'.'.'.'.'.'.'.'.'.'.'.'.'.'.'.'.'.'.'.'.'.'.'.'.'.'.'.'.'.'.'.'.'.'.'.'.'.'.'.'.'.'.'.'.'.'.'.'.",
"'.'.'.'.'.'.'.'.'.'.'.'.'.'.'.'.'.'.'.'.'.'.'.'.'.F.D D D Q D D D Q D D ~ '.'.'.'.'.'.'.'.'.'.'.'.'.'.'.'.'.'.'.'.'.'.'.'.'.'.'.",
"'.'.'.'.'.'.'.'.'.'.'.'.'.'.'.'.'.'.'.'.'.'.'.'.'.D.D D D D D D D D D D Q '.'.'.'.'.'.'.'.'.'.'.'.'.'.'.'.'.'.'.'.'.'.'.'.'.'.'.",
"'.'.'.'.'.'.'.'.'.'.'.'.'.'.'.'.'.'.'.'././././.).S.H Q K H K H H K K H ! )././././.'.'.'.'.'.'.'.'.'.'.'.'.'.'.'.'.'.'.'.'.'.'.",
"'.'.'.'.'.'.'.'.'.'.'.'.'.'.'.'.'.'.'.!., , , , , R b.N.N.N.N.N.N.N.N.N.b., , , , , ) '.'.'.'.'.'.'.'.'.'.'.'.'.'.'.'.'.'.'.'.'.",
"'.'.'.'.'.'.'.'.'.'.'.'.'.'.'.'.'.'.'.!., , , , , R N.N.N.N.N.N.N.N.N.N.b., , , , , ) '.'.'.'.'.'.'.'.'.'.'.'.'.'.'.'.'.'.'.'.'.",
"'.'.'.'.'.'.'.'.'.'.'.'.'.'.'.'.'.R.R.S.c 5 c v v ( N.N.N.N.N.N.N.N.N.N.b.v v v 6 5 W R.R./.'.'.'.'.'.'.'.'.'.'.'.'.'.'.'.'.'.'.",
"'.'.'.'.'.'.'.'.'.'.'.'.'.'.'.'.'., , 5 D D ^ N.N.N.N.N.N.N.N.N.N.N.N.N.N.N.N.v.D D A , , m.'.'.'.'.'.'.'.'.'.'.'.'.'.'.'.'.'.'.",
"'.'.'.'.'.'.'.'.'.'.'.'.'.'.'.'.'., , 5 D D ^ N.N.N.N.N.N.N.N.N.N.N.N.N.N.N.N.v.D D g , , m.'.'.'.'.'.'.'.'.'.'.'.'.'.'.'.'.'.'.",
"'.'.'.'.'.'.'.'.'.'.'.'.'.'.B.n.n.q q e D D ^ N.N.N.N.N.N.N.N.N.N.N.N.N.N.N.b.c.D D F q q ( n.n.^.'.'.'.'.'.'.'.'.'.'.'.'.'.'.'.",
"'.'.'.'.'.'.'.'.'.'.'.'.'.'.#     D D D D D ^ N.N.b.N.N.N.N.N.N.N.N.N.N.N.N.N.v.D D D D D 1     S.'.'.'.'.'.'.'.'.'.'.'.'.'.'.'.",
"'.'.'.'.'.'.'.'.'.'.'.'.'.'.#   o D D D D D ^ N.N.N.N.N.N.N.N.N.N.N.N.N.N.N.N.v.D D D D D 1     S.'.'.'.'.'.'.'.'.'.'.'.'.'.'.'.",
"'.'.'.'.'.'.'.'.'.'.'.'.'.'.#     D D D D D K _ _ c.N.N.N.N.N.N.N.N.N.N.b._ _ ^ D D D D D 1     S.'.'.'.'.'.'.'.'.'.'.'.'.'.'.'.",
"'.'.'.'.'.'.'.'.'.'.'.'.'.'.#     D D D D D D D D ` N.N.N.N.N.N.N.N.N.N.b.D D D D D D D D 1     B.'.'.'.'.'.'.'.'.'.'.'.'.'.'.'.",
"'.'.'.'.'.'.'.'.'.'.'.'.'.'.#   o D D D D D D D D ` N.N.N.N.N.N.N.N.N.b.b.D D D D D D D D 1     S.'.'.'.'.'.'.'.'.'.'.'.'.'.'.'.",
"'.'.'.'.'.'.'.'.'.'.'.'.'.'.#     D D D D D D D D K ~ ! ! ! ! ~ ! ! ! ! ! D D D D D D D D 1     S.'.'.'.'.'.'.'.'.'.'.'.'.'.'.'.",
"'.'.'.'.'.'.'.'.'.'.'.'.'.'.#   o D D D D D D D D D D D D D D D D D D D D D D D D D D D D 1     S.'.'.'.'.'.'.'.'.'.'.'.'.'.'.'.",
"'.'.'.'.'.'.'.'.'.'.'.'.'.'.#     D D D D D D D D D D D D D D D D D D D D D D D D D D D D 1     S.'.'.'.'.'.'.'.'.'.'.'.'.'.'.'.",
"'.'.'.'.'.'.'.'.'.'.'.'.'.'.I z z X X + 5 5 5 5 5 5 5 5 5 5 5 5 5 5 5 5 5 5 5 5 5 , ; X X 3 z z P.'.'.'.'.'.'.'.'.'.'.'.'.'.'.'.",
"'.'.'.'.'.'.'.'.'.'.'.'.'.'.=.P x     . , , , , , , , , , , , , , , , , , , , , , , -   o : P P P.'.'.'.'.'.'.'.'.'.'.'.'.'.'.'.",
"'.'.'.'.'.'.'.'.'.'.'.'.'.'.=.P x   o . , , , , , , , , , , , , , , , , , , , , , , -     3 x M P.'.'.'.'.'.'.'.'.'.'.'.'.'.'.'.",
"'.'.'.'.'.'.'.'.'.'.'.e     f.k.h...| k     9 N.N.N.N.N.N.N.N.N.N.N.N.N.N.N.b.'   o = | ..2.h.k.d     E.'.'.'.'.'.'.'.'.'.'.'.'.",
"'.'.'.'.'.'.'.'.'.'.'.c     f.k.h.....k     9 N.N.N.N.N.N.N.N.N.N.N.N.N.N.N.N.'     % ....2.k.k.d     E.'.'.'.'.'.'.'.'.'.'.'.'.",
"'.'.'.'.'.'.'.'.'.'.'.V     f.k.h.....l & & g v.v.v.v.v.v.v.v.v.v.b.v.v.v.v.b.` & @ y ....2.k.k.d     E.'.'.'.'.'.'.'.'.'.'.'.'.",
"'.'.'.'.'.'.'.'.'.'.'.c     f.k.k.| ..+.k.k.q.D D D D D D D D D D D D D D D D Y l.h.7.....2.l.k.d     E.'.'.'.'.'.'.'.'.'.'.'.'.",
"'.'.'.'.'.'.'.'.'.'.'.V     f.k.k.....+.k.k.q.D D D D D D D D D D D D D D D D Y h.h.i.....2.h.k.d     E.'.'.'.'.'.'.'.'.'.'.'.'.",
"'.'.'.'.'.'.'.'.'.'.'.] Z Z >.>.,.#.#.2.z.z.s.E E G w w G E E E E ( C C C E E 8.z.z.g.#.#.,.>.>.T Z Z ^.'.'.'.'.'.'.'.'.'.'.'.'.",
"'.'.'.'.'.'.'.'.'.'.'.'.'.'.#   . k.k.k.T.L.K.k.k.B     *.k.k.k.h.k.O   o k.k.l.T.T.K.k.k.m     S.'.'.'.'.'.'.'.'.'.'.'.'.'.'.'.",
"'.'.'.'.'.'.'.'.'.'.'.'.'.'.#   o h.k.z.T.L.L.k.k.B     *.k.k.k.h.k.O   X k.k.k.T.T.K.h.k.B o   S.'.'.'.'.'.'.'.'.'.'.'.'.'.'.'.",
"'.'.'.'.'.'.'.'.'.'.'.I.V.V.j j j N N :.K.K.J.J.J.<.> = 5.J.J.J.J.J.s = s J.J.J.J.J.s.N N j t % 1.V.V.'.'.'.'.'.'.'.'.'.'.'.'.'.",
"'.'.'.'.'.'.'.'.'.'.'.M r r r.p.i.    * k.k.z.U.U.f.P P j.T.T.T.L.T.&.P &.U.T.L.k.k.:.    y X.| a r r Q.'.'.'.'.'.'.'.'.'.'.'.'.",
"'.'.'.'.'.'.'.'.'.'.'.M r r r.p.y.    = k.k.z.L.L.q.P M j.T.T.T.T.T.&.P &.L.T.L.k.k.:.  o t | | i r r Q.'.'.'.'.'.'.'.'.'.'.'.'.",
"'.'.'.'.'.'.'.'.'.'.'.M r r r.p.u.u u u f n U 0.0.6.6.6.j.J.z.J.J.J.7.6.6.0.6.<.f f v J J 9.V.C.Y g g Q.'.'.'.'.'.'.'.'.'.'.'.'.",
"'.'.'.'.'.'.'.'.'.'.'.M r r r.p.u...| k     * P P 4.k.k.k.h.k.k.k.k.k.k.h.x M z     8 N.b.F.~.~.x.D D (.'.'.'.'.'.'.'.'.'.'.'.'.",
"'.'.'.'.'.'.'.'.'.'.'.M r r t.p.u.....k     * x P 4.k.k.k.k.k.k.k.k.k.k.h.P P h     0 N.N.F.~.~.x.D D ^.'.'.'.'.'.'.'.'.'.'.'.'.",
"'.'.'.'.'.'.'.'.'.'.'.Q.P.P.l a a r.e.$.    $ G G g : 4 : : : : : : : 4 4 { 9.{ ( ( [ b.N.F.~.~.x.D D ^.'.'.'.'.'.'.'.'.'.'.'.'.",
"'.'.'.'.'.'.'.'.'.'.'.'.'.'.p r r p.p.@.    # D D 1                     X N.N.N.N.N.N.N.N.F.~.~.x.D D ^.'.'.'.'.'.'.'.'.'.'.'.'.",
"'.'.'.'.'.'.'.'.'.'.'.'.'.'.p r r p.p.3.    < D D 1           o         X N.N.N.N.N.N.N.N.F.~.~.x.D D ^.'.'.'.'.'.'.'.'.'.'.'.'.",
"'.'.'.'.'.'.'.'.'.'.'.'.'.'.).).).O O > v.v.` D D =.w.w.O.| | | | l w.w.3.D K ! N.N./ + + + @ @ C.'.'.'.'.'.'.'.'.'.'.'.'.'.'.'.",
"'.'.'.'.'.'.'.'.'.'.'.'.'.'.'.'.'.    # b.N.[ D D -.p.p.@.| ........u.u.i.D D ~ N.N.L           S.'.'.'.'.'.'.'.'.'.'.'.'.'.'.'.",
"'.'.'.'.'.'.'.'.'.'.'.'.'.'.'.'.'.    # N.N.c.D D <.p.p.@.X.........y.u.y.D D Q b.b.L o X X X X D.'.'.'.'.'.'.'.'.'.'.'.'.'.'.'.",
"'.'.'.'.'.'.'.'.'.'.'.'.'.'.'.'.'.    2 `.`.`.`.`.U.p.p.p.p.p.p.p.p.O.....D D V     J '.'.'.'.'.'.'.'.'.'.'.'.'.'.'.'.'.'.'.'.'.",
"'.'.'.'.'.'.'.'.'.'.'.'.'.'.'.'.'.    2 `.`.`.`.`.U.p.p.p.p.p.p.p.p.X.| | G D V     J '.'.'.'.'.'.'.'.'.'.'.'.'.'.'.'.'.'.'.'.'.",
"'.'.'.'.'.'.'.'.'.'.'.'.'.'.'.'.'.    2 _._._._._.Y.p.p.y.t.t.t.t.t.X.X.X.Z Z w     J '.'.'.'.'.'.'.'.'.'.'.'.'.'.'.'.'.'.'.'.'.",
"'.'.'.'.'.'.'.'.'.'.'.'.'.'.'.'.'.    1 ~.~.~.~.~.H.p.p.@.......| X.u.p.u., , ;     J '.'.'.'.'.'.'.'.'.'.'.'.'.'.'.'.'.'.'.'.'.",
"'.'.'.'.'.'.'.'.'.'.'.'.'.'.'.'.'.    1 ~.~.~.~.~.H.p.p.@.......X.| u.p.y., , ;     J '.'.'.'.'.'.'.'.'.'.'.'.'.'.'.'.'.'.'.'.'.",
"'.'.'.'.'.'.'.'.'.'.'.'.'.'.'.'.'.J Z L M.M.M.M.M.8.+.o.k p p p p p o.o.o.6 6 7     L '.'.'.'.'.'.'.'.'.'.'.'.'.'.'.'.'.'.'.'.'.",
"'.'.'.'.'.'.'.'.'.'.'.'.'.'.'.'.'.'.'.W.                                o D D V     J '.'.'.'.'.'.'.'.'.'.'.'.'.'.'.'.'.'.'.'.'.",
"'.'.'.'.'.'.'.'.'.'.'.'.'.'.'.'.'.'.'.W.                      o         o D D V     J '.'.'.'.'.'.'.'.'.'.'.'.'.'.'.'.'.'.'.'.'.",
"'.'.'.'.'.'.'.'.'.'.'.'.'.'.'.'.'.'.'./.] ] Z           + 1 1 b n m n n n 1 1 e ] ] S.'.'.'.'.'.'.'.'.'.'.'.'.'.'.'.'.'.'.'.'.'.",
"'.'.'.'.'.'.'.'.'.'.'.'.'.'.'.'.'.'.'.'.'.'.D.          8 D D a.k.k.k.k.g.    0 '.'.'.'.'.'.'.'.'.'.'.'.'.'.'.'.'.'.'.'.'.'.'.'.",
"'.'.'.'.'.'.'.'.'.'.'.'.'.'.'.'.'.'.'.'.'.'.D.          8 D D a.k.k.k.k.g.    0 '.'.'.'.'.'.'.'.'.'.'.'.'.'.'.'.'.'.'.'.'.'.'.'.",
"'.'.'.'.'.'.'.'.'.'.'.'.'.'.'.'.'.'.'.'.'.'.(.B.B.B.B.B.Z < < 6.k.k.8.} E     0 '.'.'.'.'.'.'.'.'.'.'.'.'.'.'.'.'.'.'.'.'.'.'.'.",
"'.'.'.'.'.'.'.'.'.'.'.'.'.'.'.'.'.'.'.'.'.'.'.'.'.'.'.'.L     5.k.h.H D F     0 '.'.'.'.'.'.'.'.'.'.'.'.'.'.'.'.'.'.'.'.'.'.'.'.",
"'.'.'.'.'.'.'.'.'.'.'.'.'.'.'.'.'.'.'.'.'.'.'.'.'.'.'.'.L     4.k.k.K D F     w '.'.'.'.'.'.'.'.'.'.'.'.'.'.'.'.'.'.'.'.'.'.'.'.",
"'.'.'.'.'.'.'.'.'.'.'.'.'.'.'.'.'.'.'.'.'.'.'.'.'.'.'.'.^.G.G.v > > + + # P.G.W.'.'.'.'.'.'.'.'.'.'.'.'.'.'.'.'.'.'.'.'.'.'.'.'.",
"'.'.'.'.'.'.'.'.'.'.'.'.'.'.'.'.'.'.'.'.'.'.'.'.'.'.'.'.'.'.'.e         + '.'.'.'.'.'.'.'.'.'.'.'.'.'.'.'.'.'.'.'.'.'.'.'.'.'.'.",
"'.'.'.'.'.'.'.'.'.'.'.'.'.'.'.'.'.'.'.'.'.'.'.'.'.'.'.'.'.'.'.e         X '.'.'.'.'.'.'.'.'.'.'.'.'.'.'.'.'.'.'.'.'.'.'.'.'.'.'.",
"'.'.'.'.'.'.'.'.'.'.'.'.'.'.'.'.'.'.'.'.'.'.'.'.'.'.'.'.'.'.'.'.'.'.'.'.'.'.'.'.'.'.'.'.'.'.'.'.'.'.'.'.'.'.'.'.'.'.'.'.'.'.'.'.",
"'.'.'.'.'.'.'.'.'.'.'.'.'.'.'.'.'.'.'.'.'.'.'.'.'.'.'.'.'.'.'.'.'.'.'.'.'.'.'.'.'.'.'.'.'.'.'.'.'.'.'.'.'.'.'.'.'.'.'.'.'.'.'.'.",
"'.'.'.'.'.'.'.'.'.'.'.'.'.'.'.'.'.'.'.'.'.'.'.'.'.'.'.'.'.'.'.'.'.'.'.'.'.'.'.'.'.'.'.'.'.'.'.'.'.'.'.'.'.'.'.'.'.'.'.'.'.'.'.'.",
"'.'.'.'.'.'.'.'.'.'.'.'.'.'.'.'.'.'.'.'.'.'.'.'.'.'.'.'.'.'.'.'.'.'.'.'.'.'.'.'.'.'.'.'.'.'.'.'.'.'.'.'.'.'.'.'.'.'.'.'.'.'.'.'."
};
