/* XPM */
static char *result[] = {
/* columns rows colors chars-per-pixel */
"64 64 169 2 ",
"   c #000000",
".  c #0D0300",
"X  c #0A0A04",
"o  c #0B0B0C",
"O  c #110909",
"+  c #180905",
"@  c #17170A",
"#  c #141515",
"$  c #19191B",
"%  c #16171A",
"&  c #260901",
"*  c #2D0B01",
"=  c #380B00",
"-  c #28120D",
";  c #3B1A10",
":  c #3D1308",
">  c #262610",
",  c #2A2A1E",
"<  c #383818",
"1  c #3B291E",
"2  c #212121",
"3  c #25252E",
"4  c gray18",
"5  c #3D3D2B",
"6  c #3B3B23",
"7  c #272730",
"8  c #3F3F34",
"9  c #31313C",
"0  c gray19",
"q  c #501000",
"w  c #451D11",
"e  c #621D0B",
"r  c #4C241B",
"t  c #4E2316",
"y  c #5F2D1F",
"u  c #68220F",
"i  c #6A2614",
"p  c #732A16",
"a  c #7D2E19",
"s  c #7D311C",
"d  c #452522",
"f  c #4A2927",
"g  c #672B24",
"h  c #643535",
"j  c #733D3D",
"k  c #404028",
"l  c #664735",
"z  c #73433B",
"x  c #78483F",
"c  c #7A563F",
"v  c #373742",
"b  c #3B3B47",
"n  c #3E3E4B",
"m  c #403B47",
"M  c #444443",
"N  c #45454B",
"B  c gray30",
"V  c #484844",
"C  c #4B504F",
"Z  c #5B5B41",
"A  c #474756",
"S  c #484858",
"D  c #4D4755",
"F  c #4D5156",
"G  c #525353",
"H  c #50505F",
"J  c #784040",
"K  c #7A4842",
"L  c #6B5B57",
"P  c #5D604F",
"I  c #75615F",
"U  c #606458",
"Y  c #5C5E69",
"T  c #595B66",
"R  c #6D6E69",
"E  c #6F756B",
"W  c #777762",
"Q  c #71766C",
"!  c #656972",
"~  c #6E7379",
"^  c #727272",
"/  c #777E7E",
"(  c #7A7A7A",
")  c #85331E",
"_  c #883923",
"`  c #8F4028",
"'  c #904028",
"]  c #9B422A",
"[  c #824B3B",
"{  c #A2563A",
"}  c #A5593D",
"|  c #BB5A3E",
" . c #A54B31",
".. c #884E48",
"X. c #824945",
"o. c #855945",
"O. c #955A4F",
"+. c #90564C",
"@. c #895959",
"#. c #875D52",
"$. c #BE5F44",
"%. c #A05F53",
"&. c #926E4A",
"*. c #9A6C50",
"=. c #957155",
"-. c #A46856",
";. c #AF7B5B",
":. c #B47E5D",
">. c #B2755D",
",. c #B2694A",
"<. c #986E6E",
"1. c #997566",
"2. c #99756C",
"3. c #9D7575",
"4. c #BB7E62",
"5. c #A27671",
"6. c #C96244",
"7. c #D76A4B",
"8. c #DF6F50",
"9. c #E07050",
"0. c #8F8F7D",
"q. c #A68468",
"w. c #BA8565",
"e. c #C08B6C",
"r. c #D7976F",
"t. c #CB987C",
"y. c #D89870",
"u. c #777D81",
"i. c #7C8385",
"p. c #7F8688",
"a. c #848484",
"s. c #81818B",
"d. c #868D8D",
"f. c #8B8B8B",
"g. c #918F8F",
"h. c #939383",
"j. c #889090",
"k. c #949494",
"l. c #9B9B9B",
"z. c #868690",
"x. c #B1968F",
"c. c #B09F9B",
"v. c #B9A19B",
"b. c #9096A2",
"n. c #9DA1AA",
"m. c #AAAAAF",
"M. c #B6B6B6",
"N. c gray75",
"B. c #DFAE8C",
"V. c #E5B28C",
"C. c #EFBE96",
"Z. c #CAB8B4",
"A. c #F0C098",
"S. c #D1C3BF",
"D. c #B8C0CF",
"F. c #CDCDCD",
"G. c #C1C1C6",
"H. c #D4CECC",
"J. c #DBD1CE",
"K. c #C0C8D8",
"L. c #C8CED9",
"P. c #D4D4D2",
"I. c #DCDCDC",
"U. c #DED4D2",
"Y. c #E2D9D8",
"T. c #D1D7E3",
"R. c white",
"E. c #F4F4F4",
"W. c None",
/* pixels */
"W.W.W.W.W.W.W.W.W.W.W.W.W.W.W.W.W.W.W.W.W.W.W.W.W.W.W.W.W.W.W.W.W.W.W.W.W.W.W.W.W.W.W.W.W.W.W.W.W.W.W.W.W.W.W.W.W.W.W.W.W.W.W.W.",
"W.W.W.W.W.W.W.W.W.W.W.W.W.W.W.W.W.W.W.W.W.W.W.W.W.W.W.W.W.W.W.W.W.W.W.W.W.W.W.W.W.W.W.W.W.W.W.W.W.W.W.W.W.W.W.W.W.W.W.W.W.W.W.W.",
"W.W.W.W.W.W.W.W.W.W.W.W.W.W.W.W.W.W.W.W.W.W.W.W.W.W.W.W.W.W.W.W.W.W.W.W.W.W.W.W.W.W.W.W.W.W.W.W.W.W.W.W.W.W.W.W.W.W.W.W.W.W.W.W.",
"W.W.W.W.W.W.W.W.W.W.W.W.W.W.W.W.W.W.W.W.W.W.W.W.W.W.W.W.W.W.W.W.W.W.W.W.W.W.W.W.W.W.W.W.W.W.W.W.W.W.W.W.W.W.W.W.W.W.W.W.W.W.W.W.",
"W.W.W.W.W.W.W.W.W.W.W.W.W.W.W.W.W.W.W.W.W.W.W.W.W.G.p.p.p.u.s.s.s.s.s.s.z.W.W.W.W.W.W.W.W.W.W.W.W.W.W.W.W.W.W.W.W.W.W.W.W.W.W.W.",
"W.W.W.W.W.W.W.W.W.W.W.W.W.W.W.W.W.W.W.W.W.W.W.W.W.m.A A S H S S S S S S T W.W.W.W.W.W.W.W.W.W.W.W.W.W.W.W.W.W.W.W.W.W.W.W.W.W.W.",
"W.W.W.W.W.W.W.W.W.W.W.W.W.W.W.W.W.W.W.W.W.W.W.W.W.m.N A S S S S S S A A T W.W.W.W.W.W.W.W.W.W.W.W.W.W.W.W.W.W.W.W.W.W.W.W.W.W.W.",
"W.W.W.W.W.W.W.W.W.W.W.W.W.W.W.W.W.W.W.I.Z P P l P W i.i.u.p.u.z.i.i.i.i.u.Z Z Z Z Z 0.W.W.W.W.W.W.W.W.W.W.W.W.W.W.W.W.W.W.W.W.W.",
"W.W.W.W.W.W.W.W.W.W.W.W.W.W.W.W.W.W.W.U.< < < < < U j.j.j.j.j.j.j.j.j.j.d.< < < < < W W.W.W.W.W.W.W.W.W.W.W.W.W.W.W.W.W.W.W.W.W.",
"W.W.W.W.W.W.W.W.W.W.W.W.W.W.W.W.W.W.W.P.< < < < < G j.j.j.j.j.j.j.j.j.j.d.< < < < < W W.W.W.W.W.W.W.W.W.W.W.W.W.W.W.W.W.W.W.W.W.",
"W.W.W.W.W.W.W.W.W.W.W.W.W.W.W.W.W.6 6 k S S Y d.d.d.j.j.j.j.j.j.j.j.j.j.j.d.j.u.A A 9 X X ( W.W.W.W.W.W.W.W.W.W.W.W.W.W.W.W.W.W.",
"W.W.W.W.W.W.W.W.W.W.W.W.W.W.W.W.W.< < 6 S S Y j.j.j.j.j.j.j.j.j.j.j.j.j.j.j.j.i.A A 9     ( W.W.W.W.W.W.W.W.W.W.W.W.W.W.W.W.W.W.",
"W.W.W.W.W.W.W.W.W.W.W.W.W.W.I.I.I.6 < 5 S A Y j.j.j.j.j.j.j.j.j.j.j.j.j.j.j.j.i.S S 9 X   ( W.W.W.W.W.W.W.W.W.W.W.W.W.W.W.W.W.W.",
"W.W.W.W.W.W.W.W.W.W.W.W.W.W.2     S S S S A Y j.j.j.j.j.j.j.j.j.j.j.j.j.j.j.j.i.S S M < < h.W.W.W.W.W.W.W.W.W.W.W.W.W.W.W.W.W.W.",
"W.W.W.W.W.W.W.W.W.W.W.W.W.W.2     S S S S S Y j.j.j.j.j.j.j.j.j.j.j.j.j.j.j.j.i.S S M < < h.W.W.W.W.W.W.W.W.W.W.W.W.W.W.W.W.W.W.",
"W.W.W.W.W.W.W.W.W.W.W.W.W.W.2     S S S S S T / i.a.j.j.j.j.j.j.j.j.j.j.j.u.u.~ S S N 5 5 Q M.M.T.W.W.W.W.W.W.W.W.W.W.W.W.W.W.W.",
"W.W.W.W.W.W.W.W.W.W.W.W.W.W.2     S S S S S S S S ! j.j.j.j.j.j.j.j.j.j.d.S S A S S S S S 3     l.W.W.W.W.W.W.W.W.W.W.W.W.W.W.W.",
"W.W.W.W.W.W.W.W.W.W.W.W.W.W.2     S S S S S S S A ! j.j.j.j.j.j.j.j.j.j.j.S S S S S S S S 3     l.W.W.W.W.W.W.W.W.W.W.W.W.W.W.W.",
"W.W.W.W.W.W.W.W.W.W.W.W.W.W.2     S S S S S S S S Y ~ ~ ~ ~ ~ ~ ~ ~ ~ ~ ~ A S S S S S S S 3     l.W.W.W.W.W.W.W.W.W.W.W.W.W.W.W.",
"W.W.W.W.W.W.W.W.W.W.W.W.W.W.2     S S S S S S S S S S S S S S S S S S A A A S S S S S S S 3     l.W.W.W.W.W.W.W.W.W.W.W.W.W.W.W.",
"W.W.W.W.W.W.W.W.W.W.W.W.W.W.2     S S S S S S S S S S S S S S S S S S S S S S S S S S S A 7     l.W.W.W.W.W.W.W.W.W.W.W.W.W.W.W.",
"W.W.W.W.W.W.W.W.W.W.W.k.^ R G C F 8 8 8 8 8 M S S S S S S S S S S S S S S S S S S S S S A 7     l.W.W.W.W.W.W.W.W.W.W.W.W.W.W.W.",
"W.W.W.W.W.W.W.W.W.W.W.M     / j.d.< < < < < 5 S S S S S S S A A S S S S S S S S S S S S A 7     l.W.W.W.W.W.W.W.W.W.W.W.W.W.W.W.",
"W.W.W.W.W.W.W.W.W.W.W.M     / j.d.< < < < < 5 S S S S S S S A A S S S S S S S S S S S S A 7     l.W.W.W.W.W.W.W.W.W.W.W.W.W.W.W.",
"W.W.W.W.W.W.W.W.W.W.W.M     H Y Y Q Q Q Q Q U 5 5 5 5 5 5 5 5 N S S S S S S S S S S v % % - = = v.W.W.W.W.W.W.W.W.W.W.W.W.W.W.W.",
"W.W.W.W.W.W.W.W.W.W.W.M     n S S j.j.j.j.j.E < < < < < < < < N S S S S S S S S S S 9     & q q v.W.W.W.W.W.W.W.W.W.W.W.W.W.W.W.",
"W.W.W.W.W.W.W.W.W.W.W.M     N S S j.j.j.j.j.Q < < < < < < < < M S S S S S S S S S S 9     & q q v.W.W.W.W.W.W.W.W.W.W.W.W.W.W.W.",
"W.W.W.W.W.W.W.W.W.W.W.I.F.P.3 o o # # % # # # X   X X X X X X o o o o o o o o o o o r $.$._ q q v.W.W.W.W.W.W.W.W.W.W.W.W.W.W.W.",
"W.W.W.W.W.W.W.W.W.W.W.W.W.W.$                                                       r 9.9.] q q v.W.W.W.W.W.W.W.W.W.W.W.W.W.W.W.",
"W.W.W.W.W.W.W.W.W.W.W.W.W.W.2                                                       r 9.9.] q q v.W.W.W.W.W.W.W.W.W.W.W.W.W.W.W.",
"W.W.W.W.W.W.W.W.W.W.W.W.W.W.@.J J A.C.A.C.C.q.    l r.r.r.r.r.{ ` ` V.C.C.y.y.;.    r 9.9.9.9.9._ q q S.W.W.W.W.W.W.W.W.W.W.W.W.",
"W.W.W.W.W.W.W.W.W.W.W.W.W.W.@.J K C.A.A.A.A.q.    l r.r.y.y.y.{ ' ' V.C.C.y.y.;.    r 9.9.9.9.9.) q q S.W.W.W.W.W.W.W.W.W.W.W.W.",
"W.W.W.W.W.W.W.W.W.W.W.W.W.W.<.@.@.B.B.B.C.C.q.O O l y.y.y.y.y.{ ' ' V.A.C.y.y.;.    r 9.9.7.7.7.) q q S.W.W.W.W.W.W.W.W.W.W.W.W.",
"W.W.W.W.W.W.W.W.W.W.W.W.W.W.W.W.W.J J ..r.y.4.J K -.y.y.y.y.y.{ ' ' V.C.C.y.y.;.    r 9.9.| ' ' u q q S.W.W.W.W.W.W.W.W.W.W.W.W.",
"W.W.W.W.W.W.W.W.W.W.W.W.W.W.W.W.W.J J ..r.r.4.j J -.y.y.y.y.y.} ' _ V.V.C.y.y.;.    r 9.9.| ' ' u q q S.W.W.W.W.W.W.W.W.W.W.W.W.",
"W.W.W.W.W.W.W.W.W.W.W.W.W.W.W.W.W.3.5.5.4.4.>.O.O.>.y.y.y.y.y.,.%.{ r.B.B.*.*.o.- - y 6.6. .s s q q q S.W.W.W.W.W.W.W.W.W.W.W.W.",
"W.W.W.W.W.W.W.W.W.W.W.W.W.W.W.W.W.W.W.Y.J J O.y.y.y.y.y.y.y.y.y.y.y.X.J h     + ' ' ' ' _ p q q q q q S.W.W.W.W.W.W.W.W.W.W.W.W.",
"W.W.W.W.W.W.W.W.W.W.W.W.W.W.W.W.W.W.W.Y.J J O.y.y.y.y.y.y.y.y.y.y.y.X.J j     + ' ' ' ' ' p q q q q q S.W.W.W.W.W.W.W.W.W.W.W.W.",
"W.W.W.W.W.W.W.W.W.W.W.W.W.W.W.W.W.W.W.Y.g g z 1.1.1.1.1.=.&.&.o.K K f d d w w r ' ' _ p p u q q o.3.2.Y.W.W.W.W.W.W.W.W.W.W.W.W.",
"W.W.W.W.W.W.W.W.W.W.W.W.W.W.W.W.W.W.W.J.q q r S S S S S k < < O   X       ' ' ' ' ' s q q q q q v.W.W.W.W.W.W.W.W.W.W.W.W.W.W.W.",
"W.W.W.W.W.W.W.W.W.W.W.W.W.W.W.W.W.W.W.J.q q r S A A S S 8 < < X           ' ' ' ' ' s q q q q q v.W.W.W.W.W.W.W.W.W.W.W.W.W.W.W.",
"W.W.W.W.W.W.W.W.W.W.W.W.W.W.W.W.W.W.W.J.q q i %.%.+.z z 1 @ @ ^ k.k.k.k.g.w ; w i i [ x.x.x.x.x.U.W.W.W.W.W.W.W.W.W.W.W.W.W.W.W.",
"W.W.W.W.W.W.W.W.W.W.W.W.W.W.W.W.W.W.W.J.q q a 9.9.| ' ' ;     N.R.R.R.R.E.    . q q #.W.W.W.W.W.W.W.W.W.W.W.W.W.W.W.W.W.W.W.W.W.",
"W.W.W.W.W.W.W.W.W.W.W.W.W.W.W.W.W.W.W.J.q q a 9.9.| ' ' ;     N.R.R.R.R.E.    . q q #.W.W.W.W.W.W.W.W.W.W.W.W.W.W.W.W.W.W.W.W.W.",
"W.W.W.W.W.W.W.W.W.W.W.W.W.W.W.W.W.W.W.J.q q a 9.9.| ' ' ;     n.T.T.T.T.L.    2 Z.Z.J.W.W.W.W.W.W.W.W.W.W.W.W.W.W.W.W.W.W.W.W.W.",
"W.W.W.W.W.W.W.W.W.W.W.W.W.W.W.W.W.W.W.J.q q a 9.9.| ' ' ;     b.K.K.K.K.D.    4 W.W.W.W.W.W.W.W.W.W.W.W.W.W.W.W.W.W.W.W.W.W.W.W.",
"W.W.W.W.W.W.W.W.W.W.W.W.W.W.W.W.W.W.W.J.q q a 9.9.| ' ` ;     b.K.D.L.K.D.    4 W.W.W.W.W.W.W.W.W.W.W.W.W.W.W.W.W.W.W.W.W.W.W.W.",
"W.W.W.W.W.W.W.W.W.W.W.W.W.W.W.W.W.W.W.F.. . & e e : O +       # $ $ % $ %     0 W.W.W.W.W.W.W.W.W.W.W.W.W.W.W.W.W.W.W.W.W.W.W.W.",
"W.W.W.W.W.W.W.W.W.W.W.W.W.W.W.W.W.W.W.F.    + q q *                           0 W.W.W.W.W.W.W.W.W.W.W.W.W.W.W.W.W.W.W.W.W.W.W.W.",
"W.W.W.W.W.W.W.W.W.W.W.W.W.W.W.W.W.W.W.F.    + q q =   X .   X       X         0 W.W.W.W.W.W.W.W.W.W.W.W.W.W.W.W.W.W.W.W.W.W.W.W.",
"W.W.W.W.W.W.W.W.W.W.W.W.W.W.W.W.W.    o S S I y.y.y.y.y.y.y.y.+.J J D S S S S b     G W.W.W.W.W.W.W.W.W.W.W.W.W.W.W.W.W.W.W.W.W.",
"W.W.W.W.W.W.W.W.W.W.W.W.W.W.W.W.W.    o S S I y.y.y.y.y.y.y.y.+.J J S S S S S b     G W.W.W.W.W.W.W.W.W.W.W.W.W.W.W.W.W.W.W.W.W.",
"W.W.W.W.W.W.W.W.W.W.W.W.W.W.W.W.W.    o N N L e.e.w.:.:.:.:.:.x h h m n n S S b     G W.W.W.W.W.W.W.W.W.W.W.W.W.W.W.W.W.W.W.W.W.",
"W.W.W.W.W.W.W.W.W.W.W.W.W.W.W.W.W.    X < < 5 S S 7                       S S b     G W.W.W.W.W.W.W.W.W.W.W.W.W.W.W.W.W.W.W.W.W.",
"W.W.W.W.W.W.W.W.W.W.W.W.W.W.W.W.W.    X < < 5 S S 7                     X A S b     G W.W.W.W.W.W.W.W.W.W.W.W.W.W.W.W.W.W.W.W.W.",
"W.W.W.W.W.W.W.W.W.W.W.W.W.W.W.W.W.B B V > > , 9 9 b B B B B B B B B o     9 9 v B B a.W.W.W.W.W.W.W.W.W.W.W.W.W.W.W.W.W.W.W.W.W.",
"W.W.W.W.W.W.W.W.W.W.W.W.W.W.W.W.W.W.W.F.          ^ W.W.W.W.W.W.W.W.$         4 W.W.W.W.W.W.W.W.W.W.W.W.W.W.W.W.W.W.W.W.W.W.W.W.",
"W.W.W.W.W.W.W.W.W.W.W.W.W.W.W.W.W.W.W.F.          ^ W.W.W.W.W.W.W.W.$         4 W.W.W.W.W.W.W.W.W.W.W.W.W.W.W.W.W.W.W.W.W.W.W.W.",
"W.W.W.W.W.W.W.W.W.W.W.W.W.W.W.W.W.W.W.W.^ ^ ^ ^ ^ m.W.W.W.W.W.W.W.W.a.^ ^ ^ ^ f.W.W.W.W.W.W.W.W.W.W.W.W.W.W.W.W.W.W.W.W.W.W.W.W.",
"W.W.W.W.W.W.W.W.W.W.W.W.W.W.W.W.W.W.W.W.W.W.W.W.W.W.W.W.W.W.W.W.W.W.W.W.W.W.W.W.W.W.W.W.W.W.W.W.W.W.W.W.W.W.W.W.W.W.W.W.W.W.W.W.",
"W.W.W.W.W.W.W.W.W.W.W.W.W.W.W.W.W.W.W.W.W.W.W.W.W.W.W.W.W.W.W.W.W.W.W.W.W.W.W.W.W.W.W.W.W.W.W.W.W.W.W.W.W.W.W.W.W.W.W.W.W.W.W.W.",
"W.W.W.W.W.W.W.W.W.W.W.W.W.W.W.W.W.W.W.W.W.W.W.W.W.W.W.W.W.W.W.W.W.W.W.W.W.W.W.W.W.W.W.W.W.W.W.W.W.W.W.W.W.W.W.W.W.W.W.W.W.W.W.W.",
"W.W.W.W.W.W.W.W.W.W.W.W.W.W.W.W.W.W.W.W.W.W.W.W.W.W.W.W.W.W.W.W.W.W.W.W.W.W.W.W.W.W.W.W.W.W.W.W.W.W.W.W.W.W.W.W.W.W.W.W.W.W.W.W.",
"W.W.W.W.W.W.W.W.W.W.W.W.W.W.W.W.W.W.W.W.W.W.W.W.W.W.W.W.W.W.W.W.W.W.W.W.W.W.W.W.W.W.W.W.W.W.W.W.W.W.W.W.W.W.W.W.W.W.W.W.W.W.W.W."
};
