/* XPM */
static char *result[] = {
/* columns rows colors chars-per-pixel */
"48 48 7 1 ",
"  c #583840",
". c #784848",
"X c #907068",
"o c #B89088",
"O c #C8B098",
"+ c #D8C0B8",
"@ c None",
/* pixels */
"@@@@@@@@@@@@@@@@@@@@@@@@@@@XXX......@@@@@@@@@@@@",
"@@@@@@@@@@@@@@@@@@@@@@@@@@@XXX......@@@@@@@@@@@@",
"@@@@@@@@@@@@@@@@@@@@@@@@@@@XXX......@@@@@@@@@@@@",
"@@@@@@@@@@@@@@@@@@@@@@@@XXX+++++++++...@@@@@@@@@",
"@@@@@@@@@@@@@@@@@@@@@@@@XXX+++++++++...@@@@@@@@@",
"@@@@@@@@@@@@@@@@@@@@@@@@XXX+++++++++...@@@@@@@@@",
"@@@@@@@@@@@@@@@@@@@@@XXX++++++++++++XXX...@@@@@@",
"@@@@@@@@@@@@@@@@@@@@@XXX++++++++++++XXX...@@@@@@",
"@@@@@@@@@@@@@@@@@@@@@XXX++++++++++++XXX...@@@@@@",
"@@@@@@@@@XXX......XXXoooOOO+++++++++XXX...@@@@@@",
"@@@@@@@@@XXX......XXXoooOOO+++++++++XXX...@@@@@@",
"@@@@@@@@@XXX......XXXoooOOO+++++++++XXX...@@@@@@",
"@@@@@@XXX++++++++++++ooooooOOOOOOoooXXX......@@@",
"@@@@@@XXX++++++++++++ooooooOOOOOOoooXXX......@@@",
"@@@@@@XXX++++++++++++ooooooOOOOOOoooXXX......@@@",
"@@@@@@+++++++++++++++oooooooooooooooXXX......@@@",
"@@@@@@+++++++++++++++oooooooooooooooXXX......@@@",
"@@@@@@+++++++++++++++oooooooooooooooXXX......@@@",
"@@@...++++++OOOOOOooooooooooooooooooXXX......@@@",
"@@@...++++++OOOOOOooooooooooooooooooXXX......@@@",
"@@@...++++++OOOOOOooooooooooooooooooXXX......@@@",
"@@@...++++++ooooooXXXXXXoooooooooXXXXXX......@@@",
"@@@...++++++ooooooXXXXXXoooooooooXXXXXX......@@@",
"@@@...++++++ooooooXXXXXXoooooooooXXXXXX......@@@",
"@@@...oooOOOooooooXXX...oooooooooXXXXXX.........",
"@@@...oooOOOooooooXXX...oooooooooXXXXXX.........",
"@@@...oooOOOooooooXXX...oooooooooXXXXXX.........",
"...ooooooOOOooooooXXX...ooooooXXXoooXXX......   ",
"...ooooooOOOooooooXXX...ooooooXXXoooXXX......   ",
"...ooooooOOOooooooXXX...ooooooXXXoooXXX......   ",
"...ooooooOOOoooXXX.........XXXXXXoooooo......   ",
"...ooooooOOOoooXXX.........XXXXXXoooooo......   ",
"...ooooooOOOoooXXX.........XXXXXXoooooo......   ",
"...XXXoooooooooXXX...............XXX.........   ",
"...XXXoooooooooXXX...............XXX.........   ",
"...XXXoooooooooXXX...............XXX.........   ",
"......XXXXXX......++++++OOOXXX   .........      ",
"......XXXXXX......++++++OOOXXX   .........      ",
"......XXXXXX......++++++OOOXXX   .........      ",
"@@@...XXX......+++++++++OOOOOO      ...      @@@",
"@@@...XXX......+++++++++OOOOOO      ...      @@@",
"@@@...XXX......+++++++++OOOOOO      ...      @@@",
"@@@@@@.........XXXooooooXXX...            @@@@@@",
"@@@@@@.........XXXooooooXXX...            @@@@@@",
"@@@@@@.........XXXooooooXXX...            @@@@@@",
"@@@@@@@@@@@@                           @@@@@@@@@",
"@@@@@@@@@@@@                           @@@@@@@@@",
"@@@@@@@@@@@@                           @@@@@@@@@"
};
