/* XPM */
static char *result[] = {
/* columns rows colors chars-per-pixel */
"48 48 8 1 ",
"  c #583840",
". c #784848",
"X c #585860",
"o c #907068",
"O c #B89088",
"+ c #C8B098",
"@ c #D8C0B8",
"# c None",
/* pixels */
"#########............###########################",
"#########............###########################",
"#########............###########################",
"######...@@@@@@@@@ooo...########################",
"######...@@@@@@@@@ooo...########################",
"######...@@@@@@@@@ooo...########################",
"###...+++@@@@@@@@@oooooo   ######......#########",
"###...+++@@@@@@@@@oooooo   ######......#########",
"###...+++@@@@@@@@@oooooo   ######......#########",
"###...+++++++++ooooooooo   ooo...@@@@@@...######",
"###...+++++++++ooooooooo   ooo...@@@@@@...######",
"###...+++++++++ooooooooo   ooo...@@@@@@...######",
"######......ooooooooo...   @@@@@@@@@@@@ooo...###",
"######......ooooooooo...   @@@@@@@@@@@@ooo...###",
"######......ooooooooo...   @@@@@@@@@@@@ooo...###",
"#########.........      ooo@@@@@@@@@@@@ooo   ###",
"#########.........      ooo@@@@@@@@@@@@ooo   ###",
"#########.........      ooo@@@@@@@@@@@@ooo   ###",
"#########...@@@OOOooo...OOOOOOOOOOOOoooooo   XXX",
"#########...@@@OOOooo...OOOOOOOOOOOOoooooo   XXX",
"#########...@@@OOOooo...OOOOOOOOOOOOoooooo   XXX",
"######.........oooooo...OOOOOOOOOoooooo...   XXX",
"######.........oooooo...OOOOOOOOOoooooo...   XXX",
"######.........oooooo...OOOOOOOOOoooooo...   XXX",
"###...@@@@@@@@@@@@......OOOOOOoooooo......   XXX",
"###...@@@@@@@@@@@@......OOOOOOoooooo......   XXX",
"###...@@@@@@@@@@@@......OOOOOOoooooo......   XXX",
"...@@@@@@@@@@@@@@@.........            ...XXXXXX",
"...@@@@@@@@@@@@@@@.........            ...XXXXXX",
"...@@@@@@@@@@@@@@@.........            ...XXXXXX",
"...@@@@@@@@@@@@ooo......   XXX@@@@@@......XXX###",
"...@@@@@@@@@@@@ooo......   XXX@@@@@@......XXX###",
"...@@@@@@@@@@@@ooo......   XXX@@@@@@......XXX###",
"...OOOOOOOOOooo.........   @@@@@@@@@@@@...   XXX",
"...OOOOOOOOOooo.........   @@@@@@@@@@@@...   XXX",
"...OOOOOOOOOooo.........   @@@@@@@@@@@@...   XXX",
"......OOOOOO.........      @@@@@@@@@......   XXX",
"......OOOOOO.........      @@@@@@@@@......   XXX",
"......OOOOOO.........      @@@@@@@@@......   XXX",
"###            @@@@@@   OOOOOOOOOooo......   XXX",
"###            @@@@@@   OOOOOOOOOooo......   XXX",
"###            @@@@@@   OOOOOOOOOooo......   XXX",
"###XXXXXX   @@@oooooo      OOOoooooo...      XXX",
"###XXXXXX   @@@oooooo      OOOoooooo...      XXX",
"###XXXXXX   @@@oooooo      OOOoooooo...      XXX",
"#########XXX         XXXXXX               XXX###",
"#########XXX         XXXXXX               XXX###",
"#########XXX         XXXXXX               XXX###"
};
