/* XPM */
static char *result[] = {
/* columns rows colors chars-per-pixel */
"32 32 6 1 ",
"  c black",
". c #502898",
"X c #8860B8",
"o c #B090D8",
"O c #F8F8F8",
"+ c None",
/* pixels */
"++++++++++++++++++++++++++++++++",
"++++++++++++++++++++++++++++++++",
"++++++++++++++++++++++++++++++++",
"++++++++++++++++      ++++++++++",
"++++++++++++    XXXXXX  ++++++++",
"+++ ++++++  XXXXXXoooooX +++++++",
"++ o +++  XXXXXXXXXXooooX ++++++",
"+ X +++ XXooooooooooXXoooX +++++",
"+ . ++ XooooooooooooooXooX +++++",
"+ X + XXoooooooooooooooXXX +++++",
"+ .. .XXXoooooooooooooooXXX ++++",
"++ X .XXXooooooooooooooooXX ++++",
"++  ....XXooooooooooooooooX ++++",
"+++ .. ..Xooooooooooooooooo ++++",
"++ .... .XoooooooooooooooooX +++",
"++ .... .Xoooooooooooooooooo +++",
"+ .X... .XoooooooOOOOoooooooX ++",
"+ XX... .XooooooOOOOOOooooooo ++",
"+ X.... .XooooooOOOOOooXXoOoo ++",
"+ X.X.. ..XooooooOOooXX   XoX ++",
"+ .XXX.. .XooooooooXXXXXX  X. ++",
"+ .XoX.. ..XoooooXX..   .XX. +++",
"++ .X..X. ..XXXXX..  ..     ++++",
"++ ...XoX.  .....  .XX.  +++++++",
"+++ ..XooX..     ..XoX. ++++++++",
"++++  .XXX.XoOooXX.X.  +++++++++",
"++++++  .X.XXooXX.   +++++++++++",
"++++++++          ++++++++++++++",
"++++++++++++++++++++++++++++++++",
"++++++++++++++++++++++++++++++++",
"++++++++++++++++++++++++++++++++",
"++++++++++++++++++++++++++++++++"
};
