/* XPM */
static char *result[] = {
/* columns rows colors chars-per-pixel */
"32 32 11 1 ",
"  c black",
". c #980000",
"X c #D03800",
"o c #D8B000",
"O c #F8F000",
"+ c #F88058",
"@ c #502898",
"# c #8860B8",
"$ c #B090D8",
"% c #F8F8F8",
"& c None",
/* pixels */
"&&&&&&&&&&&&         &&&&&&&&&&&",
"&&&&&&&&&&  #$%%%$$##  &&&&&&&&&",
"&&&&&&&&  #$$%%%%%$$$##  &&&&&&&",
"&&&&&&& $$$$$%%%%$$$$$### &&&&&&",
"&&&&&& $###$$$%%$$$$$##@@# &&&&&",
"&&&&& $     $$$$$$$$#     # &&&&",
"&&&& #$##@   $$$$$$#   @@@#@ &&&",
"&&&& $# ###@ %$$$$$% @@@@ @# &&&",
"&&& #$#   ## % $$$ % @@   @#@ &&",
"&&& $$# +X  # %$$$% @  XX @## &&",
"&&& $$# +OXX # #$# @ XXoX @## &&",
"&&& $$## +OoX #   @ XooX @### &&",
"&&& #$### ++X #@@@@ X++ @@##@ &&",
"&&&& $$###   ### @@@   @@### &&&",
"&&&& #$$# ####     @@@@ ###@ &&&",
"&&&&& ##$#     .X.     ##@@ &&&&",
"&&&&&&  @$#  .XXXXX.  ##@  &&&&&",
"&&&&&&&&  @##  .X.  @#@  &&&&&&&",
"&&& &&&&&& @@@## #@@@@ &&&&&&&&&",
"&& $ &&&&&& @##$$##@@    &&&&&&&",
"&& @ &&&&&&& #@@@@#@ #@@@  &&&&&",
"&& @ &&&&&&  @#%$#@@ @@##@@ &&&&",
"&& #@ &&&& @ @$$$##@ @##$#@ &&&&",
"&& @@ &&& @# #$$$$#@ @@@@@#@ &&&",
"&& @$@   @@ @#$@@@#   ###@@@ &&&",
"&& ##@#$@@# @#@###@  @#$$#@@ &&&",
"&& @#@$#@#$ @@#%$##@@@@$$#@ &&&&",
"&&& @@$#@## @#$$$#@#$#@#$#@ &&&&",
"&&&&  @@@@@  @#$#@#$%$@##@ &&&&&",
"&&&&&&     && @#@##$$#@@@ &&&&&&",
"&&&&&&&&&&&&&&  @@##@@@  &&&&&&&",
"&&&&&&&&&&&&&&&&       &&&&&&&&&"
};
