/* XPM */
static char *result[] = {
/* columns rows colors chars-per-pixel */
"32 32 6 1 ",
"  c black",
". c #502898",
"X c #8860B8",
"o c #B090D8",
"O c #F8F8F8",
"+ c None",
/* pixels */
"++++++++++      ++++++++++++++++",
"++++++++  .XXXXX  ++++++++++++++",
"++++++  .XooooooX. +++++++++++++",
"+++++ .XoooooooooX. ++++++++++++",
"++++ XoooOOOooooooX. +++++++++++",
"+++ XoooOOOOOooooooX. ++++++++++",
"++ XooooooOOOooooooX.. +++++++++",
"++ ooooooooOoooooooXX. +++++++++",
"+ XooooXXXoooooooooXX.. ++++++++",
"+ XooX.OX.XooooooooXX.. ++++++++",
"+ .XX OX.  .XoooooXXX.. ++++++++",
"++       ++ .XooooXXX.. + ++++++",
"+++++++++++  XoooXXXX..  X +++++",
"+++++++++++ . ooXXXX..  . ++++++",
"+++++++++++ . oXXXXX..  . ++++++",
"++++++++++ .  XXXXX..  X +++++++",
"++++++++++ .  XXXX..  XX +++++++",
"+++++++++ .  .XXX.. + .. +++++++",
"+++++++++ .X.XXX.. ++ X.. ++++++",
"+++++++++ .oXXXX.. ++ XX. ++++++",
"++++++++ .oooXX.. +++ .... +++++",
"++++++++ X.XXX... +++ .XXX. ++++",
"++++++++ Xo....X. ++++ XooX. +++",
"++++++++ XOooXX.. ++++ XXXX. +++",
"++++++++ .XooX.X.. +++ X..... ++",
"++++++++ .....XX...   ..XXX.. ++",
"+++++++++ XooXXX.XXXX.XXooXX. ++",
"+++++++++ .XOoXX.XooXX.XXoXX +++",
"++++++++++ .XXX.XoOoXX.XXXX. +++",
"+++++++++++  ..XXooXXX..X.  ++++",
"+++++++++++++  ........   ++++++",
"+++++++++++++++        +++++++++"
};
