/* XPM */
static char *result[] = {
/* columns rows colors chars-per-pixel */
"32 32 6 1 ",
"  c black",
". c #502898",
"X c #8860B8",
"o c #B090D8",
"O c #F8F8F8",
"+ c None",
/* pixels */
"++++++++++++++      ++++++++++++",
"++++++++++++  XXXXX.  ++++++++++",
"+++++++++++ .XooooooX.  ++++++++",
"++++++++++ XoooooOOOooX. +++++++",
"+++++++++ XoooooOOOOOoooX ++++++",
"++++++++ XooooooOOOOoooooX +++++",
"+++++++ XXooooooOOOoooooooX ++++",
"+++++++ XooooooooOooooooooo ++++",
"++++++ .XooooooooooXXXXooooX +++",
"++++++ .XooooooooXXX.XO.XoXX +++",
"++++++ .XoooooooXX.  .XO XX. +++",
"++++++ .XooooooXX. ++       ++++",
"++++++ .XXoooooXX  +++++++++++++",
"+++++++ .XoooooX . +++++++++++++",
"+++++++ .XXoooXX . +++++++++++++",
"++++++++ .XXooXX  . ++++++++++++",
"++++++++  .XXoXX  . ++++++++++++",
"++++++  .. .XXXX.  .  ++++++++++",
"+++++ .XX.. .XXX.. ... +++++++++",
"++++ ....X.. .XXX...X.. ++++++++",
"+++ .XXX X... ..XXXXXX. ++++++++",
"+++ ooo o ... ..XXXoXX.. +++++++",
"+++ XO . ........Xoo..X. +++++++",
"+++ .. X .     .....XXX. +++++++",
"+++ XX ..  +++ ...XooX. ++++++++",
"++++ XX X.. +++  ....  +++++++++",
"+++++ .. XXX +++     +++++++++++",
"+++++ .X.... +++++++++++++++++++",
"++++++ ..X.. +++++++++++++++++++",
"++++++ ..XX ++++++++++++++++++++",
"+++++++    +++++++++++++++++++++",
"++++++++++++++++++++++++++++++++"
};
