/* XPM */
static char *result[] = {
/* columns rows colors chars-per-pixel */
"32 32 6 1 ",
"  c black",
". c #502898",
"X c #8860B8",
"o c #B090D8",
"O c #F8F8F8",
"+ c None",
/* pixels */
"++++++++++         +++++++++++++",
"++++++++  .XXoooXX.  +++++++++++",
"++++++  XXXoooooooXXX  +++++++++",
"++++  XoooooOOOOooooooX  +++++++",
"+++ XooooooOOOOOOooooooX. ++++++",
"++ XooooooOOOOOOOOooooooX. +++++",
"++ ooooooooOOOOOOoooooooX. +++++",
"+ XooooooooooOOoooooooooXX. ++++",
"+ ooooooooooooooooooooooXX. ++++",
"+ ooooooooooooooooooooooXX. ++++",
"+ oooooooooooooooooooooXX.. ++++",
"+ XooooooooooooooooooooXX.. ++++",
"++ XooooooooooooooooooXX.. +++++",
"+++ XoXXXooooooooooooXX.. ++++++",
"++++  XXXXXoooooooXXXX.. +++++++",
"++++++ .XXXXXXXXXXXXX.  ++++++++",
"+++++++ .XXXXXXXXXXX. ++++++++++",
"++++++++ ...XXXXX... +++++++++++",
"+++++++   .X....... ++++++++ +++",
"+++++  XX. XXX..X. ++++++++ o ++",
"++++ ....X .XXXXX. +++++++ X +++",
"+++ .XXX......... ++++++++ . +++",
"+++ X.....       ++    ++++ X ++",
"++ ..oooX.  ++++   .oX.  ++ . ++",
"++ .oOoX.XXX    ..X.XX.X. + X ++",
"++ .XoX.ooX.XXoX.XoX.X.X.X .. ++",
"+++ XX.ooo..XooXX.Xo.  ..X.X. ++",
"+++ .X.ooO..XoOXX.Xo ++ ...X. ++",
"++++ ..Xoo..XooXX.X. +++  .. +++",
"+++++  .XXX.XoXX..  ++++++  ++++",
"+++++++  .......  ++++++++++++++",
"+++++++++       ++++++++++++++++"
};
