/* XPM */
static char *result[] = {
/* columns rows colors chars-per-pixel */
"64 64 11 1 ",
"  c black",
". c #A05818",
"X c #A06800",
"o c #D87018",
"O c #E03860",
"+ c #D8B000",
"@ c #F8F000",
"# c #D0B860",
"$ c #F8F098",
"% c #F8F8F8",
"& c None",
/* pixels */
"&&&&&&&&&&&&&&&&&&&&&&&&&&&&&&&&&&&&&&&&&&&&&&&&&&&&&&&&&&&&&&&&",
"&&&&&&&&&&&&&&&&&&&&&&&&&&&&&&&&&&&&&&&&&&&&&&&&&&&&&&&&&&&&&&&&",
"&&&&&&&&&&&&&&&&&&&&&&&&&&&&&&&&&&&&&&&&&&&&&&&&&&&&&&&&&&&&&&&&",
"&&&&&&&&&&&&&&&&&&&&&&&&&&&&&&&&&&&&&&&&&&&&&&&&&&&&&&&&&&&&&&&&",
"&&&&&&&&&&&&&&&&&&&&&&&&&&&&&&&&&&&&&&&&&&&&&&&&&&&&&&&&&&&&&&&&",
"&&&&&&&&&&&&&&&&&&&&&&&&&&&&&&&&&&&&&&&&&&&&&&&&&&&&&&&&&&&&&&&&",
"&&&&&&&&&&&&&&&&&&&&&&&&&&&&&&&&&&&&&&&&&&&&&&&&&&&&&&&&&&&&&&&&",
"&&&&&&&&&&&&&&&&&&&&&&&&&&&&&&&&&&&&&&&&&&&&&&&&&&&&&&&&&&&&&&&&",
"&&&&&&&&&&&&&&&&&&&  &&&&&&&&&&&&&&&&&&&&&&  &&&&&&&&&&&&&&&&&&&",
"&&&&&&&&&&&&&&&&&&&  &&&&&&&&&&&&&&&&&&&&&&  &&&&&&&&&&&&&&&&&&&",
"&&&&&&&&&&&&&&&&&  @@  &&&&&&&&&&&&&&&&&&  @@  &&&&&&&&&&&&&&&&&",
"&&&&&&&&&&&&&&&&&  @@  &&&&&&&&&&&&&&&&&&  @@  &&&&&&&&&&&&&&&&&",
"&&&&&&&&&&&&&&&&&  ++@@  &&&&&&&&&&&&&&  @@++  &&&&&&&&&&&&&&&&&",
"&&&&&&&&&&&&&&&&&  ++@@  &&&&&&&&&&&&&&  @@++  &&&&&&&&&&&&&&&&&",
"&&&&&&&&&&&&&&&&&  ++@@@@  &&&&&&&&&&  @@@@++  &&&&&&&&&&&&&&&&&",
"&&&&&&&&&&&&&&&&&  ++@@@@  &&&&&&&&&&  @@@@++  &&&&&&&&&&&&&&&&&",
"&&&&&&&&&&&&&&&&&&&  ++@@@@  &&&&&&  @@@@++  &&&&&&&&&&&&&&&&&&&",
"&&&&&&&&&&&&&&&&&&&  ++@@@@  &&&&&&  @@@@++  &&&&&&&&&&&&&&&&&&&",
"&&&&&&&&&&&&&&&&&&&  ++++@@@@      @@@@++++  &&&&&&&&&&&&&&&&&&&",
"&&&&&&&&&&&&&&&&&&&  ++++@@@@      @@@@++++  &&&&&&&&&&&&&&&&&&&",
"&&&&&&&&&&&&&&&&&&&&&  @@@@@@@@@@@@@@@@@@  &&&&&&&&&&&&&&&&&&&&&",
"&&&&&&&&&&&&&&&&&&&&&  @@@@@@@@@@@@@@@@@@  &&&&&&&&&&&&&&&&&&&&&",
"&&&&&&&&&&&&&&&&&&&  ++@@@@@@@@@@@@@@@@@@++    &&&&&&&&&&&&&&&&&",
"&&&&&&&&&&&&&&&&&&&  ++@@@@@@@@@@@@@@@@@@++    &&&&&&&&&&&&&&&&&",
"&&&&&&&&&&&&&&&&&&&  @@@@@@@@@@OO@@@@@@@@@@  @@  &&&&&&&&&&&&&&&",
"&&&&&&&&&&&&&&&&&&&  @@@@@@@@@@OO@@@@@@@@@@  @@  &&&&&&&&&&&&&&&",
"&&&&&&&&&&&&&&&&&  @@@@  ++@@OOOOOO@@++  @@@@  ++  &&&&&&&&&&&&&",
"&&&&&&&&&&&&&&&&&  @@@@  ++@@OOOOOO@@++  @@@@  ++  &&&&&&&&&&&&&",
"&&&&&&&&&&&&&&&&&  ++@@%%    @@OO@@    %%@@++  @@    &&&&&&&&&&&",
"&&&&&&&&&&&&&&&&&  ++@@%%    @@OO@@    %%@@++  @@    &&&&&&&&&&&",
"&&&&&&&&&&&&&&&  ..  ++@@  %%  @@  %%  @@++  ++++  @@  &&&&&&&&&",
"&&&&&&&&&&&&&&&  ..  ++@@  %%  @@  %%  @@++  ++++  @@  &&&&&&&&&",
"&&&&&&&&&&&&&&&  ..oo    @@++++@@++++@@    ..  ++++++  &&&&&&&&&",
"&&&&&&&&&&&&&&&  ..oo    @@++++@@++++@@    ..  ++++++  &&&&&&&&&",
"&&&&&&&&&&&&&        oo..  @@++@@++@@  ..oooo..  ++  &&&&&&&&&&&",
"&&&&&&&&&&&&&        oo..  @@++@@++@@  ..oooo..  ++  &&&&&&&&&&&",
"&&&&&&&&&&&&&  @@++      @@++  @@  ++@@    ....  ++  &&&&&&&&&&&",
"&&&&&&&&&&&&&  @@++      @@++  @@  ++@@    ....  ++  &&&&&&&&&&&",
"&&&&&&&&&&&  ++@@++    @@++  ..  ..  ++@@  @@      &&&&&&&&&&&&&",
"&&&&&&&&&&&  ++@@++    @@++  ..  ..  ++@@  @@      &&&&&&&&&&&&&",
"&&&&&&&&&&&  %%  %%    @@++          ++@@    ++  &&&&&&&&&&&&&&&",
"&&&&&&&&&&&  %%  %%    @@++          ++@@    ++  &&&&&&&&&&&&&&&",
"&&&&&&&&&&&    %%  &&  @@  ++++..++..  @@  ++++  &&&&&&&&&&&&&&&",
"&&&&&&&&&&&    %%  &&  @@  ++++..++..  @@  ++++  &&&&&&&&&&&&&&&",
"&&&&&&&&&  %%%%$$  &&&&  ++  ++....  ++  ++@@++  &&&&&&&&&&&&&&&",
"&&&&&&&&&  %%%%$$  &&&&  ++  ++....  ++  ++@@++  &&&&&&&&&&&&&&&",
"&&&&&&&&&  ##%%##  &&    @@        ++    %%  %%  &&&&&&&&&&&&&&&",
"&&&&&&&&&  ##%%##  &&    @@        ++    %%  %%  &&&&&&&&&&&&&&&",
"&&&&&&&&&&&      &&  @@++    ++++++    XX      &&&&&&&&&&&&&&&&&",
"&&&&&&&&&&&      &&  @@++    ++++++    XX      &&&&&&&&&&&&&&&&&",
"&&&&&&&&&&&&&&&&&&&  @@++++        &&  $$  $$  &&&&&&&&&&&&&&&&&",
"&&&&&&&&&&&&&&&&&&&  @@++++        &&  $$  $$  &&&&&&&&&&&&&&&&&",
"&&&&&&&&&&&&&&&&&  %%  %%++  &&&&&&&&&&  &&  &&&&&&&&&&&&&&&&&&&",
"&&&&&&&&&&&&&&&&&  %%  %%++  &&&&&&&&&&  &&  &&&&&&&&&&&&&&&&&&&",
"&&&&&&&&&&&&&&&&&          &&&&&&&&&&&&&&&&&&&&&&&&&&&&&&&&&&&&&",
"&&&&&&&&&&&&&&&&&          &&&&&&&&&&&&&&&&&&&&&&&&&&&&&&&&&&&&&",
"&&&&&&&&&&&&&&&&&&&&&&&&&&&&&&&&&&&&&&&&&&&&&&&&&&&&&&&&&&&&&&&&",
"&&&&&&&&&&&&&&&&&&&&&&&&&&&&&&&&&&&&&&&&&&&&&&&&&&&&&&&&&&&&&&&&",
"&&&&&&&&&&&&&&&&&&&&&&&&&&&&&&&&&&&&&&&&&&&&&&&&&&&&&&&&&&&&&&&&",
"&&&&&&&&&&&&&&&&&&&&&&&&&&&&&&&&&&&&&&&&&&&&&&&&&&&&&&&&&&&&&&&&",
"&&&&&&&&&&&&&&&&&&&&&&&&&&&&&&&&&&&&&&&&&&&&&&&&&&&&&&&&&&&&&&&&",
"&&&&&&&&&&&&&&&&&&&&&&&&&&&&&&&&&&&&&&&&&&&&&&&&&&&&&&&&&&&&&&&&",
"&&&&&&&&&&&&&&&&&&&&&&&&&&&&&&&&&&&&&&&&&&&&&&&&&&&&&&&&&&&&&&&&",
"&&&&&&&&&&&&&&&&&&&&&&&&&&&&&&&&&&&&&&&&&&&&&&&&&&&&&&&&&&&&&&&&"
};
