/* XPM */
static char *result[] = {
/* columns rows colors chars-per-pixel */
"32 32 10 1 ",
"  c black",
". c #A05818",
"X c #A06800",
"o c #D87018",
"O c #E03860",
"+ c #D8B000",
"@ c #F8F000",
"# c #D0B860",
"$ c #F8F8F8",
"% c None",
/* pixels */
"%%%%%%%%%%%%%%%%%%%%%%%%%%%%%%%%",
"%%%%%%%%%%%%%%%%%%%%%%%%%%%%%%%%",
"%%%%%%%%%%%%%%%%%%%%%%%%%%%%%%%%",
"%%%%%%%%%%%%%%%%%%%  %%%%%%%%%%%",
"%%%%%%%%%%%%%%%%%% + %%%%%%%%%%%",
"%%%%%%%%%%%%%%%%%% @+ %%%%%%%%%%",
"%%%%%%%%%%%%%%%%%% +@ %%%%%%%%%%",
"%%%%%%%%%%%%%  %%% +@+ %%%%%%%%%",
"%%%%%%%%%%%%% @   +++  %%%%%%%%%",
"%%%%%%%%%%%%% +@@+ @@@  %%%%%%%%",
"%%%%%%%%%%%%%% +X@@@@@@O %%%%%%%",
"%%%%%%%%%%%%%%% +X@@@@OO %%%%%%%",
"%%%%%%%%%%%%%%% ++@+ @@@+ %%%%%%",
"%%%%%%%%%   %%   @@@$  @@ %%%%%%",
"%%%%%%%% @@o  .. @@@@$  @ %%%%%%",
"%%%%%%% @@oo .oo +@@++@@+@ %%%%%",
"%%%%%% +@ooo ooo +++  ++@+@ %%%%",
"%%%%%% @+.o@ .o.o   .. @+   %%%%",
"%%%%%  @+..@  . .o ..  +  %%%%%%",
"%%%% @ ++ .++    o o  @+  %%%%%%",
"%%%% +@+X  ++ +@    + @ + %%%%%%",
"%%%%% +X %% +  +      +  %%%%%%%",
"%%%%%%  %%   ++ +@@@$   $ %%%%%%",
"%%%%%%%%%% $++@  ++@ $$# %%%%%%%",
"%%%%%%%%%%% +@@    $ #$$$ %%%%%%",
"%%%%%%%%%%%% +@+ $    #$# %%%%%%",
"%%%%%%%%%%%%% +@$ %%%%   %%%%%%%",
"%%%%%%%%%%%%%%   %%%%%%%%%%%%%%%",
"%%%%%%%%%%%%%%%%%%%%%%%%%%%%%%%%",
"%%%%%%%%%%%%%%%%%%%%%%%%%%%%%%%%",
"%%%%%%%%%%%%%%%%%%%%%%%%%%%%%%%%",
"%%%%%%%%%%%%%%%%%%%%%%%%%%%%%%%%"
};
