/* XPM */
static char *result[] = {
/* columns rows colors chars-per-pixel */
"32 32 9 1 ",
"  c black",
". c #A05818",
"X c #A06800",
"o c #D87018",
"O c #D8B000",
"+ c #F8F000",
"@ c #D0B860",
"# c #F8F8F8",
"$ c None",
/* pixels */
"$$$$$$$$$$$$$$$$$$$$$$$$$$$$$$$$",
"$$$$$$$$$$$$$$$$$$$$$$$$$$$$$$$$",
"$$$$$$$$ $$$$$$$$$$$ $$$$$$$$$$$",
"$$$$$$$ + $$$$$$$$$ + $$$$$$$$$$",
"$$$$$$$ O+ $$$$$$$ +O $$$$$$$$$$",
"$$$$$$$ O++ $$$$$ ++O $$$$$$$$$$",
"$$$$$$$$ O++ $$$ ++O $$$$$$$$$$$",
"$$$$$$$$ O++O   O++O $$$$$$$$$$$",
"$$$$$$$$$ O+++++++O $$$$$$$$$$$$",
"$$$$$$$  O+++++++++O $$$$$$$$$$$",
"$$$$$$ .o O+++++++O  $$$$$$$$$$$",
"$$$$$  .o. OO+++OO .. $$$$$$$$$$",
"$$$$ O  oo.       .oo. $  $$$$$$",
"$$$$$ O  o ..ooo. .oo.  ## $$$$$",
"$$$$$$    .oooooo .o.   #@ $$$$$",
"$$$$$$$$$ ..ooooo.    +O  $$$$$$",
"$$$$$$$$$$ ..    .  O O $$$$$$$$",
"$$$$$$$$$$   O++O  $   $$$$$$$$$",
"$$$$$$$$$ + O+ooo +  # $$$$$$$$$",
"$$$$$$$$ +O .oooo. O O $$$$$$$$$",
"$$$$$$$$ O  .oooo.. + $$$$$$$$$$",
"$$$$$$$$$  ..++++..  $$$$$$$$$$$",
"$$$$$$$$ O .+++++O. $$$$$$$$$$$$",
"$$$$$$$ OX O+++++OO $$$$$$$$$$$$",
"$$$$$$ #XX  O++++O $$$$$$$$$$$$$",
"$$$$$$$   $  O+++O $$$$$$$$$$$$$",
"$$$$$$$$$$$ + ++O $$$$$$$$$$$$$$",
"$$$$$$$$$$$ O++OO $$$$$$$$$$$$$$",
"$$$$$$$$$$$$ OOO $$$$$$$$$$$$$$$",
"$$$$$$$$$$$$$   $$$$$$$$$$$$$$$$",
"$$$$$$$$$$$$$$$$$$$$$$$$$$$$$$$$",
"$$$$$$$$$$$$$$$$$$$$$$$$$$$$$$$$"
};
