/* XPM */
static char *dbae910727fc4150ee663917af13237dAbMPwrOyUPTRy5VH[] = {
/* columns rows colors chars-per-pixel */
"64 64 12 1 ",
"  c None",
". c black",
"X c #383717",
"o c #78403F",
"O c #484858",
"+ c #903F27",
"@ c #D89870",
"# c #889090",
"$ c #F0C098",
"% c #F8D8B8",
"& c #C0C8D8",
"* c white",
/* pixels */
"                                                                ",
"                                                                ",
"                          ............                          ",
"                          ............                          ",
"                          ............                          ",
"                    ......OOOOOOOOOOOO......                    ",
"                    ......OOOOOOOOOOOO......                    ",
"                    ......OOOOOOOOOOOO......                    ",
"                 ...OOOOOOOOOOOOOOOOOOOOOOOO...                 ",
"                 ...OOOOOOOOOOOOOOOOOOOOOOOO...                 ",
"                 ...OOOOOOOOOOOOOOOOOOOOOOOO...                 ",
"              XXXXXXOOOOOO###OOOOOO###OOOOOOXXXXXX              ",
"              XXXXXXOOOOOO###OOOOOO###OOOOOOXXXXXX              ",
"              XXXXXXOOOOOO###OOOOOO###OOOOOOXXXXXX              ",
"              ...XXXXXX@@@OOO######OOO@@@XXXXXX...              ",
"              ...XXXXXX@@@OOO######OOO@@@XXXXXX...              ",
"              ...XXXXXX@@@OOO######OOO@@@XXXXXX...              ",
"              ...XXX@@@%%%XXXOOOOOOXXX%%%@@@XXX...              ",
"              ...XXX@@@%%%XXXOOOOOOXXX%%%@@@XXX...              ",
"              ...XXX@@@%%%XXXOOOOOOXXX%%%@@@XXX...              ",
"           ...@@@XXX$$$%%%%%%XXXXXX%%%%%%$$$XXX@@@...           ",
"           ...@@@XXX$$$%%%%%%XXXXXX%%%%%%$$$XXX@@@...           ",
"           ...@@@XXX$$$%%%%%%XXXXXX%%%%%%$$$XXX@@@...           ",
"           ...@@@XXX$$$%%%%%%%%%%%%%%%%%%$$$XXX@@@...           ",
"           ...@@@XXX$$$%%%%%%%%%%%%%%%%%%$$$XXX@@@...           ",
"           ...@@@XXX$$$%%%%%%%%%%%%%%%%%%$$$XXX@@@...           ",
"              ...@@@@@@...%%%%%%%%%%%%...@@@@@@...              ",
"              ...@@@@@@...%%%%%%%%%%%%...@@@@@@...              ",
"              ...@@@@@@...%%%%%%%%%%%%...@@@@@@...              ",
"                 ...@@@$$$...$$$$$$...$$$@@@...                 ",
"                 ...@@@$$$...$$$$$$...$$$@@@...                 ",
"                 ...@@@$$$...$$$$$$...$$$@@@...                 ",
"                 ...ooo@@@@@@$$$$$$@@@@@@ooo...                 ",
"                 ...ooo@@@@@@$$$$$$@@@@@@ooo...                 ",
"                 ...ooo@@@@@@$$$$$$@@@@@@ooo...                 ",
"              ...######ooo@@@@@@@@@@@@ooo######...              ",
"              ...######ooo@@@@@@@@@@@@ooo######...              ",
"              ...######ooo@@@@@@@@@@@@ooo######...              ",
"           ...OOO######..................ooo###OOO...           ",
"           ...OOO######..................ooo###OOO...           ",
"           ...OOO######..................ooo###OOO...           ",
"           ...@@@OOO...OOO&&&******&&&OOO...OOO@@@...           ",
"           ...@@@OOO...OOO&&&******&&&OOO...OOO@@@...           ",
"           ...@@@OOO...OOO&&&******&&&OOO...OOO@@@...           ",
"           ...@@@@@@...###OOO******OOO###...@@@@@@...           ",
"           ...@@@@@@...###OOO******OOO###...@@@@@@...           ",
"           ...@@@@@@...###OOO******OOO###...@@@@@@...           ",
"              ......OOO######OOOOOO######OOO......              ",
"              ......OOO######OOOOOO######OOO......              ",
"              ......OOO######OOOOOO######OOO......              ",
"                 OOO###OOOOOO######OOOOOO###OOO                 ",
"                 OOO###OOOOOO######OOOOOO###OOO                 ",
"                 OOO###OOOOOO######OOOOOO###OOO                 ",
"                 ...OOO######......######OOO...                 ",
"                 ...OOO######......######OOO...                 ",
"                 ...OOO######......######OOO...                 ",
"                 ...++++++...      ...++++++...                 ",
"                 ...++++++...      ...++++++...                 ",
"                 ...++++++...      ...++++++...                 ",
"                    ......            ......                    ",
"                    ......            ......                    ",
"                    ......            ......                    ",
"                                                                ",
"                                                                "
};
