/* XPM */
static char *_3beb528230b4cfce24d5c7d82380ecdSddIais5TaQCvrOk[] = {
/* columns rows colors chars-per-pixel */
"64 64 8 1 ",
"  c None",
". c #010000",
"X c #484838",
"o c #684028",
"O c #907048",
"+ c #A07858",
"@ c #C8A878",
"# c #F8E8A0",
/* pixels */
"                                                                ",
"                                                                ",
"                                                                ",
"                                                                ",
"                                                                ",
"                                                                ",
"                                                                ",
"                                                                ",
"                    XXXXXX######XXXXXXXXXXXX                    ",
"                    XXXXXX######XXXXXXXXXXXX                    ",
"                    XXXXXX######XXXXXXXXXXXX                    ",
"              XXXXXXXXX###@@@XXXXXXXXXXXXXXXXXXXXX              ",
"              XXXXXXXXX###@@@XXXXXXXXXXXXXXXXXXXXX              ",
"              XXXXXXXXX###@@@XXXXXXXXXXXXXXXXXXXXX              ",
"           XXXXXXXXXooo@@@...XXX...XXX...XXX...XXXXXX           ",
"           XXXXXXXXXooo@@@...XXX...XXX...XXX...XXXXXX           ",
"           XXXXXXXXXooo@@@...XXX...XXX...XXX...XXXXXX           ",
"        XXXXXXXXX...oooOOO@@@...XXX...XXX...XXXOOOOOOXXX        ",
"        XXXXXXXXX...oooOOO@@@...XXX...XXX...XXXOOOOOOXXX        ",
"        XXXXXXXXX...oooOOO@@@...XXX...XXX...XXXOOOOOOXXX        ",
"        XXXXXX......ooo@@@+++###............OOO######XXX        ",
"        XXXXXX......ooo@@@+++###............OOO######XXX        ",
"        XXXXXX......ooo@@@+++###............OOO######XXX        ",
"        XXX.........ooo@@@...+++###.........###@@@...XXX        ",
"        XXX.........ooo@@@...+++###.........###@@@...XXX        ",
"        XXX.........ooo@@@...+++###.........###@@@...XXX        ",
"        XXX.........ooo@@@......OOO###...OOO###......XXX        ",
"        XXX.........ooo@@@......OOO###...OOO###......XXX        ",
"        XXX.........ooo@@@......OOO###...OOO###......XXX        ",
"        XXX.........ooo+++@@@......+++@@@ooo###......XXX        ",
"        XXX.........ooo+++@@@......+++@@@ooo###......XXX        ",
"        XXX.........ooo+++@@@......+++@@@ooo###......XXX        ",
"        XXX.........ooo++++++@@@......+++ooo@@@......XXX        ",
"        XXX.........ooo++++++@@@......+++ooo@@@......XXX        ",
"        XXX.........ooo++++++@@@......+++ooo@@@......XXX        ",
"        XXX.........ooo+++...+++@@@......ooo@@@......XXX        ",
"        XXX.........ooo+++...+++@@@......ooo@@@......XXX        ",
"        XXX.........ooo+++...+++@@@......ooo@@@......XXX        ",
"        XXX............ooo......+++@@@...ooo@@@......           ",
"        XXX............ooo......+++@@@...ooo@@@......           ",
"        XXX............ooo......+++@@@...ooo@@@......           ",
"        XXX............ooo+++......OOO@@@ooo@@@......           ",
"        XXX............ooo+++......OOO@@@ooo@@@......           ",
"        XXX............ooo+++......OOO@@@ooo@@@......           ",
"        XXXXXX............oooooo......OOOooo@@@......XXX        ",
"        XXXXXX............oooooo......OOOooo@@@......XXX        ",
"        XXXXXX............oooooo......OOOooo@@@......XXX        ",
"           XXXXXX............oooooo......oooooo...XXX           ",
"           XXXXXX............oooooo......oooooo...XXX           ",
"           XXXXXX............oooooo......oooooo...XXX           ",
"              XXXXXXXXX.........oooooo...ooo...XXX              ",
"              XXXXXXXXX.........oooooo...ooo...XXX              ",
"              XXXXXXXXX.........oooooo...ooo...XXX              ",
"                    XXXXXXXXXXXXXXXXXXXXXXXXXXX                 ",
"                    XXXXXXXXXXXXXXXXXXXXXXXXXXX                 ",
"                    XXXXXXXXXXXXXXXXXXXXXXXXXXX                 ",
"                                                                ",
"                                                                ",
"                                                                ",
"                                                                ",
"                                                                ",
"                                                                ",
"                                                                ",
"                                                                "
};
