/* XPM */
static char *_82169a0a0e24ceaf822c4bf21c43467EJbl1CJAuGi9mmNr[] = {
/* columns rows colors chars-per-pixel */
"64 64 4 1 ",
"  c None",
". c #010000",
"X c #484838",
"o c #787058",
/* pixels */
"                                                                ",
"                                                                ",
"                                                                ",
"                                                                ",
"                                                                ",
"                                                                ",
"                                                                ",
"                                                                ",
"                    XXXXXXXXXXXXXXXXXXXXXXXX                    ",
"                    XXXXXXXXXXXXXXXXXXXXXXXX                    ",
"                    XXXXXXXXXXXXXXXXXXXXXXXX                    ",
"              XXXXXXXXXXXXXXXXXXXXXXXXXXXXXXXXXXXX              ",
"              XXXXXXXXXXXXXXXXXXXXXXXXXXXXXXXXXXXX              ",
"              XXXXXXXXXXXXXXXXXXXXXXXXXXXXXXXXXXXX              ",
"           XXXXXXXXX...XXX...XXX...XXX...XXX...XXXXXX           ",
"           XXXXXXXXX...XXX...XXX...XXX...XXX...XXXXXX           ",
"           XXXXXXXXX...XXX...XXX...XXX...XXX...XXXXXX           ",
"        XXXXXXXXX...XXX...XXX...XXX...XXX...XXX...XXXXXX        ",
"        XXXXXXXXX...XXX...XXX...XXX...XXX...XXX...XXXXXX        ",
"        XXXXXXXXX...XXX...XXX...XXX...XXX...XXX...XXXXXX        ",
"        XXXXXX....................................XXXXXX        ",
"        XXXXXX....................................XXXXXX        ",
"        XXXXXX....................................XXXXXX        ",
"        XXX..........................................XXX        ",
"        XXX..........................................XXX        ",
"        XXX..........................................XXX        ",
"        XXX..........................................XXX        ",
"        XXX..........................................XXX        ",
"        XXX..........................................XXX        ",
"        XXX..........................................XXX        ",
"        XXX..........................................XXX        ",
"        XXX..........................................XXX        ",
"        XXX..........................................XXX        ",
"        XXX..........................................XXX        ",
"        XXX..........................................XXX        ",
"        XXX..........................................XXX        ",
"        XXX..........................................XXX        ",
"        XXX..........................................XXX        ",
"        XXX..........................................XXX        ",
"        XXX..........................................XXX        ",
"        XXX..........................................XXX        ",
"        XXX..........................................           ",
"        XXX..........................................           ",
"        XXX..........................................           ",
"        XXXXXX.......................................XXX        ",
"        XXXXXX.......................................XXX        ",
"        XXXXXX.......................................XXX        ",
"           XXXXXX.................................XXX           ",
"           XXXXXX.................................XXX           ",
"           XXXXXX.................................XXX           ",
"              XXXXXXXXX........................XXX              ",
"              XXXXXXXXX........................XXX              ",
"              XXXXXXXXX........................XXX              ",
"                 oooXXXXXXXXXXXXXXXXXXXXXXXXXXX                 ",
"                 oooXXXXXXXXXXXXXXXXXXXXXXXXXXX                 ",
"                 oooXXXXXXXXXXXXXXXXXXXXXXXXXXX                 ",
"                                                                ",
"                                                                ",
"                                                                ",
"                                                                ",
"                                                                ",
"                                                                ",
"                                                                ",
"                                                                "
};
