/* XPM */
static char *_691656c60f94b5cafe923518c08444e60OtX8lfBREnUSXn[] = {
/* columns rows colors chars-per-pixel */
"32 32 9 1 ",
"  c None",
". c black",
"X c #703800",
"o c #A05818",
"O c #D87018",
"+ c #B08020",
"@ c #F89040",
"# c #D0B860",
"$ c #F8F098",
/* pixels */
"                                ",
"                                ",
"                                ",
"                                ",
"                                ",
"                                ",
"                                ",
"                                ",
"    ...                         ",
"   .oOX......                   ",
"    .Xo.XoOoX. ....             ",
"     ..oOOOOOo.oOOo.  ...       ",
"      .oOOOOO.X..XOo. .$#.      ",
"      .OOOOoOOoX.....  .$#.     ",
"     ..oOOo@oX..X..    .+$+.    ",
"     .o.OO..OoX++.   ..++$$.    ",
"     .XOOOOOooX#X....oO##$#.    ",
"      .XoOOooX$#.X.oOOOOo#o.    ",
"      ....XXX$#+Xo.XoOOooX.     ",
"     .X#$$+X##+Xoo...XooX.      ",
"     .oX..XOoX.Xoo.  ....       ",
"     .X.XOOoX.XXX.              ",
"      ..ooo.. ...               ",
"        ...                     ",
"                                ",
"                                ",
"                                ",
"                                ",
"                                ",
"                                ",
"                                ",
"                                "
};
