/* XPM */
static char *_90f497fa73b4983d83e08a1eddc36b0P7xUKUyNhv11bAd1[] = {
/* columns rows colors chars-per-pixel */
"32 32 9 1 ",
"  c None",
". c black",
"X c #703800",
"o c #A05818",
"O c #D87018",
"+ c #B08020",
"@ c #D0B860",
"# c #F8F098",
"$ c #F8F8F8",
/* pixels */
"                                ",
"                                ",
"                                ",
"                                ",
"                                ",
"                                ",
"                                ",
"      ..  ....         ..       ",
"      .O...#@+.      ..O.       ",
"      .oXO.@OOo.    .OXo.       ",
"       ...O.o..... .O...        ",
"       .o.Oo.oOOOo.oO.o.        ",
"        .oXOoOOOOOoOXo.         ",
"         ..oOOOOOOOo..          ",
"          .O$oOOO$Xo.           ",
"          .o..OOO..o.           ",
"          .X.XO.O.XX..          ",
"         .+.oOOOOOo.+.          ",
"         .@+XoOOOoX+@.          ",
"         .#++X...X+@X.          ",
"          .@+###@@X+.           ",
"           .X@##@+XX.           ",
"            ..@@+X..            ",
"            .O.+.o.             ",
"             .....              ",
"                                ",
"                                ",
"                                ",
"                                ",
"                                ",
"                                ",
"                                "
};
