/* XPM */
static char *b8d834ad3ce24b6ac3d7f3840830693dQSRLgpKELegCaQqq[] = {
/* columns rows colors chars-per-pixel */
"32 32 9 1 ",
"  c None",
". c black",
"X c #703800",
"o c #A05818",
"O c #D87018",
"+ c #B08020",
"@ c #D0B860",
"# c #F8F098",
"$ c #F8F8F8",
/* pixels */
"                                ",
"                                ",
"                                ",
"                                ",
"                                ",
"                                ",
"                ..              ",
"               .O.              ",
"              .Oo.              ",
"             .Oo.               ",
"            .ooX.....           ",
"         .....X..OOO.           ",
"        .oOOoX.OX.o.            ",
"       .oOoOO.O.Xo.  ..         ",
"       .O$.OOoXoo.   .@.        ",
"      .oO..OoXX...  .+#+.       ",
"      .OOo.OooX.XX. .#@@o.      ",
"      .OOOOooo.+#+X.X#@Oo.      ",
"       .OOooX+@+@@+.oOOoo.      ",
"        .XXX+@#@+@XoXOooX.      ",
"        ..++@##@++.ooXXX.       ",
"        .#@+##@+X.oOo...        ",
"        .@++@@+X..OOX.          ",
"         .+X.X..XX.Oo.          ",
"         ...OX. ..OoX.          ",
"           ...    ...           ",
"                                ",
"                                ",
"                                ",
"                                ",
"                                ",
"                                "
};
