/* XPM */
static char *_0f1a503e4f145c1d7544b65a57afdbduPMeoFc2sXd6bRLK[] = {
/* columns rows colors chars-per-pixel */
"32 32 9 1 ",
"  c None",
". c black",
"X c #703800",
"o c #A05818",
"O c #D87018",
"+ c #B08020",
"@ c #D0B860",
"# c #F8F098",
"$ c #F8F8F8",
/* pixels */
"                                ",
"                                ",
"                                ",
"                                ",
"                                ",
"                                ",
"              ..                ",
"              .O.               ",
"              .oO.              ",
"               .oO.             ",
"           .....Xoo.            ",
"           .OOO..X.....         ",
"            .o.XO.XoOOo.        ",
"         ..  .oX.O.OOoOo.       ",
"        .@.   .ooXoOO.$O.       ",
"       .+#+.  ...XXoO..Oo.      ",
"      .o@@#. .XX.XooO.oOO.      ",
"      .oO@#X.X+#+.oooOOOO.      ",
"      .ooOOo.+@@+@+XooOO.       ",
"      .XooOXoX@+@#@+XXX.        ",
"       .XXXoo.++@##@++..        ",
"        ...oOo.X+@##+@#.        ",
"          .XOO..X+@@++@.        ",
"          .oO.XX..X.X+.         ",
"          .XoO.. .XO...         ",
"           ...    ...           ",
"                                ",
"                                ",
"                                ",
"                                ",
"                                ",
"                                "
};
