/* XPM */
static char *_af1360ee572411cc4b5a50b0c306438gTrtFmSyNrVh6tUK[] = {
/* columns rows colors chars-per-pixel */
"32 32 8 1 ",
"  c None",
". c black",
"X c #703800",
"o c #A05818",
"O c #D87018",
"+ c #B08020",
"@ c #D0B860",
"# c #F8F098",
/* pixels */
"                                ",
"                                ",
"                                ",
"                                ",
"                                ",
"                                ",
"      ...             ...       ",
"      .oX.           .Xo.       ",
"       .oO.. ..... ..Oo.        ",
"       .XOOo.XoOoX.oOOX.        ",
"        .oOOoOOOOOoOOo.         ",
"         .XoOOOOOOOoX.          ",
"          .oOOOOOOOo.           ",
"          .XO@OOO@OX.           ",
"          .Xo#@@@#oX.           ",
"         .o.+@###.....          ",
"         .@+o##..++@#.          ",
"         .#@o+.o+@##@.          ",
"         .+##.oO@###@.          ",
"          .@@.oOO@#+.           ",
"          .X+.ooO+@o.           ",
"           .XX.ooOo.            ",
"            .oX....             ",
"            .oX.Xo.             ",
"             .. ..              ",
"                                ",
"                                ",
"                                ",
"                                ",
"                                ",
"                                ",
"                                "
};
