/* XPM */
static char *result[] = {
/* columns rows colors chars-per-pixel */
"32 32 11 1 ",
"  c black",
". c #703800",
"X c #A05818",
"o c #D87018",
"O c #E03860",
"+ c #B08020",
"@ c #F89040",
"# c #D0B860",
"$ c #F8F098",
"% c #F8C0D0",
"& c None",
/* pixels */
"&&&&&&&&&&&&&&&&&&&&&&&&&&&&&&&&",
"&&&&&&&&&&&&&&&&&&&&&&&&&&&&&&&&",
"&&&&&&&&&&&&&&&&&&&&&&&&&&&&&&&&",
"&&&&&&&&&&&&&&&&&&&&&&&&&&&&&&&&",
"&&&&&&&&&&&&&&&&&&&&&&&&&&&&&&&&",
"&&&&&&&&&&&&&&&&&&&&&&&&&&&&&&&&",
"&&&&&&&&&&&&&&&&&&&&&&&&&&&&&&&&",
"&&&&&&&&&&&&&&&&&&&&&&&&&&&&&&&&",
"&&&&&&&&&&&&&     &&&&&&&&&&&&&&",
"&&&&&&&&&&&& XooX. &&&&&&&&&&&&&",
"&&&&&&&&&&& Xoo@oX. &&&&&&&&&&&&",
"&&&&&&&&&&& XXooXXX &&&&&&&&&&&&",
"&&&&&&&&&& XXXXXXXX. &&&&&&&&&&&",
"&&&&&&&&&& XX XXX X. &&&&&&&&&&&",
"&&&&&&&&   XX XXX X.    &&&&&&&&",
"&&&&&&& #  XXX   XX.  #+ &&&&&&&",
"&&&&&  #   XX %OO ..   #+  &&&&&",
"&&&&&##++  .XX   X..   ++++&&&&&",
"&&&&&&++ $$ ........  X+++X&&&&&",
"&&&&&&++$##+ .   .. #+ XXX&&&&&&",
"&&&&&&&##++XX $#X  ##++XX&&&&&&&",
"&&&&&&&&++XX ##++X +++++&&&&&&&&",
"&&&&&&&&&&XX##++++XXX+&&&&&&&&&&",
"&&&&&&&&&&&&&&+++&&&&&&&&&&&&&&&",
"&&&&&&&&&&&&&&&&&&&&&&&&&&&&&&&&",
"&&&&&&&&&&&&&&&&&&&&&&&&&&&&&&&&",
"&&&&&&&&&&&&&&&&&&&&&&&&&&&&&&&&",
"&&&&&&&&&&&&&&&&&&&&&&&&&&&&&&&&",
"&&&&&&&&&&&&&&&&&&&&&&&&&&&&&&&&",
"&&&&&&&&&&&&&&&&&&&&&&&&&&&&&&&&",
"&&&&&&&&&&&&&&&&&&&&&&&&&&&&&&&&",
"&&&&&&&&&&&&&&&&&&&&&&&&&&&&&&&&"
};
