/* XPM */
static char *result[] = {
/* columns rows colors chars-per-pixel */
"32 32 5 1 ",
"  c #703800",
". c #A05818",
"X c #B08020",
"o c #D0B860",
"O c None",
/* pixels */
"OOOOOOOOOOOOOOOOOOOOOOOOOOOOOOOO",
"OOOOOOOOOOOOOOOOOOOOOOOOOOOOOOOO",
"OOOOOOOOOOOOOOOOOOOOOOOOOOOOOOOO",
"OOOOOOOOOOOOOOOOOOOOOOOOOOOOOOOO",
"OOOOOOOOOOOOOOOOOOOOOOOOOOOOOOOO",
"OOOOOOOOOOOOOOOOOOOOOOOOOOOOOOOO",
"OOOOOOOOOOOOO.Xo.X.OOOOOOOOOOOOO",
"OOOOOOOOOOOO Xooo.X.OOOOOOOOOOOO",
"OOOOOOOOOOOO ooooXo OOOOOOOOOOOO",
"OOOOOOOOOOOOO oX.o OOOOOOOOOOOOO",
"OOOOOOOOOOO...    ooXXOOOOOOOOOO",
"OOOOOOOOoX...XooooooXXoXOOOOOOOO",
"OOOOOOO.oo...XooooooXooo.OOOOOOO",
"OOOOOOO.XooX..XoooX..ooX.OOOOOOO",
"OOOOOOO .XooX .XX..XX.X. OOOOOOO",
"OOOOOOOO  .XoX.  XooX.  OOOOOOOO",
"OOOOOOOOOO  .X  .oX.  OOOOOOOOOO",
"OOOOOOOOOO.X  .X    X.OOOOOOOOOO",
"OOOOOOOOO.XoX...XooXoX OOOOOOOOO",
"OOOOOOOOO .ooX...XXoX. OOOOOOOOO",
"OOOOOOOOOO XXoX.XooX. OOOOOOOOOO",
"OOOOOOOOOOO  .XX .X  OOOOOOOOOOO",
"OOOOOOOOOOOOO   .  OOOOOOOOOOOOO",
"OOOOOOOOOOOO Xooo.X.OOOOOOOOOOOO",
"OOOOOOOOOOOO ooooXo OOOOOOOOOOOO",
"OOOOOOOOOOOOO oX.o OOOOOOOOOOOOO",
"OOOOOOOOOOOOOO    OOOOOOOOOOOOOO",
"OOOOOOOOOOOOOOOOOOOOOOOOOOOOOOOO",
"OOOOOOOOOOOOOOOOOOOOOOOOOOOOOOOO",
"OOOOOOOOOOOOOOOOOOOOOOOOOOOOOOOO",
"OOOOOOOOOOOOOOOOOOOOOOOOOOOOOOOO",
"OOOOOOOOOOOOOOOOOOOOOOOOOOOOOOOO"
};
