/* XPM */
static char *result[] = {
/* columns rows colors chars-per-pixel */
"32 32 5 1 ",
"  c #703800",
". c #A05818",
"X c #B08020",
"o c #D0B860",
"O c None",
/* pixels */
"OOOOOOOOOOOOOOOOOOOOOOOOOOOOOOOO",
"OOOOOOOOOOOOOOOOOOOOOOOOOOOOOOOO",
"OOOOOOOOOOOOOOOOOOOOOOOOOOOOOOOO",
"OOOOOOOOOOOOOOOOOOOOOOOOOOOOOOOO",
"OOOOOOOOOOOOOOOOOOOOOOOOOOOOOOOO",
"OOOOOOOOOOOOOOOOOOOOOOOOOOOOOOOO",
"OOOOOOOOOOOOOOOOOOOOOOOOOOOOOOOO",
"OOOOOOOOOOOOOOOOO ..OOOOOOOOOOOO",
"OOOOOOOOOOOOOOOO .XooOOOOOOOOOOO",
"OOOOOOOOOOOO .OO XooXOOOOOOOOOOO",
"OOOOOOOOOOO .X. .oo..OOOOOOOOOOO",
"OOOOOOOOOO XooX XoX...OOOOOOOOOO",
"OOOOOOO  O XoX .oX....O  OOOOOOO",
"OOOOOO oX .oX. XX .XX. oX.OOOOOO",
"OOOOO ooo XX... ..Xoo oooXOOOOOO",
"OOOOO Xoo X...X  Xooo XoooOOOOOO",
"OOOOO .oo. X.X . Xooo .oo.OOOOOO",
"OOOOO oX. .oXo oX.ooo oX.XOOOOOO",
"OOOOOO oX XoXo Xo.Xooo oX.OOOOOO",
"OOOOOOO .O XoX .oX.oooO .OOOOOOO",
"OOOOOOOOOO .XoX XX.XXXOOOOOOOOOO",
"OOOOOOOOOOO .X. ..ooXXOOOOOOOOOO",
"OOOOOOOOOOOO  OO XoooOOOOOOOOOOO",
"OOOOOOOOOOOOOOOO .XoXOOOOOOOOOOO",
"OOOOOOOOOOOOOOOOO ..OOOOOOOOOOOO",
"OOOOOOOOOOOOOOOOOOOOOOOOOOOOOOOO",
"OOOOOOOOOOOOOOOOOOOOOOOOOOOOOOOO",
"OOOOOOOOOOOOOOOOOOOOOOOOOOOOOOOO",
"OOOOOOOOOOOOOOOOOOOOOOOOOOOOOOOO",
"OOOOOOOOOOOOOOOOOOOOOOOOOOOOOOOO",
"OOOOOOOOOOOOOOOOOOOOOOOOOOOOOOOO",
"OOOOOOOOOOOOOOOOOOOOOOOOOOOOOOOO"
};
