/* XPM */
static char *result[] = {
/* columns rows colors chars-per-pixel */
"32 32 5 1 ",
"  c #703800",
". c #A05818",
"X c #B08020",
"o c #D0B860",
"O c None",
/* pixels */
"OOOOOOOOOOOOOOOOOOOOOOOOOOOOOOOO",
"OOOOOOOOOOOOOOOOOOOOOOOOOOOOOOOO",
"OOOOOOOOOOOOOOOOOOOOOOOOOOOOOOOO",
"OOOOOOOOOOOOOOOOOOOOOOOOOOOOOOOO",
"OOOOOOOOOOOOOOOOOOOOOOOOOOOOOOOO",
"OOOOOOOOOOOOOOOOOOOOOOOOOOOOOOOO",
"OOOOOOOOOOOOOOOOOOOOOOOOOOOOOOOO",
"OOOOOOOOOOOO.. OOOOOOOOOOOOOOOOO",
"OOOOOOOOOOOXoX. OOOOOOOOOOOOOOOO",
"OOOOOOOOOOOoooX OO  OOOOOOOOOOOO",
"OOOOOOOOOOXXoo.. .X. OOOOOOOOOOO",
"OOOOOOOOOOXXX.XX XoX. OOOOOOOOOO",
"OOOOOOO. Oooo.Xo. XoX O. OOOOOOO",
"OOOOOO.Xo oooX.oX oXoX Xo OOOOOO",
"OOOOOOX.Xo ooo.Xo oXo. .Xo OOOOO",
"OOOOOO.oo. oooX . X.X .oo. OOOOO",
"OOOOOOoooX oooX  X...X ooX OOOOO",
"OOOOOOXooo ooX.. ...XX ooo OOOOO",
"OOOOOO.Xo .XX. XX .Xo. Xo OOOOOO",
"OOOOOOO  O....Xo. XoX O  OOOOOOO",
"OOOOOOOOOO...XoX XooX OOOOOOOOOO",
"OOOOOOOOOOO..oo. .X. OOOOOOOOOOO",
"OOOOOOOOOOOXooX OO. OOOOOOOOOOOO",
"OOOOOOOOOOOooX. OOOOOOOOOOOOOOOO",
"OOOOOOOOOOOO.. OOOOOOOOOOOOOOOOO",
"OOOOOOOOOOOOOOOOOOOOOOOOOOOOOOOO",
"OOOOOOOOOOOOOOOOOOOOOOOOOOOOOOOO",
"OOOOOOOOOOOOOOOOOOOOOOOOOOOOOOOO",
"OOOOOOOOOOOOOOOOOOOOOOOOOOOOOOOO",
"OOOOOOOOOOOOOOOOOOOOOOOOOOOOOOOO",
"OOOOOOOOOOOOOOOOOOOOOOOOOOOOOOOO",
"OOOOOOOOOOOOOOOOOOOOOOOOOOOOOOOO"
};
