/* XPM */
static char *result[] = {
/* columns rows colors chars-per-pixel */
"32 32 5 1 ",
"  c #703800",
". c #A05818",
"X c #B08020",
"o c #D0B860",
"O c None",
/* pixels */
"OOOOOOOOOOOOOOOOOOOOOOOOOOOOOOOO",
"OOOOOOOOOOOOOOOOOOOOOOOOOOOOOOOO",
"OOOOOOOOOOOOOOOOOOOOOOOOOOOOOOOO",
"OOOOOOOOOOOOOOOOOOOOOOOOOOOOOOOO",
"OOOOOOOOOOOOOOOOOOOOOOOOOOOOOOOO",
"OOOOOOOOOOOOOO    OOOOOOOOOOOOOO",
"OOOOOOOOOOOOO o.Xo OOOOOOOOOOOOO",
"OOOOOOOOOOOO oXoooo OOOOOOOOOOOO",
"OOOOOOOOOOOO.X.oooX OOOOOOOOOOOO",
"OOOOOOOOOOOOO  .   OOOOOOOOOOOOO",
"OOOOOOOOOOO  X. XX.  OOOOOOOOOOO",
"OOOOOOOOOO .XooX.XoXX OOOOOOOOOO",
"OOOOOOOOO .XoXX...Xoo. OOOOOOOOO",
"OOOOOOOOO XoXooX...XoX.OOOOOOOOO",
"OOOOOOOOOO.X    X.  X.OOOOOOOOOO",
"OOOOOOOOOO  .Xo.  X.  OOOOOOOOOO",
"OOOOOOOO  .XooX  .XoX.  OOOOOOOO",
"OOOOOOO .X.XX..XX. XooX. OOOOOOO",
"OOOOOOO.Xoo..XoooX..XooX.OOOOOOO",
"OOOOOOO.oooXooooooX...oo.OOOOOOO",
"OOOOOOOOXoXXooooooX...XoOOOOOOOO",
"OOOOOOOOOOXXoo    ...OOOOOOOOOOO",
"OOOOOOOOOOOOO o.Xo OOOOOOOOOOOOO",
"OOOOOOOOOOOO oXoooo OOOOOOOOOOOO",
"OOOOOOOOOOOO.X.oooX OOOOOOOOOOOO",
"OOOOOOOOOOOOO.X.oX.OOOOOOOOOOOOO",
"OOOOOOOOOOOOOOOOOOOOOOOOOOOOOOOO",
"OOOOOOOOOOOOOOOOOOOOOOOOOOOOOOOO",
"OOOOOOOOOOOOOOOOOOOOOOOOOOOOOOOO",
"OOOOOOOOOOOOOOOOOOOOOOOOOOOOOOOO",
"OOOOOOOOOOOOOOOOOOOOOOOOOOOOOOOO",
"OOOOOOOOOOOOOOOOOOOOOOOOOOOOOOOO"
};
