/* XPM */
static char *result[] = {
/* columns rows colors chars-per-pixel */
"36 36 14 1 ",
"  c black",
". c #703800",
"X c #A05818",
"o c #D87018",
"O c #E03860",
"+ c #B08020",
"@ c #D8B000",
"# c #F8F000",
"$ c #F89040",
"% c #D0B860",
"& c #F888A8",
"* c #F8F098",
"= c #F8F8F8",
"- c None",
/* pixels */
"------------------------------------",
"------------------------------------",
"------------------------------------",
"------------------------------------",
"------------------------------------",
"------------------------------------",
"------------------------------------",
"------------------------------------",
"-------------- ------ --------------",
"------------  %  XX  %  ------------",
"------------ O %X==X% O ------------",
"------------ &O.X@+X.O& ------------",
"------------ X+%X=#X%+X ------------",
"-------- +%+ %**.@+.**% +%+ --------",
"---------   X*+.%XX%.+*X   ---------",
"----------- *+=X=%%=X=+* -----------",
"-------- %+X*X= =%%= =X*X+% --------",
"---------   +*+.+**+.+*X   ---------",
"-------- %* .%********%  -----------",
"-------- *+.  %=+..+=+ *% ----------",
"---------  +% +..%%..+ +* ----------",
"----------- *%. +..+ .%. -----------",
"------------    %**% X  ------------",
"----------- oo .%%.  ---------------",
"----------- $o%   oo ---------------",
"------------ % ---   ---------------",
"-------------  ---------------------",
"------------------------------------",
"------------------------------------",
"------------------------------------",
"------------------------------------",
"------------------------------------",
"------------------------------------",
"------------------------------------",
"------------------------------------",
"------------------------------------"
};
