/* XPM */
static char *result[] = {
/* columns rows colors chars-per-pixel */
"32 32 9 1 ",
"  c black",
". c #A05818",
"X c #D87018",
"o c #B08020",
"O c #D8B000",
"+ c #F89040",
"@ c #D0B860",
"# c #F8F098",
"$ c None",
/* pixels */
"$$$$$$$$$$$$$$$$$$$$$$$$$$$$$$$$",
"$$$$$$$$$$$$$$$$$$$$$$$$$$$$$$$$",
"$$$$$$$$$$$$$$$$$$$$$$$$$$$$$$$$",
"$$$$$$$$$$$$$$$$$$$$$$$$$$$$$$$$",
"$$$$$$$$$$$$$$$$$$$$$$$$$$$$$$$$",
"$$$$$$$$$$$$ $$$$$$ $$$$$$$$$$$$",
"$$$$$$$$$$$$@ $$$$ @$$$$$$$$$$$$",
"$$$$$$$$$$  $@ .. @$  $$$$$$$$$$",
"$$$$$$$$$$ @ o.OO.o @ $$$$$$$$$$",
"$$$$$$$$$$ #@ .oo. @# $$$$$$$$$$",
"$$$$$$$$$$ ##@    @## $$$$$$$$$$",
"$$$$$$ @oo @@######@@ o@@ $$$$$$",
"$$$$$$$   .@########@.   $$$$$$$",
"$$$$$$$$@.@##########@.@$$$$$$$$",
"$$$$$$$@  @##########@  @$$$$$$$",
"$$$$$$$ $ o@########@o $ $$$$$$$",
"$$$$$$$$ @ o@######@o @ $$$$$$$$",
"$$$$$$$$ @o ooo@@ooo o@ $$$$$$$$",
"$$$$$$$$$ o   @#@@   o $$$$$$$$$",
"$$$$$$$$$$ X+. ##@o@o $$$$$$$$$$",
"$$$$$$$$$$ +.+ o#@   $$$$$$$$$$$",
"$$$$$$$$$$ + X #o@o $$$$$$$$$$$$",
"$$$$$$$$$$ X+ #@ #@   $$$$$$$$$$",
"$$$$$$$$$$$ X#@   @+X $$$$$$$$$$",
"$$$$$$$$$$$ .oo $@#X $$$$$$$$$$$",
"$$$$$$$$$$$$   $$   $$$$$$$$$$$$",
"$$$$$$$$$$$$$$$$$$$$$$$$$$$$$$$$",
"$$$$$$$$$$$$$$$$$$$$$$$$$$$$$$$$",
"$$$$$$$$$$$$$$$$$$$$$$$$$$$$$$$$",
"$$$$$$$$$$$$$$$$$$$$$$$$$$$$$$$$",
"$$$$$$$$$$$$$$$$$$$$$$$$$$$$$$$$",
"$$$$$$$$$$$$$$$$$$$$$$$$$$$$$$$$"
};
