/* XPM */
static char *result[] = {
/* columns rows colors chars-per-pixel */
"32 32 10 1 ",
"  c black",
". c #980000",
"X c #D03800",
"o c #F88058",
"O c #303888",
"+ c #485890",
"@ c #6080A8",
"# c #B8C8F0",
"$ c #F8F8F8",
"% c None",
/* pixels */
"%%%%%%%%%%%%%%%%%%%%%%%%%%%%%%%%",
"%%%%%%%%%%%%%%%%%%%%%%%%%%%%%%%%",
"%%%%%%%%%%%%%%%%%%%  %%%%%%%%%%%",
"%%%%%%%%%%%%%%%%%%% # %%%%%%%%%%",
"%%%%%%%%%%%%%%%%%   @# %%%%%%%%%",
"%%%%%%%%%%%%%%%%% # +@@  %%%%%%%",
"%%%%%%%%%%%%%%%%% @#O@##@ %%%%%%",
"%%%%%%%%%%%%  %%%  @#####@    %%",
"%%%%%%%%%%%% @ %  + @@$O@##### %",
"%%%%%%%%%%% @#  +@@@O+$ O####@O ",
"%%%%%%%%%  ++@##@@@++@@#######@ ",
"%%%%%%%  O@#####@+@O@+O  @@@@@  ",
"%%%%%% @+@####@@+ + +@#..     %%",
"%%%%% @#@O##@@###  % +#XX %%%%%%",
"%%%% @#@+O@ @####  % +@#oX %%%%%",
"%%%% #@  + @####@ %%% @#$X# %%%%",
"%%% @# %  +#####  %%% +@##@ %%%%",
"%%% #@ % +@####  %%%% +@@  %%%%%",
"%% @#  % +####@@# %%%%   %%%%%%%",
"% @##@@ % ####@#@ %%%%%%%%%%%%%%",
"%% @##  %  ##@#  %%%%%%%%%%%%%%%",
"%% +#@ % O #@# %%%%%%%%%%%%%%%%%",
"%%% # % @ ##@# %%%%%%%%%%%%%%%%%",
"%%%% %%  @#@# %%%%%%%%%%%%%%%%%%",
"%%%%%%%% @#@#  %%%%%%%%%%%%%%%%%",
"%%%%%%%%% @#  %%%%%%%%%%%%%%%%%%",
"%%%%%%%%% @# %%%%%%%%%%%%%%%%%%%",
"%%%%%%%%%% @ %%%%%%%%%%%%%%%%%%%",
"%%%%%%%%%%  %%%%%%%%%%%%%%%%%%%%",
"%%%%%%%%%%%%%%%%%%%%%%%%%%%%%%%%",
"%%%%%%%%%%%%%%%%%%%%%%%%%%%%%%%%",
"%%%%%%%%%%%%%%%%%%%%%%%%%%%%%%%%"
};
