/* XPM */
static char *result[] = {
/* columns rows colors chars-per-pixel */
"32 32 6 1 ",
"  c black",
". c #303888",
"X c #485890",
"o c #6080A8",
"O c #B8C8F0",
"+ c None",
/* pixels */
"++++++++++++++ OO ++++++++++++++",
"++++++++++    .oo.    ++++++++++",
"++++++++++ oO oOOo Oo ++++++++++",
"+++++++++++ oOOOOOOo +++++++++++",
"++++++++++++ ooOOoo ++++++++++++",
"++++++++++++ XooooX ++++++++++++",
"+++++++++++ oX.XX.Xo +++++++++++",
"+++++++++++ X.XooX.X +++++++++++",
"+++++++++++ X oOoo X +++++++++++",
"++++++++++++ ooOOoo ++++++++++++",
"++++++++++  OooOOooO  ++++++++++",
"+++++++++ oOXoOooOoXOo +++++++++",
"++++++++ oOOooOOOOOoOOo ++++++++",
"+++++++ oOOOoOOOOOOoOOOo +++++++",
"+++++  ooOOXoOOOOOOoXOOoo  +++++",
"++++ oOooO oOOOOOOOoo OooOo ++++",
"++++ OoOoO XoOXOo.ooX OoOoO ++++",
"+++ OoOoO Oo.XOX.o. oO OoOoO +++",
"+++ OoOoO Ooo OOOo XOO OoOoO +++",
"+++ OoOo .oOo oOOo oOo. oOoO +++",
"++ OoOO oX.oX oOOo XX.Xo OOoO ++",
"++ OoO   o.  + OO +  .o + OoO ++",
"++ OoO ++ XX + OO + XX ++ OoO ++",
"++ Oo +++ oX + Oo + Xo +++ oO ++",
"+++ O ++++  ++ Oo ++  ++++ O +++",
"+++ O +++++++  Oo  +++++++ O +++",
"+++  +++++++ O Oo O +++++++  +++",
"++++ +++++++ oOOoOo +++++++ ++++",
"+++++++++++++ OOOo +++++++++++++",
"+++++++++++++ oOoX +++++++++++++",
"++++++++++++++ oo ++++++++++++++",
"+++++++++++++++  +++++++++++++++"
};
