/* XPM */
static char *ad0c83b364de43efcfa7456db21a51f2FrNJv7gzK3NPDPY0[] = {
/* columns rows colors chars-per-pixel */
"128 128 8 1 ",
"  c None",
". c black",
"X c #501000",
"o c #484858",
"O c #903828",
"+ c #E06848",
"@ c #C0C0D0",
"# c #F8F8F8",
/* pixels */
"                                                                                                                                ",
"                                                                                                                                ",
"                                                                                                                                ",
"                                                                                                                                ",
"                                                                                                                                ",
"                                                                                                                                ",
"                                                                                                                                ",
"                                                                                                                                ",
"                                                                                                                                ",
"                                                                                                                                ",
"                                                                                                                                ",
"                                                                                                                                ",
"                                                                                                                                ",
"                                                                                                                                ",
"                                                                                                                                ",
"                                                                                                                                ",
"                                                                                                                                ",
"                                                                                                                                ",
"                                                                                                                                ",
"                                                                                                                                ",
"                                                                                                                                ",
"                                                                                                                                ",
"                                                                                                                                ",
"                                                                                                                                ",
"                                                                                                                                ",
"                                                                                                                                ",
"                                                                                                                                ",
"                                                                                                                                ",
"                                                                                                                                ",
"                                                                                                                                ",
"                                                                                                                                ",
"                                                                                                                                ",
"                                                                                                                                ",
"                                                                                                                                ",
"                                                                                                                                ",
"                                                                                                                                ",
"                                                                                                                                ",
"                                                                                                                                ",
"                                                                                                                                ",
"                                                                                                                                ",
"                                                                                                                                ",
"                                                                                                                                ",
"                                                                                                                                ",
"                                                                                                                                ",
"                                                                                                                                ",
"                                                                                                                                ",
"                                                                                                                                ",
"                                                                                                                                ",
"                                                                                                                                ",
"                                                                                                                                ",
"                                                                                                                                ",
"                                                                                                                                ",
"                                                                                                                                ",
"                                                                                                                                ",
"                                                                                                                                ",
"                                                                                                                                ",
"                                                                                                                                ",
"                                                                                                                                ",
"                                                                                                                                ",
"                                                                                                                                ",
"                                                                                                                                ",
"                                                                                                                                ",
"                                                                                                                                ",
"                                                                                                                                ",
"                                                                                                                                ",
"                                                                                                                                ",
"                                                                                                                                ",
"                                                                                                                                ",
"                                                                                                                                ",
"                                                                                                                                ",
"                                                                                                                                ",
"                                                                                                                                ",
"                                                                                                                                ",
"                                                                                                                                ",
"                                                                                                                                ",
"                                                                                                                                ",
"                                                                                                                                ",
"                                                                                                                                ",
"                                                                                                                                ",
"                                                                                                                                ",
"                                                                                                                                ",
"                                                                                                                                ",
"                                                                                                                                ",
"                                                                                                                                ",
"                                                        XXXXXXXXXXXXXXXX                                                        ",
"                                                        XXXXXXXXXXXXXXXX                                                        ",
"                                                        XXXXXXXXXXXXXXXX                                                        ",
"                                                        XXXXXXXXXXXXXXXX                                                        ",
"                                                    XXXX++++++++++++++++XXXX                                                    ",
"                                                    XXXX++++++++++++++++XXXX                                                    ",
"                                                    XXXX++++++++++++++++XXXX                                                    ",
"                                                    XXXX++++++++++++++++XXXX                                                    ",
"                                                XXXX++++####++++OOOOOOOO++++XXXX                                                ",
"                                                XXXX++++####++++OOOOOOOO++++XXXX                                                ",
"                                                XXXX++++####++++OOOOOOOO++++XXXX                                                ",
"                                                XXXX++++####++++OOOOOOOO++++XXXX                                                ",
"                                            XXXX++++OOOO++++++++OOOOOOOOOOOO++++XXXX                                            ",
"                                            XXXX++++OOOO++++++++OOOOOOOOOOOO++++XXXX                                            ",
"                                            XXXX++++OOOO++++++++OOOOOOOOOOOO++++XXXX                                            ",
"                                            XXXX++++OOOO++++++++OOOOOOOOOOOO++++XXXX                                            ",
"                                            ....++++OOOOOOOO........OOOOOOOO++++....                                            ",
"                                            ....++++OOOOOOOO........OOOOOOOO++++....                                            ",
"                                            ....++++OOOOOOOO........OOOOOOOO++++....                                            ",
"                                            ....++++OOOOOOOO........OOOOOOOO++++....                                            ",
"                                            oooo....OOOO....@@@@@@@@....OOOO....oooo                                            ",
"                                            oooo....OOOO....@@@@@@@@....OOOO....oooo                                            ",
"                                            oooo....OOOO....@@@@@@@@....OOOO....oooo                                            ",
"                                            oooo....OOOO....@@@@@@@@....OOOO....oooo                                            ",
"                                            oooo####........@@@@@@@@........@@@@oooo                                            ",
"                                            oooo####........@@@@@@@@........@@@@oooo                                            ",
"                                            oooo####........@@@@@@@@........@@@@oooo                                            ",
"                                            oooo####........@@@@@@@@........@@@@oooo                                            ",
"                                                oooo########........########oooo                                                ",
"                                                oooo########........########oooo                                                ",
"                                                oooo########........########oooo                                                ",
"                                                oooo########........########oooo                                                ",
"                                                    oooo@@@@########@@@@oooo                                                    ",
"                                                    oooo@@@@########@@@@oooo                                                    ",
"                                                    oooo@@@@########@@@@oooo                                                    ",
"                                                    oooo@@@@########@@@@oooo                                                    ",
"                                                        oooooooooooooooo                                                        ",
"                                                        oooooooooooooooo                                                        ",
"                                                        oooooooooooooooo                                                        ",
"                                                        oooooooooooooooo                                                        ",
"                                                                                                                                ",
"                                                                                                                                ",
"                                                                                                                                ",
"                                                                                                                                "
};
