/* XPM */
static char *result[] = {
/* columns rows colors chars-per-pixel */
"32 32 6 1 ",
"  c black",
". c #502898",
"X c #8860B8",
"o c #B090D8",
"O c #F8F8F8",
"+ c None",
/* pixels */
"++++++++++++++++++++++++++++++++",
"++++++++++++++++++++++++++++++++",
"++++++++++++++++++++++++  ++++++",
"+++++++++++++++++++++++ oX + +++",
"+++++++++++++++++++++   OoX X ++",
"++++++++++++++++++++ ooXoOXoO ++",
"++++++++++++++++++++ oOooOoOX ++",
"++++++++++++++++++++ .oOOoooX. +",
"+++++++++++++++++++++ XoOOoXXX. ",
"+++++++++++++   +++++ XooOOX XX ",
"+++++++++++  oXX  +++ .XooOoX   ",
"+++++++++  oooooXX  ++ .Xoooo ++",
"++++++++ XooooooooXX ++ XXXOoX +",
"+++++++ oooooXoooooXX  ...oXoX +",
"++++++ oo...X.oo....XX ...ooXX +",
"+++++ XooOO  oooo OOoX. .XXoX. +",
"+++++ o.   ooXXXoo    ...XXX. ++",
"++++ .o XXX.    XoooXoXX..... ++",
"+   .XooX.   ..  Xo  XoXX... +++",
" X...ooo   XXXXXX.o  XXXX.. ++++",
" .X.XoX   XX......o.  .XX.X ++++",
"+ .XXo   .       XoX.  ..XoX +++",
"++ X.Xo   XoOOOooooX  XXooX. +++",
"+ XoX..ooOOOoXXXXXoo.XoXXX. ++++",
" oOOoooXXXXooOOooXXXooX..  +++++",
" XoOOoXX. XoOOOOoooXX    +++++++",
"+ XXXXX  + XXoOooXX. +++++++++++",
"++     ++++  .XXX.  ++++++++++++",
"+++++++++++++     ++++++++++++++",
"++++++++++++++++++++++++++++++++",
"++++++++++++++++++++++++++++++++",
"++++++++++++++++++++++++++++++++"
};
