/* XPM */
static char *result[] = {
/* columns rows colors chars-per-pixel */
"32 32 6 1 ",
"  c black",
". c #502898",
"X c #8860B8",
"o c #B090D8",
"O c #F8F8F8",
"+ c None",
/* pixels */
"++++++++++++++++++++++++++++++++",
"++++++++++++++++++++++++++++++++",
"++++++++++++++++++++++++++++++++",
"+++++++++++++     ++++++++++++++",
"+++++++++++  XoooX  ++++++++++++",
"++++++++++ XoooooooX +++++++++++",
"+++++++++ XoooooooooX ++++++++++",
"++++++++ XoooooooooXXX +++++++++",
"++++++++ XooooooooXXoX +++++++++",
"+++++++ Xo ooooo.ooo oX    +++++",
"+++++++ XoO  o.o.o  OoX ooX ++++",
"++++   XXooO  ooo  Ooo ooooX +++",
"+++ Xoo XoXoooooooooX oO oooX ++",
"++ oooOX o XoOoooooX  oX OX O ++",
"++ XoO o o  XoOOoXo  .   oX X ++",
"++  Xo  Xo    ooX X  X.XX  + +++",
"++ X X .XoX ..   .o XX.. +++++++",
"+++    ..oo .XXXXXo oXX. +++++++",
"+++++++ XXo  XXXX o oXX ++++++++",
"++++++ .oX.o      oX.o.. +++++++",
"+++++ .XooX.ooOOoXo.oo.X +++++++",
"+++++ XXoooX.......XoXoX +++++++",
"++++++ XOoooX.XoX.XooooX +++++++",
"+++++++ Oooo.XooX  XoooX +++++++",
"+++++++ OooX.XOo ++ XOo ++++++++",
"+++++++ oOo + XX +++ oX ++++++++",
"+++++++ oOX ++  +++++  +++++++++",
"+++++++ Xo +++++++++++++++++++++",
"++++++++  ++++++++++++++++++++++",
"++++++++++++++++++++++++++++++++",
"++++++++++++++++++++++++++++++++",
"++++++++++++++++++++++++++++++++"
};
