/* XPM */
static char *result[] = {
/* columns rows colors chars-per-pixel */
"32 32 6 1 ",
"  c black",
". c #502898",
"X c #8860B8",
"o c #B090D8",
"O c #F8F8F8",
"+ c None",
/* pixels */
"++++++++++++++++++++++++++++++++",
"++++++++++++++++++++++++++++++++",
"++++++++++++++++++++++++++++++++",
"++++++++++++++++++++++++++++++++",
"++++++++++++     +++++++++++++++",
"++++++++++  XoooX  +++++++++++++",
"+++++++++ XooooooXX ++++++++++++",
"++++++++ XoooooooXXX +++++++++++",
"++++++++ oooooooooXX +++++++++++",
"+++++++ XoooooooooXX. ++++++++++",
"++++++ Xo.ooooooooXX. ++++++++++",
"++++++ o.o   .XooXX..X +++++++++",
"+++++ ooX  OoXX.....XX +++++++++",
"+++++ XooooooooXXXoX X +++++++++",
"++++++  XoOooX  ooooX  +++++++++",
"++++++++ Xoo  XoooX..   ++++++++",
"+++++++++ Xo XoX oooXX  ++++++++",
"++++++++ . X      OOoX X +++++++",
"+++++++ . OOoOOooOoXo .X +++++++",
"++++++ o OX  OoOXoo.X .XX ++++++",
"++++++ Xo  Oooooo.O.X ..XX +++++",
"+++++++ X OoX ooX X  X...X +++++",
"++++++ oOo   OX  X  XoX.. ++++++",
"++++++ ooXX OX ..XoXXooX +++++++",
"+++++++ X..o  X.XoooX   ++++++++",
"++++++++   ooXX   oo +++++++++++",
"+++++++++++    +++  ++++++++++++",
"++++++++++++++++++++++++++++++++",
"++++++++++++++++++++++++++++++++",
"++++++++++++++++++++++++++++++++",
"++++++++++++++++++++++++++++++++",
"++++++++++++++++++++++++++++++++"
};
