/* XPM */
static char *result[] = {
/* columns rows colors chars-per-pixel */
"32 32 6 1 ",
"  c black",
". c #502898",
"X c #8860B8",
"o c #B090D8",
"O c #F8F8F8",
"+ c None",
/* pixels */
"++++++++++++++++++++++++++++++++",
"++++++++++++++++++++++++++++++++",
"++++++++++++++++++++++++++++++++",
"++++++++++++++++++++++++++++++++",
"++++++++++++++     +++++++++++++",
"++++++++++++  XoooX  +++++++++++",
"+++++++++++ XXooooooX ++++++++++",
"++++++++++ XXXoooooooX +++++++++",
"++++++++++ XXooooooooo +++++++++",
"+++++++++ .XXoooooooooX ++++++++",
"+++++++++ .XXoooooooo.oX +++++++",
"++++++++ X..XXooX.   o.o +++++++",
"++++++++ XX.....XXoO  Xoo ++++++",
"+++++++ .XX.XXXXooooooooX ++++++",
"+++++++ ..Xoooo  XOOooX  +++++++",
"+++++++ X.Xooooo.      +++++++++",
"++++++ Xo..oooooX          +++++",
"++++++ oX...Xoooo  .  ...Xo ++++",
"+++++ oX.XX...XooX .. ..  .X +++",
"++++ XX..XooXX.Xoo  X ..XX  ++++",
"+++ XX..XXoooooooXo  .   .. ++++",
"+++ X...XooXooXXooXOo.X +  +++++",
"++++ ..XoOXXoX.XoOoXXXX ++++++++",
"+++++ XoOoXoX..XOooX.. +++++++++",
"++++++ XX oX..XooX.XoX +++++++++",
"+++++++  +   .XoX     ++++++++++",
"+++++++++++++    +++++++++++++++",
"++++++++++++++++++++++++++++++++",
"++++++++++++++++++++++++++++++++",
"++++++++++++++++++++++++++++++++",
"++++++++++++++++++++++++++++++++",
"++++++++++++++++++++++++++++++++"
};
