/* XPM */
static char *result[] = {
/* columns rows colors chars-per-pixel */
"32 32 6 1 ",
"  c black",
". c #502898",
"X c #8860B8",
"o c #B090D8",
"O c #F8F8F8",
"+ c None",
/* pixels */
"++++++++++++++++++++++++++++++++",
"++++++++++++++++++++++++++++++++",
"++++++++++++++++++++++++++++++++",
"++++++++++++++++++++++++++++++++",
"++++++++++++++++     +++++++++++",
"++++++++++++++  XoooX  +++++++++",
"+++++++++++++ XoooooooX ++++++++",
"++++++++++++ XoooooooooX +++++++",
"+++++++++++ XoooooooooooX ++++++",
"+++++++  ++ XoooooooooooX ++++++",
"++++++ .X  ..XoooooooooXXX +++++",
"++++  oOooXX..XooooooooXX.. ++++",
"+++ oXOoooooXXXXooooooXX..XX +++",
"+++   oXooooooooooooXX..XoXX +++",
"+++++ X.XoXooOOOoooooooooXX. +++",
"++++++   .XooooOOooooooooXX ++++",
"+++++++++ .oooooooooooooXXX ++++",
"++++++++++ XoooXXXXXoooXXX. ++++",
"++++++++++ .XoXX...XXoXXX.. ++++",
"+++++++++ XXXXX..XX..XX..XX ++++",
"++++++++ .XoXXXoXXXXXXXXXXX ++++",
"++++++++ XooXXooXXXooXXooXX. +++",
"+++++++++ XoXXooXXoooXXoooXX +++",
"+++++++++ XOXoOXXXoOoXX.ooX. +++",
"++++++++++ XXoOX.XoOoo..OoX ++++",
"+++++++++++ .XoX..oOoX  XX +++++",
"++++++++++++ XXX  XoX ++  ++++++",
"+++++++++++++   ++   +++++++++++",
"++++++++++++++++++++++++++++++++",
"++++++++++++++++++++++++++++++++",
"++++++++++++++++++++++++++++++++",
"++++++++++++++++++++++++++++++++"
};
