/* XPM */
static char *_7ec37fe91344a00e089205ff70aad48QbZcVQiNfW9xeiKA[] = {
/* columns rows colors chars-per-pixel */
"32 32 10 1 ",
"  c None",
". c black",
"X c #980000",
"o c #D03800",
"O c #A06800",
"+ c #B87020",
"@ c #F88058",
"# c #D8A860",
"$ c #F8E098",
"% c #F8F8F8",
/* pixels */
"                                ",
"                                ",
"                                ",
"                                ",
"                                ",
"                                ",
"                      ....      ",
"                     .O##+.     ",
"                    .#$$$$#.    ",
"                   .O$$$$$$O.   ",
"     ... ...  ......O#$$$O##.   ",
"    .@oX.+#...Xo@.XX..#$$#+#.   ",
"   .@oXX.#$#.XXXo@.XX..###O+.   ",
"   .@XXoX$#+XooXX@..o.X.#+O.    ",
"   .oXXoo#$#XooXXo..oXo.+O.     ",
"    .XoooX#+XoooX.oooooo..      ",
"     .oXooXXooXoX#+.oooXXX.     ",
"     .Xo@oooo@oXX+..XoooXoX.    ",
"     .+..XooX..+X.XX.....oo.    ",
"     .O#$$$$$$#O..Xo.    ..     ",
"    .X.O#$$$$#O.X.o.            ",
"    .%X..+..+..X...             ",
"     ... ....ooX.               ",
"           .%X%.                ",
"            ...                 ",
"                                ",
"                                ",
"                                ",
"                                ",
"                                ",
"                                ",
"                                "
};
