/* XPM */
static char *ac4c47966f954892b0f5e7496980f52fu7NPuKOa9fDFmH9k[] = {
/* columns rows colors chars-per-pixel */
"32 32 10 1 ",
"  c None",
". c black",
"X c #980000",
"o c #D03800",
"O c #A06800",
"+ c #B87020",
"@ c #F88058",
"# c #D8A860",
"$ c #F8E098",
"% c #F8F8F8",
/* pixels */
"                                ",
"                                ",
"                                ",
"                                ",
"              ....              ",
"             .+##+.             ",
"            .#$$$$#.            ",
"           .+$$$$$$+.           ",
"           .#$$$$$$#.           ",
"           .+#$..$#+.           ",
"          ...+.#+.+...          ",
"         .@oX.#$#..Xo@.         ",
"        .@oXoX$$$XXoXo@.        ",
"        .@XXoo#$#XooXX@.        ",
"        .oXXooX#+XoooXo.        ",
"         .XoXooXXooXoX.         ",
"          .o%.oooo.%o.          ",
"          .#%.XooX.%#.          ",
"          .+#$$$$$$#+.          ",
"         .X.##$$$$##.X.         ",
"         .o.XO#..#OX.o.         ",
"         .X.X#OOOO+X.X.         ",
"          .Xo+$$$#+oX.          ",
"          ..oX#$$#Xo..          ",
"          .X.oX+#Xo.X.          ",
"         .XooX....XooX.         ",
"         .%X%X.  .X%X%.         ",
"          ....    ....          ",
"                                ",
"                                ",
"                                ",
"                                "
};
