/* XPM */
static char *b7002d7c26de4c68d5f30500a11d25ccM5BBnQRwXXe7fWm3[] = {
/* columns rows colors chars-per-pixel */
"32 32 10 1 ",
"  c None",
". c black",
"X c #980000",
"o c #D03800",
"O c #A06800",
"+ c #B87020",
"@ c #F88058",
"# c #D8A860",
"$ c #F8E098",
"% c #F8F8F8",
/* pixels */
"                                ",
"                                ",
"                                ",
"                                ",
"                                ",
"          ..                    ",
"       ...oX.                   ",
"      .#$#$#+.                  ",
"     .#$#$###+.        ....     ",
"     .$##+XXX..       .#$$#.    ",
"    .XoXXXooXo.      .#$$$$#.   ",
"    .oooooooo@o.    .#$$$$$$#.  ",
"   .#oooXooooX@.    .$$$$#$$$.  ",
"  .$$oo.%XooXX@......#$$$+#$#.  ",
"  ..$$#.%Xooo@o...X..+#$$#+#+.  ",
"  .#$$$$##+ooX.X..X...+###++.   ",
"   .+######+oXXX.oX.XX.++O..    ",
"    .++###++XXoXoooXXoX...      ",
"     ...O++XooooooooXooX.       ",
"        .$#+Xoooooooooo..       ",
"        .$$#XoooooXoooX..       ",
"       .#X#+ooo#$#.ooo.X.       ",
"        ..+.ooX....XoooX.       ",
"          .X.o.    .Xoo..       ",
"          .ooo.    ..XoX.       ",
"         .%XoX.    .ooXX.       ",
"          ....      ....        ",
"                                ",
"                                ",
"                                ",
"                                ",
"                                "
};
