/* XPM */
static char *be6563e1718f4ee7de9c9040e2d1b01b0YXrPtdlaHedWFyB[] = {
/* columns rows colors chars-per-pixel */
"32 32 10 1 ",
"  c None",
". c black",
"X c #980000",
"o c #D03800",
"O c #A06800",
"+ c #B87020",
"@ c #F88058",
"# c #D8A860",
"$ c #F8E098",
"% c #F8F8F8",
/* pixels */
"                                ",
"                                ",
"                                ",
"                                ",
"                                ",
"                    ..          ",
"                   .Xo...       ",
"                  .+#$#$#.      ",
"     ....        .+###$#$#.     ",
"    .#$$#.       ..XXX+##$.     ",
"   .#$$$$#.      .oXooXXXoX.    ",
"  .#$$$$$$#.    .o@oooooooo.    ",
"  .$$$#$$$$.    .@XooooXooo#.   ",
"  .#$#+$$$#......@XXooX%.oo$$.  ",
"  .+#+#$$#+..X...o@oooX%.#$$..  ",
"   .++###+...X..X.Xoo+##$$$$#.  ",
"    ..O++.XX.Xo.XXXo+######+.   ",
"      ...XoXXoooXoXX++###++.    ",
"       .XooXooooooooX++O...     ",
"       ..ooooooooooX+#$.        ",
"       ..XoooXoooooX#$$.        ",
"       .X.ooo.#$#ooo+#X#.       ",
"       .XoooX....Xoo.+..        ",
"       ..ooX.    .o.X.          ",
"       .XoX..    .ooo.          ",
"       .XXoo.    .XoX%.         ",
"        ....      ....          ",
"                                ",
"                                ",
"                                ",
"                                ",
"                                "
};
