/* XPM */
static char *_c7abd31aca84da3b692bfb9a91e3ddbqfpTFd1KJeJkqwK4[] = {
/* columns rows colors chars-per-pixel */
"32 32 8 1 ",
"  c None",
". c black",
"X c #980000",
"o c #D03800",
"O c #A06800",
"+ c #B87020",
"@ c #D8A860",
"# c #F8E098",
/* pixels */
"                                ",
"                                ",
"                                ",
"               ..               ",
"              .+@.              ",
"             ..@#..             ",
"            .XX#@+X.            ",
"          ..XoX@@@XX..          ",
"         .X.ooX##+XX.X.         ",
"        .XoXooX@+XoXXoX.        ",
"        .ooXoooXXooXXoo.        ",
"        .oXXoooooooXXXo.        ",
"         ..XXoooooXXX..         ",
"           .XX....XX.           ",
"           .X.@##@.X.           ",
"           ..@####@..           ",
"           .+######+.           ",
"          .X@######@X.          ",
"          .X@#####@@X.          ",
"          .o+@#@##++o.          ",
"          .o.+@+#@+.o.          ",
"          .XX.+#@+.XX.          ",
"          .XXX....XXX.          ",
"          ..oXXO+XXo..          ",
"          .X.oX..Xo.X.          ",
"         ..Xoo.  .ooX..         ",
"         .X..X.  .X..X.         ",
"          .Xoo.  .ooX.          ",
"           ...    ...           ",
"                                ",
"                                ",
"                                "
};
