/* XPM */
static char *result[] = {
/* columns rows colors chars-per-pixel */
"32 32 10 1 ",
"  c black",
". c #406068",
"X c #803880",
"o c #A868B0",
"O c #9098A0",
"+ c #A0B8C0",
"@ c #D090D8",
"# c #D0D8D8",
"$ c #F8F8F8",
"% c None",
/* pixels */
"%%%%%%%%%%%%%%%%%%%%%%%%%%%%%%%%",
"%%%%%%%%%%%%%%%%%%%%%%%%%%%%%%%%",
"%%%%%%%%%%%%%%%%%%%%%%%%%%%%%%%%",
"%%%%%%%%%%  %%%%%%%  %%%%%%%%%%%",
"%%%%%%%%% $$ %%%%% $$ %%%%%%%%%%",
"%%%%%%%%% #$#     #$# %%%%%%%%%%",
"%%%%%%%%%% #$O$$#O$#   %%%%%%%%%",
"%%%%%%%%%% $$$$$$$$O @o %%%%%%%%",
"%%%%%%%%%% $$$$$$$$$ o@o %%%%%%%",
"%%%%%%%%%% O$$$$$$$O  o@ %%%%%%%",
"%%%%%%%%%% #O$$$$$O# % @o %%%%%%",
"%%%%%%%%%  # #$$$# #   oo %%%%%%",
"%%%%%%%% O $X #$# X$ O XX %%%%%%",
"%%%%%%%% ## $#$$$#$ ##   %%%%%%%",
"%%%%%%%% .O$ O#$#O $O. %%%%%%%%%",
"%%%%%%% #O #$     $O O# %%%%%%%%",
"%%%%%%  O % $$#O#$$ + O  %%%%%%%",
"%%%%%% O#  O OO#OO O  #O %%%%%%%",
"%%%%% $O   #OO$$$OO#   $# %%%%%%",
"%%%%  O$ $ $O$$@$$O$ $ $O  %%%%%",
"%%%% $. #O ###@@@### O# .# %%%%%",
"%%%% OO    O#ooooo#O    #O %%%%%",
"%%%%%  %%%% O  o  O %%%%  %%%%%%",
"%%%%%%%%%%% OO   OO %%%%%%%%%%%%",
"%%%%%%%%%% O#O % O#O %%%%%%%%%%%",
"%%%%%%%%%% O## % ##O %%%%%%%%%%%",
"%%%%%%%%%% #O# % #O# %%%%%%%%%%%",
"%%%%%%%%%%%   %%%   %%%%%%%%%%%%",
"%%%%%%%%%%%%%%%%%%%%%%%%%%%%%%%%",
"%%%%%%%%%%%%%%%%%%%%%%%%%%%%%%%%",
"%%%%%%%%%%%%%%%%%%%%%%%%%%%%%%%%",
"%%%%%%%%%%%%%%%%%%%%%%%%%%%%%%%%"
};
