/* XPM */
static char *result[] = {
/* columns rows colors chars-per-pixel */
"32 32 9 1 ",
"  c black",
". c #406068",
"X c #803880",
"o c #A868B0",
"O c #9098A0",
"+ c #D090D8",
"@ c #D0D8D8",
"# c #F8F8F8",
"$ c None",
/* pixels */
"$$$$$$$$$$$$$$$$$$$$$$$$$$$$$$$$",
"$$$$$$$$$$$$$$$$$$$$$$$$$$$$$$$$",
"$$$$$$$  $$$$$$$$$$$$$$$$$$$$$$$",
"$$$$$$ @# $$$$$$$$$$$$$$$$$$$$$$",
"$$$$$$ #@ $$$$$$$$$$$$$$$$$$$$$$",
"$$$$$  #OO   $$$$$$$$$$$$$$$$$$$",
"$$$$ O###@ ## $$$$$$$$$$$$$$$$$$",
"$$$ @#### #@O $$$$$$$$$$$$$$$$$$",
"$$ @######OO $$$$$$$$$$$$$$$$$$$",
"$$ ###O###@ O $$$$$$$$$$$$$$$$$$",
"$$ ##O###@@O@ $$$$$$$$$$$$$$$$$$",
"$ O#O ###@OO @ $$$$$$$$$$$$$$$$$",
"$ @@ X@##@O $ O $$$$    $$$$$$$$",
"$ O##@@#OO O  O $$$ o+++  $$$$$$",
"$$ O@OOO@@.#O. $$$ +++oo++ $$$$$",
"$$$     @O#@@O $$ o+oo   o+ $$$$",
"$$$$$$$ O@.O.@   o+oX $$$ o+ $$$",
"$$$$    O@. @. @o++o $$$$$ + $$$",
"$$$ @.OO OO@ #@ @ooX $$$$$ ++ $$",
"$$$ O @. @#@@ O@ oo $$$$$$ o+ $$",
"$$$  O..     ## OoX $$$$$$ o++ $",
"$$$$  O  #.##@ @OX $$$$$$$ o+o $",
"$$$$$$  #@OO@ @#@ $$$$$$$$$ oo $",
"$$$$$$$ @O #. O@@ $$$$$$$$$$  $$",
"$$$$$$$$   @O  O@O $$$$$$$$$$$$$",
"$$$$$$$$$ O   @@O $$$$$$$$$$$$$$",
"$$$$$$$$$$   @@O $$$$$$$$$$$$$$$",
"$$$$$$$$$$$$ @O $$$$$$$$$$$$$$$$",
"$$$$$$$$$$$$$  $$$$$$$$$$$$$$$$$",
"$$$$$$$$$$$$$$$$$$$$$$$$$$$$$$$$",
"$$$$$$$$$$$$$$$$$$$$$$$$$$$$$$$$",
"$$$$$$$$$$$$$$$$$$$$$$$$$$$$$$$$"
};
