/* XPM */
static char *result[] = {
/* columns rows colors chars-per-pixel */
"32 32 9 1 ",
"  c black",
". c #406068",
"X c #803880",
"o c #A868B0",
"O c #9098A0",
"+ c #D090D8",
"@ c #D0D8D8",
"# c #F8F8F8",
"$ c None",
/* pixels */
"$$$$$$$$$$$$$$$$$$$$$$$$$$$$$$$$",
"$$$$$$$$$$$$$$$$$  $$$$$$$$$$$$$",
"$$$$$$$$$$$$$$$$ #@ $$$$$$$$$$$$",
"$$$$$$$$$$$$$$$$ @# $$$$$$$$$$$$",
"$$$$$$$$$$$$$   OO#  $$$$$$$$$$$",
"$$$$$$$$$$$$ ## @###O $$$$$$$$$$",
"$$$$$$$$$$$$ O@# ####@ $$$$$$$$$",
"$$$$$$$$$$$$$ OO######@ $  $$$$$",
"$$$$$$$$$$$$ O @###O###  O@ $$$$",
"$$$$$$$$$$$$ @O@@###O## OOO. $$$",
"$$$$$$$$$$$ @ OO@### O#O . @ $$$",
"$$$$$$$$$$$ O  O@##@X @@ O  $$$$",
"$$$$$$$$$$$ O $ OO#@@##O  @ $$$$",
"$$$$$$$$$$$$ O OO@OOO@O .  $$$$$",
"$$$$$$$$$$$$ .O#.@@    . $$$$$$$",
"$$$$$$$$$$$$ O@@#OOO.   $$$$$$$$",
"$$$$$$$$$$$$ @.O.@@@ .O@ $$$$$$$",
"$$$$$$   $$$ .O@ .@ O@ O@ $$$$$$",
"$$$$$ ++o  $$ .#.O .@## O $$$$$$",
"$$$$ +oo++o    @# @@#    $$$$$$$",
"$$$ +o  oo+++X. O## O## $$$$$$$$",
"$$$ + $$ Xo++oO ## .    $$$$$$$$",
"$$$ + $$$ XoooO@  @O+ . $$$$$$$$",
"$$$ o+  $$ XooO@@#@oX  $$$$$$$$$",
"$$$$ +++ $$  XX@##@X O  $$$$$$$$",
"$$$$ o+++ $$$  O@@O ..O@ $$$$$$$",
"$$$$$ ooo $$$$$ @O $    $$$$$$$$",
"$$$$$$   $$$$$$$ O@  $$$$$$$$$$$",
"$$$$$$$$$$$$$$$ OO@@O $$$$$$$$$$",
"$$$$$$$$$$$$$$$$  O@@ $$$$$$$$$$",
"$$$$$$$$$$$$$$$$$$    $$$$$$$$$$",
"$$$$$$$$$$$$$$$$$$$$$$$$$$$$$$$$"
};
