/* XPM */
static char *result[] = {
/* columns rows colors chars-per-pixel */
"32 32 15 1 ",
"  c black",
". c #703800",
"X c #A05818",
"o c #A06800",
"O c #D87018",
"+ c #E03860",
"@ c #B08020",
"# c #D8B000",
"$ c #F8F000",
"% c #F89040",
"& c #D0B860",
"* c #F888A8",
"= c #F8F098",
"- c #F8F8F8",
"; c None",
/* pixels */
";;;;;;;;;;;;;;;;;;;;;;;;;;;;;;;;",
";;;;;;;;;;;;;;;;;;;;;;;;;;;;;;;;",
";;;;;;;;;;;;;;;;;;;;;;;;;;;;;;;;",
";;;;;;;;;;;;;;;;;;;    ;;;;;;;;;",
";;;;;;;;;;;;;;;;;  #$$# ;;;;;;;;",
";;;;;;;;;;;;;;;; #$$$$$# ;;;;;;;",
";;;;;;;;;;;;;;; #$$####o# ;;;;;;",
";;;;;;;;;;;;;;; #$##+++#o  ;;;;;",
";;;;;;;;;;;;;; #$##+++++#oO ;;;;",
";;;;;;;;;;;;;; ###++  - +O=% ;;;",
";;;;;;;;;;;;; ###++ . -  XO% ;;;",
";;;;;;;;;;;; ###++ ....==   ;;;;",
";;;;;;;;;;  ###++* X..== ;;;;;;;",
";;;;;;;;; ###+++* XX.@   ;;;;;;;",
";;;;;;;;;; ++++* XXOX&@ O ;;;;;;",
";;;;;;;;;;; +**  X%O @& @ ;;;;;;",
";;;;    ;;;    @XO%%O = @@ ;;;;;",
";;; +**+   .XX@&&OO%O & @& ;;;;;",
";;;; ++++X.XX&&@&OOO%O ; & ;;;;;",
";;; *****+XX&=@&=&OO%O ;;  ;;;;;",
";;; +**++  @@&X=&=&OO%O ;;;;;;;;",
";;;; ++     X@ =&==&O%O ;;;;;;;;",
";;;;;  ;;;;;   @&=&=&OO ;;;;;;;;",
";;;;;;;;;;;;;;; &=&=&&&@ ;;;;;;;",
";;;;;;;;;;;;;;;; &&==&=& ;;;;;;;",
";;;;;;;;;;;;;;;;; @&=&== ;;;;;;;",
";;;;;;;;;;;;;;;;;;  =&&= ;;;;;;;",
";;;;;;;;;;;;;;;;;;;;  @= ;;;;;;;",
";;;;;;;;;;;;;;;;;;;;;;   ;;;;;;;",
";;;;;;;;;;;;;;;;;;;;;;;;;;;;;;;;",
";;;;;;;;;;;;;;;;;;;;;;;;;;;;;;;;",
";;;;;;;;;;;;;;;;;;;;;;;;;;;;;;;;"
};
