/* XPM */
static char *result[] = {
/* columns rows colors chars-per-pixel */
"32 32 11 1 ",
"  c black",
". c #980000",
"X c #D03800",
"o c #A06800",
"O c #B87020",
"+ c #D8B000",
"@ c #F8F000",
"# c #F88058",
"$ c #D8A860",
"% c #F8E098",
"& c None",
/* pixels */
"&&&&&&&&&&&&&&&&&&&&&&&&&&&&&&&&",
"&&&&&&&&&&&&&&&&&&&&&&&&&&&&&&&&",
"&&&&&&&&&&&&&&&&&&&&&&&&&&&&&&&&",
"&&&&&&&&&&&&&&&&&&&&&&&&&&&&&&&&",
"&&&&&&&&&&&&&&&&&&&&&&&&&&&&&&&&",
"&&&&&&&&&&&&&&&&&&&&&&&&&&&&&&&&",
"&&&&&&&&&&&&&&&&&&&&&&&&&&&&&&&&",
"&&&&&&&&&&&&&&&&&&&&&&&&&&&&&&&&",
"&&&&&&&&+o@@&&&&&&&&&&&&&&&&&&&&",
"&&&&&&&@+@+++@&&&&&&&&&&&&&&&&&&",
"&&&&&&+@@++###@&&&&&&@@@@&&&&&&&",
"&&&&&&@@@+#XX.&&&&&@@@++@@&&&&&&",
"&&&&  +@++oX.X&&&&&@@+#++@@&&&&&",
"&&&& $o@o$   .X##X@++#X#+&@&&&&&",
"&&&&& %o%%%% X#XX. +oXXX#&&&&&&&",
"&&&&& %%%%o .#X$O$O .X&&&&&&&&&&",
"&&&&& $%%$%oXX$%%%$ &&&&&&&&&&&&",
"&&&&&  %  $o$$%%%%$O &&&&&&&&&&&",
"&&&&& %%%$oO$%%%%%$$.#&&&&&&&&&&",
"&&&&& O%O  $%%%$O$%$.X#&&&&&&&&&",
"&&&&&&   o$ o%o  O$o &&&&&&&&&&&",
"&&&&&&&& $ o$.X#&   &&&&&&&&&&&&",
"&&&&&&&&& %$.X#&&&&&&&&&&&&&&&&&",
"&&&&&&&&&&   &&&&&&&&&&&&&&&&&&&",
"&&&&&&&&&&&&&&&&&&&&&&&&&&&&&&&&",
"&&&&&&&&&&&&&&&&&&&&&&&&&&&&&&&&",
"&&&&&&&&&&&&&&&&&&&&&&&&&&&&&&&&",
"&&&&&&&&&&&&&&&&&&&&&&&&&&&&&&&&",
"&&&&&&&&&&&&&&&&&&&&&&&&&&&&&&&&",
"&&&&&&&&&&&&&&&&&&&&&&&&&&&&&&&&",
"&&&&&&&&&&&&&&&&&&&&&&&&&&&&&&&&",
"&&&&&&&&&&&&&&&&&&&&&&&&&&&&&&&&"
};
