/* XPM */
static char *result[] = {
/* columns rows colors chars-per-pixel */
"32 32 14 1 ",
"  c black",
". c #980000",
"X c #D03800",
"o c #A06800",
"O c #B87020",
"+ c #D8B000",
"@ c #F8F000",
"# c #F88058",
"$ c #D8A860",
"% c #0060B0",
"& c #1898E0",
"* c #F8E098",
"= c #F8F8F8",
"- c None",
/* pixels */
"--------------------------------",
"--------------------------------",
"-------------@+o----------------",
"--------------@@+o--------------",
"------------#+@@@+o-------------",
"-----------#.#@@@@o-------------",
"-------------X#@@+o-------------",
"-------------X  +o--------------",
"------------ $@+ o -------------",
"----------- OX+@+ O ------------",
"----------- .+@+@+o ------------",
"----------  .#@+++o  -----------",
"---------- $*X+@+o*$ -----------",
"----------- $*.+o*$ ------------",
"---------#X O$$o$$O ------------",
"---------.#. =$*$= -------------",
"----------.O  =*=  .X#----------",
"---------- $ O***O $X.----------",
"---------- OO $*$ O$.-----------",
"----------- O$   $O  -----------",
"----------- $*$*$*O ------------",
"----------- $***** X#-----------",
"----------- o*o$o$ .------------",
"------------ $o  % -------------",
"-----------#Xo$ -  -------------",
"------------#.$ ----------------",
"------------- o ----------------",
"------------- & ----------------",
"-------------  -----------------",
"--------------------------------",
"--------------------------------",
"--------------------------------"
};
