/* XPM */
static char *result[] = {
/* columns rows colors chars-per-pixel */
"32 32 14 1 ",
"  c black",
". c #980000",
"X c #D03800",
"o c #A06800",
"O c #B87020",
"+ c #D8B000",
"@ c #F8F000",
"# c #F88058",
"$ c #D8A860",
"% c #0060B0",
"& c #1898E0",
"* c #F8E098",
"= c #F8F8F8",
"- c None",
/* pixels */
"--------------------------------",
"--------------------------------",
"--------------------------------",
"------------------+@@@+---------",
"---------------+@@@@@@@+--------",
"----------------o++++@@@--------",
"--------------@@++X#o++o--------",
"-------------@@+#XXXXO*$ -------",
"------------oX##.X. .* =$ ------",
"--------------X... $**O ** -----",
"----------------Xo  $****$ -----",
"----------------#.$o$$$o  ------",
"-----------------#o*$o  --------",
"-----------------Xo**o ---------",
"----------------X#X$*$  --------",
"---------------X#X$***o  -------",
"-------+-----X#X.o***** o ------",
"-------o+++-X. o$******* o -----",
"-----o+@@@@@+ $*****X o$*  -----",
"-------+@@## $**$*$.#X o$ ------",
"------+X##X. $**$O  . %& -------",
"------o#XX-- O**O ----   -------",
"------#X---XX $* ---------------",
"------X---..#XO$  --------------",
"------------..$  % -------------",
"------------- O -  -------------",
"------------- %& ---------------",
"--------------   ---------------",
"--------------------------------",
"--------------------------------",
"--------------------------------",
"--------------------------------"
};
