/* XPM */
static char *result[] = {
/* columns rows colors chars-per-pixel */
"32 32 13 1 ",
"  c black",
". c #980000",
"X c #D03800",
"o c #A06800",
"O c #B87020",
"+ c #D8B000",
"@ c #F8F000",
"# c #F88058",
"$ c #D8A860",
"% c #0060B0",
"& c #1898E0",
"* c #F8E098",
"= c None",
/* pixels */
"================================",
"================================",
"================================",
"==============+=================",
"===============@================",
"==============+@+o==============",
"=============+@++o==============",
"==========   #+@o#   ===========",
"========== *$X#+XX$* ===========",
"=========== O$X#.*O ============",
"=========== $*$.X$$ ============",
"=========== O$*#O$O ============",
"============ O*#XO =============",
"============ $$X.$ =============",
"============ O$X.X =============",
"=========== o$O.+.o ============",
"=========== $$O+@+O ============",
"=========== $OX@@#X ============",
"=========== O$X#@#. ============",
"=========== $*$X@X$ ============",
"=========== **O$#$$#============",
"=========== $*O.X##X============",
"============#$.  X =============",
"============X#X  % =============",
"=============..   ==============",
"============= $ ================",
"============= & ================",
"==============  ================",
"================================",
"================================",
"================================",
"================================"
};
