/* XPM */
static char *result[] = {
/* columns rows colors chars-per-pixel */
"32 32 11 1 ",
"  c black",
". c #980000",
"X c #D03800",
"o c #F88058",
"O c #502898",
"+ c #8860B8",
"@ c #6080A8",
"# c #B090D8",
"$ c #B8C8F0",
"% c #F8F8F8",
"& c None",
/* pixels */
"&&&&&&&&&&&&&&&&&&&&&&&&&&&&&&&&",
"&&&&&&&&&&&&&&&&&&&&&&&&&&&&&&&&",
"&&&&&&&&&&&&&&&&&&&&&&&&&&&&&&&&",
"&&&&&&&&&&&&&&& &&&&&&&&&&&&&&&&",
"&&&&&   &&&  & # &  &&&   &&&&&&",
"&&&&& #+  & # O#O # &  +# &&&&&&",
"&&&&& +#+O O+#+++#+O O+#+ &&&&&&",
"&&&&&& ##+OO+++++++OO+#+ &&&&&&&",
"&&&&&& O##+++++++++++#+O &&&&&&&",
"&&&&&&& O++++++++++++OO &&&&&&&&",
"&&&&&&& ++++++++++++++O &&&&&&&&",
"&&&&&&& ++  +++++++  +O &&&&&&&&",
"&&&&    ++.. ++++O ..+O    &&&&&",
"&&& +#O+++Xo% O+O %oX+OO+#+ &&&&",
"&&& ###++++X o + o X+OO+### &&&&",
"&&& O++++O OO++++OOO  O+++O &&&&",
"&&&&  OO++$         $OOOO  &&&&&",
"&&&&&&  O+.%@%@%@%@$.+O  &&&&&&&",
"&&&&&&& O+.. ..... ..+O &&&&&&&&",
"&&&&&&& O+.X ..... X.+O &&&&&&&&",
"&&&&&&&& O.X X..XX ..O &&&&&&&&&",
"&&&&&&&&  +. XX.XX .+  &&&&&&&&&",
"&&&&&&& +#  .XX.XX.  #+ &&&&&&&&",
"&&&&&&&     .XX.XX.     &&&&&&&&",
"&&&&&&&&&&& .oX.XX. &&&&&&&&&&&&",
"&&&&&&&&&&&& XooXX &&&&&&&&&&&&&",
"&&&&&&&&&&&& .XXX. &&&&&&&&&&&&&",
"&&&&&&&&&&&&&     &&&&&&&&&&&&&&",
"&&&&&&&&&&&&&&&&&&&&&&&&&&&&&&&&",
"&&&&&&&&&&&&&&&&&&&&&&&&&&&&&&&&",
"&&&&&&&&&&&&&&&&&&&&&&&&&&&&&&&&",
"&&&&&&&&&&&&&&&&&&&&&&&&&&&&&&&&"
};
