/* XPM */
static char *result[] = {
/* columns rows colors chars-per-pixel */
"32 32 12 1 ",
"  c black",
". c #980000",
"X c #D03800",
"o c #F88058",
"O c #303888",
"+ c #502898",
"@ c #8860B8",
"# c #6080A8",
"$ c #B090D8",
"% c #B8C8F0",
"& c #F8F8F8",
"* c None",
/* pixels */
"********************************",
"********************************",
"********************************",
"********************************",
"********************************",
"*******   **** ** **************",
"******* $@ ** $  $ *  ***   ****",
"******* @$@ * $@+$+ $ ** @$ ****",
"******* +$$@ +@@@@@$@+  @$@ ****",
"******** @$@+@@@@@@@@++@$@ *****",
"******** +@$@@@@@@@@@@@$@+ *****",
"******   +@@@@@@@@@@@@@@+ ******",
"***** +@ @@@@@@@@@@@@@@++ ******",
"**** @$+ @  @@@@@@@  @@++ ******",
"*** @$@ @@.. @@@@+ ..@@@++ *****",
"*** +@+ @@Xo& +@+ &oX@@@++@ ****",
"**** +  @@@X o @ o X@@@@+@$@ ***",
"***** * @@ ++@@@@+++ +@+ $$@ ***",
"******* +@%         %+@ +$@+ ***",
"******* +@ &#&#&#&#% @@ @@+ ****",
"******** @@ #&#&#&# @@++ + *****",
"******** +@@+ O#O +@@@++  ******",
"*********  +@@@@@@@@@+++ *******",
"******** @$@++@@@@+++++ ********",
"******** ++@+  +++  +++ ********",
"********* ++@ *    +@+ *********",
"**********   ******   **********",
"********************************",
"********************************",
"********************************",
"********************************",
"********************************"
};
