/* XPM */
static char *result[] = {
/* columns rows colors chars-per-pixel */
"32 32 5 1 ",
"  c black",
". c #502898",
"X c #8860B8",
"o c #B090D8",
"O c None",
/* pixels */
"OOOOOOOOOOOOOOOOOOOOOOOOOOOOOOOO",
"OOOOOOOOOOOOOOOOOOOOOOOOOOOOOOOO",
"OOOOOOOOOOOOOOOOOOOOOOOOOOOOOOOO",
"OOOOOOOOOOOOOOOOOOOOOOOOOOOOOOOO",
"OOOOOOOOOOOOOOOOOOOOOOOO   OOOOO",
"OOOOOOOOOOOOOOOOOOOOOOO Xo OOOOO",
"OOOOOO   OOOOOOO OO  O XoX OOOOO",
"OOOOOO oX  O  O o  o  XoX OOOOOO",
"OOOOOO XoX.  o X.X ....X. OOOOOO",
"OOOOOOO ooX...X.o.XX.X.. OOOOOOO",
"OOOOOOO XoXX.XXXX.XXXX.. OOOOOOO",
"OOOOOOOO XX.X..X.o.X..X.. OOOOOO",
"OOOOOOOO .XXX.XXXX.XX.X..X OOOOO",
"OOOOOOO  .XXXXXXX.o.XXX...X OOOO",
"OOOOOO .XXXXXX..XXoXX.....X. OOO",
"OOOOO XXoXXXXX.XX.X.XX.X...X OOO",
"OOOO XooX.XXXXXXXX.XXXXX.. . OOO",
"OOO XooX..XXXX..X.X.X..X..  OOOO",
"OOO oXX. .XXXX.X.XoX.X.X.. OOOOO",
"OOO XX.  ..XXXXXX.X.XXXX.. OOOOO",
"OOOO . O ..XXXXXXX.XXXX.. OOOOOO",
"OOOOO OOO ..XXXXX.X.XX... OOOOOO",
"OOOOOOOOO ....XXXX.XXX. . OOOOOO",
"OOOOOOOOOO X  ..XXXXX. . OOOOOOO",
"OOOOOOOOOO XX. ..XXXX. . OOOOOOO",
"OOOOOOOOOOO   O  .XX. XX OOOOOOO",
"OOOOOOOOOOOOOOOOO  X. ..X OOOOOO",
"OOOOOOOOOOOOOOOOOOO  O   OOOOOOO",
"OOOOOOOOOOOOOOOOOOOOOOOOOOOOOOOO",
"OOOOOOOOOOOOOOOOOOOOOOOOOOOOOOOO",
"OOOOOOOOOOOOOOOOOOOOOOOOOOOOOOOO",
"OOOOOOOOOOOOOOOOOOOOOOOOOOOOOOOO"
};
