/* XPM */
static char *result[] = {
/* columns rows colors chars-per-pixel */
"32 32 10 1 ",
"  c black",
". c #47676F",
"X c #D73F00",
"o c #7F8F97",
"O c #1F9FE7",
"+ c #AFB7BF",
"@ c #FFE79F",
"# c #D7DFDF",
"$ c white",
"% c None",
/* pixels */
"%%%%%%%%%%%%%%   %%%%%%%%%%%%%%%",
"%@%%%%%%%%%%% #$o %%%%%%%%%%%@%%",
"%$%%%%%%%%%%% . . %%%%%%%%%%%$%%",
"%$$$@%%%%%%%%% + %%%%%%%%%@$$@%%",
"%$$$@%%%%%%%%     %%%%%%%%$$@@%%",
"%%%$@%%%%%%% #ooo. %%%%%%%$$%%%%",
"%%%$$%%%%%% .o$ $o. %%%%%%$@%%%%",
"%%%@$$@%%%  o$   $o  %%%$$$@%%%%",
"%%%%%%%%% . o#$ $#o . %%%%%%%%%%",
"%%%%%%%%% o oo###o. o %%%%%%%%%%",
"%%%%%%%%% + ..ooo.. + %%%%%%%%%%",
"%%%%%%%%% +  $...$  + %%%%%%%%%%",
"%%%%%%%%% o  +   +  o %%%%%%%%%%",
"%@$$@%%%% O % %%% % O %%%%@$$@%%",
"%%%$$%%%%  %%%%%%%%%  %%%%$$%%%%",
"%%%@$$@%%%%%%%%%%%%%%%%%@$$@%%%%",
"%%%%%%@%%%%%%%%%%%%%%%%%@%%%%%%%",
"%%%%%%%%%%%%%%%%%%%%%%%%%%%%%%%%",
"     %%%   %%%%%%%%%   %%%     %",
" O++o % oo. %%%%%%% .o. % ++oO %",
"%    o o++o. %%%%% oooo. o    %%",
" Xoo. o+oooo. %%% .+oooo. .o.X %",
"      oo##oo. %%% +oo#+o.      %",
"%%%%  .#$ #o. %%% oo$ #+.  %%%%%",
"%%% #. #   o. %%% .+   + .# %%%%",
"%%% .o  # +. %%%%% o# #  o. %%%%",
"%%%%   o    %%%%%%%    .   %%%%%",
"%%%%% o . %%%%%%%%%%% . o %%%%%%",
"%%%% X o %%@%%%%%%%@%% o X %%%%%",
"%%%%  O %%%$@%%%%%@$%%% O  %%%%%",
"%%%%%% %%%%@$%%%%%$@%%%% %%%%%%%",
"%%%%%%%%%%%%$%%%%%$%%%%%%%%%%%%%"
};
