/* XPM */
static char *result[] = {
/* columns rows colors chars-per-pixel */
"36 36 9 1 ",
"  c black",
". c #47676F",
"X c #D73F00",
"o c #7F8F97",
"O c #1F9FE7",
"+ c #AFB7BF",
"@ c #D7DFDF",
"# c white",
"$ c None",
/* pixels */
"$$$$$$$$$$$$$$$$$$$$$$$$$$$$$$$$$$$$",
"$$$$$$$$$$$$$$$$$$$$$$$$$$$$$$$$$$$$",
"$$$$$$$$$$$$$$$$$$$$$$$$$$$$$$$$$$$$",
"$$$$$$$$$$$$$$$$$$$$$$$$$$$$$$$$$$$$",
"$$$$$$$$$$$$$$$$$$$$$$$$$$$$$$$$$$$$",
"$$$$$$$$$$$$$$$$$$$$$$$$$$$$$$$$$$$$",
"$$$$$$$$$$$$$$$$$   $$$$$$$$$$$$$$$$",
"$$$$$$$$$$$$$$$$ @.@ $$$$$$$$$$$$$$$",
"$$$$$$$$$$$$$    o@o $$$$$$$$$$$$$$$",
"$$$$$$$$$$$$$ X+     $$$$$$$$$$$$$$$",
"$$$$$$$$$$$$$$  o @ . $$$$$$$$$$$$$$",
"$$$$$$$$$$$$$  ooo ... $$$$$$$$$$$$$",
"$$$$$$$$$$$$$ O@oo.     $$$$$$$$$$$$",
"$$$$$$$$$$$$$  #@o+ X+o $$$$$$$$$$$$",
"$$$$$$$$$$$$    #oo.   o $$$$$$$$$$$",
"$$$$$$$$$$$ O  @@oo.   o $$$$$$$$$$$",
"$$$$$$$$$$$  oo ooo Oo. $$$$$$$$$$$$",
"$$$$$$$$$$ X.+ # o.    $$$$$$$$$$$$$",
"$$$$$$$$$$  #oo .      $$$$$$$$$$$$$",
"$$$$$$$$$$$ #ooo..      $$$$$$$$$$$$",
"$$$$$$$$$$$ +oo.. o O++o $$$$$$$$$$$",
"$$$$$$$$$$$ Xo.. #+o    o $$$$$$$$$$",
"$$$$$$$$$$$      ##o X+oo $$$$$$$$$$",
"$$$$$$$$$$$$$ O.  @oo     $$$$$$$$$$",
"$$$$$$$$$$$$$$   @+oo.... $$$$$$$$$$",
"$$$$$$$$$$$$$$$$  .o.  . $$$$$$$$$$$",
"$$$$$$$$$$$$$$$$ O . @o $$$$$$$$$$$$",
"$$$$$$$$$$$$$$$$$    o. $$$$$$$$$$$$",
"$$$$$$$$$$$$$$$$$$ X+   $$$$$$$$$$$$",
"$$$$$$$$$$$$$$$$$$$    $$$$$$$$$$$$$",
"$$$$$$$$$$$$$$$$$$$$$$$$$$$$$$$$$$$$",
"$$$$$$$$$$$$$$$$$$$$$$$$$$$$$$$$$$$$",
"$$$$$$$$$$$$$$$$$$$$$$$$$$$$$$$$$$$$",
"$$$$$$$$$$$$$$$$$$$$$$$$$$$$$$$$$$$$",
"$$$$$$$$$$$$$$$$$$$$$$$$$$$$$$$$$$$$",
"$$$$$$$$$$$$$$$$$$$$$$$$$$$$$$$$$$$$"
};
