/* XPM */
static char *result[] = {
/* columns rows colors chars-per-pixel */
"36 36 10 1 ",
"  c black",
". c #47676F",
"X c #9F0000",
"o c #D73F00",
"O c #7F8F97",
"+ c #1F9FE7",
"@ c #AFB7BF",
"# c #D7DFDF",
"$ c white",
"% c None",
/* pixels */
"%%%%%%%%%%%%%%%%%%%%%%%%%%%%%%%%%%%%",
"%%%%%%%%%%%%%%%%%%%%%%%%%%%%%%%%%%%%",
"%%%%%%%%%%%%%%%%%%%%%%%%%%%%%%%%%%%%",
"%%%%%%%%%%%%%%%%%%%%%%%%%%%%%%%%%%%%",
"%%%%%%%%%%%%%%%%%%%%%%%%%%%%%%%%%%%%",
"%%%%%%%%%%%%%%%%   %%%%%%%%%%%%%%%%%",
"%%%%%%%%%%%%%%% #.# %%%%%%%%%%%%%%%%",
"%%%%%%%%%%%%%%% O#O %%%%%%%%%%%%%%%%",
"%%%%%%%%%%%%%%%     %%%%%%%%%%%%%%%%",
"%%%%%%%%%%%%%% . # O %%%%%%%%%%%%%%%",
"%%%%%%%%%%%%% ... OOO %%%%%%%%%%%%%%",
"%%%%%%%%%%%%% ....OO# %%%%%%%%%%%%%%",
"%%%%%%%%%%%%% . .@O#$ %%%%%%%%%%%%%%",
"%%%%%%%%%%%%%  @ OO$   %%%%%%%%%%%%%",
"%%%%%%%%%%%%% OO OO## . %%%%%%%%%%%%",
"%%%%%%%%%%%% o . OOO     %%%%%%%%%%%",
"%%%%%%%%%%%%  O ..O $ .OO %%%%%%%%%%",
"%%%%%%%%%% % +       .OO@. %%%%%%%%%",
"%%%%%%%%% + % %%%%% ..OOO$ %%%%%%%%%",
"%%%%%%%% oO %%%%%%% ..OOO$ %%%%%%%%%",
"%%%%%%%% @ @   %%%% ...OO@ %%%%%%%%%",
"%%%%%%%% @ O OO %%%% ...O %%%%%%%%%%",
"%%%%%%%%% O. O@O %%%     %%%%%%%%%%%",
"%%%%%%%%  O .OO@$ % +.. %%%%%%%%%%%%",
"%%%%%%%% . .OOO$$ %  X %%%%%%%%%%%%%",
"%%%%%%%% ...OOO#  %%% %%%%%%%%%%%%%%",
"%%%%%%%% ....OO@# %%%%%%%%%%%%%%%%%%",
"%%%%%%%%% .  .O.  %%%%%%%%%%%%%%%%%%",
"%%%%%%%%%% O# .   %%%%%%%%%%%%%%%%%%",
"%%%%%%%%%% .O  Oo %%%%%%%%%%%%%%%%%%",
"%%%%%%%%%%%  %   %%%%%%%%%%%%%%%%%%%",
"%%%%%%%%%%%%%%%%%%%%%%%%%%%%%%%%%%%%",
"%%%%%%%%%%%%%%%%%%%%%%%%%%%%%%%%%%%%",
"%%%%%%%%%%%%%%%%%%%%%%%%%%%%%%%%%%%%",
"%%%%%%%%%%%%%%%%%%%%%%%%%%%%%%%%%%%%",
"%%%%%%%%%%%%%%%%%%%%%%%%%%%%%%%%%%%%"
};
