/* XPM */
static char *result[] = {
/* columns rows colors chars-per-pixel */
"36 36 9 1 ",
"  c black",
". c #47676F",
"X c #D73F00",
"o c #7F8F97",
"O c #1F9FE7",
"+ c #AFB7BF",
"@ c #D7DFDF",
"# c white",
"$ c None",
/* pixels */
"$$$$$$$$$$$$$$$$$$$$$$$$$$$$$$$$$$$$",
"$$$$$$$$$$$$$$$$$$$$$$$$$$$$$$$$$$$$",
"$$$$$$$$$$$$$$$$$$$$$$$$$$$$$$$$$$$$",
"$$$$$$$$$$$$$$$$$$$$$$$$$$$$$$$$$$$$",
"$$$$$$$$$$$$$$$$$$$$$$$$$$$$$$$$$$$$",
"$$$$$$$$$$$$$$$$$$$$$$$$$$$$$$$$$$$$",
"$$$$$$$$$$$$$$$$$$$$$$$$$$$$$$$$$$$$",
"$$$$$$$$$$$$$$$$   $$$$$$$$$$$$$$$$$",
"$$$$$$$$$$ $$$$ @.@ $$$$ $$$$$$$$$$$",
"$$$$$$$$$ X $$$ o#o $$$ X $$$$$$$$$$",
"$$$$$$$$   o $$$   $$$ o   $$$$$$$$$",
"$$$$$$$$ O  + $  @  $ +  O $$$$$$$$$",
"$$$$$$$$$ +.o  .+ o.  o.+ $$$$$$$$$$",
"$$$$$$$ $$ o. .oo+oo. .o $$$$$$$$$$$",
"$$$$$$ O $$   .o+@+o.   $$$ $$$$$$$$",
"$$$$$$ .+ $$$ .ooooo. $$$$ O $$$$$$$",
"$$$$$ X .o $  ..ooo..  $$ +. $$$$$$$",
"$$$$$ .+ o  .. ..... ..  o. X $$$$$$",
"$$$$$$ .o. ooo. ... .oo. o +. $$$$$$",
"$$$$$$$   oo@oo.   .o+oo..o. $$$$$$$",
"$$$$$$$$$ o+ooo.. ..+ooo. . $$$$$$$$",
"$$$$$$$$  .oooo.. ..oooo.  $$$$$$$$$",
"$$$$$$$ +. .oo... ...oo. .+ $$$$$$$$",
"$$$$$$$ .@  .... $ ....  @. $$$$$$$$",
"$$$$$$$$  $     $$$     $  $$$$$$$$$",
"$$$$$$$$$$ .o $$$$$$$ o. $$$$$$$$$$$",
"$$$$$$$$$$ o o $$$$$ o o $$$$$$$$$$$",
"$$$$$$$$$$ X O $$$$$ O X $$$$$$$$$$$",
"$$$$$$$$$$  $  $$$$$  $  $$$$$$$$$$$",
"$$$$$$$$$$$$$$$$$$$$$$$$$$$$$$$$$$$$",
"$$$$$$$$$$$$$$$$$$$$$$$$$$$$$$$$$$$$",
"$$$$$$$$$$$$$$$$$$$$$$$$$$$$$$$$$$$$",
"$$$$$$$$$$$$$$$$$$$$$$$$$$$$$$$$$$$$",
"$$$$$$$$$$$$$$$$$$$$$$$$$$$$$$$$$$$$",
"$$$$$$$$$$$$$$$$$$$$$$$$$$$$$$$$$$$$",
"$$$$$$$$$$$$$$$$$$$$$$$$$$$$$$$$$$$$"
};
