/* XPM */
static char *result[] = {
/* columns rows colors chars-per-pixel */
"32 32 10 1 ",
"  c black",
". c #980000",
"X c #D03800",
"o c #A06800",
"O c #D8B000",
"+ c #F8F000",
"@ c #F88058",
"# c #B8C8F0",
"$ c #F8F8F8",
"% c None",
/* pixels */
"%%%%%%%%%%%%%%%%%%%%%%%%%%%%%%%%",
"%%%%%%%%%%%%%%%%%%%%%%%%%%%%%%%%",
"%%%%%%%%%%%%%%%%%%%%%%%%%%%%%%%%",
"%%%%%%%%%%%%%%%%%%%%%%%%%%%%%%%%",
"%%%%%%%%%%%%%%%%%%%%%%X%%%%%%%%%",
"%%%%%%%%%%%%%%%%%%%%%%X%%%%%%%%%",
"%%%%%%%%%%%%%%%%%%%%%XX%%X%%%%%%",
"%%%%%%%%%      %%%%%%X%%%X%%%%%%",
"%%%%%%%  XX@@@X %%%%X@X%%XX%%%%%",
"%%%%%% XX@@@@@@X %%%X@X%%%X%%%%%",
"%%%%%% X    X@ @ %%%X@@X%%%%%%%%",
"%%%%%%% #... X  X %%XX+X%%X%%%%%",
"%%%%%%% ....$ @ X %%%X++X%X%%%%%",
"%%%%%%%  .... X@@ %@%@$+X%@X%%%%",
"%%%%%% X .X@X.  X %X%+$+@%@X%%%%",
"%%%%%% . X@@@X X . %@+$+@XX%%%%%",
"%%%%%%  $.@@X. @X  %X@$@@@X%%%%%",
"%%%%%%% X@..$. @@  %%@$XXX%%%%%%",
"%%%%% %  X@@@X .@  %% @ %%%%%%%%",
"%%%% # %      o .. %% @ %%%%%%%%",
"%%%% X$ .ooOOoXX.. %% @ %%%%%%%%",
"%%%% X@.XO++.X@@X    @X %%%%%%%%",
"%%%%% XXXo+O. X . X@@X %%%%%%%%%",
"%%%%%%    oo $ $ XXX  %%%%%%%%%%",
"%%%%%%%%%%   @@X    %%%%%%%%%%%%",
"%%%%%%%%%%%% XX. %%%%%%%%%%%%%%%",
"%%%%%%%%%%%%%   %%%%%%%%%%%%%%%%",
"%%%%%%%%%%%%%%%%%%%%%%%%%%%%%%%%",
"%%%%%%%%%%%%%%%%%%%%%%%%%%%%%%%%",
"%%%%%%%%%%%%%%%%%%%%%%%%%%%%%%%%",
"%%%%%%%%%%%%%%%%%%%%%%%%%%%%%%%%",
"%%%%%%%%%%%%%%%%%%%%%%%%%%%%%%%%"
};
