/* XPM */
static char *result[] = {
/* columns rows colors chars-per-pixel */
"32 32 11 1 ",
"  c black",
". c #980000",
"X c #D03800",
"o c #A06800",
"O c #D8B000",
"+ c #F8F000",
"@ c #F88058",
"# c #485890",
"$ c #B8C8F0",
"% c #F8F8F8",
"& c None",
/* pixels */
"&&&&&&&&&&&&&&&&&&&&&&&&&&&&&&&&",
"&&&&&&&&&&&&&&&&&&&&&&&&&&&&&&&&",
"&&&&&&&&&&&&&&&&&&&&&&&&&&&&&&&&",
"&&&&&&&&&&&&&&&&&&&&&&&&&&&&&&&&",
"&&&&&&&&&&&&&&&&&&&&&&&&&&&&&&&&",
"&&&&&&&&X&&&&&&&&&&&&&&&&&&&&&&&",
"&&&&&&&&X&&&&&&     &&&&&&&&&&&&",
"&&&&&&&&XX&&&& X@@@X &&&&&&&&&&&",
"&&&&&&&XX@&&& X@@@@@X &&&&&&&&&&",
"&&&&&&&X@@X&& @@@@@@@ &&&&&&&&&&",
"&&&&&&&@+@X& X@@@@@@@X &&&&&&&&&",
"&&&&&&&@+@X& % @@@@@%  &&&&&&&&&",
"&&&&&&&@%@&&   @@@@@   &&&&&&&&&",
"&&&&&&& @ && # @@@@@ # &&&&&&&&&",
"&&&&&&& X && @@@@@@@@@ &&&&&&&&&",
"&&&&&&& X && X@@@@@@@X &&&&&&&&&",
"&&&&&&& XX  @ X@@@@@XX. &&&&&&&&",
"&&&&&&&& X @X. .XXX. @X &&&&&&&&",
"&&&&&&&& X X XX     XX@@ &&&&&&&",
"&&&&&&&&& .  XXOOoooo XX &&&&&&&",
"&&&&&&&&&&  .@XO+OOOoX  &&&&&&&&",
"&&&&&&&&&&& X@@.O+OOo@ &&&&&&&&&",
"&&&&&&&&&&&& X@X.ooo.. &&&&&&&&&",
"&&&&&&&&&&& ...    $ $ &&&&&&&&&",
"&&&&&&&&&&& %X% &&& & &&&&&&&&&&",
"&&&&&&&&&&&&   &&&&&&&&&&&&&&&&&",
"&&&&&&&&&&&&&&&&&&&&&&&&&&&&&&&&",
"&&&&&&&&&&&&&&&&&&&&&&&&&&&&&&&&",
"&&&&&&&&&&&&&&&&&&&&&&&&&&&&&&&&",
"&&&&&&&&&&&&&&&&&&&&&&&&&&&&&&&&",
"&&&&&&&&&&&&&&&&&&&&&&&&&&&&&&&&",
"&&&&&&&&&&&&&&&&&&&&&&&&&&&&&&&&"
};
