/* XPM */
static char *result[] = {
/* columns rows colors chars-per-pixel */
"32 32 11 1 ",
"  c black",
". c #980000",
"X c #D03800",
"o c #A06800",
"O c #D8B000",
"+ c #F8F000",
"@ c #F88058",
"# c #485890",
"$ c #B8C8F0",
"% c #F8F8F8",
"& c None",
/* pixels */
"&&&&&&&&&&&&&&&&&&&&&&&&&&&&&&&&",
"&&&&&&&&&&&&&&&&&&&&&&&&&&&&&&&&",
"&&&&&&&&&&&&&&&&&&&&&&&&&&&&&&&&",
"&&&&&&&&&&&&&&&&&&&&&&&&&&&&&&&&",
"&&&&&&&&&&&&&&&&&&&&&&&&&&&&&&&&",
"&&&&&&&&&&&&&&&&&&&&&&&&&&&&&&&&",
"&&&&&&&&&&&    &&&&&&&&&&&&&&&&&",
"&&&&&&&&&& X@@X &&&&&&&&&&&&&&&&",
"&&&&&&&&& X@@@@X &&&&&&&&&&&&&&&",
"&&&&&&&&  @@@@@@ &&&&&&&&&&&&&&&",
"&&&&&&& X@@X@@@@X &&&&&X&&&&&&&&",
"&&&&&& X@@@% @@@X &&&&&X&&&&&&&&",
"&&&&&& @@@@  #@@X &&&&X@X&&&&&&&",
"&&&&&& X@@@ #X@@@X &&&X+X&&&&&&&",
"&&&&&& .X@@@@@@@@X &&&@+@X&&&&&&",
"&&&&&&&  .XX@@@@@@X &&@+@X&&&&&&",
"&&&&&&&& X@@@X@@@@@ &&@%@&&&&&&&",
"&&&&&&&&&  OX@@.X@@X & @ &&&&&&&",
"&&&&&&&&&&&.@X.XX@@X & @ &&&&&&&",
"&&&&&&&&&& X..XXXX@X & @ &&&&&&&",
"&&&&&&&&& $ oOOX@X.X. @X &&&&&&&",
"&&&&&&&&& XX ooX@@X X@X &&&&&&&&",
"&&&&&&&&&& .X  XX@X XX &&&&&&&&&",
"&&&&&&&&&&&   &  XX@  &&&&&&&&&&",
"&&&&&&&&&&&&&&& %@@ &&&&&&&&&&&&",
"&&&&&&&&&&&&&&&&   &&&&&&&&&&&&&",
"&&&&&&&&&&&&&&&&&&&&&&&&&&&&&&&&",
"&&&&&&&&&&&&&&&&&&&&&&&&&&&&&&&&",
"&&&&&&&&&&&&&&&&&&&&&&&&&&&&&&&&",
"&&&&&&&&&&&&&&&&&&&&&&&&&&&&&&&&",
"&&&&&&&&&&&&&&&&&&&&&&&&&&&&&&&&",
"&&&&&&&&&&&&&&&&&&&&&&&&&&&&&&&&"
};
