/* XPM */
static char *result[] = {
/* columns rows colors chars-per-pixel */
"32 32 7 1 ",
"  c black",
". c #D03800",
"X c #F8F000",
"o c #F88058",
"O c #B8C8F0",
"+ c #F8F8F8",
"@ c None",
/* pixels */
"@@@@@@@@@@@@@@@@@@@@@@@@@@@@@@@@",
"@@@@@@@@@@@@@@@@@@@@@@@@@@@@@@@@",
"@@@@@@@@@@@@@@@@@@@@@@@@@@@@@@@@",
"@@@@@@@@@@@@@@@@@@@@@@@@@@@@@@@@",
"@@@@@@@@@@@@@@@@@@@@@@@@@@@@@@@@",
"@@@@@@@@@@@@@     @@@@@@@@@@@@@@",
"@@@@@@@@@@@@ .ooo. @@@@@@@@@@@@@",
"@@@@@@@@@@@ .ooooo. @@@@@@@@@@@@",
"@@@@@@@@@@@ ooooooo @@@@@@@@@@@@",
"@@@@@@@@@@ .ooooooo. @@@@@@@@@@@",
"@@@@@@@@@@ ooooooooo @@@@@@@@@@@",
"@@@@@@@@@@ ooooooooo @@@@@@@@@@@",
"@@@@@@@@@@ .ooooooo. @@@@@@@@@@@",
"@@@@@@@@@@  o.oooo. @@@@@@@@@@@@",
"@@@@@@@@@ o.o.ooooo. @@@@@@@@@@@",
"@@@@@@@@@ .o.o.ooooo. @@@@@@@@@@",
"@@@@@@@@@@  .o.ooo.oo. @@@@@@@@@",
"@@@@@@@@@@ ..X..ooo . @@@@@@@@@@",
"@@@@@@@@@@ .oX..oooo  @@@@@@@@@@",
"@@@@@@@@@ .o.+.ooo..oO @@@@@@@@@",
"@@@@@@@@@ .. o ooo..o. @@@@@@@@@",
"@@@@@@@@@ .o o oo. .. @@@@@@@@@@",
"@@@@@@@@@@ o o .o.   @@@@@@@@@@@",
"@@@@@@@@@ +. oo . @@@@@@@@@@@@@@",
"@@@@@@@@@@   .oo. @@@@@@@@@@@@@@",
"@@@@@@@@@@@@@ .. @@@@@@@@@@@@@@@",
"@@@@@@@@@@@@@@  @@@@@@@@@@@@@@@@",
"@@@@@@@@@@@@@@@@@@@@@@@@@@@@@@@@",
"@@@@@@@@@@@@@@@@@@@@@@@@@@@@@@@@",
"@@@@@@@@@@@@@@@@@@@@@@@@@@@@@@@@",
"@@@@@@@@@@@@@@@@@@@@@@@@@@@@@@@@",
"@@@@@@@@@@@@@@@@@@@@@@@@@@@@@@@@"
};
